G04*
G04 #@! TF.GenerationSoftware,Altium Limited,Altium Designer,18.1.9 (240)*
G04*
G04 Layer_Physical_Order=2*
G04 Layer_Color=16711680*
%FSLAX25Y25*%
%MOIN*%
G70*
G01*
G75*
%ADD10C,0.01000*%
%ADD14R,0.03347X0.03150*%
%ADD17C,0.01500*%
%ADD30C,0.03937*%
%ADD31C,0.04921*%
%ADD32C,0.06102*%
%ADD33C,0.06000*%
%ADD34C,0.02480*%
%ADD35C,0.05000*%
%ADD36R,0.05512X0.04724*%
%ADD37R,0.03150X0.03347*%
%ADD38R,0.03150X0.03543*%
G04:AMPARAMS|DCode=39|XSize=15.75mil|YSize=53.15mil|CornerRadius=0mil|HoleSize=0mil|Usage=FLASHONLY|Rotation=240.000|XOffset=0mil|YOffset=0mil|HoleType=Round|Shape=Rectangle|*
%AMROTATEDRECTD39*
4,1,4,-0.01908,0.02011,0.02695,-0.00647,0.01908,-0.02011,-0.02695,0.00647,-0.01908,0.02011,0.0*
%
%ADD39ROTATEDRECTD39*%

G04:AMPARAMS|DCode=40|XSize=59.06mil|YSize=61.02mil|CornerRadius=0mil|HoleSize=0mil|Usage=FLASHONLY|Rotation=240.000|XOffset=0mil|YOffset=0mil|HoleType=Round|Shape=Rectangle|*
%AMROTATEDRECTD40*
4,1,4,-0.01166,0.04083,0.04119,0.01032,0.01166,-0.04083,-0.04119,-0.01032,-0.01166,0.04083,0.0*
%
%ADD40ROTATEDRECTD40*%

%ADD41R,0.02165X0.02953*%
%ADD42R,0.07874X0.07874*%
%ADD43R,0.07874X0.07874*%
%ADD44R,0.03858X0.01890*%
%ADD45R,0.03858X0.02677*%
%ADD46R,0.06693X0.03150*%
%ADD47O,0.05512X0.01181*%
%ADD48O,0.01181X0.05512*%
G04:AMPARAMS|DCode=49|XSize=33.47mil|YSize=31.5mil|CornerRadius=0mil|HoleSize=0mil|Usage=FLASHONLY|Rotation=45.000|XOffset=0mil|YOffset=0mil|HoleType=Round|Shape=Rectangle|*
%AMROTATEDRECTD49*
4,1,4,-0.00070,-0.02297,-0.02297,-0.00070,0.00070,0.02297,0.02297,0.00070,-0.00070,-0.02297,0.0*
%
%ADD49ROTATEDRECTD49*%

G04:AMPARAMS|DCode=50|XSize=64.96mil|YSize=61.02mil|CornerRadius=0mil|HoleSize=0mil|Usage=FLASHONLY|Rotation=135.000|XOffset=0mil|YOffset=0mil|HoleType=Round|Shape=Rectangle|*
%AMROTATEDRECTD50*
4,1,4,0.04454,-0.00139,0.00139,-0.04454,-0.04454,0.00139,-0.00139,0.04454,0.04454,-0.00139,0.0*
%
%ADD50ROTATEDRECTD50*%

%ADD51R,0.03543X0.03150*%
%ADD52R,0.03740X0.02362*%
%ADD53R,0.03937X0.13780*%
%ADD54R,0.05906X0.13386*%
G36*
X259528Y514092D02*
X259577Y513717D01*
X259879Y512987D01*
X260360Y512360D01*
X260987Y511879D01*
X261717Y511577D01*
X262500Y511474D01*
X262574Y511484D01*
X265480Y508578D01*
Y481615D01*
X265019Y481423D01*
X264219Y482223D01*
X264274Y482500D01*
X264139Y483179D01*
X263755Y483755D01*
X263179Y484139D01*
X262500Y484274D01*
X261821Y484139D01*
X261245Y483755D01*
X260861Y483179D01*
X260726Y482500D01*
X260861Y481821D01*
X261245Y481245D01*
X261821Y480861D01*
X262500Y480726D01*
X262777Y480781D01*
X265480Y478078D01*
Y443236D01*
X264980Y443029D01*
X264852Y443158D01*
X264521Y443379D01*
X264131Y443457D01*
X261693D01*
X261502Y443919D01*
X263221Y445638D01*
X263442Y445969D01*
X263520Y446359D01*
Y450588D01*
X263755Y450745D01*
X264139Y451321D01*
X264274Y452000D01*
X264139Y452679D01*
X263755Y453255D01*
X263179Y453639D01*
X262500Y453774D01*
X262223Y453719D01*
X244664Y471278D01*
X244333Y471499D01*
X243943Y471577D01*
X238032D01*
X237875Y471812D01*
X237299Y472196D01*
X236620Y472331D01*
X235941Y472196D01*
X235366Y471812D01*
X234981Y471236D01*
X234846Y470557D01*
X234981Y469878D01*
X235366Y469302D01*
X235941Y468918D01*
X236620Y468783D01*
X237299Y468918D01*
X237875Y469302D01*
X238032Y469537D01*
X243521D01*
X260781Y452277D01*
X260726Y452000D01*
X260861Y451321D01*
X261245Y450745D01*
X261480Y450588D01*
Y446781D01*
X257557Y442858D01*
X231031D01*
X230641Y442781D01*
X230310Y442560D01*
X228941Y441190D01*
X228719Y440859D01*
X228642Y440469D01*
Y438531D01*
X228719Y438141D01*
X228941Y437810D01*
X230310Y436440D01*
X230641Y436219D01*
X231031Y436142D01*
X232969D01*
X233359Y436219D01*
X233690Y436440D01*
X234131Y436882D01*
X258594D01*
X258984Y436960D01*
X259315Y437181D01*
X261954Y439819D01*
X263046D01*
X263819Y439046D01*
Y437954D01*
X262582Y436717D01*
X262361Y436386D01*
X262284Y435996D01*
Y427033D01*
X248985Y413734D01*
X235546D01*
X235156Y413657D01*
X234825Y413436D01*
X233455Y412066D01*
X233234Y411735D01*
X233156Y411345D01*
Y409407D01*
X233234Y409017D01*
X233455Y408686D01*
X234825Y407316D01*
X235156Y407095D01*
X235546Y407018D01*
X237483D01*
X237873Y407095D01*
X238204Y407316D01*
X238646Y407758D01*
X260161D01*
X260552Y407835D01*
X260882Y408057D01*
X261103Y408387D01*
X261181Y408778D01*
Y409046D01*
X261954Y409819D01*
X263046D01*
X263819Y409046D01*
Y407954D01*
X262983Y407117D01*
X262913Y407103D01*
X262582Y406882D01*
X262361Y406552D01*
X262284Y406161D01*
Y396241D01*
X261142Y395100D01*
X261141Y395099D01*
X260810Y394879D01*
X259440Y393509D01*
X259219Y393178D01*
X259142Y392788D01*
Y390850D01*
X259219Y390460D01*
X259440Y390129D01*
X260810Y388759D01*
X261141Y388538D01*
X261531Y388461D01*
X263469D01*
X263859Y388538D01*
X264190Y388759D01*
X265019Y389588D01*
X265480Y389397D01*
Y362760D01*
X265558Y362370D01*
X265779Y362040D01*
X278941Y348878D01*
X296308Y331510D01*
X296117Y331048D01*
X156773D01*
X149499Y335248D01*
X145493Y350201D01*
X148836Y355992D01*
X148964Y356369D01*
X148938Y356766D01*
X148671Y357763D01*
X148958Y358192D01*
X149093Y358871D01*
X148958Y359550D01*
X148573Y360125D01*
X147998Y360510D01*
X147319Y360645D01*
X146640Y360510D01*
X146064Y360125D01*
X145680Y359550D01*
X145545Y358871D01*
X145680Y358192D01*
X146064Y357616D01*
X146640Y357231D01*
X146706Y357218D01*
X146859Y356646D01*
X143516Y350855D01*
X143516Y350855D01*
X143388Y350478D01*
X143414Y350081D01*
X146833Y337321D01*
X146436Y337017D01*
X143514Y338704D01*
X143061Y340393D01*
X142885Y340750D01*
X142586Y341012D01*
X142586Y341012D01*
X137468Y343967D01*
X137468Y343967D01*
X137092Y344095D01*
X136695Y344069D01*
X135005Y343616D01*
X134344Y343998D01*
X125706Y376234D01*
X125993Y376663D01*
X126128Y377342D01*
X125993Y378021D01*
X125608Y378597D01*
X125033Y378981D01*
X124354Y379117D01*
X123675Y378981D01*
X123099Y378597D01*
X122715Y378021D01*
X122580Y377342D01*
X122715Y376663D01*
X123099Y376088D01*
X123675Y375703D01*
X123741Y375690D01*
X131677Y346071D01*
X131281Y345766D01*
X117533Y353704D01*
X117081Y355393D01*
X116905Y355750D01*
X116606Y356012D01*
X116606Y356012D01*
X110078Y359781D01*
X103611Y383913D01*
X103435Y384270D01*
X103136Y384532D01*
X103136Y384532D01*
X96679Y388260D01*
X96518Y388863D01*
X96342Y389220D01*
X96043Y389483D01*
X94365Y390451D01*
X93988Y390579D01*
X93591Y390553D01*
X91720Y390052D01*
X91363Y389876D01*
X91101Y389577D01*
X90132Y387899D01*
X90004Y387522D01*
X90030Y387125D01*
X90532Y385254D01*
X90708Y384897D01*
X91007Y384635D01*
X91007Y384635D01*
X99277Y379860D01*
X104058Y362017D01*
X103661Y361713D01*
X53095Y390907D01*
X53222Y391391D01*
X129000Y392078D01*
X172737Y348152D01*
X172786Y348119D01*
X172825Y348076D01*
X172915Y348033D01*
X172997Y347977D01*
X173055Y347966D01*
X173108Y347940D01*
X173207Y347935D01*
X173305Y347915D01*
X173362Y347927D01*
X173421Y347923D01*
X173514Y347957D01*
X173612Y347976D01*
X173661Y348008D01*
X173716Y348028D01*
X173790Y348094D01*
X173873Y348149D01*
X173905Y348198D01*
X173949Y348237D01*
X173992Y348327D01*
X174047Y348409D01*
X174059Y348467D01*
X174084Y348520D01*
X185854Y394636D01*
X186311Y394900D01*
X232136Y382037D01*
X232194Y382033D01*
X232250Y382014D01*
X232349Y382021D01*
X232448Y382013D01*
X232504Y382031D01*
X232562Y382035D01*
X232651Y382079D01*
X232746Y382110D01*
X232791Y382148D01*
X232843Y382174D01*
X232908Y382249D01*
X232984Y382314D01*
X233011Y382366D01*
X233049Y382410D01*
X233081Y382505D01*
X233126Y382593D01*
X233130Y382652D01*
X233149Y382707D01*
X233142Y382806D01*
X233150Y382906D01*
X233132Y382961D01*
X233128Y383020D01*
X216956Y442857D01*
X259010Y514198D01*
X259528Y514092D01*
D02*
G37*
G36*
X307979Y442857D02*
X291806Y383020D01*
X291802Y382961D01*
X291784Y382906D01*
X291792Y382806D01*
X291785Y382707D01*
X291804Y382652D01*
X291808Y382593D01*
X291853Y382505D01*
X291885Y382410D01*
X291923Y382366D01*
X291950Y382314D01*
X292025Y382249D01*
X292091Y382174D01*
X292143Y382148D01*
X292188Y382110D01*
X292282Y382079D01*
X292372Y382035D01*
X292430Y382031D01*
X292486Y382013D01*
X292585Y382021D01*
X292684Y382014D01*
X292740Y382033D01*
X292798Y382037D01*
X338623Y394900D01*
X339081Y394637D01*
X350850Y348520D01*
X350876Y348467D01*
X350887Y348409D01*
X350943Y348327D01*
X350986Y348237D01*
X351029Y348198D01*
X351062Y348149D01*
X351145Y348094D01*
X351219Y348028D01*
X351274Y348008D01*
X351323Y347976D01*
X351420Y347957D01*
X351514Y347923D01*
X351573Y347927D01*
X351630Y347915D01*
X351728Y347935D01*
X351827Y347940D01*
X351880Y347966D01*
X351937Y347977D01*
X352020Y348033D01*
X352109Y348076D01*
X352149Y348119D01*
X352197Y348152D01*
X395934Y392078D01*
X477680Y391337D01*
X477811Y390835D01*
X476778Y390239D01*
X476479Y389976D01*
X476303Y389619D01*
X474677Y383552D01*
X458883Y374433D01*
X452815Y376059D01*
X452419Y376085D01*
X452042Y375957D01*
X450364Y374989D01*
X450065Y374726D01*
X449889Y374370D01*
X448263Y368302D01*
X428639Y356972D01*
X428232Y357263D01*
X428242Y357315D01*
X428108Y357994D01*
X427821Y358423D01*
X434245Y382400D01*
X434271Y382797D01*
X434144Y383174D01*
X431324Y388057D01*
X431671Y388577D01*
X431807Y389256D01*
X431671Y389935D01*
X431287Y390510D01*
X430711Y390895D01*
X430032Y391030D01*
X429353Y390895D01*
X428778Y390510D01*
X428393Y389935D01*
X428258Y389256D01*
X428393Y388577D01*
X428778Y388001D01*
X429143Y387757D01*
X432166Y382520D01*
X425855Y358967D01*
X425789Y358954D01*
X425214Y358569D01*
X424829Y357994D01*
X424728Y357488D01*
X421439Y355588D01*
X416080Y357024D01*
X402817Y379996D01*
X402817Y379996D01*
X402555Y380296D01*
X402198Y380471D01*
X400326Y380973D01*
X399929Y380999D01*
X399553Y380871D01*
X397875Y379902D01*
X397576Y379640D01*
X397400Y379283D01*
X396899Y377412D01*
X396872Y377015D01*
X397000Y376638D01*
X397969Y374960D01*
X398231Y374661D01*
X398588Y374485D01*
X399191Y374324D01*
X411423Y353138D01*
X411685Y352839D01*
X412042Y352663D01*
X415646Y351697D01*
X416192Y350751D01*
X415910Y349696D01*
X414963Y349149D01*
X413274Y349602D01*
X412877Y349628D01*
X412500Y349500D01*
X404738Y345019D01*
X386572Y349886D01*
X379852Y361525D01*
X379590Y361824D01*
X379233Y362000D01*
X377361Y362501D01*
X376964Y362527D01*
X376588Y362399D01*
X374910Y361431D01*
X374611Y361169D01*
X374435Y360812D01*
X373934Y358940D01*
X373907Y358543D01*
X374035Y358167D01*
X375004Y356489D01*
X375266Y356190D01*
X375623Y356014D01*
X376226Y355852D01*
X386984Y337219D01*
X387246Y336920D01*
X387603Y336744D01*
X388000Y336718D01*
X388377Y336846D01*
X388610Y336980D01*
X389665Y336697D01*
X390212Y335751D01*
X389929Y334696D01*
X388983Y334149D01*
X387840Y334455D01*
X387793Y334509D01*
X387436Y334685D01*
X387436Y334685D01*
X387039Y334711D01*
X386663Y334583D01*
X378072Y329623D01*
X376512Y330041D01*
X376512Y330041D01*
X376155Y330217D01*
X374284Y330719D01*
X373886Y330745D01*
X373510Y330617D01*
X371832Y329648D01*
X371533Y329386D01*
X371357Y329029D01*
X370855Y327158D01*
X370830Y326761D01*
X370957Y326384D01*
X371926Y324706D01*
X372188Y324407D01*
X372545Y324231D01*
X373677Y323928D01*
X373743Y323432D01*
X371549Y322166D01*
X371423Y322055D01*
X371341Y322000D01*
X330056Y280715D01*
X329594Y280906D01*
Y302947D01*
X329516Y303337D01*
X329295Y303668D01*
X307305Y325658D01*
X281045Y351918D01*
X269118Y363845D01*
Y396676D01*
X280064Y407622D01*
X286752D01*
X287142Y407700D01*
X287473Y407921D01*
X288208Y408657D01*
X288486Y408602D01*
X289164Y408737D01*
X289740Y409121D01*
X290125Y409697D01*
X290260Y410376D01*
X290125Y411055D01*
X289740Y411630D01*
X289164Y412015D01*
X288486Y412150D01*
X287807Y412015D01*
X287231Y411630D01*
X286846Y411055D01*
X286711Y410376D01*
X286766Y410099D01*
X286329Y409661D01*
X279642D01*
X279252Y409584D01*
X278921Y409363D01*
X269580Y400022D01*
X269118Y400213D01*
Y403587D01*
X270355Y404824D01*
X270576Y405155D01*
X270654Y405545D01*
Y411455D01*
X270576Y411845D01*
X270355Y412176D01*
X269118Y413413D01*
Y414176D01*
X292723Y437781D01*
X293000Y437726D01*
X293679Y437861D01*
X294255Y438245D01*
X294639Y438821D01*
X294774Y439500D01*
X294639Y440179D01*
X294255Y440755D01*
X293679Y441139D01*
X293000Y441274D01*
X292321Y441139D01*
X291745Y440755D01*
X291361Y440179D01*
X291226Y439500D01*
X291281Y439223D01*
X269580Y417522D01*
X269118Y417713D01*
Y427404D01*
X270495Y428781D01*
X270772Y428726D01*
X271451Y428861D01*
X272027Y429245D01*
X272411Y429821D01*
X272547Y430500D01*
X272411Y431179D01*
X272027Y431755D01*
X271451Y432139D01*
X270772Y432274D01*
X270093Y432139D01*
X269518Y431755D01*
X269133Y431179D01*
X268998Y430500D01*
X269053Y430223D01*
X267982Y429151D01*
X267520Y429343D01*
Y434249D01*
X268756Y435486D01*
X268977Y435817D01*
X269055Y436207D01*
Y440793D01*
X268977Y441183D01*
X268756Y441514D01*
X267790Y442480D01*
X286721Y461411D01*
X286942Y461742D01*
X287020Y462132D01*
Y469645D01*
X287255Y469802D01*
X287639Y470378D01*
X287774Y471057D01*
X287639Y471736D01*
X287255Y472312D01*
X286679Y472696D01*
X286000Y472831D01*
X285321Y472696D01*
X284745Y472312D01*
X284361Y471736D01*
X284226Y471057D01*
X284361Y470378D01*
X284745Y469802D01*
X284980Y469645D01*
Y462554D01*
X267982Y445555D01*
X267520Y445747D01*
Y478500D01*
Y509000D01*
X267442Y509390D01*
X267221Y509721D01*
X264636Y512306D01*
X264640Y512360D01*
X265121Y512987D01*
X265423Y513717D01*
X265460Y514001D01*
X265978Y514106D01*
X307979Y442857D01*
D02*
G37*
G36*
X260828Y421986D02*
X260861Y421821D01*
X261245Y421245D01*
X261821Y420861D01*
X262500Y420726D01*
X262777Y420781D01*
X263779Y419779D01*
X263882Y419710D01*
Y413630D01*
X263708Y413457D01*
X260869D01*
X260479Y413379D01*
X260148Y413158D01*
X258386Y411396D01*
X250133D01*
X249981Y411896D01*
X250128Y411994D01*
X260285Y422151D01*
X260828Y421986D01*
D02*
G37*
G36*
X67246Y376691D02*
X68872Y370624D01*
X69048Y370267D01*
X69347Y370005D01*
X71025Y369036D01*
X71401Y368908D01*
X71798Y368934D01*
X77865Y370560D01*
X97442Y359257D01*
X97416Y358695D01*
X97024Y358433D01*
X96639Y357857D01*
X96626Y357791D01*
X72665Y351371D01*
X72308Y351195D01*
X72046Y350896D01*
X72046Y350896D01*
X69095Y345784D01*
X68589Y345684D01*
X68013Y345299D01*
X67629Y344724D01*
X67494Y344044D01*
X67629Y343366D01*
X68013Y342790D01*
X68589Y342405D01*
X69268Y342270D01*
X69947Y342405D01*
X70522Y342790D01*
X70907Y343366D01*
X71042Y344044D01*
X70907Y344724D01*
X70869Y344780D01*
X73601Y349511D01*
X97170Y355826D01*
X97600Y355539D01*
X98278Y355404D01*
X98958Y355539D01*
X99014Y355577D01*
X102288Y353686D01*
X103724Y348327D01*
X90461Y325355D01*
X90461Y325355D01*
X90333Y324978D01*
X90359Y324581D01*
X90861Y322710D01*
X91037Y322353D01*
X91336Y322091D01*
X93014Y321122D01*
X93390Y320994D01*
X93787Y321020D01*
X95659Y321522D01*
X96015Y321698D01*
X96278Y321997D01*
X97246Y323675D01*
X97374Y324051D01*
X97348Y324448D01*
X97187Y325051D01*
X109418Y346237D01*
X109546Y346614D01*
X109520Y347011D01*
X108554Y350615D01*
X109101Y351561D01*
X110156Y351844D01*
X111102Y351298D01*
X111555Y349608D01*
X111731Y349251D01*
X112030Y348989D01*
X119793Y344508D01*
X124660Y326341D01*
X117941Y314703D01*
X117813Y314326D01*
X117839Y313929D01*
X118340Y312057D01*
X118516Y311701D01*
X118815Y311438D01*
X120493Y310470D01*
X120870Y310342D01*
X121267Y310368D01*
X123138Y310869D01*
X123495Y311045D01*
X123757Y311344D01*
X124726Y313022D01*
X124854Y313399D01*
X124828Y313796D01*
X124666Y314399D01*
X135424Y333032D01*
X135552Y333409D01*
X135526Y333806D01*
X135350Y334163D01*
X135051Y334425D01*
X134818Y334559D01*
X134535Y335615D01*
X135082Y336561D01*
X136137Y336844D01*
X137083Y336298D01*
X137389Y335155D01*
X137367Y335088D01*
X137393Y334691D01*
X137569Y334334D01*
X137868Y334072D01*
X137868Y334072D01*
X146459Y329112D01*
X146877Y327552D01*
X146876Y327552D01*
X146902Y327155D01*
X147404Y325283D01*
X147580Y324926D01*
X147879Y324664D01*
X149557Y323695D01*
X149933Y323568D01*
X150330Y323594D01*
X152202Y324095D01*
X152558Y324271D01*
X152821Y324570D01*
X153789Y326248D01*
X153917Y326624D01*
X153891Y327022D01*
X153588Y328154D01*
X153985Y328458D01*
X155594Y327529D01*
X155657Y327508D01*
X155713Y327470D01*
X155844Y327444D01*
X155970Y327401D01*
X156037Y327406D01*
X156103Y327393D01*
X295905D01*
X303877Y319420D01*
X322221Y301077D01*
Y284808D01*
X321780Y284572D01*
X321679Y284639D01*
X321000Y284774D01*
X320723Y284719D01*
X316923Y288519D01*
X317115Y288980D01*
X318088D01*
X318245Y288745D01*
X318821Y288361D01*
X319500Y288226D01*
X320179Y288361D01*
X320755Y288745D01*
X321139Y289321D01*
X321274Y290000D01*
X321139Y290679D01*
X320755Y291255D01*
X320179Y291639D01*
X319500Y291774D01*
X318821Y291639D01*
X318245Y291255D01*
X318088Y291020D01*
X281377D01*
X280986Y290942D01*
X280656Y290721D01*
X272409Y282475D01*
X271909Y282682D01*
Y322853D01*
X272024Y322876D01*
X272600Y323260D01*
X272984Y323836D01*
X273119Y324515D01*
X272984Y325194D01*
X272600Y325769D01*
X272024Y326154D01*
X271345Y326289D01*
X270666Y326154D01*
X270091Y325769D01*
X269706Y325194D01*
X269571Y324515D01*
X269706Y323836D01*
X269870Y323590D01*
Y309360D01*
X269370Y309153D01*
X253482Y325041D01*
X253490Y325080D01*
X253355Y325759D01*
X252970Y326334D01*
X252395Y326719D01*
X251716Y326854D01*
X251037Y326719D01*
X250461Y326334D01*
X250077Y325759D01*
X249942Y325080D01*
X250077Y324401D01*
X250461Y323825D01*
X251037Y323441D01*
X251716Y323306D01*
X252231Y323408D01*
X262004Y313635D01*
X261813Y313173D01*
X166686D01*
X166296Y313096D01*
X165965Y312875D01*
X118659Y265568D01*
X117914Y265877D01*
X117000Y265998D01*
X116086Y265877D01*
X115235Y265525D01*
X114504Y264964D01*
X113943Y264232D01*
X113590Y263381D01*
X113470Y262467D01*
X113590Y261554D01*
X113943Y260702D01*
X114504Y259971D01*
X115235Y259410D01*
X116086Y259057D01*
X117000Y258937D01*
X117914Y259057D01*
X118765Y259410D01*
X119496Y259971D01*
X120057Y260702D01*
X120410Y261554D01*
X120530Y262467D01*
X120410Y263381D01*
X120101Y264126D01*
X158519Y302544D01*
X158980Y302352D01*
Y230851D01*
X159058Y230461D01*
X159279Y230130D01*
X163591Y225818D01*
X163922Y225597D01*
X164312Y225520D01*
X183261D01*
X188480Y220301D01*
Y139866D01*
X187735Y139557D01*
X187004Y138996D01*
X186443Y138265D01*
X186090Y137414D01*
X185970Y136500D01*
X186090Y135586D01*
X186443Y134735D01*
X187004Y134004D01*
X187735Y133443D01*
X188586Y133090D01*
X189500Y132970D01*
X190414Y133090D01*
X191265Y133443D01*
X191996Y134004D01*
X192557Y134735D01*
X192910Y135586D01*
X193030Y136500D01*
X192910Y137414D01*
X192557Y138265D01*
X191996Y138996D01*
X191265Y139557D01*
X190520Y139866D01*
Y196385D01*
X190981Y196576D01*
X196827Y190731D01*
X197158Y190510D01*
X197548Y190432D01*
X215406D01*
Y184882D01*
X221917D01*
Y186724D01*
X222827D01*
Y185181D01*
X225538D01*
X230218Y180501D01*
X230549Y180280D01*
X230939Y180203D01*
X241084D01*
Y179541D01*
X245824D01*
Y182903D01*
X241084D01*
Y182242D01*
X231362D01*
X227173Y186430D01*
Y189331D01*
X222827D01*
Y188764D01*
X221917D01*
Y190432D01*
X233088D01*
Y188549D01*
X234143D01*
Y186644D01*
X233013D01*
Y183281D01*
X237753D01*
Y186644D01*
X236182D01*
Y188549D01*
X237237D01*
Y191355D01*
X239392Y193510D01*
X253296Y207414D01*
X296853D01*
X305407Y198861D01*
X305737Y198640D01*
X306128Y198562D01*
X307002D01*
X307159Y198327D01*
X307734Y197943D01*
X308413Y197808D01*
X309092Y197943D01*
X309668Y198327D01*
X310053Y198903D01*
X310188Y199582D01*
X310053Y200261D01*
X309742Y200726D01*
X309877Y201112D01*
X309963Y201225D01*
X311333D01*
X312226Y200333D01*
Y177160D01*
X277849Y142783D01*
X277572Y142369D01*
X277476Y141882D01*
Y128357D01*
X277572Y127869D01*
X277849Y127456D01*
X288226Y117079D01*
Y114996D01*
X287764Y114804D01*
X287107Y115461D01*
X286776Y115682D01*
X286386Y115760D01*
X284530D01*
X284140Y115682D01*
X283809Y115461D01*
X283529Y115181D01*
X261954D01*
X261181Y115954D01*
Y117046D01*
X262017Y117883D01*
X262087Y117897D01*
X262418Y118118D01*
X262639Y118448D01*
X262716Y118839D01*
Y128788D01*
X265461Y131532D01*
X265682Y131863D01*
X265760Y132253D01*
Y135158D01*
X265682Y135548D01*
X265461Y135879D01*
X264119Y137221D01*
X263788Y137442D01*
X263398Y137520D01*
X259526D01*
X259438Y154409D01*
X262418Y157420D01*
X288046Y157554D01*
X288435Y157633D01*
X288765Y157856D01*
X305231Y174495D01*
X305500Y174442D01*
X306179Y174577D01*
X306755Y174961D01*
X307139Y175537D01*
X307274Y176216D01*
X307139Y176895D01*
X306755Y177470D01*
X306179Y177855D01*
X305500Y177990D01*
X304821Y177855D01*
X304245Y177470D01*
X303861Y176895D01*
X303726Y176216D01*
X303783Y175930D01*
X287613Y159590D01*
X285847Y159581D01*
X285639Y160080D01*
X306221Y180698D01*
X306221Y180698D01*
X306221Y180698D01*
X306222Y180698D01*
X306329Y180860D01*
X306442Y181028D01*
X306442Y181029D01*
X306442Y181029D01*
X306481Y181223D01*
X306520Y181419D01*
Y186385D01*
X306755Y186542D01*
X307139Y187118D01*
X307274Y187797D01*
X307139Y188476D01*
X306755Y189051D01*
X306179Y189436D01*
X305500Y189571D01*
X304821Y189436D01*
X304245Y189051D01*
X303861Y188476D01*
X303726Y187797D01*
X303861Y187118D01*
X304245Y186542D01*
X304480Y186385D01*
Y181840D01*
X287831Y165162D01*
X287331Y165369D01*
Y179193D01*
X280425D01*
Y164807D01*
X286770D01*
X286977Y164307D01*
X284006Y161331D01*
X261247Y161213D01*
X260857Y161133D01*
X260527Y160910D01*
X256177Y156514D01*
X256069Y156351D01*
X255960Y156187D01*
X255959Y156184D01*
X255958Y156182D01*
X255920Y155989D01*
X255882Y155797D01*
Y128324D01*
X244936Y117378D01*
X238248D01*
X237858Y117300D01*
X237527Y117079D01*
X236792Y116343D01*
X236514Y116398D01*
X235836Y116263D01*
X235260Y115879D01*
X234875Y115303D01*
X234740Y114624D01*
X234875Y113945D01*
X235260Y113370D01*
X235836Y112985D01*
X236514Y112850D01*
X237193Y112985D01*
X237769Y113370D01*
X238154Y113945D01*
X238289Y114624D01*
X238234Y114901D01*
X238671Y115339D01*
X245358D01*
X245748Y115416D01*
X246079Y115637D01*
X255420Y124978D01*
X255882Y124787D01*
Y121413D01*
X254645Y120176D01*
X254424Y119845D01*
X254346Y119455D01*
Y113545D01*
X254424Y113155D01*
X254645Y112824D01*
X255882Y111587D01*
Y110824D01*
X232277Y87219D01*
X232000Y87274D01*
X231321Y87139D01*
X230745Y86755D01*
X230361Y86179D01*
X230226Y85500D01*
X230361Y84821D01*
X230745Y84245D01*
X231321Y83861D01*
X232000Y83726D01*
X232679Y83861D01*
X233255Y84245D01*
X233639Y84821D01*
X233774Y85500D01*
X233719Y85777D01*
X255420Y107478D01*
X255882Y107287D01*
Y91413D01*
X254645Y90176D01*
X254424Y89845D01*
X254346Y89455D01*
Y81917D01*
X236681Y64251D01*
X236460Y63920D01*
X236382Y63530D01*
Y56074D01*
X235941Y55633D01*
X235719Y55302D01*
X235642Y54912D01*
Y52974D01*
X235719Y52584D01*
X235941Y52253D01*
X237310Y50884D01*
X237641Y50662D01*
X238031Y50585D01*
X239969D01*
X240359Y50662D01*
X240690Y50884D01*
X242059Y52253D01*
X242281Y52584D01*
X242358Y52974D01*
Y62524D01*
X255420Y75586D01*
X255882Y75394D01*
Y16992D01*
X255400Y16861D01*
X216956Y82078D01*
X233128Y141915D01*
X233132Y141973D01*
X233150Y142029D01*
X233142Y142128D01*
X233149Y142227D01*
X233130Y142283D01*
X233126Y142341D01*
X233081Y142430D01*
X233049Y142524D01*
X233011Y142568D01*
X232984Y142621D01*
X232908Y142685D01*
X232843Y142760D01*
X232790Y142786D01*
X232746Y142824D01*
X232651Y142855D01*
X232562Y142899D01*
X232504Y142903D01*
X232448Y142921D01*
X232349Y142914D01*
X232250Y142921D01*
X232194Y142902D01*
X232136Y142897D01*
X186311Y130034D01*
X185854Y130298D01*
X174084Y176414D01*
X174059Y176467D01*
X174047Y176524D01*
X173992Y176607D01*
X173949Y176697D01*
X173905Y176736D01*
X173873Y176785D01*
X173790Y176840D01*
X173716Y176906D01*
X173661Y176926D01*
X173612Y176958D01*
X173514Y176977D01*
X173421Y177010D01*
X173362Y177007D01*
X173305Y177018D01*
X173207Y176999D01*
X173108Y176994D01*
X173055Y176968D01*
X172997Y176957D01*
X172915Y176901D01*
X172825Y176858D01*
X172786Y176815D01*
X172737Y176782D01*
X129000Y132856D01*
X46705Y133603D01*
X46573Y134104D01*
X47935Y134891D01*
X48035Y134979D01*
X48146Y135053D01*
X50302Y137209D01*
X50523Y137540D01*
X50601Y137930D01*
Y141133D01*
X50845Y142044D01*
X65830Y150696D01*
X71897Y149070D01*
X72294Y149044D01*
X72671Y149172D01*
X74349Y150141D01*
X74648Y150403D01*
X74824Y150760D01*
X76450Y156827D01*
X96074Y168157D01*
X96481Y167866D01*
X96470Y167815D01*
X96605Y167136D01*
X96892Y166707D01*
X90468Y142729D01*
X90442Y142332D01*
X90569Y141956D01*
X90569Y141956D01*
X93512Y136859D01*
X93475Y136803D01*
X93340Y136124D01*
X93475Y135445D01*
X93859Y134869D01*
X94435Y134485D01*
X95114Y134350D01*
X95793Y134485D01*
X96368Y134869D01*
X96753Y135445D01*
X96888Y136124D01*
X96753Y136803D01*
X96368Y137378D01*
X95793Y137763D01*
X95287Y137864D01*
X92546Y142609D01*
X98857Y166162D01*
X98924Y166175D01*
X99499Y166560D01*
X99884Y167136D01*
X99985Y167642D01*
X103274Y169541D01*
X108633Y168105D01*
X121896Y145133D01*
X121896Y145133D01*
X122158Y144834D01*
X122515Y144658D01*
X124387Y144157D01*
X124783Y144131D01*
X125160Y144258D01*
X126838Y145227D01*
X127137Y145489D01*
X127313Y145846D01*
X127814Y147717D01*
X127840Y148114D01*
X127713Y148491D01*
X126744Y150169D01*
X126744Y150169D01*
X126482Y150468D01*
X126125Y150644D01*
X125522Y150806D01*
X113290Y171991D01*
X113028Y172290D01*
X112671Y172466D01*
X109067Y173432D01*
X108520Y174378D01*
X108803Y175434D01*
X109750Y175980D01*
X111439Y175528D01*
X111836Y175501D01*
X112213Y175629D01*
X119975Y180111D01*
X138141Y175243D01*
X144861Y163605D01*
X145123Y163305D01*
X145480Y163130D01*
X147351Y162628D01*
X147748Y162602D01*
X148125Y162730D01*
X149803Y163699D01*
X150102Y163961D01*
X150278Y164318D01*
X150779Y166189D01*
X150805Y166586D01*
X150678Y166963D01*
X149709Y168641D01*
X149447Y168940D01*
X149090Y169116D01*
X148487Y169277D01*
X137729Y187910D01*
X137466Y188210D01*
X137110Y188385D01*
X136713Y188412D01*
X136336Y188284D01*
X136103Y188149D01*
X135048Y188432D01*
X134501Y189378D01*
X134784Y190434D01*
X135730Y190980D01*
X136873Y190674D01*
X136920Y190621D01*
X137277Y190445D01*
X137674Y190419D01*
X138050Y190547D01*
X146641Y195507D01*
X148201Y195089D01*
X148201Y195088D01*
X148558Y194912D01*
X150429Y194411D01*
X150826Y194385D01*
X151203Y194513D01*
X151203Y194513D01*
X152881Y195481D01*
X153180Y195744D01*
X153356Y196100D01*
X153857Y197972D01*
X153883Y198369D01*
X153756Y198745D01*
X152787Y200423D01*
X152525Y200722D01*
X152168Y200898D01*
X150296Y201400D01*
X149899Y201426D01*
X149688Y201354D01*
X149417Y201790D01*
X157738Y210111D01*
X181588D01*
X181745Y209876D01*
X182321Y209492D01*
X183000Y209357D01*
X183679Y209492D01*
X184255Y209876D01*
X184639Y210452D01*
X184774Y211131D01*
X184734Y211334D01*
X185159Y211759D01*
X185328Y211726D01*
X186007Y211861D01*
X186583Y212245D01*
X186968Y212821D01*
X187103Y213500D01*
X186968Y214179D01*
X186583Y214755D01*
X186007Y215139D01*
X185328Y215274D01*
X184650Y215139D01*
X184074Y214755D01*
X183917Y214520D01*
X157564D01*
X157174Y214442D01*
X156843Y214221D01*
X147078Y204456D01*
X146314D01*
X145924Y204379D01*
X145594Y204158D01*
X142687Y201251D01*
X127895Y205215D01*
X124551Y211006D01*
X124551Y211006D01*
X124289Y211305D01*
X123932Y211481D01*
X122952Y211744D01*
X122939Y211810D01*
X122554Y212386D01*
X121978Y212770D01*
X121299Y212905D01*
X120620Y212770D01*
X120045Y212386D01*
X119660Y211810D01*
X119525Y211131D01*
X119660Y210452D01*
X120045Y209876D01*
X120620Y209492D01*
X121299Y209357D01*
X121978Y209492D01*
X122407Y209778D01*
X122996Y209621D01*
X126340Y203829D01*
X126602Y203530D01*
X126959Y203354D01*
X139719Y199935D01*
X139784Y199440D01*
X136862Y197752D01*
X135173Y198205D01*
X134776Y198231D01*
X134399Y198103D01*
X129281Y195148D01*
X129281Y195148D01*
X128982Y194886D01*
X128806Y194529D01*
X128353Y192840D01*
X127692Y192458D01*
X95472Y201091D01*
X95459Y201157D01*
X95074Y201733D01*
X94499Y202118D01*
X93820Y202253D01*
X93141Y202118D01*
X92565Y201733D01*
X92181Y201157D01*
X92046Y200479D01*
X92181Y199800D01*
X92565Y199224D01*
X93141Y198839D01*
X93820Y198704D01*
X94499Y198839D01*
X94928Y199126D01*
X124564Y191185D01*
X124629Y190690D01*
X110881Y182752D01*
X109192Y183205D01*
X108795Y183231D01*
X108418Y183103D01*
X101890Y179334D01*
X77758Y185801D01*
X77361Y185827D01*
X76984Y185699D01*
X70527Y181971D01*
X69924Y182132D01*
X69527Y182158D01*
X69151Y182030D01*
X67473Y181062D01*
X67174Y180799D01*
X66998Y180443D01*
X66496Y178571D01*
X66470Y178174D01*
X66598Y177798D01*
X66598Y177798D01*
X67567Y176120D01*
X67829Y175821D01*
X68186Y175645D01*
X70057Y175143D01*
X70454Y175117D01*
X70831Y175245D01*
X79101Y180020D01*
X96944Y175239D01*
X97009Y174743D01*
X46785Y145747D01*
X46417Y146111D01*
X83489Y211689D01*
X143398Y227600D01*
X143451Y227625D01*
X143508Y227638D01*
X143590Y227694D01*
X143680Y227738D01*
X143718Y227782D01*
X143767Y227815D01*
X143821Y227898D01*
X143887Y227973D01*
X143906Y228028D01*
X143938Y228077D01*
X143956Y228175D01*
X143988Y228269D01*
X143984Y228327D01*
X143995Y228385D01*
X143974Y228483D01*
X143968Y228582D01*
X143942Y228634D01*
X143930Y228692D01*
X143874Y228774D01*
X143830Y228863D01*
X143786Y228902D01*
X143753Y228950D01*
X109700Y262203D01*
Y262732D01*
X143753Y295985D01*
X143786Y296033D01*
X143830Y296072D01*
X143874Y296161D01*
X143930Y296243D01*
X143942Y296300D01*
X143968Y296353D01*
X143974Y296452D01*
X143995Y296550D01*
X143984Y296607D01*
X143988Y296666D01*
X143956Y296760D01*
X143938Y296857D01*
X143906Y296906D01*
X143887Y296962D01*
X143821Y297037D01*
X143767Y297120D01*
X143718Y297153D01*
X143680Y297197D01*
X143590Y297241D01*
X143508Y297297D01*
X143451Y297309D01*
X143398Y297335D01*
X83489Y313246D01*
X43193Y384527D01*
X43561Y384892D01*
X44611Y384286D01*
X44987Y384158D01*
X45384Y384184D01*
X51452Y385810D01*
X67246Y376691D01*
D02*
G37*
G36*
X478805Y379333D02*
X441445Y313246D01*
X381536Y297335D01*
X381484Y297309D01*
X381426Y297297D01*
X381344Y297241D01*
X381255Y297197D01*
X381216Y297153D01*
X381168Y297120D01*
X381114Y297037D01*
X381048Y296962D01*
X381029Y296906D01*
X380997Y296857D01*
X380979Y296760D01*
X380947Y296666D01*
X380950Y296607D01*
X380940Y296550D01*
X380960Y296452D01*
X380966Y296353D01*
X380992Y296300D01*
X381004Y296243D01*
X381061Y296161D01*
X381104Y296072D01*
X381148Y296033D01*
X381181Y295985D01*
X415235Y262732D01*
Y262203D01*
X381181Y228950D01*
X381148Y228902D01*
X381104Y228863D01*
X381061Y228774D01*
X381004Y228692D01*
X380992Y228634D01*
X380966Y228582D01*
X380960Y228483D01*
X380940Y228385D01*
X380950Y228327D01*
X380947Y228269D01*
X380979Y228175D01*
X380997Y228077D01*
X381029Y228028D01*
X381048Y227973D01*
X381114Y227898D01*
X381168Y227815D01*
X381216Y227782D01*
X381255Y227738D01*
X381344Y227694D01*
X381426Y227638D01*
X381484Y227625D01*
X381536Y227600D01*
X441445Y211689D01*
X481882Y140160D01*
X481514Y139795D01*
X479550Y140929D01*
X479173Y141057D01*
X478776Y141031D01*
X472709Y139405D01*
X457535Y148166D01*
X455909Y154233D01*
X455733Y154590D01*
X455434Y154852D01*
X453756Y155821D01*
X453379Y155949D01*
X452982Y155923D01*
X446915Y154297D01*
X427339Y165600D01*
X427365Y166162D01*
X427757Y166424D01*
X428141Y167000D01*
X428155Y167066D01*
X452115Y173486D01*
X452472Y173662D01*
X452734Y173961D01*
X455565Y178864D01*
X455946Y178788D01*
X456625Y178923D01*
X457200Y179308D01*
X457585Y179884D01*
X457720Y180563D01*
X457585Y181242D01*
X457200Y181817D01*
X456625Y182202D01*
X455946Y182337D01*
X455267Y182202D01*
X454691Y181817D01*
X454307Y181242D01*
X454172Y180563D01*
X454177Y180537D01*
X451180Y175346D01*
X427610Y169031D01*
X427181Y169318D01*
X426502Y169453D01*
X425823Y169318D01*
X425767Y169280D01*
X422492Y171171D01*
X421056Y176530D01*
X434319Y199502D01*
X434447Y199879D01*
X434421Y200276D01*
X433920Y202147D01*
X433744Y202504D01*
X433445Y202766D01*
X431767Y203735D01*
X431390Y203863D01*
X430993Y203837D01*
X429122Y203335D01*
X428765Y203159D01*
X428503Y202860D01*
X427534Y201183D01*
X427406Y200806D01*
X427432Y200409D01*
X427594Y199806D01*
X415362Y178620D01*
X415235Y178243D01*
X415261Y177846D01*
X416226Y174242D01*
X415680Y173296D01*
X414624Y173013D01*
X413678Y173559D01*
X413225Y175249D01*
X413050Y175606D01*
X412750Y175868D01*
X404988Y180350D01*
X400120Y198516D01*
X406840Y210155D01*
X406968Y210531D01*
X406942Y210928D01*
X406440Y212800D01*
X406264Y213156D01*
X405965Y213419D01*
X404288Y214387D01*
X403911Y214515D01*
X403514Y214489D01*
X401643Y213988D01*
X401286Y213812D01*
X401023Y213513D01*
X400055Y211835D01*
X399927Y211458D01*
X399953Y211061D01*
X400115Y210458D01*
X389357Y191825D01*
X389357Y191825D01*
X389229Y191448D01*
X389255Y191051D01*
X389431Y190694D01*
X389730Y190432D01*
X389963Y190298D01*
X390246Y189242D01*
X389699Y188296D01*
X388644Y188013D01*
X387697Y188559D01*
X387391Y189702D01*
X387414Y189769D01*
X387388Y190166D01*
X387212Y190523D01*
X386913Y190785D01*
X386913Y190785D01*
X378322Y195745D01*
X377904Y197305D01*
X377904Y197306D01*
X377878Y197703D01*
X377377Y199574D01*
X377201Y199931D01*
X376902Y200193D01*
X376902Y200193D01*
X375224Y201162D01*
X374847Y201290D01*
X374450Y201263D01*
X372579Y200762D01*
X372222Y200586D01*
X371960Y200287D01*
X370991Y198609D01*
X370863Y198233D01*
X370889Y197836D01*
X371193Y196703D01*
X370796Y196399D01*
X362914Y200949D01*
X362618Y201246D01*
Y219023D01*
X362540Y219413D01*
X362319Y219744D01*
X326946Y255117D01*
X326616Y255338D01*
X326225Y255416D01*
X309787D01*
X309433Y255769D01*
Y256172D01*
X309787Y256526D01*
X310450D01*
X310840Y256604D01*
X311171Y256824D01*
X372063Y317717D01*
X376211D01*
X376601Y317795D01*
X376932Y318016D01*
X382632Y323716D01*
X396818Y319915D01*
X400162Y314123D01*
X400424Y313824D01*
X400781Y313648D01*
X401761Y313386D01*
X401774Y313320D01*
X402159Y312744D01*
X402735Y312359D01*
X403414Y312224D01*
X404093Y312359D01*
X404668Y312744D01*
X405053Y313320D01*
X405188Y313999D01*
X405053Y314678D01*
X404668Y315253D01*
X404093Y315638D01*
X403414Y315773D01*
X402735Y315638D01*
X402306Y315351D01*
X401717Y315509D01*
X398373Y321300D01*
X398373Y321300D01*
X398111Y321599D01*
X397754Y321775D01*
X384994Y325194D01*
X384929Y325690D01*
X387851Y327377D01*
X389540Y326924D01*
X389937Y326898D01*
X390314Y327026D01*
X390314Y327026D01*
X395432Y329981D01*
X395432Y329981D01*
X395731Y330243D01*
X395907Y330600D01*
X396360Y332290D01*
X397021Y332671D01*
X429241Y324038D01*
X429254Y323972D01*
X429638Y323396D01*
X430214Y323012D01*
X430893Y322877D01*
X431572Y323012D01*
X432148Y323396D01*
X432532Y323972D01*
X432667Y324651D01*
X432532Y325330D01*
X432148Y325905D01*
X431572Y326290D01*
X430893Y326425D01*
X430214Y326290D01*
X429785Y326003D01*
X400149Y333944D01*
X400084Y334440D01*
X413831Y342377D01*
X415521Y341924D01*
X415918Y341898D01*
X416295Y342026D01*
X422823Y345795D01*
X446955Y339329D01*
X447352Y339303D01*
X447728Y339431D01*
X447728Y339431D01*
X454185Y343159D01*
X454789Y342997D01*
X455186Y342971D01*
X455562Y343099D01*
X455562Y343099D01*
X457240Y344068D01*
X457539Y344330D01*
X457715Y344687D01*
X458217Y346558D01*
X458243Y346955D01*
X458115Y347332D01*
X457146Y349010D01*
X456884Y349309D01*
X456527Y349485D01*
X454656Y349986D01*
X454259Y350012D01*
X453882Y349884D01*
X445612Y345110D01*
X427769Y349890D01*
X427704Y350386D01*
X478450Y379685D01*
X478805Y379333D01*
D02*
G37*
G36*
X131978Y339318D02*
X132135Y338733D01*
X130843Y336495D01*
X130715Y336118D01*
X130741Y335721D01*
X131386Y333313D01*
X127260Y326166D01*
X126751Y326285D01*
X126739Y326461D01*
X123027Y340314D01*
X123433Y340733D01*
X123826Y340654D01*
X124505Y340789D01*
X125081Y341174D01*
X125465Y341750D01*
X125479Y341816D01*
X126822Y342176D01*
X126933Y342231D01*
X131978Y339318D01*
D02*
G37*
G36*
X385636Y348026D02*
X399550Y344297D01*
X399626Y343759D01*
X399281Y343244D01*
X399146Y342565D01*
X399281Y341886D01*
X399568Y341457D01*
X399204Y340097D01*
X399196Y339973D01*
X393930Y336933D01*
X393693Y336997D01*
X392273Y339455D01*
X392011Y339754D01*
X391654Y339930D01*
X389247Y340576D01*
X385120Y347723D01*
X385477Y348104D01*
X385636Y348026D01*
D02*
G37*
G36*
X262465Y306811D02*
Y290151D01*
X261133Y288819D01*
X258327D01*
Y284669D01*
X260633D01*
X261996Y283306D01*
Y281638D01*
X261988Y281626D01*
X261904Y281201D01*
Y276870D01*
X261988Y276445D01*
X262229Y276084D01*
X262590Y275843D01*
X263016Y275758D01*
X263441Y275843D01*
X263660Y275989D01*
X264000Y276049D01*
X264340Y275989D01*
X264559Y275843D01*
X264984Y275758D01*
X265410Y275843D01*
X265629Y275989D01*
X265968Y276049D01*
X266308Y275989D01*
X266527Y275843D01*
X266953Y275758D01*
X267378Y275843D01*
X267597Y275989D01*
X267937Y276049D01*
X268277Y275989D01*
X268496Y275843D01*
X268921Y275758D01*
X269347Y275843D01*
X269566Y275989D01*
X269905Y276049D01*
X270246Y275989D01*
X270464Y275843D01*
X270890Y275758D01*
X271315Y275843D01*
X271534Y275989D01*
X271874Y276049D01*
X272214Y275989D01*
X272433Y275843D01*
X272858Y275758D01*
X273284Y275843D01*
X273503Y275989D01*
X273843Y276049D01*
X274183Y275989D01*
X274401Y275843D01*
X274827Y275758D01*
X275252Y275843D01*
X275613Y276084D01*
X275854Y276445D01*
X275939Y276870D01*
Y279156D01*
X284165Y287382D01*
X315176D01*
X319281Y283277D01*
X319226Y283000D01*
X319361Y282321D01*
X319463Y282168D01*
X319196Y281668D01*
X309256D01*
Y282487D01*
X304398D01*
Y278809D01*
X304398D01*
Y278550D01*
X304398D01*
Y275660D01*
X304398D01*
Y275400D01*
X304398D01*
Y272510D01*
X304398D01*
Y272250D01*
X304398D01*
Y268573D01*
X309256D01*
Y269392D01*
X318080D01*
X318271Y268930D01*
X311449Y262108D01*
X309433D01*
Y262927D01*
X304575D01*
Y259250D01*
X304575D01*
Y258990D01*
X304575D01*
X304575Y255971D01*
X304575Y255601D01*
Y252951D01*
X304575D01*
Y252691D01*
X304575D01*
X304575Y249014D01*
X304076Y249012D01*
X303279D01*
X302780Y249014D01*
Y252691D01*
X302780D01*
Y252951D01*
X302780D01*
Y255841D01*
X302780D01*
Y256101D01*
X302780D01*
Y258990D01*
X302780D01*
Y259250D01*
X302780D01*
Y262927D01*
X298122D01*
X298073Y263427D01*
X298679Y263548D01*
X299255Y263932D01*
X299639Y264508D01*
X299774Y265187D01*
X299639Y265866D01*
X299255Y266442D01*
X298679Y266826D01*
X298000Y266961D01*
X297321Y266826D01*
X296745Y266442D01*
X296588Y266207D01*
X292051D01*
X291673Y266585D01*
Y269283D01*
X292092Y269480D01*
X297744D01*
Y268573D01*
X302602D01*
Y272250D01*
X302602D01*
Y272510D01*
X302602D01*
Y275400D01*
X302602D01*
Y275660D01*
X302602D01*
Y278550D01*
X302602D01*
Y278809D01*
X302602D01*
Y282487D01*
X297744D01*
Y281668D01*
X296822D01*
X296431Y281590D01*
X296101Y281369D01*
X290751Y276020D01*
X285757D01*
X285367Y275942D01*
X285036Y275721D01*
X283662Y274346D01*
X283138D01*
X283126Y274354D01*
X282701Y274439D01*
X278370D01*
X277945Y274354D01*
X277584Y274113D01*
X277343Y273752D01*
X277258Y273327D01*
X277343Y272901D01*
X277489Y272682D01*
X277549Y272342D01*
X277489Y272003D01*
X277343Y271784D01*
X277258Y271358D01*
X277343Y270933D01*
X277489Y270714D01*
X277549Y270374D01*
X277489Y270034D01*
X277343Y269815D01*
X277258Y269390D01*
X277343Y268964D01*
X277489Y268745D01*
X277549Y268406D01*
X277489Y268066D01*
X277343Y267847D01*
X277258Y267421D01*
X277343Y266996D01*
X277489Y266777D01*
X277549Y266437D01*
X277489Y266097D01*
X277343Y265878D01*
X277258Y265453D01*
X277343Y265027D01*
X277584Y264667D01*
X277945Y264425D01*
X278370Y264341D01*
X279304D01*
X279585Y263888D01*
X279587Y263841D01*
X279516Y263484D01*
X279587Y263128D01*
X279585Y263081D01*
X279304Y262628D01*
X278370D01*
X277945Y262543D01*
X277584Y262302D01*
X277343Y261941D01*
X277258Y261516D01*
X277343Y261090D01*
X277489Y260872D01*
X277549Y260531D01*
X277489Y260191D01*
X277343Y259973D01*
X277258Y259547D01*
X277343Y259122D01*
X277489Y258903D01*
X277549Y258563D01*
X277489Y258223D01*
X277343Y258004D01*
X277258Y257579D01*
X277343Y257153D01*
X277489Y256934D01*
X277549Y256594D01*
X277489Y256255D01*
X277343Y256036D01*
X277258Y255610D01*
X277343Y255185D01*
X277489Y254966D01*
X277549Y254626D01*
X277489Y254286D01*
X277343Y254067D01*
X277258Y253642D01*
X277343Y253216D01*
X277489Y252997D01*
X277549Y252658D01*
X277489Y252318D01*
X277343Y252099D01*
X277258Y251673D01*
X277343Y251248D01*
X277584Y250887D01*
X277945Y250646D01*
X278370Y250561D01*
X282701D01*
X283126Y250646D01*
X283138Y250654D01*
X283247D01*
X283621Y250279D01*
X283952Y250058D01*
X284342Y249980D01*
X292270D01*
X296479Y245771D01*
X296810Y245550D01*
X297200Y245473D01*
X309085D01*
X313480Y241078D01*
Y240594D01*
X313018Y240403D01*
X310582Y242839D01*
X310251Y243060D01*
X309861Y243138D01*
X309433D01*
Y243957D01*
X304575D01*
Y240280D01*
X304575D01*
Y240020D01*
X304575D01*
Y237370D01*
X304575Y237130D01*
X304575D01*
Y236870D01*
X304575D01*
Y234221D01*
X304575Y233980D01*
X304575D01*
Y233720D01*
X304575D01*
Y230043D01*
X307401D01*
X307480Y229964D01*
Y215322D01*
X307157Y214838D01*
X307022Y214159D01*
X307113Y213704D01*
X306652Y213458D01*
X303455Y216655D01*
X303124Y216876D01*
X302734Y216953D01*
X276621D01*
Y221272D01*
X274027D01*
X273940Y221397D01*
X274202Y221897D01*
X276509D01*
Y224604D01*
X278043Y226139D01*
X278264Y226469D01*
X278342Y226860D01*
Y231127D01*
X278264Y231517D01*
X278043Y231848D01*
X274027Y235864D01*
X274122Y236163D01*
X274255Y236344D01*
X290215D01*
X295397Y231161D01*
X295728Y230940D01*
X296118Y230862D01*
X297922D01*
Y230043D01*
X302780D01*
Y233720D01*
X302780D01*
Y233980D01*
X302780D01*
Y236870D01*
X302780D01*
Y237130D01*
X302780D01*
Y240020D01*
X302780D01*
Y240280D01*
X302780D01*
Y243957D01*
X297922D01*
Y243220D01*
X276580D01*
X275939Y243862D01*
Y248130D01*
X275854Y248555D01*
X275613Y248916D01*
X275252Y249157D01*
X274827Y249242D01*
X274401Y249157D01*
X274183Y249011D01*
X273843Y248951D01*
X273503Y249011D01*
X273284Y249157D01*
X272858Y249242D01*
X272433Y249157D01*
X272214Y249011D01*
X271874Y248951D01*
X271534Y249011D01*
X271315Y249157D01*
X270890Y249242D01*
X270464Y249157D01*
X270246Y249011D01*
X269905Y248951D01*
X269566Y249011D01*
X269347Y249157D01*
X268921Y249242D01*
X268496Y249157D01*
X268277Y249011D01*
X267937Y248951D01*
X267597Y249011D01*
X267378Y249157D01*
X266953Y249242D01*
X266527Y249157D01*
X266308Y249011D01*
X265968Y248951D01*
X265629Y249011D01*
X265410Y249157D01*
X264984Y249242D01*
X264559Y249157D01*
X264340Y249011D01*
X264000Y248951D01*
X263660Y249011D01*
X263441Y249157D01*
X263016Y249242D01*
X262590Y249157D01*
X262567Y249142D01*
X262067Y249409D01*
Y249615D01*
X261989Y250005D01*
X261768Y250336D01*
X260395Y251708D01*
X260065Y251929D01*
X259675Y252007D01*
X251716D01*
X251326Y251929D01*
X251215Y251856D01*
X250690Y252041D01*
X250663Y252071D01*
X250657Y252099D01*
X250511Y252318D01*
X250451Y252658D01*
X250511Y252997D01*
X250657Y253216D01*
X250742Y253642D01*
X250657Y254067D01*
X250511Y254286D01*
X250451Y254626D01*
X250511Y254966D01*
X250657Y255185D01*
X250742Y255610D01*
X250657Y256036D01*
X250511Y256255D01*
X250451Y256594D01*
X250511Y256934D01*
X250657Y257153D01*
X250742Y257579D01*
X250657Y258004D01*
X250511Y258223D01*
X250451Y258563D01*
X250511Y258903D01*
X250657Y259122D01*
X250742Y259547D01*
X250657Y259973D01*
X250416Y260333D01*
X250055Y260575D01*
X249630Y260659D01*
X245299D01*
X244874Y260575D01*
X244862Y260567D01*
X243595D01*
X243205Y260489D01*
X242874Y260268D01*
X238249Y255643D01*
X220909D01*
X217437Y259115D01*
Y264433D01*
X231327D01*
Y261227D01*
X229831D01*
Y262774D01*
X225681D01*
Y258428D01*
X229831D01*
Y259188D01*
X239208D01*
X239598Y259266D01*
X239929Y259487D01*
X242907Y262465D01*
X244862D01*
X244874Y262457D01*
X245299Y262372D01*
X249630D01*
X250055Y262457D01*
X250416Y262698D01*
X250657Y263059D01*
X250742Y263484D01*
X250657Y263910D01*
X250511Y264128D01*
X250451Y264469D01*
X250511Y264809D01*
X250657Y265027D01*
X250742Y265453D01*
X250657Y265878D01*
X250511Y266097D01*
X250451Y266437D01*
X250511Y266777D01*
X250657Y266996D01*
X250742Y267421D01*
X250657Y267847D01*
X250511Y268066D01*
X250451Y268406D01*
X250511Y268745D01*
X250657Y268964D01*
X250742Y269390D01*
X250657Y269815D01*
X250511Y270034D01*
X250451Y270374D01*
X250511Y270714D01*
X250657Y270933D01*
X250742Y271358D01*
X250657Y271784D01*
X250511Y272003D01*
X250451Y272342D01*
X250511Y272682D01*
X250569Y272770D01*
X251131Y272915D01*
X252767Y271279D01*
X253098Y271058D01*
X253488Y270980D01*
X256784D01*
X257174Y271058D01*
X257505Y271279D01*
X259800Y273574D01*
X260021Y273905D01*
X260098Y274295D01*
Y276433D01*
X260106Y276445D01*
X260191Y276870D01*
Y281201D01*
X260106Y281626D01*
X259865Y281987D01*
X259504Y282228D01*
X259079Y282313D01*
X258653Y282228D01*
X258435Y282082D01*
X258095Y282022D01*
X257754Y282082D01*
X257536Y282228D01*
X257110Y282313D01*
X256685Y282228D01*
X256489Y282097D01*
X256306Y281995D01*
X255865Y282200D01*
X255863Y282203D01*
X249325Y288740D01*
Y288958D01*
X249540Y289388D01*
X249540Y289388D01*
X249540Y289388D01*
X254562Y294410D01*
X250420Y298552D01*
Y298732D01*
X250799Y299110D01*
X251545Y298364D01*
X254618Y301437D01*
X251684Y304371D01*
X248611Y301298D01*
X249357Y300552D01*
X248680Y299875D01*
X248459Y299544D01*
X248381Y299154D01*
Y298830D01*
X244240Y294689D01*
X247286Y291642D01*
Y288664D01*
X247049Y288470D01*
X246305D01*
X242163Y292612D01*
X238021Y288470D01*
X237698D01*
X237307Y288392D01*
X236977Y288172D01*
X236167Y287362D01*
X235421Y288108D01*
X232347Y285034D01*
X235281Y282100D01*
X238355Y285174D01*
X237609Y285920D01*
X238120Y286431D01*
X238299D01*
X242441Y282289D01*
X246583Y286431D01*
X246627D01*
X252061Y280997D01*
Y277641D01*
X251586Y277361D01*
X251561Y277363D01*
X251192Y277437D01*
X224248D01*
X222520Y279165D01*
Y295063D01*
X229492D01*
Y303937D01*
X220618D01*
Y296425D01*
X220558Y296335D01*
X220480Y295945D01*
Y294115D01*
X220019Y293923D01*
X217437Y296505D01*
Y303937D01*
X208563D01*
Y295063D01*
X215995D01*
X218980Y292078D01*
Y283115D01*
X218518Y282924D01*
X217437Y284005D01*
Y291437D01*
X208563D01*
Y282563D01*
X215995D01*
X217480Y281078D01*
Y279919D01*
X217437Y279437D01*
X208563D01*
Y270563D01*
X208127Y270409D01*
X177142D01*
X176020Y271532D01*
Y274500D01*
X175942Y274890D01*
X175721Y275221D01*
X173937Y277005D01*
Y284437D01*
X165063D01*
Y275563D01*
X172495D01*
X173700Y274358D01*
X173493Y273858D01*
X165063D01*
Y264984D01*
X173937D01*
Y266402D01*
X183461D01*
X183668Y265902D01*
X176011Y258244D01*
X175848D01*
X174871Y259221D01*
X174540Y259442D01*
X174150Y259520D01*
X173937D01*
Y262937D01*
X165063D01*
Y259520D01*
X162520D01*
Y302078D01*
X168576Y308134D01*
X261141D01*
X262465Y306811D01*
D02*
G37*
G36*
X290824Y264466D02*
X291155Y264245D01*
X291545Y264167D01*
X296588D01*
X296745Y263932D01*
X297321Y263548D01*
X297927Y263427D01*
X297921Y262927D01*
X297921D01*
Y262108D01*
X297089D01*
X296699Y262031D01*
X296368Y261810D01*
X294078Y259520D01*
X287871D01*
X285426Y261965D01*
X285633Y262465D01*
X287290D01*
X288779Y260976D01*
X289110Y260755D01*
X289500Y260677D01*
X289890Y260755D01*
X290221Y260976D01*
X290442Y261307D01*
X290520Y261697D01*
X290442Y262087D01*
X290221Y262418D01*
X288463Y264176D01*
X288431Y264234D01*
X288416Y264440D01*
X288455Y264792D01*
X288796Y265134D01*
X290157D01*
X290824Y264466D01*
D02*
G37*
G36*
X205980Y261785D02*
Y255000D01*
X206058Y254610D01*
X206279Y254279D01*
X208155Y252403D01*
X208486Y252182D01*
X208876Y252104D01*
X219009D01*
X219200Y251642D01*
X217899Y250341D01*
X217437Y250532D01*
Y251437D01*
X208563D01*
Y242563D01*
X217437D01*
X217480Y242081D01*
Y241379D01*
X215995Y239894D01*
X208563D01*
Y231020D01*
X217437D01*
Y238452D01*
X218518Y239534D01*
X218980Y239342D01*
Y230311D01*
X215995Y227326D01*
X208563D01*
Y218452D01*
X217437D01*
Y225884D01*
X220019Y228465D01*
X220480Y228274D01*
Y226444D01*
X220558Y226054D01*
X220618Y225964D01*
Y218452D01*
X229492D01*
Y227326D01*
X222520D01*
Y245714D01*
X222910Y246104D01*
X241778D01*
X242168Y246182D01*
X242499Y246403D01*
X244629Y248532D01*
X250280D01*
X250671Y248610D01*
X251001Y248831D01*
X252138Y249968D01*
X259218D01*
X259474Y249646D01*
X259244Y249209D01*
X259079Y249242D01*
X258653Y249157D01*
X258435Y249011D01*
X258095Y248951D01*
X257754Y249011D01*
X257536Y249157D01*
X257110Y249242D01*
X256685Y249157D01*
X256324Y248916D01*
X256083Y248555D01*
X255998Y248130D01*
Y243799D01*
X256083Y243374D01*
X256091Y243362D01*
Y239212D01*
X254717Y237838D01*
X254255Y238029D01*
Y241455D01*
X254193D01*
Y243362D01*
X254201Y243374D01*
X254285Y243799D01*
Y248130D01*
X254201Y248555D01*
X253959Y248916D01*
X253599Y249157D01*
X253173Y249242D01*
X252748Y249157D01*
X252387Y248916D01*
X252146Y248555D01*
X252061Y248130D01*
Y243799D01*
X252146Y243374D01*
X252154Y243362D01*
Y241455D01*
X250105D01*
Y239303D01*
X248656Y237854D01*
X248435Y237523D01*
X248357Y237133D01*
Y236412D01*
X248122Y236255D01*
X247738Y235679D01*
X247603Y235000D01*
X247738Y234321D01*
X248122Y233745D01*
X248698Y233361D01*
X249377Y233226D01*
X249851Y233320D01*
X250201Y233064D01*
X250257Y233005D01*
X250296Y232938D01*
Y232299D01*
X249732D01*
Y228346D01*
X252898D01*
Y232299D01*
X252769D01*
X252562Y232799D01*
X257559Y237797D01*
X258059Y237590D01*
Y232299D01*
X257213D01*
Y228346D01*
X260378D01*
Y232299D01*
X260098D01*
Y242520D01*
X260598Y242788D01*
X260622Y242772D01*
X261047Y242687D01*
X261473Y242772D01*
X261496Y242788D01*
X261996Y242520D01*
Y225665D01*
X261496Y225467D01*
X261304Y225595D01*
X260914Y225673D01*
X255494D01*
X255302Y226135D01*
X255776Y226609D01*
X255997Y226940D01*
X256075Y227330D01*
Y228346D01*
X256638D01*
Y232299D01*
X253473D01*
Y228346D01*
X254036D01*
Y227752D01*
X253499Y227216D01*
X247902D01*
Y228271D01*
X246748D01*
Y234699D01*
X246671Y235089D01*
X246450Y235420D01*
X242409Y239461D01*
X242078Y239682D01*
X241688Y239760D01*
X237743D01*
X237353Y239682D01*
X237023Y239461D01*
X235710Y238149D01*
X235489Y237818D01*
X235412Y237428D01*
Y235572D01*
X235489Y235182D01*
X235710Y234851D01*
X236152Y234410D01*
Y214182D01*
X220576Y198606D01*
X211566D01*
X211415Y199106D01*
X211780Y199350D01*
X212325Y200167D01*
X212517Y201130D01*
X212325Y202093D01*
X211780Y202910D01*
X210963Y203455D01*
X210000Y203647D01*
X209037Y203455D01*
X208220Y202910D01*
X207675Y202093D01*
X207483Y201130D01*
X207675Y200167D01*
X208220Y199350D01*
X208586Y199106D01*
X208434Y198606D01*
X204594D01*
Y200449D01*
X198083D01*
Y194724D01*
X204594D01*
Y196567D01*
X220998D01*
X221388Y196645D01*
X221719Y196866D01*
X237190Y212336D01*
X237652Y212145D01*
Y194653D01*
X235894Y192895D01*
X233088D01*
Y192472D01*
X197970D01*
X192020Y198422D01*
Y221344D01*
X191942Y221734D01*
X191721Y222065D01*
X185026Y228760D01*
X184695Y228981D01*
X184305Y229059D01*
X165356D01*
X162520Y231895D01*
Y257480D01*
X165063D01*
Y254063D01*
X173937D01*
X174228Y253878D01*
Y253878D01*
X178252D01*
Y253045D01*
X177330Y252122D01*
X174228D01*
Y252122D01*
X173937Y251937D01*
X165063D01*
Y243063D01*
X173937D01*
Y246480D01*
X176457D01*
X176685Y246075D01*
Y241925D01*
X184378D01*
Y246075D01*
X179899D01*
X178501Y247472D01*
X178708Y247972D01*
X178772D01*
Y250680D01*
X179993Y251901D01*
X180214Y252232D01*
X180291Y252622D01*
Y257519D01*
X185705Y262933D01*
X204832D01*
X205980Y261785D01*
D02*
G37*
G36*
X326845Y252334D02*
X326654Y251872D01*
X309433D01*
Y252691D01*
X309433D01*
Y252876D01*
X309613Y253376D01*
X325803D01*
X326845Y252334D01*
D02*
G37*
G36*
X328713Y248345D02*
X328522Y247883D01*
X322912D01*
X322755Y248118D01*
X322179Y248503D01*
X321500Y248638D01*
X320821Y248503D01*
X320245Y248118D01*
X319861Y247543D01*
X319726Y246864D01*
X319861Y246185D01*
X320245Y245609D01*
X320821Y245224D01*
X321500Y245089D01*
X322179Y245224D01*
X322755Y245609D01*
X322912Y245844D01*
X329093D01*
X334480Y240456D01*
Y139366D01*
X333735Y139057D01*
X333004Y138496D01*
X332443Y137765D01*
X332090Y136914D01*
X331970Y136000D01*
X332090Y135086D01*
X332443Y134235D01*
X333004Y133504D01*
X333735Y132943D01*
X334586Y132590D01*
X335500Y132470D01*
X336414Y132590D01*
X337265Y132943D01*
X337996Y133504D01*
X338557Y134235D01*
X338910Y135086D01*
X339030Y136000D01*
X338910Y136914D01*
X338557Y137765D01*
X337996Y138496D01*
X337265Y139057D01*
X336520Y139366D01*
Y239885D01*
X336982Y240076D01*
X358981Y218077D01*
X359028Y199579D01*
X359054Y199450D01*
X359062Y199318D01*
X359093Y199256D01*
X359106Y199189D01*
X359180Y199080D01*
X359238Y198961D01*
X359290Y198916D01*
X359328Y198859D01*
X359438Y198786D01*
X359537Y198699D01*
X375281Y189609D01*
X379288Y174656D01*
X375944Y168865D01*
X375816Y168488D01*
X375842Y168091D01*
X376109Y167095D01*
X375823Y166665D01*
X375688Y165986D01*
X375823Y165307D01*
X376207Y164732D01*
X376783Y164347D01*
X377462Y164212D01*
X378141Y164347D01*
X378716Y164732D01*
X379101Y165307D01*
X379236Y165986D01*
X379101Y166665D01*
X378716Y167241D01*
X378141Y167626D01*
X378075Y167639D01*
X377921Y168211D01*
X381265Y174002D01*
X381265Y174003D01*
X381393Y174379D01*
X381367Y174776D01*
X377948Y187536D01*
X378344Y187841D01*
X381266Y186153D01*
X381719Y184464D01*
X381895Y184107D01*
X382194Y183845D01*
X382194Y183845D01*
X387312Y180890D01*
X387689Y180762D01*
X388086Y180788D01*
X389776Y181241D01*
X390437Y180859D01*
X399074Y148623D01*
X398788Y148194D01*
X398653Y147515D01*
X398788Y146836D01*
X399172Y146260D01*
X399748Y145876D01*
X400427Y145740D01*
X401106Y145876D01*
X401681Y146260D01*
X402066Y146836D01*
X402201Y147515D01*
X402066Y148194D01*
X401681Y148769D01*
X401106Y149154D01*
X401040Y149167D01*
X393103Y178786D01*
X393500Y179091D01*
X407247Y171153D01*
X407700Y169464D01*
X407876Y169107D01*
X408175Y168845D01*
X408175Y168845D01*
X414703Y165076D01*
X421169Y140944D01*
X421345Y140587D01*
X421644Y140325D01*
X421644Y140325D01*
X428101Y136597D01*
X428263Y135994D01*
X428439Y135637D01*
X428738Y135374D01*
X428738Y135374D01*
X430416Y134406D01*
X430793Y134278D01*
X431189Y134304D01*
X433061Y134805D01*
X433418Y134981D01*
X433680Y135281D01*
X433680Y135281D01*
X434649Y136958D01*
X434776Y137335D01*
X434750Y137732D01*
X434249Y139603D01*
X434073Y139960D01*
X433774Y140222D01*
X433774Y140222D01*
X425504Y144997D01*
X420723Y162840D01*
X421120Y163144D01*
X471526Y134042D01*
X471394Y133541D01*
X395934Y132856D01*
X352197Y176782D01*
X352149Y176815D01*
X352109Y176858D01*
X352020Y176901D01*
X351937Y176957D01*
X351880Y176968D01*
X351827Y176994D01*
X351728Y176999D01*
X351630Y177018D01*
X351573Y177007D01*
X351514Y177010D01*
X351420Y176977D01*
X351323Y176958D01*
X351274Y176926D01*
X351219Y176906D01*
X351145Y176840D01*
X351062Y176785D01*
X351029Y176736D01*
X350986Y176697D01*
X350943Y176607D01*
X350887Y176524D01*
X350876Y176467D01*
X350850Y176414D01*
X339081Y130297D01*
X338624Y130034D01*
X292798Y142897D01*
X292740Y142902D01*
X292684Y142921D01*
X292585Y142914D01*
X292486Y142921D01*
X292430Y142903D01*
X292372Y142899D01*
X292282Y142855D01*
X292188Y142824D01*
X292143Y142786D01*
X292091Y142760D01*
X292025Y142685D01*
X291950Y142621D01*
X291923Y142568D01*
X291885Y142524D01*
X291853Y142430D01*
X291808Y142341D01*
X291804Y142283D01*
X291785Y142227D01*
X291792Y142128D01*
X291784Y142029D01*
X291802Y141973D01*
X291806Y141915D01*
X307979Y82078D01*
X266358Y11473D01*
X265858Y11609D01*
Y12969D01*
X265781Y13359D01*
X265560Y13690D01*
X261118Y18131D01*
Y36369D01*
X265560Y40810D01*
X265781Y41141D01*
X265858Y41531D01*
Y43469D01*
X265781Y43859D01*
X265560Y44190D01*
X261118Y48631D01*
Y71229D01*
X261618Y71496D01*
X261821Y71361D01*
X262500Y71226D01*
X263179Y71361D01*
X263755Y71745D01*
X264139Y72321D01*
X264274Y73000D01*
X264139Y73679D01*
X263755Y74255D01*
X263520Y74412D01*
Y78219D01*
X267443Y82142D01*
X278151D01*
X278342Y81680D01*
X270276Y73614D01*
X270000Y73201D01*
X269903Y72713D01*
Y67273D01*
X270000Y66785D01*
X270276Y66371D01*
X270380Y66268D01*
X270520Y66175D01*
X270646Y66064D01*
X274413Y63902D01*
X274595Y63220D01*
X273563Y61433D01*
X279032Y58275D01*
X280086Y60101D01*
X280319Y60505D01*
X280552Y60909D01*
X281366Y62318D01*
X281599Y62721D01*
X281832Y63125D01*
X282870Y64924D01*
X282870Y64924D01*
X284158Y67154D01*
X281605Y68628D01*
X281826Y69077D01*
X282198Y68923D01*
X282971Y68821D01*
X283744Y68923D01*
X284464Y69221D01*
X285083Y69696D01*
X285557Y70314D01*
X285753Y70788D01*
X290359D01*
X290798Y70288D01*
X290734Y69804D01*
X290856Y68876D01*
X291214Y68013D01*
X291783Y67271D01*
X292525Y66702D01*
X292710Y66625D01*
X292808Y66135D01*
X291008Y64335D01*
X288046Y66045D01*
X284593Y60065D01*
X287424Y58430D01*
X287490Y57934D01*
X287071Y57516D01*
X284109Y59226D01*
X280656Y53246D01*
X283944Y51347D01*
X284010Y50852D01*
X282235Y49077D01*
X281464Y49396D01*
X280537Y49518D01*
X279896Y49434D01*
X275817Y53513D01*
X276013Y53987D01*
X276115Y54760D01*
X276013Y55532D01*
X275715Y56253D01*
X275240Y56871D01*
X274622Y57346D01*
X273902Y57644D01*
X273129Y57746D01*
X272356Y57644D01*
X271636Y57346D01*
X271017Y56871D01*
X270543Y56253D01*
X270244Y55532D01*
X270143Y54760D01*
X270244Y53987D01*
X270543Y53267D01*
X271017Y52648D01*
X271636Y52174D01*
X272356Y51875D01*
X273129Y51774D01*
X273902Y51875D01*
X274375Y52071D01*
X277992Y48454D01*
X277434Y47728D01*
X277077Y46864D01*
X276955Y45937D01*
X277077Y45010D01*
X277396Y44238D01*
X276708Y43550D01*
X276245Y43741D01*
Y43803D01*
X272096D01*
Y39413D01*
X272096Y39260D01*
X272096D01*
X272135Y38929D01*
X272135D01*
Y34583D01*
X276285D01*
Y38776D01*
X276285Y38929D01*
X276285D01*
X276246Y39260D01*
X276245D01*
Y40534D01*
X276521Y40589D01*
X276852Y40810D01*
X278838Y42796D01*
X279609Y42477D01*
X280537Y42355D01*
X281464Y42477D01*
X282327Y42835D01*
X283069Y43404D01*
X283638Y44146D01*
X283996Y45010D01*
X284118Y45937D01*
X283996Y46864D01*
X283677Y47635D01*
X286128Y50086D01*
X286807Y49695D01*
X290260Y55675D01*
X289255Y56255D01*
X289190Y56751D01*
X289609Y57169D01*
X290744Y56514D01*
X294197Y62494D01*
X293192Y63074D01*
X293127Y63570D01*
X295037Y65480D01*
X295258Y65811D01*
X295336Y66201D01*
Y66382D01*
X296107Y66702D01*
X296849Y67271D01*
X297418Y68013D01*
X297776Y68876D01*
X297898Y69804D01*
X297776Y70731D01*
X297418Y71594D01*
X296849Y72336D01*
X296107Y72905D01*
X295336Y73225D01*
Y73894D01*
X296151Y74710D01*
X296255Y74779D01*
X302721Y81245D01*
X302942Y81575D01*
X303020Y81966D01*
Y96051D01*
X302942Y96441D01*
X302721Y96772D01*
X296270Y103223D01*
Y119989D01*
X296192Y120379D01*
X295971Y120710D01*
X285520Y131161D01*
Y139078D01*
X319971Y173529D01*
X320192Y173860D01*
X320270Y174250D01*
Y192946D01*
X320711Y193182D01*
X320821Y193108D01*
X321500Y192973D01*
X322179Y193108D01*
X322645Y192916D01*
X322703Y192857D01*
X322693Y192629D01*
X322361Y192131D01*
X322226Y191452D01*
X322361Y190773D01*
X322745Y190197D01*
X323321Y189813D01*
X324000Y189678D01*
X324679Y189813D01*
X325255Y190197D01*
X325639Y190773D01*
X325774Y191452D01*
X325639Y192131D01*
X325255Y192707D01*
X325020Y192864D01*
Y209357D01*
X324942Y209747D01*
X324721Y210078D01*
X314020Y220779D01*
Y224885D01*
X314481Y225077D01*
X317063Y222495D01*
Y218563D01*
X325937D01*
Y227437D01*
X317063D01*
Y226032D01*
X316601Y225841D01*
X315520Y226922D01*
Y240665D01*
X315982Y240856D01*
X317063Y239775D01*
Y236398D01*
X317058Y236390D01*
X316980Y236000D01*
X317058Y235610D01*
X317063Y235602D01*
Y231563D01*
X325937D01*
Y240437D01*
X319284D01*
X311008Y248713D01*
X310677Y248934D01*
X310287Y249012D01*
X309932D01*
X309516Y249014D01*
X309468Y249514D01*
X309787Y249833D01*
X327225D01*
X328713Y248345D01*
D02*
G37*
G36*
X244709Y234277D02*
Y228271D01*
X243556D01*
Y224122D01*
X246362D01*
X246532Y223952D01*
X246862Y223731D01*
X247252Y223653D01*
X251221D01*
X251318Y223634D01*
X254066D01*
X254221Y223134D01*
X254058Y222890D01*
X254011Y222654D01*
X253473D01*
Y219668D01*
X252973Y219401D01*
X252898Y219451D01*
Y222654D01*
X249732D01*
Y218701D01*
X250060D01*
X250138Y218308D01*
X250414Y217895D01*
X258393Y209915D01*
X258202Y209453D01*
X252874D01*
X252484Y209376D01*
X252153Y209155D01*
X240153Y197154D01*
X239691Y197346D01*
Y235088D01*
X239926Y235245D01*
X240311Y235821D01*
X240446Y236500D01*
X240311Y237179D01*
X240243Y237280D01*
X240479Y237721D01*
X241265D01*
X244709Y234277D01*
D02*
G37*
G36*
X320480Y209313D02*
Y204101D01*
X319980Y203949D01*
X319971Y203964D01*
X313813Y210122D01*
X313868Y210399D01*
X313733Y211078D01*
X313348Y211654D01*
X312772Y212038D01*
X312093Y212173D01*
X312063Y212204D01*
X311839Y212633D01*
X311978Y212841D01*
X312056Y213232D01*
Y215087D01*
X311978Y215477D01*
X311757Y215808D01*
X311020Y216546D01*
Y218121D01*
X311481Y218312D01*
X320480Y209313D01*
D02*
G37*
G36*
X398030Y198572D02*
X398041Y198396D01*
X401753Y184543D01*
X401348Y184125D01*
X400954Y184203D01*
X400275Y184068D01*
X399700Y183683D01*
X399315Y183107D01*
X399302Y183041D01*
X397958Y182681D01*
X397847Y182627D01*
X392802Y185539D01*
X392646Y186124D01*
X393938Y188363D01*
X394066Y188739D01*
X394040Y189136D01*
X393395Y191544D01*
X397521Y198691D01*
X398030Y198572D01*
D02*
G37*
G36*
X131147Y187912D02*
X132440Y185674D01*
X132702Y185375D01*
X133059Y185199D01*
X135466Y184554D01*
X139593Y177407D01*
X139235Y177026D01*
X139077Y177104D01*
X125163Y180832D01*
X125087Y181370D01*
X125432Y181886D01*
X125567Y182565D01*
X125432Y183244D01*
X125145Y183673D01*
X125509Y185033D01*
X125509Y185033D01*
X125517Y185156D01*
X130562Y188069D01*
X131147Y187912D01*
D02*
G37*
G36*
X264194Y111480D02*
X273061D01*
X273110Y110980D01*
X272917Y110942D01*
X272586Y110721D01*
X264715Y102849D01*
X264172Y103014D01*
X264139Y103179D01*
X263755Y103755D01*
X263179Y104139D01*
X262500Y104274D01*
X262223Y104219D01*
X261221Y105221D01*
X261118Y105290D01*
Y111370D01*
X261292Y111543D01*
X263877D01*
X264194Y111480D01*
D02*
G37*
G36*
X288226Y108950D02*
Y100419D01*
X288322Y99931D01*
X288599Y99518D01*
X294975Y93141D01*
Y88548D01*
X294514Y88356D01*
X293356Y89514D01*
X293025Y89735D01*
X292635Y89812D01*
X268100D01*
X267710Y89735D01*
X267379Y89514D01*
X263046Y85181D01*
X261954D01*
X261181Y85954D01*
Y87046D01*
X262418Y88283D01*
X262639Y88614D01*
X262716Y89004D01*
Y97967D01*
X273730Y108980D01*
X287169D01*
X287559Y109058D01*
X287725Y109169D01*
X288226Y108950D01*
D02*
G37*
G36*
X291033Y87273D02*
X291005Y87255D01*
X290621Y86679D01*
X290486Y86000D01*
X290305Y85779D01*
X267182D01*
X266990Y86241D01*
X268522Y87773D01*
X290881D01*
X291033Y87273D01*
D02*
G37*
G36*
X294076Y75519D02*
X293595Y75037D01*
X293374Y74706D01*
X293296Y74316D01*
Y73225D01*
X292525Y72905D01*
X292400Y72809D01*
X292312Y72827D01*
X285753D01*
X285557Y73300D01*
X285083Y73919D01*
X284464Y74393D01*
X283744Y74692D01*
X282971Y74793D01*
X282198Y74692D01*
X281478Y74393D01*
X280860Y73919D01*
X280385Y73300D01*
X280087Y72580D01*
X279985Y71807D01*
X280087Y71034D01*
X280385Y70314D01*
X280860Y69696D01*
X281179Y69451D01*
X280901Y69034D01*
X278689Y70311D01*
X278689Y70311D01*
X278375Y70229D01*
X277395Y70810D01*
X277337Y71395D01*
X281922Y75980D01*
X293885D01*
X294076Y75519D01*
D02*
G37*
%LPC*%
G36*
X189500Y392530D02*
X188586Y392410D01*
X187735Y392057D01*
X187004Y391496D01*
X186443Y390765D01*
X186090Y389914D01*
X185970Y389000D01*
X186090Y388086D01*
X186443Y387235D01*
X187004Y386504D01*
X187735Y385943D01*
X188586Y385590D01*
X189500Y385470D01*
X190414Y385590D01*
X190439Y385601D01*
X228208Y347832D01*
X228152Y347555D01*
X228288Y346876D01*
X228672Y346301D01*
X229248Y345916D01*
X229927Y345781D01*
X230606Y345916D01*
X231181Y346301D01*
X231566Y346876D01*
X231701Y347555D01*
X231566Y348234D01*
X231181Y348810D01*
X230606Y349194D01*
X229927Y349329D01*
X229650Y349274D01*
X192180Y386743D01*
X192557Y387235D01*
X192910Y388086D01*
X193030Y389000D01*
X192910Y389914D01*
X192557Y390765D01*
X191996Y391496D01*
X191265Y392057D01*
X190414Y392410D01*
X189500Y392530D01*
D02*
G37*
G36*
X335500Y392030D02*
X334586Y391910D01*
X333735Y391557D01*
X333004Y390996D01*
X332443Y390265D01*
X332090Y389414D01*
X331970Y388500D01*
X332090Y387586D01*
X332399Y386841D01*
X295777Y350219D01*
X295500Y350274D01*
X294821Y350139D01*
X294245Y349755D01*
X293861Y349179D01*
X293726Y348500D01*
X293861Y347821D01*
X294245Y347245D01*
X294821Y346861D01*
X295500Y346726D01*
X296179Y346861D01*
X296755Y347245D01*
X297139Y347821D01*
X297274Y348500D01*
X297219Y348777D01*
X333841Y385399D01*
X334586Y385090D01*
X335500Y384970D01*
X336414Y385090D01*
X337265Y385443D01*
X337996Y386004D01*
X338557Y386735D01*
X338910Y387586D01*
X339030Y388500D01*
X338910Y389414D01*
X338557Y390265D01*
X337996Y390996D01*
X337265Y391557D01*
X336414Y391910D01*
X335500Y392030D01*
D02*
G37*
G36*
X277095Y201240D02*
X272158D01*
Y186461D01*
X273611D01*
Y166553D01*
X271578Y164520D01*
X261334D01*
X260953Y164807D01*
X260953Y165020D01*
Y179193D01*
X254047D01*
Y165020D01*
X254047Y164807D01*
X253666Y164520D01*
X216162D01*
X209189Y171493D01*
X209436Y171954D01*
X210000Y171841D01*
X210963Y172033D01*
X211780Y172579D01*
X212325Y173395D01*
X212517Y174358D01*
X212325Y175321D01*
X211780Y176138D01*
X210963Y176683D01*
X210000Y176875D01*
X209037Y176683D01*
X208220Y176138D01*
X207675Y175321D01*
X207483Y174358D01*
X207595Y173794D01*
X207135Y173547D01*
X204594Y176088D01*
Y180764D01*
X198083D01*
Y175039D01*
X202759D01*
X215019Y162779D01*
X215350Y162558D01*
X215740Y162480D01*
X272000D01*
X272390Y162558D01*
X272721Y162779D01*
X275352Y165410D01*
X275573Y165741D01*
X275651Y166131D01*
Y186461D01*
X277095D01*
Y201240D01*
D02*
G37*
G36*
X408000Y266030D02*
X407086Y265910D01*
X406235Y265557D01*
X405504Y264996D01*
X404943Y264265D01*
X404634Y263520D01*
X366912D01*
X366755Y263755D01*
X366179Y264139D01*
X365500Y264274D01*
X364821Y264139D01*
X364245Y263755D01*
X363861Y263179D01*
X363726Y262500D01*
X363861Y261821D01*
X364245Y261245D01*
X364821Y260861D01*
X365500Y260726D01*
X366179Y260861D01*
X366755Y261245D01*
X366912Y261480D01*
X404634D01*
X404943Y260735D01*
X405504Y260004D01*
X406235Y259443D01*
X407086Y259090D01*
X408000Y258970D01*
X408914Y259090D01*
X409765Y259443D01*
X410496Y260004D01*
X411057Y260735D01*
X411410Y261586D01*
X411530Y262500D01*
X411410Y263414D01*
X411057Y264265D01*
X410496Y264996D01*
X409765Y265557D01*
X408914Y265910D01*
X408000Y266030D01*
D02*
G37*
%LPD*%
D10*
X307004Y241441D02*
X307681Y242118D01*
X313000Y220357D02*
Y238979D01*
Y220357D02*
X324000Y209357D01*
X311500Y219735D02*
Y236503D01*
Y219735D02*
X321500Y209735D01*
X310000Y216124D02*
X311036Y215087D01*
Y213232D02*
Y215087D01*
X308800Y210995D02*
X311036Y213232D01*
X308500Y214456D02*
Y230386D01*
Y214456D02*
X308796Y214159D01*
X233500Y265453D02*
X236322D01*
X184661D02*
X233500D01*
Y263012D02*
Y265453D01*
X287673D02*
X289476Y267256D01*
X291545Y265187D01*
X260250Y286494D02*
X263016Y283728D01*
X249377Y237133D02*
X253173Y240929D01*
X175426Y257224D02*
X176500D01*
X233875Y263006D02*
X234053D01*
X236500Y265453D02*
X236500D01*
X227500Y260208D02*
X239208D01*
X291545Y265187D02*
X298000D01*
X288040Y158573D02*
X305500Y176216D01*
X284431Y160314D02*
X305500Y181419D01*
X261252Y160193D02*
X284431Y160314D01*
X305500Y181419D02*
Y187797D01*
X295500Y348500D02*
X335500Y388500D01*
X274631Y166131D02*
Y193000D01*
X272000Y163500D02*
X274631Y166131D01*
X215740Y163500D02*
X272000D01*
X201339Y177902D02*
X215740Y163500D01*
X261990Y158437D02*
X288040Y158573D01*
X258416Y154826D02*
X261990Y158437D01*
X256902Y155797D02*
X261252Y160193D01*
X256902Y127902D02*
Y155797D01*
X258416Y154826D02*
X258512Y136500D01*
X238671Y194231D02*
X252874Y208434D01*
X297276D02*
X306128Y199582D01*
X252874Y208434D02*
X297276D01*
X260878Y216365D02*
Y222568D01*
Y216365D02*
X262809Y214434D01*
X301514D02*
X303707Y212240D01*
X262809Y214434D02*
X301514D01*
X302734Y215934D02*
X306500Y212168D01*
X263431Y215934D02*
X302734D01*
X262378Y216986D02*
X263431Y215934D01*
X283000Y140121D02*
X317750Y174871D01*
X284500Y139500D02*
X319250Y174250D01*
X245729Y226196D02*
Y234699D01*
X241688Y238740D02*
X245729Y234699D01*
X237743Y238740D02*
X241688D01*
X236431Y237428D02*
X237743Y238740D01*
X236431Y235572D02*
Y237428D01*
Y235572D02*
X237171Y234832D01*
Y213760D02*
Y234832D01*
X220998Y197587D02*
X237171Y213760D01*
X238671Y194231D02*
Y236500D01*
X235163Y190722D02*
X238671Y194231D01*
X306128Y199582D02*
X308413D01*
X197548Y191452D02*
X234433D01*
X191000Y198000D02*
X197548Y191452D01*
X184305Y228039D02*
X191000Y221344D01*
Y198000D02*
Y221344D01*
X161500Y258000D02*
Y302500D01*
Y231473D02*
Y258000D01*
X162000Y258500D02*
X169500D01*
X161500Y258000D02*
X162000Y258500D01*
X161500Y302500D02*
X168154Y309154D01*
X160000Y230851D02*
Y303346D01*
Y230851D02*
X164312Y226539D01*
X160000Y303346D02*
X167308Y310654D01*
X309470Y206750D02*
X313621D01*
X306500Y209720D02*
X309470Y206750D01*
X306500Y209720D02*
Y212168D01*
X313621Y206750D02*
X317750Y202621D01*
Y174871D02*
Y202621D01*
X319250Y174250D02*
Y203243D01*
X312093Y210399D02*
X319250Y203243D01*
X321500Y194747D02*
Y209735D01*
X303707Y211793D02*
Y212240D01*
X335500Y136000D02*
Y240879D01*
X324000Y191452D02*
Y209357D01*
X284500Y130739D02*
Y139500D01*
X283000Y130117D02*
Y140121D01*
X284500Y130739D02*
X295250Y119989D01*
X283000Y130117D02*
X293750Y119368D01*
X295250Y102801D02*
Y119989D01*
Y102801D02*
X302000Y96051D01*
Y81966D02*
Y96051D01*
X295534Y75500D02*
X302000Y81966D01*
X295500Y75500D02*
X295534D01*
X294316Y74316D02*
X295500Y75500D01*
X294316Y69804D02*
Y74316D01*
X281500Y77000D02*
X294913D01*
X293750Y102179D02*
X300500Y95429D01*
Y82587D02*
Y95429D01*
X294913Y77000D02*
X300500Y82587D01*
X293750Y102179D02*
Y119368D01*
X262378Y216986D02*
Y223189D01*
X287698Y110529D02*
Y113428D01*
X287169Y110000D02*
X287698Y110529D01*
X283951Y114161D02*
X284530Y114740D01*
X261531Y114161D02*
X283951D01*
X286386Y114740D02*
X287698Y113428D01*
X284530Y114740D02*
X286386D01*
X264194Y112500D02*
X285458D01*
X264131Y112563D02*
X264194Y112500D01*
X273307Y110000D02*
X287169D01*
X261697Y98390D02*
X273307Y110000D01*
X292635Y88793D02*
X294500Y86928D01*
Y85072D02*
Y86928D01*
X292589Y83161D02*
X294500Y85072D01*
X267020Y83161D02*
X292589D01*
X291020Y84760D02*
X292260Y86000D01*
X268100Y88793D02*
X292635D01*
X266358Y84760D02*
X291020D01*
X263469Y84161D02*
X268100Y88793D01*
X262500Y78641D02*
X267020Y83161D01*
X276131Y70374D02*
Y71631D01*
Y70374D02*
X280780Y67617D01*
X276131Y71631D02*
X281500Y77000D01*
X268989Y239000D02*
X269449D01*
X268921Y242621D02*
X274179Y237363D01*
X270890Y242913D02*
X274841Y238962D01*
X270890Y242913D02*
Y245965D01*
X272858Y243379D02*
X275677Y240560D01*
X272858Y243379D02*
Y245965D01*
X274827Y243532D02*
X276158Y242201D01*
X274827Y243532D02*
Y245965D01*
X299105Y242201D02*
X299769Y241536D01*
X276158Y242201D02*
X299105D01*
X293668Y238575D02*
X300351D01*
X291683Y240560D02*
X293668Y238575D01*
X275677Y240560D02*
X291683D01*
X291160Y238962D02*
X294696Y235425D01*
X274841Y238962D02*
X291160D01*
X290637Y237363D02*
X296118Y231882D01*
X274179Y237363D02*
X290637D01*
X268921Y242621D02*
Y245965D01*
X307004Y231882D02*
X308500Y230386D01*
X308413Y235425D02*
X310000Y233839D01*
Y216124D02*
Y233839D01*
X309428Y238575D02*
X311500Y236503D01*
X309861Y242118D02*
X313000Y238979D01*
X201339Y197587D02*
X220998D01*
X249377Y235000D02*
Y237133D01*
X251315Y232995D02*
X257110Y238790D01*
X251315Y230323D02*
Y232995D01*
X245729Y226196D02*
X247252Y224673D01*
X251338D01*
X251318Y224654D02*
X251338Y224673D01*
X251318Y224654D02*
X260914D01*
X262378Y223189D01*
X263016Y224673D02*
X268641Y219048D01*
Y219000D02*
Y219048D01*
X263016Y224673D02*
Y245965D01*
X329515Y246864D02*
X335500Y240879D01*
X321500Y246864D02*
X329515D01*
X315598Y288402D02*
X321000Y283000D01*
X319500Y290000D02*
X320000D01*
X281377D02*
X319500D01*
X272858Y281482D02*
X281377Y290000D01*
X255055Y220677D02*
Y222445D01*
X255000Y222500D02*
X255055Y222445D01*
X255000Y222500D02*
X255654Y223153D01*
X260292D01*
X260878Y222568D01*
X224417Y187744D02*
X230939Y181222D01*
X218661Y187744D02*
X224417D01*
X147494Y201308D02*
X157316Y211131D01*
X183000D01*
X157564Y213500D02*
X185328D01*
X147501Y203437D02*
X157564Y213500D01*
X243454Y181222D02*
X243978D01*
X230939D02*
X243454D01*
X156500Y330029D02*
X296971D01*
X148624Y334576D02*
X156500Y330029D01*
X296971D02*
X325098Y301902D01*
X149518Y330369D02*
X150397Y327088D01*
X270890Y324060D02*
X271345Y324515D01*
X251716Y325080D02*
X252001D01*
X268921Y308160D01*
X168154Y309154D02*
X261563D01*
X263484Y307233D01*
Y289728D02*
Y307233D01*
X260500Y286744D02*
X263484Y289728D01*
X263016Y279035D02*
Y283728D01*
X270890Y279035D02*
Y324060D01*
X189500Y387982D02*
X229927Y347555D01*
X189500Y387982D02*
Y389000D01*
X268921Y279035D02*
Y308160D01*
X262185Y310654D02*
X264984Y307854D01*
X167308Y310654D02*
X262185D01*
X266953Y279035D02*
Y308007D01*
X262806Y312154D02*
X266953Y308007D01*
X166686Y312154D02*
X262806D01*
X264984Y279035D02*
Y307854D01*
X274827Y279486D02*
X283743Y288402D01*
X274827Y279035D02*
Y279486D01*
X265000Y227192D02*
X268332Y223861D01*
X265000Y227192D02*
Y245980D01*
X266500Y242634D02*
X266953Y243087D01*
X266500Y230695D02*
Y242634D01*
Y230695D02*
X268195Y229000D01*
X264984Y245965D02*
X265000Y245980D01*
X268809Y236000D02*
X274298Y230511D01*
Y229000D02*
Y230511D01*
X277322Y226860D02*
Y231127D01*
X269449Y239000D02*
X277322Y231127D01*
X269317Y232852D02*
X271345Y230824D01*
Y222201D02*
X274546Y219000D01*
X274631Y224168D02*
X277322Y226860D01*
X271345Y222201D02*
Y230824D01*
X258512Y136500D02*
X263398D01*
X258512Y132500D02*
Y136500D01*
X261697Y118839D02*
Y129210D01*
X263398Y136500D02*
X264740Y135158D01*
Y132253D02*
Y135158D01*
X261697Y129210D02*
X264740Y132253D01*
X314500Y226500D02*
Y241500D01*
Y226500D02*
X318677Y222323D01*
X310287Y247992D02*
X320000Y238280D01*
X245729Y226196D02*
X253922D01*
X255055Y227330D01*
Y230323D01*
X274171Y41531D02*
X276131D01*
X280537Y45937D01*
X274171Y41531D02*
X274210Y41492D01*
Y36756D02*
Y41492D01*
X255142Y279035D02*
Y281482D01*
Y278121D02*
Y279035D01*
X248306Y288318D02*
X255142Y281482D01*
X248306Y293454D02*
X249401Y294549D01*
X248306Y288318D02*
Y293454D01*
X242302Y287451D02*
X247049D01*
X253173Y281327D01*
Y279035D02*
Y281327D01*
X237698Y287451D02*
X242302D01*
X235351Y285104D02*
X237698Y287451D01*
X249401Y294549D02*
Y299154D01*
X251614Y301367D01*
X117000Y262467D02*
X166686Y312154D01*
X156103Y328412D02*
X296327D01*
X283743Y288402D02*
X315598D01*
X272858Y279035D02*
Y281482D01*
X296327Y328412D02*
X304598Y320141D01*
X327647Y250853D02*
X360000Y218500D01*
X307004Y250853D02*
X327647D01*
X360000Y218500D02*
X360047Y199582D01*
X376157Y190281D01*
X374384Y197769D02*
X375263Y194489D01*
X361598Y200824D02*
X362288Y200134D01*
X361598Y200824D02*
Y219023D01*
X326225Y254396D02*
X361598Y219023D01*
X307004Y254396D02*
X326225D01*
X292312Y71807D02*
X294316Y69804D01*
X282971Y71807D02*
X292312D01*
X289395Y61280D02*
X294316Y66201D01*
Y69804D01*
X285458Y54461D02*
X289395Y58398D01*
Y61280D01*
X280537Y45937D02*
X285458Y50858D01*
Y54461D01*
X280537Y45937D02*
Y47352D01*
X273129Y54760D02*
X280537Y47352D01*
X142992Y200114D02*
X146314Y203437D01*
X147501D01*
X257110Y238790D02*
Y245965D01*
X259079Y230606D02*
Y245965D01*
X307004Y235425D02*
X308413D01*
X307681Y242118D02*
X309861D01*
X307004Y238575D02*
X309428D01*
X299187Y231882D02*
X299769Y231300D01*
X296118Y231882D02*
X299187D01*
X294696Y235425D02*
X300351D01*
X309508Y246492D02*
X314500Y241500D01*
X318000Y236000D02*
X320000Y238000D01*
Y238280D01*
X451851Y174471D02*
X455513Y180813D01*
X381843Y325086D02*
X387707Y328471D01*
X381721Y325015D02*
X381843Y325086D01*
X382176Y324894D02*
X397490Y320790D01*
X381721Y325015D02*
X382176Y324894D01*
X376211Y318737D02*
X382105Y324631D01*
X371641Y318737D02*
X376211D01*
X310450Y257545D02*
X371641Y318737D01*
X307004Y257545D02*
X310450D01*
X374350Y327224D02*
X377631Y326345D01*
X429599Y389006D02*
X433261Y382664D01*
X328574Y279913D02*
Y302947D01*
X319073Y270412D02*
X328574Y279913D01*
X306827Y270412D02*
X319073D01*
X327000Y280500D02*
Y302260D01*
X320455Y273955D02*
X327000Y280500D01*
X306827Y273955D02*
X320455D01*
X325098Y281098D02*
Y301902D01*
X321105Y277105D02*
X325098Y281098D01*
X306827Y277105D02*
X321105D01*
X323240Y282072D02*
Y301499D01*
X321816Y280648D02*
X323240Y282072D01*
X306827Y280648D02*
X321816D01*
X311872Y261089D02*
X372061Y321279D01*
X307004Y261089D02*
X311872D01*
X306584Y324937D02*
X328574Y302947D01*
X305922Y323338D02*
X327000Y302260D01*
X304598Y320141D02*
X323240Y301499D01*
X297832Y247992D02*
X310287D01*
X297200Y246492D02*
X309508D01*
X292692Y251000D02*
X297200Y246492D01*
X295400Y250425D02*
X297832Y247992D01*
X296104Y254396D02*
X300350D01*
X295000Y255500D02*
X296104Y254396D01*
X297147Y250853D02*
X300350D01*
X294000Y254000D02*
X297147Y250853D01*
X295400Y250414D02*
Y250425D01*
X293313Y252500D02*
X295400Y250414D01*
X295700Y257579D02*
X300350D01*
X295121Y257000D02*
X295700Y257579D01*
X286827Y257000D02*
X295121D01*
X284280Y259547D02*
X286827Y257000D01*
X294500Y258500D02*
X297089Y261089D01*
X287449Y258500D02*
X294500D01*
X284433Y261516D02*
X287449Y258500D01*
X297089Y261089D02*
X300350D01*
X294371Y273955D02*
X300173D01*
X292416Y272000D02*
X294371Y273955D01*
X287000Y272000D02*
X292416D01*
X295400Y277105D02*
X300173D01*
X291795Y273500D02*
X295400Y277105D01*
X286379Y273500D02*
X291795D01*
X296822Y280648D02*
X300173D01*
X291174Y275000D02*
X296822Y280648D01*
X285757Y275000D02*
X291174D01*
X287976Y270500D02*
X300173D01*
X284342Y251000D02*
X292692D01*
X283669Y251673D02*
X284342Y251000D01*
X280535Y251673D02*
X283669D01*
X284963Y252500D02*
X293313D01*
X283822Y253642D02*
X284963Y252500D01*
X280535Y253642D02*
X283822D01*
X183684Y226539D02*
X189500Y220723D01*
X164312Y226539D02*
X183684D01*
X164933Y228039D02*
X184305D01*
X161500Y231473D02*
X164933Y228039D01*
X213000Y273926D02*
X214074Y275000D01*
X218879D02*
X222520Y271358D01*
X214074Y275000D02*
X218879D01*
X222520Y271358D02*
X247465D01*
X223825Y276417D02*
X251192D01*
X221500Y278743D02*
X223825Y276417D01*
X221500Y278743D02*
Y295945D01*
X223204Y274917D02*
X250571D01*
X220000Y278121D02*
X223204Y274917D01*
X220000Y278121D02*
Y292500D01*
X222673Y273327D02*
X247465D01*
X218500Y277500D02*
X222673Y273327D01*
X218500Y277500D02*
Y281500D01*
X251192Y276417D02*
X254109Y273500D01*
X213000Y299500D02*
X220000Y292500D01*
X221500Y295945D02*
X225055Y299500D01*
X254109Y273500D02*
X256163D01*
X257110Y274448D01*
Y279035D01*
X259079Y274295D02*
Y279035D01*
X256784Y272000D02*
X259079Y274295D01*
X253488Y272000D02*
X256784D01*
X250571Y274917D02*
X253488Y272000D01*
X213000Y235457D02*
X218500Y240957D01*
X212521Y234979D02*
X213000Y235457D01*
X221500Y226444D02*
X225055Y222889D01*
X250280Y249552D02*
X251716Y250987D01*
X244206Y249552D02*
X250280D01*
X241778Y247124D02*
X244206Y249552D01*
X222488Y247124D02*
X241778D01*
X221500Y246136D02*
X222488Y247124D01*
X221500Y226444D02*
Y246136D01*
X244053Y253642D02*
X247465D01*
X240535Y250124D02*
X244053Y253642D01*
X221245Y250124D02*
X240535D01*
X243900Y255610D02*
X247465D01*
X239914Y251624D02*
X243900Y255610D01*
X220624Y251624D02*
X239914D01*
X243748Y257579D02*
X247465D01*
X239293Y253124D02*
X243748Y257579D01*
X208876Y253124D02*
X239293D01*
X238671Y254624D02*
X243595Y259547D01*
X220486Y254624D02*
X238671D01*
X244206Y251673D02*
X247465D01*
X241157Y248624D02*
X244206Y251673D01*
X251716Y250987D02*
X259675D01*
X261047Y249615D01*
Y245965D02*
Y249615D01*
X215110Y260000D02*
X220486Y254624D01*
X213000Y260000D02*
X215110D01*
X213000Y222889D02*
X220000Y229889D01*
Y246757D01*
X221866Y248624D01*
X241157D01*
X286206Y255500D02*
X295000D01*
X284127Y257579D02*
X286206Y255500D01*
X285585Y254000D02*
X294000D01*
X283975Y255610D02*
X285585Y254000D01*
X284897Y267421D02*
X287976Y270500D01*
X280535Y267421D02*
X284897D01*
X280535Y269390D02*
X284390D01*
X284084Y273327D02*
X285757Y275000D01*
X280535Y273327D02*
X284084D01*
X284390Y269390D02*
X287000Y272000D01*
X280535Y271358D02*
X284237D01*
X286379Y273500D01*
X280535Y255610D02*
X283975D01*
X280535Y257579D02*
X284127D01*
X280535Y259547D02*
X284280D01*
X280535Y261516D02*
X284433D01*
X169500Y280000D02*
X175000Y274500D01*
Y271110D02*
Y274500D01*
Y271110D02*
X176720Y269390D01*
X247465D01*
X171500Y267421D02*
X171968Y266953D01*
X169500Y269421D02*
X171500Y267421D01*
X218500Y247379D02*
X221245Y250124D01*
X218500Y240957D02*
Y247379D01*
X216805Y247805D02*
X220624Y251624D01*
X213000Y247805D02*
X216805D01*
X171500Y267421D02*
X247465Y267421D01*
X213000Y287000D02*
X218500Y281500D01*
X174150Y258500D02*
X175426Y257224D01*
X176500D02*
Y257291D01*
Y255953D02*
Y257224D01*
Y257291D02*
X184661Y265453D01*
X169500Y258500D02*
X174150D01*
X236500Y265453D02*
X247465D01*
X236500D02*
Y265453D01*
X239208Y260208D02*
X242484Y263484D01*
X177032Y247500D02*
Y250382D01*
X207000Y255000D02*
X208876Y253124D01*
X242484Y263484D02*
X247465D01*
X207000Y255000D02*
Y262207D01*
X205254Y263953D02*
X207000Y262207D01*
X185283Y263953D02*
X205254D01*
X243595Y259547D02*
X247465D01*
X179272Y257942D02*
X185283Y263953D01*
X179272Y252622D02*
Y257942D01*
X177032Y250382D02*
X179272Y252622D01*
X46349Y137852D02*
X46972Y138213D01*
X48436Y143677D01*
X46500Y144404D02*
X100216Y175418D01*
X46500Y144404D02*
Y144404D01*
X45307Y139951D02*
X46500Y144404D01*
X44315Y139379D02*
X45307Y139951D01*
X98245Y167815D02*
X103130Y170635D01*
X91452Y142465D02*
X98245Y167815D01*
X71831Y152565D02*
X73295Y158029D01*
X43409Y138856D02*
X44315Y139379D01*
X45500Y137363D02*
X46349Y137852D01*
X48436Y143677D02*
X73295Y158029D01*
X49581Y141268D02*
X49970Y142716D01*
X49581Y137930D02*
Y141268D01*
X47425Y135774D02*
X49581Y137930D01*
X49970Y142716D02*
X65686Y151790D01*
X72161Y150055D01*
X479040Y140046D02*
X479660Y139688D01*
X472565Y138311D02*
X479040Y140046D01*
X472500Y134657D02*
X476953Y135850D01*
X418932Y165585D02*
X472500Y134657D01*
X476953Y135850D02*
X478999Y134669D01*
X477930Y137987D02*
X479330Y137179D01*
X472466Y136523D02*
X477930Y137987D01*
X456659Y147494D02*
X472565Y138311D01*
X454924Y153970D02*
X456659Y147494D01*
X447452Y150964D02*
X472466Y136523D01*
X479660Y139688D02*
X481338Y138719D01*
X447452Y150964D02*
X452916Y152428D01*
X365500Y262500D02*
X408000D01*
X365000D02*
X365500D01*
X262500Y513000D02*
X266500Y509000D01*
X262500Y513000D02*
Y514500D01*
X260839Y442437D02*
X264131D01*
X258642Y440240D02*
X260839Y442437D01*
X262500Y446359D02*
Y452000D01*
X243943Y470557D02*
X262500Y452000D01*
X268098Y427826D02*
X270772Y430500D01*
X266500Y362760D02*
Y392500D01*
Y362760D02*
X279662Y349598D01*
X280324Y351197D02*
X306584Y324937D01*
X268098Y363423D02*
Y397098D01*
Y363423D02*
X280324Y351197D01*
X279662Y349598D02*
X305922Y323338D01*
X372059Y321283D02*
X376940Y324101D01*
X123309Y147922D02*
X124320Y147651D01*
X147082Y198784D02*
X150363Y197905D01*
X260869Y112563D02*
X264131D01*
X147773Y201029D02*
X148302Y200112D01*
X45451Y387679D02*
X50915Y389143D01*
X71865Y372428D02*
X77329Y373893D01*
X108391Y355959D01*
X50915Y389143D02*
X77329Y373893D01*
X71534Y369919D02*
X78009Y371654D01*
X69857Y370888D02*
X71534Y369919D01*
X68121Y377363D02*
X69857Y370888D01*
X43443Y386138D02*
X45120Y385169D01*
X42941Y388009D02*
X43443Y386138D01*
X42941Y388009D02*
X43910Y389687D01*
X45781Y390188D01*
X46688Y389665D01*
X147319Y358871D02*
X147953Y356502D01*
X144399Y350345D02*
X147953Y356502D01*
X123826Y342428D02*
X126558Y343161D01*
X126759Y343508D01*
X78009Y371654D02*
X104242Y356508D01*
X69268Y344044D02*
X72929Y350386D01*
X98278Y357178D01*
X103164Y354358D01*
X91344Y324845D02*
X91846Y322974D01*
X93523Y322005D01*
X95395Y322507D01*
X96363Y324184D01*
X96092Y325196D02*
X96363Y324184D01*
X119325Y312321D02*
X121003Y311353D01*
X122874Y311854D01*
X118824Y314193D02*
X119325Y312321D01*
X122874Y311854D02*
X123843Y313532D01*
X123572Y314543D02*
X123843Y313532D01*
X45120Y385169D02*
X51596Y386904D01*
X68121Y377363D01*
X46688Y389665D02*
X51141Y390858D01*
X144399Y350345D02*
X148624Y334576D01*
X124354Y377342D02*
X133468Y343326D01*
X96092Y325196D02*
X108535Y346747D01*
X91344Y324845D02*
X104818Y348183D01*
X103164Y354358D02*
X104818Y348183D01*
X93583Y325526D02*
X93854Y324515D01*
X93583Y325526D02*
X106534Y347957D01*
X104242Y356508D02*
X106534Y347957D01*
X107460Y350759D02*
X108535Y346747D01*
X110526Y354654D02*
X113351Y353023D01*
X108429Y354092D02*
X110526Y354654D01*
X104242Y356508D02*
X108429Y354092D01*
X114723Y354076D02*
X115285Y351978D01*
X110752Y356369D02*
X114723Y354076D01*
X108654Y355807D02*
X110752Y356369D01*
X113913Y350925D02*
X126759Y343508D01*
X113351Y353023D02*
X113913Y350925D01*
X107460Y350759D02*
X108429Y352437D01*
X110300Y352938D01*
X111978Y351970D01*
X112540Y349872D01*
X120668Y345179D01*
X147334Y329784D02*
X147942Y327514D01*
X147887Y327418D02*
X147942Y327514D01*
X147887Y327418D02*
X148389Y325547D01*
X150066Y324578D01*
X151938Y325080D01*
X152906Y326758D01*
X152405Y328629D02*
X152906Y326758D01*
X151498Y329152D02*
X152405Y328629D01*
X151278Y329976D02*
X151498Y329152D01*
X151278Y329976D02*
X151807Y330893D01*
X156103Y328412D01*
X123572Y314543D02*
X134541Y333542D01*
X138377Y334955D02*
X147334Y329784D01*
X121333Y313862D02*
X132480Y333169D01*
X133468Y343326D02*
X134861Y342522D01*
X115285Y351978D02*
X134635Y340807D01*
X118824Y314193D02*
X125754Y326197D01*
X120668Y345179D02*
X125754Y326197D01*
X133942Y333888D02*
X134541Y333542D01*
X133441Y335759D02*
X133942Y333888D01*
X133441Y335759D02*
X134410Y337437D01*
X136507Y339653D02*
X139331Y338023D01*
X140704Y339076D02*
X141266Y336979D01*
X136733Y341369D02*
X140704Y339076D01*
X142639Y338032D02*
X148624Y334576D01*
X142077Y340129D02*
X142639Y338032D01*
X136959Y343084D02*
X142077Y340129D01*
X141266Y336979D02*
X151807Y330893D01*
X134635Y340807D02*
X136733Y341369D01*
X134861Y342522D02*
X136959Y343084D01*
X139893Y335925D02*
X149518Y330369D01*
X139331Y338023D02*
X139893Y335925D01*
X134410Y337437D02*
X136281Y337938D01*
X137959Y336969D01*
X138460Y335098D01*
X138377Y334955D02*
X138460Y335098D01*
X131726Y335985D02*
X132480Y333169D01*
X131726Y335985D02*
X133356Y338809D01*
X126759Y343508D02*
X133074Y339862D01*
X133356Y338809D02*
X136507Y339653D01*
X133074Y339862D02*
X133356Y338809D01*
X91015Y387389D02*
X91517Y385518D01*
X100152Y380532D01*
X101254Y382596D02*
X108391Y355959D01*
X93525Y387059D02*
X101254Y382596D01*
X91015Y387389D02*
X91984Y389067D01*
X95533Y388600D02*
X95804Y387589D01*
X93855Y389568D02*
X95533Y388600D01*
X91984Y389067D02*
X93855Y389568D01*
X116658Y353032D02*
X133468Y343326D01*
X116096Y355129D02*
X116658Y353032D01*
X95804Y387589D02*
X102627Y383649D01*
X109202Y359109D02*
X116096Y355129D01*
X102627Y383649D02*
X109202Y359109D01*
X108391Y355959D02*
X108654Y355807D01*
X51141Y390858D02*
X105849Y359272D01*
X100152Y380532D02*
X105849Y359272D01*
X418932Y165585D02*
X424628Y144325D01*
X416126Y169050D02*
X416389Y168898D01*
X415579Y165748D02*
X422154Y141208D01*
X408685Y169728D02*
X415579Y165748D01*
X422154Y141208D02*
X428977Y137269D01*
X408123Y171825D02*
X408685Y169728D01*
X391312Y181531D02*
X408123Y171825D01*
X430926Y135289D02*
X432797Y135790D01*
X429248Y136258D02*
X430926Y135289D01*
X428977Y137269D02*
X429248Y136258D01*
X432797Y135790D02*
X433766Y137468D01*
X423527Y142261D02*
X431256Y137799D01*
X416389Y168898D02*
X423527Y142261D01*
X424628Y144325D02*
X433264Y139339D01*
X433766Y137468D01*
X391424Y186048D02*
X391706Y184995D01*
X388274Y185204D02*
X391424Y186048D01*
X391706Y184995D02*
X398022Y181349D01*
X391424Y186048D02*
X393055Y188872D01*
X392301Y191688D02*
X393055Y188872D01*
X386320Y189759D02*
X386403Y189902D01*
X386320Y189759D02*
X386822Y187888D01*
X388500Y186919D01*
X390371Y187420D01*
X384887Y188932D02*
X385449Y186834D01*
X375263Y194489D02*
X384887Y188932D01*
X387822Y181773D02*
X389920Y182335D01*
X388048Y183488D02*
X390145Y184050D01*
X372974Y193965D02*
X383515Y187879D01*
X382704Y184728D02*
X387822Y181773D01*
X382142Y186825D02*
X382704Y184728D01*
X376157Y190281D02*
X382142Y186825D01*
X384077Y185781D02*
X388048Y183488D01*
X383515Y187879D02*
X384077Y185781D01*
X385449Y186834D02*
X388274Y185204D01*
X390371Y187420D02*
X391340Y189098D01*
X390838Y190970D02*
X391340Y189098D01*
X390240Y191315D02*
X390838Y190970D01*
X399026Y198660D02*
X404112Y179678D01*
X399026Y198660D02*
X405957Y210664D01*
X390145Y184050D02*
X409495Y172879D01*
X389920Y182335D02*
X391312Y181531D01*
X392301Y191688D02*
X403447Y210995D01*
X377446Y195073D02*
X386403Y189902D01*
X390240Y191315D02*
X401209Y210314D01*
X362288Y200134D02*
X372974Y193965D01*
X373503Y194881D01*
X373282Y195705D02*
X373503Y194881D01*
X372376Y196228D02*
X373282Y195705D01*
X371874Y198100D02*
X372376Y196228D01*
X371874Y198100D02*
X372843Y199777D01*
X374714Y200279D01*
X376392Y199310D01*
X376893Y197439D01*
X376838Y197343D02*
X376893Y197439D01*
X376838Y197343D02*
X377446Y195073D01*
X404112Y179678D02*
X412241Y174985D01*
X412803Y172888D01*
X414480Y171919D01*
X416352Y172420D01*
X417320Y174098D01*
X410868Y173932D02*
X411430Y171834D01*
X398022Y181349D02*
X410868Y173932D01*
X414029Y168488D02*
X416126Y169050D01*
X410057Y170781D02*
X414029Y168488D01*
X409495Y172879D02*
X410057Y170781D01*
X416352Y170766D02*
X420538Y168349D01*
X414255Y170204D02*
X416352Y170766D01*
X411430Y171834D02*
X414255Y170204D01*
X416245Y178110D02*
X417320Y174098D01*
X418247Y176900D02*
X420538Y168349D01*
X418247Y176900D02*
X431198Y199331D01*
X430927Y200342D02*
X431198Y199331D01*
X419962Y176674D02*
X421617Y170499D01*
X419962Y176674D02*
X433436Y200012D01*
X416245Y178110D02*
X428688Y199662D01*
X391312Y181531D02*
X400427Y147515D01*
X376157Y190281D02*
X380382Y174512D01*
X400938Y211325D02*
X401209Y210314D01*
X400938Y211325D02*
X401906Y213003D01*
X405456Y212536D02*
X405957Y210664D01*
X401906Y213003D02*
X403778Y213504D01*
X405456Y212536D01*
X428417Y200673D02*
X428688Y199662D01*
X428417Y200673D02*
X429386Y202350D01*
X431257Y202852D01*
X432935Y201883D01*
X433436Y200012D01*
X421617Y170499D02*
X426502Y167678D01*
X451851Y174471D01*
X420538Y168349D02*
X446771Y153203D01*
X398022Y181349D02*
X398222Y181696D01*
X400954Y182429D01*
X376827Y168355D02*
X380382Y174512D01*
X478999Y134669D02*
X480871Y135170D01*
X481839Y136848D01*
X481338Y138719D02*
X481839Y136848D01*
X453246Y154938D02*
X454924Y153970D01*
X446771Y153203D02*
X453246Y154938D01*
X416389Y168898D02*
X447452Y150964D01*
X376827Y168355D02*
X377462Y165986D01*
X73295Y158029D02*
X104358Y175963D01*
X73839Y151024D02*
X75574Y157499D01*
X72161Y150055D02*
X73839Y151024D01*
X45748Y134805D02*
X47425Y135774D01*
X43876Y135307D02*
X45748Y134805D01*
X42908Y136984D02*
X43876Y135307D01*
X42908Y136984D02*
X43409Y138856D01*
X121299Y211131D02*
X123668Y210496D01*
X127223Y204339D01*
X123792Y182565D02*
X124524Y185297D01*
X124324Y185644D02*
X124524Y185297D01*
X75574Y157499D02*
X101807Y172644D01*
X91452Y142465D02*
X95114Y136124D01*
X122779Y145643D02*
X124650Y145141D01*
X126328Y146110D01*
X126830Y147981D01*
X125861Y149659D02*
X126830Y147981D01*
X124850Y149930D02*
X125861Y149659D01*
X147615Y163613D02*
X149293Y164582D01*
X149794Y166453D01*
X145744Y164114D02*
X147615Y163613D01*
X148826Y168131D02*
X149794Y166453D01*
X147815Y168402D02*
X148826Y168131D01*
X127223Y204339D02*
X142992Y200114D01*
X93820Y200479D02*
X127836Y191364D01*
X112407Y171482D02*
X124850Y149930D01*
X109305Y168981D02*
X122779Y145643D01*
X103130Y170635D02*
X109305Y168981D01*
X110358Y170353D02*
X123309Y147922D01*
X101807Y172644D02*
X110358Y170353D01*
X108395Y172556D02*
X112407Y171482D01*
X106555Y177159D02*
X109380Y178790D01*
X105993Y175061D02*
X106555Y177159D01*
X101807Y172644D02*
X105993Y175061D01*
X109154Y180505D02*
X111251Y179943D01*
X105183Y178212D02*
X109154Y180505D01*
X104621Y176115D02*
X105183Y178212D01*
X111477Y178228D02*
X124324Y185644D01*
X109380Y178790D02*
X111477Y178228D01*
X107426Y174234D02*
X108395Y172556D01*
X107426Y174234D02*
X107928Y176106D01*
X109606Y177074D01*
X111703Y176512D01*
X119831Y181205D01*
X146497Y196601D02*
X148767Y195993D01*
X148822Y195897D01*
X150693Y195396D01*
X152371Y196364D01*
X152873Y198236D01*
X151904Y199913D02*
X152873Y198236D01*
X150033Y200415D02*
X151904Y199913D01*
X149126Y199891D02*
X150033Y200415D01*
X148302Y200112D02*
X149126Y199891D01*
X136846Y187401D02*
X147815Y168402D01*
X137540Y191429D02*
X146497Y196601D01*
X136138Y185430D02*
X147285Y166123D01*
X127836Y191364D02*
X129229Y192168D01*
X111251Y179943D02*
X130601Y191115D01*
X138813Y176119D02*
X145744Y164114D01*
X119831Y181205D02*
X138813Y176119D01*
X136247Y187055D02*
X136846Y187401D01*
X134376Y187557D02*
X136247Y187055D01*
X133407Y189234D02*
X134376Y187557D01*
X132536Y192159D02*
X135361Y193790D01*
X135135Y195505D02*
X137232Y194943D01*
X131163Y193212D02*
X135135Y195505D01*
X137006Y196658D02*
X142992Y200114D01*
X134909Y197220D02*
X137006Y196658D01*
X129791Y194265D02*
X134909Y197220D01*
X137232Y194943D02*
X147773Y201029D01*
X130601Y191115D02*
X131163Y193212D01*
X129229Y192168D02*
X129791Y194265D01*
X137458Y193228D02*
X147082Y198784D01*
X135361Y193790D02*
X137458Y193228D01*
X133407Y189234D02*
X133909Y191106D01*
X135586Y192074D01*
X137458Y191573D01*
X137540Y191429D01*
X133323Y186184D02*
X136138Y185430D01*
X131692Y189008D02*
X133323Y186184D01*
X124324Y185644D02*
X130639Y189291D01*
X131692Y189008D02*
X132536Y192159D01*
X130639Y189291D02*
X131692Y189008D01*
X68450Y176630D02*
X70321Y176128D01*
X78957Y181114D01*
X77720Y183100D02*
X104358Y175963D01*
X69991Y178638D02*
X77720Y183100D01*
X67481Y178307D02*
X68450Y176630D01*
X69660Y181147D02*
X70671Y180877D01*
X67983Y180179D02*
X69660Y181147D01*
X67481Y178307D02*
X67983Y180179D01*
X111026Y181658D02*
X127836Y191364D01*
X108928Y182220D02*
X111026Y181658D01*
X70671Y180877D02*
X77494Y184816D01*
X102034Y178240D02*
X108928Y182220D01*
X77494Y184816D02*
X102034Y178240D01*
X104358Y175963D02*
X104621Y176115D01*
X78957Y181114D02*
X100216Y175418D01*
X424497Y349712D02*
X445756Y344015D01*
X424497Y349712D02*
X479204Y381297D01*
X420092Y349015D02*
X420355Y349167D01*
X422679Y346889D02*
X447219Y340314D01*
X415785Y342909D02*
X422679Y346889D01*
X447219Y340314D02*
X454041Y344253D01*
X413687Y343471D02*
X415785Y342909D01*
X396877Y333766D02*
X413687Y343471D01*
X456730Y344951D02*
X457232Y346822D01*
X455053Y343982D02*
X456730Y344951D01*
X454041Y344253D02*
X455053Y343982D01*
X456263Y348500D02*
X457232Y346822D01*
X446993Y342029D02*
X454722Y346492D01*
X420355Y349167D02*
X446993Y342029D01*
X445756Y344015D02*
X454392Y349001D01*
X456263Y348500D01*
X393021Y336121D02*
X394074Y335839D01*
X392177Y332970D02*
X393021Y336121D01*
X394074Y335839D02*
X400389Y339485D01*
X391390Y338946D02*
X393021Y336121D01*
X388575Y339700D02*
X391390Y338946D01*
X387173Y333700D02*
X387255Y333557D01*
X389127Y333055D01*
X390804Y334024D01*
X391306Y335895D01*
X387255Y331902D02*
X389352Y331340D01*
X377631Y326345D02*
X387255Y331902D01*
X394922Y330864D02*
X395484Y332962D01*
X393550Y331917D02*
X394112Y334015D01*
X376940Y324101D02*
X387481Y330187D01*
X389804Y327909D02*
X394922Y330864D01*
X387707Y328471D02*
X389804Y327909D01*
X389578Y329624D02*
X393550Y331917D01*
X387481Y330187D02*
X389578Y329624D01*
X389352Y331340D02*
X392177Y332970D01*
X390337Y337573D02*
X391306Y335895D01*
X388466Y338074D02*
X390337Y337573D01*
X387867Y337729D02*
X388466Y338074D01*
X385900Y349011D02*
X404882Y343924D01*
X378969Y361015D02*
X385900Y349011D01*
X394112Y334015D02*
X413461Y345186D01*
X395484Y332962D02*
X396877Y333766D01*
X377428Y359007D02*
X388575Y339700D01*
X378216Y328529D02*
X387173Y333700D01*
X376898Y356728D02*
X387867Y337729D01*
X376411Y325017D02*
X376940Y324101D01*
X375587Y325238D02*
X376411Y325017D01*
X374680Y324715D02*
X375587Y325238D01*
X372809Y325216D02*
X374680Y324715D01*
X371840Y326894D02*
X372809Y325216D01*
X371840Y326894D02*
X372342Y328765D01*
X374020Y329734D01*
X375891Y329232D01*
X375946Y329137D01*
X378216Y328529D01*
X404882Y343924D02*
X413010Y348617D01*
X415107Y348055D01*
X416785Y349024D01*
X417286Y350895D01*
X416318Y352573D02*
X417286Y350895D01*
X413236Y346902D02*
X415333Y346340D01*
X400389Y339485D02*
X413236Y346902D01*
X419530Y346917D02*
X420092Y349015D01*
X415559Y344624D02*
X419530Y346917D01*
X413461Y345186D02*
X415559Y344624D01*
X418720Y350068D02*
X422906Y352485D01*
X418158Y347971D02*
X418720Y350068D01*
X415333Y346340D02*
X418158Y347971D01*
X412306Y353648D02*
X416318Y352573D01*
X414355Y354776D02*
X422906Y352485D01*
X401404Y377208D02*
X414355Y354776D01*
X400393Y377479D02*
X401404Y377208D01*
X415408Y356149D02*
X421583Y354494D01*
X401934Y379487D02*
X415408Y356149D01*
X399863Y375199D02*
X412306Y353648D01*
X396877Y333766D02*
X430893Y324651D01*
X479204Y381297D02*
X480398Y385750D01*
X459027Y373339D02*
X475553Y382880D01*
X477288Y389356D01*
X375887Y356999D02*
X376898Y356728D01*
X374918Y358676D02*
X375887Y356999D01*
X377098Y361516D02*
X378969Y361015D01*
X374918Y358676D02*
X375420Y360548D01*
X377098Y361516D01*
X398852Y375470D02*
X399863Y375199D01*
X397883Y377148D02*
X398852Y375470D01*
X397883Y377148D02*
X398385Y379019D01*
X400063Y379988D01*
X401934Y379487D01*
X421583Y354494D02*
X426468Y357315D01*
X433261Y382664D01*
X422906Y352485D02*
X449139Y367631D01*
X400188Y339833D02*
X400389Y339485D01*
X400188Y339833D02*
X400920Y342565D01*
X397490Y320790D02*
X401045Y314633D01*
X480398Y385750D02*
X481304Y386274D01*
X481805Y388145D01*
X480837Y389823D02*
X481805Y388145D01*
X478965Y390324D02*
X480837Y389823D01*
X477288Y389356D02*
X478965Y390324D01*
X452552Y375074D02*
X459027Y373339D01*
X450874Y374106D02*
X452552Y375074D01*
X449139Y367631D02*
X450874Y374106D01*
X451418Y367101D02*
X477832Y382351D01*
X420355Y349167D02*
X451418Y367101D01*
X452882Y372565D01*
X477832Y382351D02*
X479296Y387815D01*
X401045Y314633D02*
X403414Y313999D01*
X236514Y114624D02*
X238248Y116358D01*
X258500Y16000D02*
X262500Y12000D01*
X258500Y46500D02*
X262500Y42500D01*
X258500Y46500D02*
Y82368D01*
Y16000D02*
Y46500D01*
X260098Y130780D02*
X262500Y133181D01*
X260098Y48209D02*
X264839Y43469D01*
Y41531D02*
Y43469D01*
X260098Y36791D02*
X264839Y41531D01*
Y11031D02*
Y12969D01*
X263469Y9661D02*
X264839Y11031D01*
X261531Y9661D02*
X263469D01*
X260161Y11031D02*
X261531Y9661D01*
X260161Y11031D02*
Y12078D01*
X238248Y116358D02*
X245358D01*
X260500Y104500D02*
X262500Y102500D01*
X260098Y104500D02*
X260500D01*
X260098Y48209D02*
Y78500D01*
X262500Y73000D02*
Y78641D01*
X260098Y17709D02*
X264839Y12969D01*
X260098Y17709D02*
Y36791D01*
X256902Y15338D02*
X260161Y12078D01*
X245358Y116358D02*
X256902Y127902D01*
X232000Y85500D02*
X256902Y110402D01*
X260098Y78500D02*
X266358Y84760D01*
X258563Y84869D02*
Y88131D01*
Y84869D02*
X260098Y83334D01*
Y78500D02*
Y83334D01*
X256965Y88793D02*
X258500Y90328D01*
X256965Y84207D02*
Y88793D01*
Y84207D02*
X258500Y82672D01*
X260098Y89666D02*
Y104500D01*
X258563Y88131D02*
X260098Y89666D01*
X261531Y84161D02*
X263469D01*
X260161Y85531D02*
X261531Y84161D01*
X260161Y85531D02*
Y87469D01*
X261697Y89004D01*
Y98390D01*
X256902Y110402D02*
Y112010D01*
X258500Y90328D02*
Y112672D01*
X258563Y114869D02*
Y118131D01*
X256965Y118793D02*
X258500Y120328D01*
X256965Y114207D02*
Y118793D01*
X256902Y120990D02*
Y127902D01*
X255366Y119455D02*
X256902Y120990D01*
X255366Y113545D02*
Y119455D01*
X258500Y120328D02*
Y132500D01*
X256965Y114207D02*
X258500Y112672D01*
X255366Y113545D02*
X256902Y112010D01*
X260098Y119666D02*
Y130780D01*
X258563Y118131D02*
X260098Y119666D01*
X260161Y115531D02*
X261531Y114161D01*
X260161Y115531D02*
Y117469D01*
X261531Y118839D01*
X261697D01*
X260098Y104500D02*
Y111792D01*
X258563Y114869D02*
X260869Y112563D01*
X260098Y111792D02*
X260869Y112563D01*
X239969Y51604D02*
X241339Y52974D01*
Y62946D01*
X239000Y62868D02*
X258500Y82368D01*
X239000Y53943D02*
Y62868D01*
X238031Y51604D02*
X239969D01*
X236661Y54912D02*
X237402Y55652D01*
X236661Y52974D02*
Y54912D01*
Y52974D02*
X238031Y51604D01*
X256902Y90990D02*
Y110402D01*
X255366Y89455D02*
X256902Y90990D01*
X237402Y55652D02*
Y63530D01*
X255366Y81495D02*
Y89455D01*
X237402Y63530D02*
X255366Y81495D01*
X258500Y82368D02*
Y82672D01*
X256902Y15338D02*
Y78509D01*
X241339Y62946D02*
X256902Y78509D01*
X266500Y442328D02*
Y442632D01*
X268098Y414598D02*
Y427826D01*
X286000Y462132D02*
Y471057D01*
X266500Y442632D02*
X286000Y462132D01*
X264131Y412437D02*
X264902Y413208D01*
X264131Y412437D02*
X266437Y410131D01*
X264902Y413208D02*
Y420500D01*
X260869Y412437D02*
X264131D01*
X258808Y410376D02*
X260869Y412437D01*
X263303Y406161D02*
X263469D01*
X264839Y407531D01*
Y409469D01*
X263469Y410839D02*
X264839Y409469D01*
X264902Y405334D02*
X266437Y406869D01*
X264902Y394220D02*
Y405334D01*
X268098Y412990D02*
X269634Y411455D01*
X266500Y412328D02*
X268035Y410793D01*
X266500Y392500D02*
Y404672D01*
X269634Y405545D02*
Y411455D01*
X268098Y404010D02*
X269634Y405545D01*
X268098Y397098D02*
Y404010D01*
X268035Y406207D02*
Y410793D01*
X266500Y404672D02*
X268035Y406207D01*
X266437Y406869D02*
Y410131D01*
X261531Y410839D02*
X263469D01*
X260161Y409469D02*
X261531Y410839D01*
X260161Y408778D02*
Y409469D01*
X249407Y412714D02*
X263303Y426610D01*
X235546Y412714D02*
X249407D01*
X266500Y412328D02*
Y434672D01*
X268098Y412990D02*
Y414598D01*
X236514Y410376D02*
X258808D01*
X263303Y395819D02*
Y406161D01*
X238223Y408778D02*
X260161D01*
X265442Y392500D02*
X266500D01*
X264839Y391897D02*
X265442Y392500D01*
X264839Y390850D02*
Y391897D01*
X263469Y389480D02*
X264839Y390850D01*
X261531Y389480D02*
X263469D01*
X260161Y390850D02*
X261531Y389480D01*
X260161Y390850D02*
Y392788D01*
X261531Y394158D01*
X261642D01*
X263303Y395819D01*
Y426610D02*
Y435996D01*
X264839Y437531D01*
Y439469D01*
X263469Y440839D02*
X264839Y439469D01*
X261531Y440839D02*
X263469D01*
X264902Y435334D02*
X266437Y436869D01*
X264902Y420500D02*
Y435334D01*
X266500Y442328D02*
X268035Y440793D01*
Y436207D02*
Y440793D01*
X266500Y434672D02*
X268035Y436207D01*
X264131Y442437D02*
X266437Y440131D01*
Y436869D02*
Y440131D01*
X258594Y437902D02*
X261531Y440839D01*
X232740Y440240D02*
X258642D01*
X232000Y439500D02*
X232740Y440240D01*
X257980Y441839D02*
X262500Y446359D01*
X231031Y441839D02*
X257980D01*
X233709Y437902D02*
X258594D01*
X268098Y414598D02*
X293000Y439500D01*
X268098Y397098D02*
X279642Y408642D01*
X237483Y408037D02*
X238223Y408778D01*
X235546Y408037D02*
X237483D01*
X234176Y411345D02*
X235546Y412714D01*
X234176Y409407D02*
X235546Y408037D01*
X234176Y409407D02*
Y411345D01*
X232969Y437161D02*
X233709Y437902D01*
X231031Y437161D02*
X232969D01*
X229661Y438531D02*
X231031Y437161D01*
X229661Y438531D02*
Y440469D01*
X231031Y441839D01*
X236620Y470557D02*
X243943D01*
X264500Y420500D02*
X264902D01*
X262500Y422500D02*
X264500Y420500D01*
X279642Y408642D02*
X286752D01*
X288486Y410376D01*
X262500Y391819D02*
X264902Y394220D01*
X266500Y478500D02*
Y509000D01*
Y442632D02*
Y478500D01*
X262500Y482500D02*
X266500Y478500D01*
X189500Y136500D02*
Y220723D01*
X266953Y243087D02*
Y245965D01*
X280535Y265453D02*
X287673D01*
X287713Y263484D02*
X289500Y261697D01*
X280535Y263484D02*
X287713D01*
X253173Y240929D02*
Y245965D01*
X177032Y247500D02*
X180532Y244000D01*
X177014Y247518D02*
X177032Y247500D01*
X169500D02*
X177032D01*
X176500Y247518D02*
X177014D01*
X176500D02*
Y250047D01*
X235163Y185183D02*
Y190722D01*
D14*
X245729Y220685D02*
D03*
Y226196D02*
D03*
X260500Y292256D02*
D03*
Y286744D02*
D03*
X233500Y263012D02*
D03*
Y257500D02*
D03*
X289500Y267209D02*
D03*
Y261697D02*
D03*
X225000Y187256D02*
D03*
Y181744D02*
D03*
D17*
X251315Y218796D02*
X259927Y210184D01*
X298001D02*
X305684Y202500D01*
X259927Y210184D02*
X298001D01*
X258795Y215973D02*
Y220677D01*
X299036Y212684D02*
X306720Y205000D01*
X262085Y212684D02*
X299036D01*
X258795Y215973D02*
X262085Y212684D01*
X278750Y141882D02*
X313500Y176632D01*
X281250Y140846D02*
X316000Y175596D01*
X305684Y202500D02*
X311861D01*
X306720Y205000D02*
X312896D01*
X251315Y218796D02*
Y220677D01*
X313500Y176632D02*
Y200861D01*
X311861Y202500D02*
X313500Y200861D01*
X316000Y175596D02*
Y201897D01*
X281250Y129393D02*
X292000Y118643D01*
Y101454D02*
Y118643D01*
Y101454D02*
X298750Y94704D01*
X278750Y128357D02*
X289500Y117607D01*
Y100419D02*
Y117607D01*
Y100419D02*
X296250Y93669D01*
X312896Y205000D02*
X316000Y201897D01*
X272200Y66642D02*
X278221Y63185D01*
X271281Y67169D02*
X272200Y66642D01*
X271178Y67273D02*
X271281Y67169D01*
X271178Y72713D02*
X279714Y81250D01*
X271178Y67273D02*
Y72713D01*
X274180Y68516D02*
Y72180D01*
X279714Y81250D02*
X293153D01*
X278750Y128357D02*
Y141882D01*
X296250Y84347D02*
Y93669D01*
X298750Y83312D02*
Y94704D01*
X293153Y81250D02*
X296250Y84347D01*
X294188Y78750D02*
X298750Y83312D01*
X280775Y78750D02*
X294188D01*
X281250Y129393D02*
Y140846D01*
X274180Y72180D02*
X280763Y78763D01*
X274180Y68516D02*
X279500Y65401D01*
X258795Y230323D02*
X259079Y230606D01*
D30*
X210000Y174358D02*
D03*
Y201130D02*
D03*
D31*
X282971Y71807D02*
D03*
X273129Y54760D02*
D03*
D32*
X294316Y69804D02*
D03*
X280537Y45937D02*
D03*
D33*
X189500Y136500D02*
D03*
X117000Y262467D02*
D03*
X189500Y389000D02*
D03*
X335500Y388500D02*
D03*
X408000Y262500D02*
D03*
X335500Y136000D02*
D03*
D34*
X228500Y257000D02*
D03*
X298000Y265187D02*
D03*
X204500Y303500D02*
D03*
X305500Y176216D02*
D03*
X295500Y348500D02*
D03*
X305500Y187797D02*
D03*
X234000Y234500D02*
D03*
X241778D02*
D03*
X238671Y236500D02*
D03*
X308800Y210995D02*
D03*
X308796Y214159D02*
D03*
X312093Y210399D02*
D03*
X303707Y211793D02*
D03*
X324000Y191452D02*
D03*
X321500Y194747D02*
D03*
X308413Y199582D02*
D03*
X285458Y112500D02*
D03*
X292260Y86000D02*
D03*
X301425Y77096D02*
D03*
X268989Y239000D02*
D03*
X249377Y235000D02*
D03*
X321500Y246864D02*
D03*
X319500Y290000D02*
D03*
X183000Y211131D02*
D03*
X185328Y213500D02*
D03*
X135951Y335429D02*
D03*
X150397Y327088D02*
D03*
X199500Y340500D02*
D03*
X271345Y324515D02*
D03*
X251716Y325080D02*
D03*
X229927Y347555D02*
D03*
X268763Y232852D02*
D03*
X268809Y236000D02*
D03*
X221500Y322746D02*
D03*
X374384Y197769D02*
D03*
X388830Y189429D02*
D03*
X374350Y327224D02*
D03*
X321000Y283000D02*
D03*
X230320Y244000D02*
D03*
X98245Y167815D02*
D03*
X83955Y159565D02*
D03*
X80723Y178220D02*
D03*
X71831Y152565D02*
D03*
X45417Y137315D02*
D03*
X57974Y144565D02*
D03*
X479330Y137179D02*
D03*
X466772Y144429D02*
D03*
X452916Y152428D02*
D03*
X365500Y262500D02*
D03*
X304447Y446170D02*
D03*
X262500Y452000D02*
D03*
X270772Y430500D02*
D03*
X199000Y324191D02*
D03*
X274298Y363000D02*
D03*
X266750Y355693D02*
D03*
X124251Y162622D02*
D03*
X124320Y147651D02*
D03*
X135917Y189565D02*
D03*
X150363Y197905D02*
D03*
X93854Y324515D02*
D03*
X106785Y332060D02*
D03*
X123826Y342428D02*
D03*
X109970Y350429D02*
D03*
X98278Y357178D02*
D03*
X83989Y365429D02*
D03*
X71865Y372428D02*
D03*
X45451Y387679D02*
D03*
X124285Y362371D02*
D03*
X124354Y377342D02*
D03*
X124195Y390408D02*
D03*
X80653Y346956D02*
D03*
X98529Y377555D02*
D03*
X132719Y316774D02*
D03*
X150490Y347555D02*
D03*
X392062Y208084D02*
D03*
X374290Y177302D02*
D03*
X444024Y178084D02*
D03*
X426462Y147303D02*
D03*
X440792Y159429D02*
D03*
X426502Y167678D02*
D03*
X414811Y174428D02*
D03*
X400954Y182429D02*
D03*
X400496Y162486D02*
D03*
X400427Y147515D02*
D03*
X69268Y344044D02*
D03*
X56486Y366488D02*
D03*
X69321Y388717D02*
D03*
X82468Y321604D02*
D03*
X121333Y313862D02*
D03*
X147319Y358871D02*
D03*
X455946Y180563D02*
D03*
X403598Y136199D02*
D03*
X455460Y136140D02*
D03*
X468652Y158574D02*
D03*
X442418Y203437D02*
D03*
X403447Y210995D02*
D03*
X377462Y165986D02*
D03*
X58008Y380429D02*
D03*
X93525Y387059D02*
D03*
X431256Y137799D02*
D03*
X417996Y192797D02*
D03*
X430927Y200342D02*
D03*
X82320Y207057D02*
D03*
X123792Y182565D02*
D03*
X109936Y174565D02*
D03*
X106751Y192933D02*
D03*
X93820Y200479D02*
D03*
X98285Y147439D02*
D03*
X150457Y177438D02*
D03*
X132685Y208220D02*
D03*
X374256Y347691D02*
D03*
X392028Y316910D02*
D03*
X426218Y377691D02*
D03*
X444094Y347092D02*
D03*
X400462Y362507D02*
D03*
X479296Y387815D02*
D03*
X466739Y380565D02*
D03*
X452882Y372565D02*
D03*
X440758Y365565D02*
D03*
X426468Y357315D02*
D03*
X414777Y350565D02*
D03*
X400920Y342565D02*
D03*
X417962Y332196D02*
D03*
X430893Y324651D02*
D03*
X95114Y136124D02*
D03*
X69287Y136276D02*
D03*
X56453Y158506D02*
D03*
X121148Y136335D02*
D03*
X147285Y166123D02*
D03*
X121299Y211131D02*
D03*
X430032Y389256D02*
D03*
X442278Y321740D02*
D03*
X468260Y366624D02*
D03*
X455428Y389265D02*
D03*
X403459Y388977D02*
D03*
X377428Y359007D02*
D03*
X403414Y313999D02*
D03*
X69991Y178638D02*
D03*
X454722Y346492D02*
D03*
X388796Y335565D02*
D03*
X400393Y377479D02*
D03*
X280000Y92926D02*
D03*
X262500Y116500D02*
D03*
X239000Y53943D02*
D03*
X286000Y471057D02*
D03*
X262500Y408500D02*
D03*
Y498500D02*
D03*
X236514Y114624D02*
D03*
X275690Y31945D02*
D03*
X249666Y32153D02*
D03*
X223786Y77096D02*
D03*
X288486Y410376D02*
D03*
X236514D02*
D03*
X223786Y447904D02*
D03*
X275334Y492847D02*
D03*
X249666D02*
D03*
X236620Y470557D02*
D03*
X232000Y85500D02*
D03*
X245000Y92926D02*
D03*
X262500Y102500D02*
D03*
Y86500D02*
D03*
Y73000D02*
D03*
Y56500D02*
D03*
Y42500D02*
D03*
Y26500D02*
D03*
Y12000D02*
D03*
X244834Y62848D02*
D03*
X244728Y123029D02*
D03*
X280272D02*
D03*
X262500Y133181D02*
D03*
Y391819D02*
D03*
X280272Y401971D02*
D03*
X244728D02*
D03*
X280272Y461972D02*
D03*
X244834Y462152D02*
D03*
X293000Y439500D02*
D03*
X280000Y432074D02*
D03*
X262500Y482500D02*
D03*
Y468500D02*
D03*
Y438500D02*
D03*
Y422500D02*
D03*
X245000Y432074D02*
D03*
X232000Y439500D02*
D03*
D35*
X262500Y514500D02*
D03*
D36*
X218661Y187744D02*
D03*
X201339Y177902D02*
D03*
Y197587D02*
D03*
D37*
X274210Y36756D02*
D03*
X268698D02*
D03*
X246668Y239282D02*
D03*
X252180D02*
D03*
X227756Y260601D02*
D03*
X222244D02*
D03*
X235163Y190722D02*
D03*
X240674D02*
D03*
D38*
X274171Y41531D02*
D03*
X268265D02*
D03*
X268641Y219000D02*
D03*
X274546D02*
D03*
X274434Y224168D02*
D03*
X268528D02*
D03*
X268392Y229000D02*
D03*
X274298D02*
D03*
D39*
X275661Y58753D02*
D03*
X276941Y60969D02*
D03*
X278221Y63185D02*
D03*
X279500Y65401D02*
D03*
X280780Y67617D02*
D03*
D40*
X285458Y54461D02*
D03*
X289395Y61280D02*
D03*
D41*
X258795Y220677D02*
D03*
X255055D02*
D03*
X251315D02*
D03*
Y230323D02*
D03*
X255055D02*
D03*
X258795D02*
D03*
D42*
X321500Y236000D02*
D03*
X225055Y299500D02*
D03*
X213000D02*
D03*
X321500Y223000D02*
D03*
X213000Y287000D02*
D03*
Y275000D02*
D03*
Y247000D02*
D03*
Y235457D02*
D03*
Y222889D02*
D03*
Y260000D02*
D03*
D43*
X225055Y222889D02*
D03*
X169500Y280000D02*
D03*
Y269421D02*
D03*
Y247500D02*
D03*
Y258500D02*
D03*
Y236500D02*
D03*
D44*
X307004Y235425D02*
D03*
Y238575D02*
D03*
X300351D02*
D03*
Y235425D02*
D03*
X300173Y273955D02*
D03*
Y277105D02*
D03*
X306827D02*
D03*
Y273955D02*
D03*
X300350Y254396D02*
D03*
Y257545D02*
D03*
X307004D02*
D03*
Y254396D02*
D03*
D45*
X307004Y231882D02*
D03*
Y242118D02*
D03*
X300351D02*
D03*
Y231882D02*
D03*
X300173Y270412D02*
D03*
Y280648D02*
D03*
X306827D02*
D03*
Y270412D02*
D03*
X300350Y250853D02*
D03*
Y261089D02*
D03*
X307004D02*
D03*
Y250853D02*
D03*
D46*
X180532Y244000D02*
D03*
Y230614D02*
D03*
D47*
X247465Y273327D02*
D03*
Y271358D02*
D03*
Y269390D02*
D03*
Y267421D02*
D03*
Y265453D02*
D03*
Y263484D02*
D03*
Y261516D02*
D03*
Y259547D02*
D03*
Y257579D02*
D03*
Y255610D02*
D03*
Y253642D02*
D03*
Y251673D02*
D03*
X280535D02*
D03*
Y253642D02*
D03*
Y255610D02*
D03*
Y257579D02*
D03*
Y259547D02*
D03*
Y261516D02*
D03*
Y263484D02*
D03*
Y265453D02*
D03*
Y267421D02*
D03*
Y269390D02*
D03*
Y271358D02*
D03*
Y273327D02*
D03*
D48*
X253173Y245965D02*
D03*
X255142D02*
D03*
X257110D02*
D03*
X259079D02*
D03*
X261047D02*
D03*
X263016D02*
D03*
X264984D02*
D03*
X266953D02*
D03*
X268921D02*
D03*
X270890D02*
D03*
X272858D02*
D03*
X274827D02*
D03*
Y279035D02*
D03*
X272858D02*
D03*
X270890D02*
D03*
X268921D02*
D03*
X266953D02*
D03*
X264984D02*
D03*
X263016D02*
D03*
X261047D02*
D03*
X259079D02*
D03*
X257110D02*
D03*
X255142D02*
D03*
X253173D02*
D03*
D49*
X239248Y281207D02*
D03*
X235351Y285104D02*
D03*
X255512Y297470D02*
D03*
X251614Y301367D02*
D03*
D50*
X242302Y287451D02*
D03*
X249401Y294549D02*
D03*
D51*
X176500Y255953D02*
D03*
Y250047D02*
D03*
D52*
X235383Y177482D02*
D03*
Y184962D02*
D03*
X243454Y181222D02*
D03*
D53*
X274626Y193850D02*
D03*
X266752D02*
D03*
D54*
X257500Y172000D02*
D03*
X283878D02*
D03*
M02*
