G04*
G04 #@! TF.GenerationSoftware,Altium Limited,Altium Designer,18.1.9 (240)*
G04*
G04 Layer_Color=8421504*
%FSLAX25Y25*%
%MOIN*%
G70*
G01*
G75*
G04:AMPARAMS|DCode=12|XSize=33.47mil|YSize=31.5mil|CornerRadius=0mil|HoleSize=0mil|Usage=FLASHONLY|Rotation=240.000|XOffset=0mil|YOffset=0mil|HoleType=Round|Shape=Rectangle|*
%AMROTATEDRECTD12*
4,1,4,-0.00527,0.02237,0.02200,0.00662,0.00527,-0.02237,-0.02200,-0.00662,-0.00527,0.02237,0.0*
%
%ADD12ROTATEDRECTD12*%

G04:AMPARAMS|DCode=13|XSize=33.47mil|YSize=31.5mil|CornerRadius=0mil|HoleSize=0mil|Usage=FLASHONLY|Rotation=300.000|XOffset=0mil|YOffset=0mil|HoleType=Round|Shape=Rectangle|*
%AMROTATEDRECTD13*
4,1,4,-0.02200,0.00662,0.00527,0.02237,0.02200,-0.00662,-0.00527,-0.02237,-0.02200,0.00662,0.0*
%
%ADD13ROTATEDRECTD13*%

%ADD14R,0.03347X0.03150*%
%ADD15C,0.00394*%
D12*
X275546Y95653D02*
D03*
X270772Y98408D02*
D03*
X275546Y125653D02*
D03*
X270772Y128408D02*
D03*
X283712Y120880D02*
D03*
X288486Y118124D02*
D03*
X301425Y80596D02*
D03*
X296652Y83351D02*
D03*
X283712Y90880D02*
D03*
X288486Y88124D02*
D03*
X283712Y60880D02*
D03*
X288486Y58124D02*
D03*
X275815Y65191D02*
D03*
X271042Y67947D02*
D03*
X275546Y35653D02*
D03*
X270772Y38408D02*
D03*
X249454Y399347D02*
D03*
X254228Y396592D02*
D03*
X384721Y191801D02*
D03*
X379948Y194556D02*
D03*
X392938Y187057D02*
D03*
X397712Y184301D02*
D03*
X410702Y176801D02*
D03*
X405929Y179557D02*
D03*
X241288Y404120D02*
D03*
X236514Y406876D02*
D03*
X129104Y210125D02*
D03*
X124330Y212881D02*
D03*
X395609Y315004D02*
D03*
X400383Y312248D02*
D03*
X223786Y444405D02*
D03*
X228559Y441649D02*
D03*
X137320Y205439D02*
D03*
X142094Y202683D02*
D03*
X387393Y319691D02*
D03*
X382619Y322446D02*
D03*
X241499Y434120D02*
D03*
X236726Y436876D02*
D03*
X85360Y205323D02*
D03*
X90133Y202567D02*
D03*
X439247Y319990D02*
D03*
X434474Y322746D02*
D03*
X140059Y333056D02*
D03*
X144833Y330301D02*
D03*
X249666Y429378D02*
D03*
X254439Y426622D02*
D03*
X103123Y195125D02*
D03*
X98350Y197881D02*
D03*
X421484Y330188D02*
D03*
X426257Y327432D02*
D03*
X131842Y337801D02*
D03*
X127069Y340557D02*
D03*
X111339Y190439D02*
D03*
X116113Y187683D02*
D03*
X413268Y334874D02*
D03*
X408494Y337630D02*
D03*
X114078Y348057D02*
D03*
X118852Y345301D02*
D03*
X77142Y180125D02*
D03*
X72369Y182881D02*
D03*
X418151Y172500D02*
D03*
X422925Y169744D02*
D03*
X105861Y352801D02*
D03*
X101088Y355557D02*
D03*
X85359Y175439D02*
D03*
X90132Y172683D02*
D03*
X59484Y160256D02*
D03*
X64257Y157500D02*
D03*
X436683Y161801D02*
D03*
X431910Y164557D02*
D03*
X444900Y157056D02*
D03*
X449673Y154301D02*
D03*
X462664Y146801D02*
D03*
X457891Y149557D02*
D03*
X470881Y142057D02*
D03*
X475654Y139301D02*
D03*
X53900Y382801D02*
D03*
X49126Y385557D02*
D03*
X465229Y364874D02*
D03*
X460456Y367630D02*
D03*
X62117Y378057D02*
D03*
X66890Y375301D02*
D03*
X447461Y345000D02*
D03*
X452235Y342244D02*
D03*
X249666Y489348D02*
D03*
X254439Y486592D02*
D03*
X439458Y349873D02*
D03*
X434685Y352629D02*
D03*
X88098Y363056D02*
D03*
X92871Y360301D02*
D03*
X241394Y464301D02*
D03*
X236620Y467057D02*
D03*
X79880Y367801D02*
D03*
X75107Y370556D02*
D03*
X249560Y459528D02*
D03*
X254333Y456773D02*
D03*
D13*
X241288Y120880D02*
D03*
X236514Y118124D02*
D03*
X249454Y125653D02*
D03*
X254228Y128408D02*
D03*
X249666Y95653D02*
D03*
X254439Y98408D02*
D03*
X241499Y90880D02*
D03*
X236726Y88124D02*
D03*
X223786Y80596D02*
D03*
X228560Y83351D02*
D03*
X241394Y60699D02*
D03*
X236620Y57943D02*
D03*
X249560Y65472D02*
D03*
X254333Y68227D02*
D03*
X249666Y35653D02*
D03*
X254439Y38408D02*
D03*
X85500Y319854D02*
D03*
X90273Y322609D02*
D03*
X275546Y429348D02*
D03*
X270772Y426592D02*
D03*
X111479Y334738D02*
D03*
X116253Y337494D02*
D03*
X103263Y330051D02*
D03*
X98489Y327296D02*
D03*
X129138Y314868D02*
D03*
X124364Y312112D02*
D03*
X114044Y176937D02*
D03*
X118818Y179693D02*
D03*
X384688Y333193D02*
D03*
X379914Y330437D02*
D03*
X137354Y319554D02*
D03*
X142128Y322310D02*
D03*
X275546Y399347D02*
D03*
X270772Y396592D02*
D03*
X131808Y187193D02*
D03*
X127035Y184437D02*
D03*
X392905Y337937D02*
D03*
X397678Y340693D02*
D03*
X283712Y404120D02*
D03*
X288486Y406876D02*
D03*
X140025Y191937D02*
D03*
X144799Y194693D02*
D03*
X410668Y348193D02*
D03*
X405895Y345437D02*
D03*
X387426Y205303D02*
D03*
X382653Y202547D02*
D03*
X395643Y209989D02*
D03*
X400416Y212745D02*
D03*
X413407Y190303D02*
D03*
X408634Y187547D02*
D03*
X439387Y205187D02*
D03*
X434614Y202431D02*
D03*
X283712Y434120D02*
D03*
X288486Y436876D02*
D03*
X421624Y194989D02*
D03*
X426397Y197745D02*
D03*
X301425Y444404D02*
D03*
X296652Y441648D02*
D03*
X448140Y179774D02*
D03*
X452914Y182530D02*
D03*
X85289Y349736D02*
D03*
X90062Y352492D02*
D03*
X283712Y464120D02*
D03*
X288486Y466876D02*
D03*
X439925Y174871D02*
D03*
X435152Y172115D02*
D03*
X77072Y345050D02*
D03*
X72299Y342295D02*
D03*
X462630Y378193D02*
D03*
X457857Y375437D02*
D03*
X275546Y459347D02*
D03*
X270772Y456592D02*
D03*
X470847Y382937D02*
D03*
X475620Y385693D02*
D03*
X444866Y367937D02*
D03*
X449640Y370693D02*
D03*
X62083Y146937D02*
D03*
X66856Y149693D02*
D03*
X436649Y363193D02*
D03*
X431876Y360437D02*
D03*
X275546Y489348D02*
D03*
X270772Y486592D02*
D03*
X53866Y142193D02*
D03*
X49093Y139437D02*
D03*
X465263Y160119D02*
D03*
X460490Y157363D02*
D03*
X79847Y157193D02*
D03*
X75073Y154437D02*
D03*
X59101Y364500D02*
D03*
X63874Y367256D02*
D03*
X88064Y161937D02*
D03*
X92837Y164693D02*
D03*
X105827Y172193D02*
D03*
X101054Y169437D02*
D03*
X418886Y352937D02*
D03*
X423659Y355693D02*
D03*
D14*
X262500Y121244D02*
D03*
Y126756D02*
D03*
Y111756D02*
D03*
Y106244D02*
D03*
Y91244D02*
D03*
Y96756D02*
D03*
Y81756D02*
D03*
Y76244D02*
D03*
Y61244D02*
D03*
Y66756D02*
D03*
Y51756D02*
D03*
Y46244D02*
D03*
Y21756D02*
D03*
Y16244D02*
D03*
Y31244D02*
D03*
Y36756D02*
D03*
X150316Y173384D02*
D03*
Y167873D02*
D03*
X374381Y182707D02*
D03*
Y188219D02*
D03*
X374347Y342286D02*
D03*
Y336774D02*
D03*
X262500Y433756D02*
D03*
Y428244D02*
D03*
X150500Y182045D02*
D03*
Y187557D02*
D03*
X400517Y158431D02*
D03*
Y152920D02*
D03*
X400378Y366745D02*
D03*
Y372257D02*
D03*
X124419Y357150D02*
D03*
Y351638D02*
D03*
X124279Y168026D02*
D03*
Y173538D02*
D03*
X400567Y137949D02*
D03*
Y143461D02*
D03*
X400428Y387227D02*
D03*
Y381715D02*
D03*
X262500Y403756D02*
D03*
Y398244D02*
D03*
X124229Y158568D02*
D03*
Y153056D02*
D03*
X374431Y173248D02*
D03*
Y167736D02*
D03*
X374397Y351745D02*
D03*
Y357257D02*
D03*
X262500Y413244D02*
D03*
Y418756D02*
D03*
X124179Y138085D02*
D03*
Y143597D02*
D03*
X400467Y167890D02*
D03*
Y173402D02*
D03*
X400328Y357286D02*
D03*
Y351775D02*
D03*
X150400Y342150D02*
D03*
Y336638D02*
D03*
X150350Y351609D02*
D03*
Y357121D02*
D03*
X124319Y387091D02*
D03*
Y381579D02*
D03*
X124369Y366609D02*
D03*
Y372121D02*
D03*
X426309Y372286D02*
D03*
Y366775D02*
D03*
X262500Y443244D02*
D03*
Y448756D02*
D03*
X426359Y381745D02*
D03*
Y387257D02*
D03*
X452395Y387103D02*
D03*
Y381591D02*
D03*
X262500Y463756D02*
D03*
Y458244D02*
D03*
X98500Y151987D02*
D03*
X98500Y157499D02*
D03*
X98173Y372615D02*
D03*
X98173Y367103D02*
D03*
X98145Y143386D02*
D03*
Y137874D02*
D03*
X98388Y381609D02*
D03*
Y387121D02*
D03*
X262500Y473244D02*
D03*
Y478756D02*
D03*
X72318Y138026D02*
D03*
Y143538D02*
D03*
X72457Y387150D02*
D03*
Y381638D02*
D03*
X262500Y503244D02*
D03*
Y508756D02*
D03*
Y493756D02*
D03*
Y488244D02*
D03*
X452429Y137890D02*
D03*
Y143402D02*
D03*
X426552Y152708D02*
D03*
Y158220D02*
D03*
X426602Y143249D02*
D03*
Y137738D02*
D03*
D15*
X262905Y262649D02*
D03*
X259280D02*
D03*
Y259024D02*
D03*
X262905D02*
D03*
M02*
