G04*
G04 #@! TF.GenerationSoftware,Altium Limited,Altium Designer,18.1.9 (240)*
G04*
G04 Layer_Color=16711935*
%FSLAX25Y25*%
%MOIN*%
G70*
G01*
G75*
%ADD24R,0.04147X0.03950*%
%ADD26C,0.04737*%
%ADD27C,0.05721*%
%ADD28C,0.06902*%
%ADD29C,0.06800*%
%ADD55R,0.06312X0.05524*%
%ADD56R,0.03950X0.04147*%
%ADD57R,0.03950X0.04343*%
G04:AMPARAMS|DCode=58|XSize=23.75mil|YSize=61.15mil|CornerRadius=0mil|HoleSize=0mil|Usage=FLASHONLY|Rotation=240.000|XOffset=0mil|YOffset=0mil|HoleType=Round|Shape=Rectangle|*
%AMROTATEDRECTD58*
4,1,4,-0.02054,0.02557,0.03242,-0.00500,0.02054,-0.02557,-0.03242,0.00500,-0.02054,0.02557,0.0*
%
%ADD58ROTATEDRECTD58*%

G04:AMPARAMS|DCode=59|XSize=67.06mil|YSize=69.02mil|CornerRadius=0mil|HoleSize=0mil|Usage=FLASHONLY|Rotation=240.000|XOffset=0mil|YOffset=0mil|HoleType=Round|Shape=Rectangle|*
%AMROTATEDRECTD59*
4,1,4,-0.01312,0.04629,0.04665,0.01178,0.01312,-0.04629,-0.04665,-0.01178,-0.01312,0.04629,0.0*
%
%ADD59ROTATEDRECTD59*%

%ADD60R,0.02965X0.03753*%
%ADD61R,0.08674X0.08674*%
%ADD62R,0.08674X0.08674*%
%ADD63R,0.04658X0.02690*%
%ADD64R,0.04658X0.03477*%
%ADD65R,0.07493X0.03950*%
%ADD66O,0.06312X0.01981*%
%ADD67O,0.01981X0.06312*%
G04:AMPARAMS|DCode=68|XSize=41.47mil|YSize=39.5mil|CornerRadius=0mil|HoleSize=0mil|Usage=FLASHONLY|Rotation=45.000|XOffset=0mil|YOffset=0mil|HoleType=Round|Shape=Rectangle|*
%AMROTATEDRECTD68*
4,1,4,-0.00070,-0.02862,-0.02862,-0.00070,0.00070,0.02862,0.02862,0.00070,-0.00070,-0.02862,0.0*
%
%ADD68ROTATEDRECTD68*%

G04:AMPARAMS|DCode=69|XSize=72.96mil|YSize=69.02mil|CornerRadius=0mil|HoleSize=0mil|Usage=FLASHONLY|Rotation=135.000|XOffset=0mil|YOffset=0mil|HoleType=Round|Shape=Rectangle|*
%AMROTATEDRECTD69*
4,1,4,0.05020,-0.00139,0.00139,-0.05020,-0.05020,0.00139,-0.00139,0.05020,0.05020,-0.00139,0.0*
%
%ADD69ROTATEDRECTD69*%

%ADD70R,0.04343X0.03950*%
%ADD71R,0.04540X0.03162*%
%ADD72R,0.04737X0.14580*%
%ADD73R,0.06706X0.14186*%
G36*
X189772Y319337D02*
X189298D01*
X189187Y319876D01*
X189655D01*
X189772Y319337D01*
D02*
G37*
G36*
X162997Y316032D02*
X162581D01*
X162470Y316553D01*
X162423Y316447D01*
X162377Y316360D01*
X162324Y316284D01*
X162271Y316219D01*
X162224Y316173D01*
X162189Y316138D01*
X162166Y316114D01*
X162154Y316108D01*
X162072Y316061D01*
X161996Y316026D01*
X161915Y316003D01*
X161838Y315985D01*
X161774Y315974D01*
X161727Y315968D01*
X161680D01*
X161622Y315974D01*
X161563Y315980D01*
X161511Y315991D01*
X161458Y316003D01*
X161417Y316015D01*
X161388Y316020D01*
X161365Y316032D01*
X161359D01*
X161294Y316056D01*
X161236Y316085D01*
X161183Y316114D01*
X161130Y316143D01*
X161090Y316173D01*
X161060Y316196D01*
X161037Y316208D01*
X161031Y316213D01*
X160973Y316266D01*
X160914Y316319D01*
X160861Y316371D01*
X160809Y316424D01*
X160774Y316477D01*
X160739Y316512D01*
X160721Y316535D01*
X160715Y316547D01*
X160663Y316629D01*
X160610Y316717D01*
X160569Y316804D01*
X160534Y316886D01*
X160505Y316956D01*
X160481Y317009D01*
X160475Y317033D01*
X160469Y317050D01*
X160464Y317056D01*
Y317062D01*
X160429Y317179D01*
X160405Y317302D01*
X160382Y317413D01*
X160370Y317518D01*
X160364Y317606D01*
Y317647D01*
X160358Y317676D01*
Y317705D01*
Y317723D01*
Y317735D01*
Y317740D01*
Y317840D01*
X160370Y317939D01*
X160382Y318027D01*
X160399Y318109D01*
X160417Y318185D01*
X160440Y318255D01*
X160464Y318314D01*
X160487Y318372D01*
X160510Y318425D01*
X160534Y318466D01*
X160557Y318507D01*
X160575Y318536D01*
X160592Y318559D01*
X160604Y318577D01*
X160610Y318583D01*
X160616Y318589D01*
X160663Y318641D01*
X160715Y318688D01*
X160768Y318723D01*
X160820Y318758D01*
X160926Y318811D01*
X161025Y318846D01*
X161113Y318864D01*
X161154Y318875D01*
X161183D01*
X161212Y318881D01*
X161248D01*
X161318Y318875D01*
X161388Y318869D01*
X161446Y318852D01*
X161505Y318840D01*
X161552Y318823D01*
X161587Y318805D01*
X161610Y318799D01*
X161616Y318793D01*
X161686Y318758D01*
X161751Y318711D01*
X161821Y318665D01*
X161879Y318618D01*
X161932Y318571D01*
X161979Y318536D01*
X162002Y318513D01*
X162014Y318501D01*
X161727Y319876D01*
X162195D01*
X162997Y316032D01*
D02*
G37*
G36*
X153900Y318875D02*
X154017Y318852D01*
X154122Y318817D01*
X154216Y318782D01*
X154298Y318741D01*
X154362Y318711D01*
X154385Y318694D01*
X154403Y318688D01*
X154409Y318676D01*
X154415D01*
X154526Y318595D01*
X154625Y318501D01*
X154713Y318401D01*
X154789Y318302D01*
X154853Y318214D01*
X154900Y318144D01*
X154918Y318121D01*
X154929Y318097D01*
X154941Y318086D01*
Y318080D01*
X155017Y317928D01*
X155070Y317781D01*
X155111Y317635D01*
X155134Y317500D01*
X155146Y317442D01*
X155152Y317389D01*
X155158Y317343D01*
Y317302D01*
X155164Y317267D01*
Y317243D01*
Y317226D01*
Y317220D01*
X155158Y317114D01*
X155152Y317021D01*
X155140Y316927D01*
X155117Y316845D01*
X155099Y316763D01*
X155076Y316693D01*
X155047Y316629D01*
X155023Y316570D01*
X154994Y316518D01*
X154971Y316471D01*
X154947Y316430D01*
X154924Y316401D01*
X154906Y316377D01*
X154894Y316354D01*
X154889Y316348D01*
X154883Y316342D01*
X154830Y316290D01*
X154772Y316243D01*
X154713Y316196D01*
X154655Y316161D01*
X154538Y316108D01*
X154426Y316073D01*
X154327Y316050D01*
X154286Y316044D01*
X154251Y316038D01*
X154222Y316032D01*
X154181D01*
X154105Y316038D01*
X154023Y316050D01*
X153953Y316067D01*
X153876Y316091D01*
X153748Y316149D01*
X153625Y316219D01*
X153578Y316249D01*
X153531Y316284D01*
X153490Y316313D01*
X153455Y316342D01*
X153426Y316366D01*
X153409Y316383D01*
X153397Y316395D01*
X153391Y316401D01*
X153444Y316178D01*
X153461Y316091D01*
X153479Y316009D01*
X153502Y315939D01*
X153520Y315868D01*
X153537Y315810D01*
X153555Y315757D01*
X153572Y315710D01*
X153590Y315675D01*
X153619Y315611D01*
X153643Y315564D01*
X153660Y315541D01*
X153666Y315535D01*
X153748Y315459D01*
X153841Y315406D01*
X153947Y315365D01*
X154046Y315342D01*
X154140Y315324D01*
X154181Y315318D01*
X154216D01*
X154245Y315313D01*
X154356D01*
X154426Y315324D01*
X154479Y315330D01*
X154532Y315342D01*
X154567Y315354D01*
X154596Y315359D01*
X154614Y315371D01*
X154620D01*
X154678Y315412D01*
X154725Y315453D01*
X154748Y315488D01*
X154760Y315494D01*
Y315500D01*
X154772Y315535D01*
X154783Y315570D01*
X154795Y315652D01*
X154801Y315687D01*
Y315716D01*
Y315734D01*
Y315740D01*
X155275Y315781D01*
X155280Y315728D01*
X155286Y315687D01*
Y315652D01*
Y315646D01*
Y315640D01*
X155280Y315564D01*
X155269Y315494D01*
X155251Y315430D01*
X155228Y315377D01*
X155204Y315330D01*
X155187Y315295D01*
X155175Y315272D01*
X155169Y315266D01*
X155123Y315207D01*
X155064Y315155D01*
X155006Y315108D01*
X154947Y315073D01*
X154894Y315043D01*
X154853Y315026D01*
X154824Y315014D01*
X154813Y315008D01*
X154719Y314979D01*
X154620Y314956D01*
X154520Y314944D01*
X154432Y314932D01*
X154350Y314927D01*
X154292Y314921D01*
X154233D01*
X154105Y314927D01*
X153988Y314944D01*
X153882Y314967D01*
X153795Y314991D01*
X153719Y315014D01*
X153666Y315038D01*
X153631Y315055D01*
X153619Y315061D01*
X153525Y315114D01*
X153444Y315178D01*
X153374Y315242D01*
X153315Y315301D01*
X153268Y315359D01*
X153239Y315400D01*
X153216Y315430D01*
X153210Y315441D01*
X153157Y315541D01*
X153104Y315652D01*
X153063Y315769D01*
X153028Y315874D01*
X152999Y315974D01*
X152987Y316015D01*
X152981Y316056D01*
X152976Y316085D01*
X152970Y316108D01*
X152964Y316120D01*
Y316126D01*
X152402Y318817D01*
X152841D01*
X152935Y318366D01*
X152993Y318460D01*
X153058Y318536D01*
X153122Y318606D01*
X153192Y318665D01*
X153262Y318711D01*
X153332Y318758D01*
X153403Y318788D01*
X153467Y318817D01*
X153531Y318840D01*
X153590Y318852D01*
X153643Y318864D01*
X153689Y318875D01*
X153725D01*
X153754Y318881D01*
X153777D01*
X153900Y318875D01*
D02*
G37*
G36*
X176194Y318869D02*
X176346Y318846D01*
X176487Y318811D01*
X176604Y318770D01*
X176651Y318747D01*
X176697Y318729D01*
X176733Y318711D01*
X176762Y318694D01*
X176785Y318682D01*
X176803Y318671D01*
X176814Y318659D01*
X176820D01*
X176931Y318565D01*
X177025Y318466D01*
X177107Y318360D01*
X177171Y318261D01*
X177218Y318167D01*
X177242Y318127D01*
X177253Y318097D01*
X177265Y318068D01*
X177277Y318045D01*
X177282Y318033D01*
Y318027D01*
X176809Y317986D01*
X176774Y318074D01*
X176733Y318144D01*
X176686Y318208D01*
X176639Y318261D01*
X176598Y318308D01*
X176563Y318337D01*
X176540Y318355D01*
X176534Y318360D01*
X176458Y318407D01*
X176376Y318437D01*
X176294Y318460D01*
X176218Y318478D01*
X176147Y318489D01*
X176089Y318495D01*
X176042D01*
X175931Y318489D01*
X175832Y318472D01*
X175750Y318454D01*
X175680Y318431D01*
X175627Y318401D01*
X175586Y318384D01*
X175563Y318366D01*
X175557Y318360D01*
X175516Y318325D01*
X175486Y318279D01*
X175463Y318238D01*
X175451Y318197D01*
X175440Y318156D01*
X175434Y318127D01*
Y318103D01*
Y318097D01*
Y318045D01*
X175445Y317992D01*
X175451Y317939D01*
X175463Y317887D01*
X175475Y317846D01*
X175481Y317811D01*
X175492Y317781D01*
Y317776D01*
X175533Y317764D01*
X175574Y317752D01*
X175674Y317729D01*
X175779Y317711D01*
X175884Y317699D01*
X175984Y317694D01*
X176025Y317688D01*
X176060D01*
X176095Y317682D01*
X176136D01*
X176218Y317676D01*
X176294D01*
X176358Y317670D01*
X176423Y317664D01*
X176475D01*
X176528Y317658D01*
X176610Y317647D01*
X176668Y317641D01*
X176715Y317635D01*
X176738Y317629D01*
X176744D01*
X176838Y317612D01*
X176920Y317582D01*
X176996Y317559D01*
X177054Y317536D01*
X177107Y317506D01*
X177148Y317489D01*
X177171Y317477D01*
X177177Y317471D01*
X177242Y317430D01*
X177294Y317384D01*
X177341Y317337D01*
X177382Y317290D01*
X177417Y317249D01*
X177440Y317214D01*
X177452Y317191D01*
X177458Y317185D01*
X177493Y317114D01*
X177516Y317044D01*
X177540Y316980D01*
X177551Y316915D01*
X177557Y316857D01*
X177563Y316816D01*
Y316787D01*
Y316775D01*
X177551Y316646D01*
X177528Y316535D01*
X177487Y316436D01*
X177446Y316348D01*
X177405Y316284D01*
X177364Y316231D01*
X177341Y316202D01*
X177329Y316190D01*
X177236Y316114D01*
X177130Y316061D01*
X177031Y316020D01*
X176926Y315997D01*
X176838Y315980D01*
X176803Y315974D01*
X176768D01*
X176738Y315968D01*
X176703D01*
X176610Y315974D01*
X176516Y315985D01*
X176434Y315997D01*
X176364Y316015D01*
X176305Y316032D01*
X176259Y316050D01*
X176229Y316056D01*
X176218Y316061D01*
X176130Y316102D01*
X176048Y316155D01*
X175966Y316208D01*
X175890Y316254D01*
X175832Y316301D01*
X175779Y316342D01*
X175750Y316366D01*
X175738Y316377D01*
X175732Y316301D01*
X175726Y316237D01*
X175715Y316178D01*
X175709Y316126D01*
X175697Y316085D01*
X175691Y316056D01*
X175685Y316038D01*
Y316032D01*
X175212D01*
X175229Y316120D01*
X175241Y316196D01*
X175252Y316260D01*
X175258Y316313D01*
Y316354D01*
X175264Y316383D01*
Y316401D01*
Y316407D01*
X175258Y316489D01*
X175252Y316582D01*
X175241Y316670D01*
X175229Y316758D01*
X175217Y316828D01*
X175206Y316892D01*
X175200Y316915D01*
X175194Y316933D01*
Y316939D01*
Y316945D01*
X175042Y317635D01*
X175019Y317740D01*
X175001Y317840D01*
X174989Y317933D01*
X174978Y318009D01*
Y318068D01*
X174972Y318115D01*
Y318144D01*
Y318156D01*
X174983Y318261D01*
X175007Y318355D01*
X175048Y318437D01*
X175089Y318501D01*
X175130Y318559D01*
X175171Y318595D01*
X175194Y318624D01*
X175206Y318630D01*
X175264Y318676D01*
X175329Y318711D01*
X175457Y318776D01*
X175592Y318823D01*
X175726Y318852D01*
X175837Y318869D01*
X175890Y318875D01*
X175931D01*
X175972Y318881D01*
X176019D01*
X176194Y318869D01*
D02*
G37*
G36*
X186572Y316032D02*
X186104D01*
X185905Y316962D01*
X185326Y317460D01*
X184765Y316032D01*
X184244D01*
X184963Y317776D01*
X183776Y318817D01*
X184402D01*
X185800Y317477D01*
X185303Y319876D01*
X185777D01*
X186572Y316032D01*
D02*
G37*
G36*
X171655D02*
X171187D01*
X170988Y316962D01*
X170409Y317460D01*
X169847Y316032D01*
X169326D01*
X170046Y317776D01*
X168858Y318817D01*
X169484D01*
X170882Y317477D01*
X170385Y319876D01*
X170859D01*
X171655Y316032D01*
D02*
G37*
G36*
X167530Y318869D02*
X167665Y318846D01*
X167788Y318817D01*
X167899Y318776D01*
X167987Y318735D01*
X168028Y318717D01*
X168057Y318706D01*
X168080Y318688D01*
X168098Y318682D01*
X168110Y318671D01*
X168115D01*
X168232Y318583D01*
X168344Y318483D01*
X168431Y318372D01*
X168513Y318273D01*
X168578Y318173D01*
X168601Y318132D01*
X168619Y318097D01*
X168636Y318068D01*
X168648Y318045D01*
X168659Y318033D01*
Y318027D01*
X168730Y317869D01*
X168782Y317711D01*
X168817Y317559D01*
X168841Y317425D01*
X168852Y317366D01*
X168858Y317313D01*
X168864Y317261D01*
Y317220D01*
X168870Y317191D01*
Y317167D01*
Y317149D01*
Y317144D01*
X168864Y317021D01*
X168847Y316904D01*
X168829Y316798D01*
X168800Y316705D01*
X168777Y316629D01*
X168759Y316570D01*
X168741Y316535D01*
X168736Y316529D01*
Y316524D01*
X168677Y316424D01*
X168619Y316342D01*
X168554Y316272D01*
X168490Y316213D01*
X168431Y316167D01*
X168385Y316138D01*
X168355Y316114D01*
X168344Y316108D01*
X168244Y316061D01*
X168145Y316026D01*
X168051Y316003D01*
X167963Y315985D01*
X167887Y315974D01*
X167829Y315968D01*
X167776D01*
X167683Y315974D01*
X167595Y315980D01*
X167431Y316015D01*
X167285Y316061D01*
X167162Y316120D01*
X167109Y316149D01*
X167062Y316178D01*
X167022Y316202D01*
X166986Y316225D01*
X166957Y316243D01*
X166940Y316260D01*
X166928Y316266D01*
X166922Y316272D01*
X166858Y316331D01*
X166799Y316389D01*
X166700Y316506D01*
X166618Y316617D01*
X166559Y316717D01*
X166518Y316804D01*
X166501Y316840D01*
X166489Y316869D01*
X166477Y316892D01*
X166472Y316910D01*
X166466Y316921D01*
Y316927D01*
X166922Y316968D01*
X166975Y316863D01*
X167039Y316769D01*
X167098Y316693D01*
X167162Y316629D01*
X167215Y316576D01*
X167255Y316541D01*
X167285Y316518D01*
X167297Y316512D01*
X167384Y316459D01*
X167466Y316418D01*
X167548Y316395D01*
X167618Y316371D01*
X167683Y316360D01*
X167729Y316354D01*
X167770D01*
X167864Y316366D01*
X167952Y316389D01*
X168028Y316418D01*
X168092Y316459D01*
X168145Y316494D01*
X168180Y316529D01*
X168209Y316553D01*
X168215Y316559D01*
X168273Y316641D01*
X168314Y316740D01*
X168350Y316840D01*
X168367Y316933D01*
X168379Y317021D01*
X168385Y317091D01*
X168390Y317120D01*
Y317138D01*
Y317149D01*
Y317155D01*
Y317208D01*
X168385Y317261D01*
X168379Y317296D01*
Y317302D01*
Y317307D01*
X166331Y317307D01*
X166308Y317460D01*
X166302Y317530D01*
X166296Y317594D01*
X166290Y317647D01*
Y317688D01*
Y317711D01*
Y317723D01*
X166296Y317822D01*
X166302Y317916D01*
X166337Y318086D01*
X166360Y318156D01*
X166384Y318226D01*
X166413Y318290D01*
X166437Y318349D01*
X166466Y318401D01*
X166495Y318442D01*
X166518Y318483D01*
X166542Y318513D01*
X166559Y318542D01*
X166577Y318559D01*
X166583Y318565D01*
X166589Y318571D01*
X166647Y318624D01*
X166706Y318676D01*
X166776Y318717D01*
X166840Y318752D01*
X166975Y318805D01*
X167103Y318840D01*
X167215Y318864D01*
X167261Y318869D01*
X167308Y318875D01*
X167343Y318881D01*
X167390D01*
X167530Y318869D01*
D02*
G37*
G36*
X158580Y318869D02*
X158714Y318846D01*
X158837Y318817D01*
X158949Y318776D01*
X159036Y318735D01*
X159077Y318717D01*
X159106Y318706D01*
X159130Y318688D01*
X159147Y318682D01*
X159159Y318671D01*
X159165D01*
X159282Y318583D01*
X159393Y318483D01*
X159481Y318372D01*
X159563Y318273D01*
X159627Y318173D01*
X159651Y318132D01*
X159668Y318097D01*
X159686Y318068D01*
X159697Y318045D01*
X159709Y318033D01*
Y318027D01*
X159779Y317869D01*
X159832Y317711D01*
X159867Y317559D01*
X159890Y317425D01*
X159902Y317366D01*
X159908Y317313D01*
X159914Y317261D01*
Y317220D01*
X159920Y317191D01*
Y317167D01*
Y317149D01*
Y317144D01*
X159914Y317021D01*
X159896Y316904D01*
X159879Y316798D01*
X159849Y316705D01*
X159826Y316629D01*
X159808Y316570D01*
X159791Y316535D01*
X159785Y316529D01*
Y316524D01*
X159727Y316424D01*
X159668Y316342D01*
X159604Y316272D01*
X159539Y316213D01*
X159481Y316167D01*
X159434Y316138D01*
X159405Y316114D01*
X159393Y316108D01*
X159294Y316061D01*
X159194Y316026D01*
X159101Y316003D01*
X159013Y315985D01*
X158937Y315974D01*
X158878Y315968D01*
X158826D01*
X158732Y315974D01*
X158644Y315980D01*
X158481Y316015D01*
X158334Y316061D01*
X158211Y316120D01*
X158159Y316149D01*
X158112Y316178D01*
X158071Y316202D01*
X158036Y316225D01*
X158007Y316243D01*
X157989Y316260D01*
X157977Y316266D01*
X157972Y316272D01*
X157907Y316331D01*
X157849Y316389D01*
X157749Y316506D01*
X157667Y316617D01*
X157609Y316717D01*
X157568Y316804D01*
X157550Y316840D01*
X157539Y316869D01*
X157527Y316892D01*
X157521Y316910D01*
X157515Y316921D01*
Y316927D01*
X157972Y316968D01*
X158024Y316863D01*
X158089Y316769D01*
X158147Y316693D01*
X158211Y316629D01*
X158264Y316576D01*
X158305Y316541D01*
X158334Y316518D01*
X158346Y316512D01*
X158434Y316459D01*
X158516Y316418D01*
X158598Y316395D01*
X158668Y316371D01*
X158732Y316360D01*
X158779Y316354D01*
X158820D01*
X158913Y316366D01*
X159001Y316389D01*
X159077Y316418D01*
X159142Y316459D01*
X159194Y316494D01*
X159229Y316529D01*
X159258Y316553D01*
X159264Y316559D01*
X159323Y316641D01*
X159364Y316740D01*
X159399Y316840D01*
X159416Y316933D01*
X159428Y317021D01*
X159434Y317091D01*
X159440Y317120D01*
Y317138D01*
Y317149D01*
Y317155D01*
Y317208D01*
X159434Y317261D01*
X159428Y317296D01*
Y317302D01*
Y317307D01*
X157381D01*
X157357Y317460D01*
X157351Y317530D01*
X157346Y317594D01*
X157340Y317647D01*
Y317688D01*
Y317711D01*
Y317723D01*
X157346Y317822D01*
X157351Y317916D01*
X157387Y318086D01*
X157410Y318156D01*
X157433Y318226D01*
X157463Y318290D01*
X157486Y318349D01*
X157515Y318401D01*
X157545Y318442D01*
X157568Y318483D01*
X157591Y318513D01*
X157609Y318542D01*
X157626Y318559D01*
X157632Y318565D01*
X157638Y318571D01*
X157697Y318624D01*
X157755Y318676D01*
X157825Y318717D01*
X157890Y318752D01*
X158024Y318805D01*
X158153Y318840D01*
X158264Y318864D01*
X158311Y318869D01*
X158358Y318875D01*
X158393Y318881D01*
X158440D01*
X158580Y318869D01*
D02*
G37*
G36*
X187824Y318869D02*
X187970Y318846D01*
X188099Y318805D01*
X188216Y318764D01*
X188310Y318723D01*
X188345Y318700D01*
X188380Y318682D01*
X188403Y318671D01*
X188421Y318659D01*
X188433Y318647D01*
X188438D01*
X188555Y318553D01*
X188661Y318448D01*
X188754Y318337D01*
X188824Y318226D01*
X188883Y318127D01*
X188906Y318086D01*
X188924Y318050D01*
X188942Y318015D01*
X188953Y317992D01*
X188959Y317980D01*
Y317974D01*
X189017Y317811D01*
X189058Y317647D01*
X189094Y317500D01*
X189111Y317360D01*
X189117Y317302D01*
X189123Y317249D01*
X189129Y317196D01*
Y317155D01*
X189135Y317126D01*
Y317103D01*
Y317085D01*
Y317079D01*
X189129Y316986D01*
X189123Y316892D01*
X189088Y316728D01*
X189070Y316658D01*
X189047Y316588D01*
X189017Y316529D01*
X188994Y316471D01*
X188965Y316424D01*
X188942Y316383D01*
X188918Y316342D01*
X188895Y316313D01*
X188877Y316290D01*
X188865Y316272D01*
X188859Y316266D01*
X188854Y316260D01*
X188801Y316208D01*
X188743Y316167D01*
X188684Y316126D01*
X188620Y316091D01*
X188497Y316038D01*
X188380Y316003D01*
X188275Y315985D01*
X188234Y315980D01*
X188193Y315974D01*
X188157Y315968D01*
X188117D01*
X188041Y315974D01*
X187964Y315980D01*
X187824Y316009D01*
X187701Y316050D01*
X187590Y316096D01*
X187496Y316138D01*
X187461Y316161D01*
X187432Y316178D01*
X187409Y316196D01*
X187391Y316208D01*
X187380Y316219D01*
X187374D01*
X187315Y316272D01*
X187257Y316325D01*
X187151Y316453D01*
X187064Y316582D01*
X186993Y316711D01*
X186935Y316822D01*
X186911Y316875D01*
X186894Y316915D01*
X186876Y316951D01*
X186865Y316980D01*
X186859Y316997D01*
Y317003D01*
X187333Y317044D01*
X187380Y316915D01*
X187438Y316810D01*
X187491Y316717D01*
X187543Y316641D01*
X187590Y316582D01*
X187631Y316541D01*
X187654Y316512D01*
X187666Y316506D01*
X187748Y316447D01*
X187824Y316407D01*
X187900Y316377D01*
X187964Y316360D01*
X188023Y316348D01*
X188070Y316336D01*
X188111D01*
X188193Y316342D01*
X188269Y316366D01*
X188339Y316395D01*
X188392Y316424D01*
X188438Y316459D01*
X188473Y316483D01*
X188497Y316506D01*
X188503Y316512D01*
X188555Y316588D01*
X188591Y316670D01*
X188620Y316758D01*
X188637Y316845D01*
X188649Y316921D01*
X188655Y316986D01*
Y317009D01*
Y317027D01*
Y317038D01*
Y317044D01*
X188649Y317173D01*
X188637Y317302D01*
X188620Y317425D01*
X188596Y317530D01*
X188573Y317623D01*
X188567Y317664D01*
X188555Y317694D01*
X188549Y317723D01*
X188544Y317740D01*
X188538Y317752D01*
Y317758D01*
X188491Y317887D01*
X188438Y317998D01*
X188380Y318091D01*
X188327Y318173D01*
X188280Y318232D01*
X188245Y318273D01*
X188222Y318302D01*
X188210Y318308D01*
X188128Y318366D01*
X188041Y318413D01*
X187959Y318442D01*
X187883Y318466D01*
X187812Y318478D01*
X187760Y318489D01*
X187713D01*
X187625Y318483D01*
X187549Y318466D01*
X187479Y318442D01*
X187420Y318413D01*
X187374Y318384D01*
X187344Y318360D01*
X187321Y318343D01*
X187315Y318337D01*
X187262Y318279D01*
X187227Y318214D01*
X187198Y318144D01*
X187181Y318080D01*
X187169Y318021D01*
X187163Y317969D01*
X187157Y317939D01*
Y317933D01*
Y317928D01*
X186689Y317957D01*
Y318033D01*
X186701Y318103D01*
X186730Y318238D01*
X186771Y318349D01*
X186818Y318448D01*
X186871Y318524D01*
X186911Y318577D01*
X186941Y318612D01*
X186947Y318624D01*
X186952D01*
X187005Y318671D01*
X187058Y318711D01*
X187175Y318770D01*
X187292Y318817D01*
X187409Y318852D01*
X187508Y318869D01*
X187555Y318875D01*
X187590D01*
X187625Y318881D01*
X187666D01*
X187824Y318869D01*
D02*
G37*
G36*
X195763Y316032D02*
X192820D01*
X192732Y316465D01*
X195160D01*
X194879Y317805D01*
X192656D01*
X192563Y318238D01*
X194791D01*
X194540Y319443D01*
X192264D01*
X192171Y319876D01*
X194961D01*
X195763Y316032D01*
D02*
G37*
G36*
X190585Y318875D02*
X190661Y318858D01*
X190732Y318829D01*
X190796Y318805D01*
X190849Y318776D01*
X190890Y318747D01*
X190913Y318729D01*
X190925Y318723D01*
X191001Y318659D01*
X191077Y318583D01*
X191147Y318507D01*
X191211Y318431D01*
X191264Y318360D01*
X191311Y318302D01*
X191322Y318279D01*
X191334Y318261D01*
X191344Y318256D01*
X191229Y318817D01*
X191650D01*
X192229Y316032D01*
X191779D01*
X191545Y317144D01*
X191516Y317272D01*
X191480Y317395D01*
X191451Y317506D01*
X191416Y317606D01*
X191381Y317699D01*
X191346Y317781D01*
X191311Y317851D01*
X191281Y317922D01*
X191246Y317974D01*
X191223Y318021D01*
X191194Y318062D01*
X191170Y318097D01*
X191153Y318121D01*
X191141Y318138D01*
X191129Y318144D01*
Y318150D01*
X191083Y318197D01*
X191030Y318244D01*
X190936Y318314D01*
X190854Y318360D01*
X190778Y318396D01*
X190714Y318419D01*
X190661Y318425D01*
X190632Y318431D01*
X190620D01*
X190568Y318425D01*
X190515Y318419D01*
X190468Y318401D01*
X190433Y318384D01*
X190398Y318366D01*
X190375Y318355D01*
X190357Y318343D01*
X190351Y318337D01*
X190152Y318776D01*
X190228Y318811D01*
X190299Y318834D01*
X190357Y318858D01*
X190404Y318869D01*
X190445Y318875D01*
X190480Y318881D01*
X190503D01*
X190585Y318875D01*
D02*
G37*
G36*
X190457Y316032D02*
X189989D01*
X189409Y318817D01*
X189877D01*
X190457Y316032D01*
D02*
G37*
G36*
X182343D02*
X180441D01*
X180301Y316038D01*
X180172Y316056D01*
X180055Y316085D01*
X179956Y316114D01*
X179874Y316138D01*
X179810Y316167D01*
X179786Y316178D01*
X179769Y316184D01*
X179763Y316190D01*
X179757D01*
X179646Y316254D01*
X179546Y316325D01*
X179464Y316401D01*
X179394Y316471D01*
X179336Y316535D01*
X179295Y316588D01*
X179266Y316623D01*
X179260Y316629D01*
Y316635D01*
X179195Y316746D01*
X179149Y316851D01*
X179119Y316956D01*
X179096Y317050D01*
X179084Y317126D01*
X179072Y317191D01*
Y317214D01*
Y317231D01*
Y317237D01*
Y317243D01*
X179078Y317343D01*
X179096Y317436D01*
X179125Y317518D01*
X179149Y317588D01*
X179178Y317641D01*
X179207Y317688D01*
X179225Y317711D01*
X179230Y317723D01*
X179295Y317793D01*
X179371Y317857D01*
X179447Y317910D01*
X179523Y317951D01*
X179593Y317986D01*
X179646Y318009D01*
X179669Y318015D01*
X179687Y318021D01*
X179693Y318027D01*
X179699D01*
X179576Y318080D01*
X179464Y318138D01*
X179371Y318202D01*
X179301Y318261D01*
X179242Y318314D01*
X179201Y318355D01*
X179172Y318384D01*
X179166Y318396D01*
X179108Y318489D01*
X179061Y318583D01*
X179032Y318676D01*
X179008Y318764D01*
X178997Y318840D01*
X178985Y318904D01*
Y318928D01*
Y318946D01*
Y318951D01*
Y318957D01*
X178991Y319045D01*
X179002Y319121D01*
X179020Y319197D01*
X179037Y319261D01*
X179055Y319308D01*
X179072Y319349D01*
X179084Y319378D01*
X179090Y319384D01*
X179131Y319454D01*
X179178Y319513D01*
X179225Y319566D01*
X179266Y319606D01*
X179306Y319642D01*
X179342Y319671D01*
X179365Y319683D01*
X179371Y319688D01*
X179441Y319729D01*
X179517Y319759D01*
X179593Y319788D01*
X179663Y319811D01*
X179722Y319823D01*
X179769Y319835D01*
X179804Y319846D01*
X179815D01*
X179886Y319852D01*
X179962Y319858D01*
X180044Y319864D01*
X180125Y319870D01*
X181547D01*
X182343Y316032D01*
D02*
G37*
G36*
X178844D02*
X178370D01*
X177569Y319876D01*
X178037D01*
X178844Y316032D01*
D02*
G37*
G36*
X172790Y318875D02*
X172883Y318858D01*
X172971Y318840D01*
X173041Y318817D01*
X173106Y318788D01*
X173158Y318770D01*
X173187Y318752D01*
X173199Y318747D01*
X173293Y318694D01*
X173386Y318630D01*
X173474Y318559D01*
X173556Y318489D01*
X173626Y318431D01*
X173685Y318378D01*
X173720Y318343D01*
X173726Y318337D01*
X173731Y318331D01*
X173632Y318817D01*
X174059D01*
X174638Y316032D01*
X174170D01*
X173901Y317325D01*
X173872Y317442D01*
X173843Y317547D01*
X173813Y317647D01*
X173778Y317735D01*
X173743Y317816D01*
X173708Y317893D01*
X173673Y317957D01*
X173638Y318015D01*
X173603Y318068D01*
X173574Y318109D01*
X173544Y318144D01*
X173521Y318173D01*
X173503Y318197D01*
X173486Y318214D01*
X173480Y318220D01*
X173474Y318226D01*
X173416Y318273D01*
X173363Y318314D01*
X173246Y318378D01*
X173135Y318425D01*
X173035Y318454D01*
X172948Y318478D01*
X172907Y318483D01*
X172877D01*
X172848Y318489D01*
X172813D01*
X172749Y318483D01*
X172690Y318478D01*
X172643Y318460D01*
X172602Y318448D01*
X172573Y318431D01*
X172550Y318413D01*
X172538Y318407D01*
X172532Y318401D01*
X172497Y318366D01*
X172474Y318331D01*
X172456Y318290D01*
X172444Y318255D01*
X172439Y318220D01*
X172433Y318197D01*
Y318179D01*
Y318173D01*
Y318121D01*
X172444Y318062D01*
X172462Y317939D01*
X172474Y317881D01*
X172479Y317834D01*
X172491Y317805D01*
Y317799D01*
Y317793D01*
X172877Y316032D01*
X172409D01*
X172035Y317711D01*
X172012Y317828D01*
X171994Y317928D01*
X171982Y318009D01*
X171971Y318080D01*
Y318132D01*
X171965Y318167D01*
Y318191D01*
Y318197D01*
X171971Y318308D01*
X171994Y318407D01*
X172023Y318489D01*
X172058Y318559D01*
X172099Y318618D01*
X172128Y318659D01*
X172152Y318688D01*
X172158Y318694D01*
X172234Y318758D01*
X172322Y318805D01*
X172415Y318834D01*
X172497Y318858D01*
X172579Y318869D01*
X172637Y318881D01*
X172696D01*
X172790Y318875D01*
D02*
G37*
G36*
X164137Y318875D02*
X164231Y318858D01*
X164319Y318840D01*
X164389Y318817D01*
X164453Y318788D01*
X164506Y318770D01*
X164535Y318752D01*
X164547Y318747D01*
X164641Y318694D01*
X164734Y318630D01*
X164822Y318559D01*
X164904Y318489D01*
X164974Y318431D01*
X165032Y318378D01*
X165068Y318343D01*
X165074Y318337D01*
X165079Y318331D01*
X164980Y318817D01*
X165407D01*
X165986Y316032D01*
X165518D01*
X165249Y317325D01*
X165220Y317442D01*
X165190Y317547D01*
X165161Y317647D01*
X165126Y317735D01*
X165091Y317816D01*
X165056Y317893D01*
X165021Y317957D01*
X164986Y318015D01*
X164951Y318068D01*
X164921Y318109D01*
X164892Y318144D01*
X164869Y318173D01*
X164851Y318197D01*
X164834Y318214D01*
X164828Y318220D01*
X164822Y318226D01*
X164763Y318273D01*
X164711Y318314D01*
X164594Y318378D01*
X164483Y318425D01*
X164383Y318454D01*
X164295Y318478D01*
X164254Y318483D01*
X164225D01*
X164196Y318489D01*
X164161D01*
X164096Y318483D01*
X164038Y318478D01*
X163991Y318460D01*
X163950Y318448D01*
X163921Y318431D01*
X163898Y318413D01*
X163886Y318407D01*
X163880Y318401D01*
X163845Y318366D01*
X163822Y318331D01*
X163804Y318290D01*
X163792Y318255D01*
X163786Y318220D01*
X163781Y318197D01*
Y318179D01*
Y318173D01*
Y318121D01*
X163792Y318062D01*
X163810Y317939D01*
X163822Y317881D01*
X163827Y317834D01*
X163839Y317805D01*
Y317799D01*
Y317793D01*
X164225Y316032D01*
X163757D01*
X163383Y317711D01*
X163359Y317828D01*
X163342Y317928D01*
X163330Y318009D01*
X163319Y318080D01*
Y318132D01*
X163313Y318167D01*
Y318191D01*
Y318197D01*
X163319Y318308D01*
X163342Y318407D01*
X163371Y318489D01*
X163406Y318559D01*
X163447Y318618D01*
X163476Y318659D01*
X163500Y318688D01*
X163506Y318694D01*
X163582Y318758D01*
X163670Y318805D01*
X163763Y318834D01*
X163845Y318858D01*
X163927Y318869D01*
X163985Y318881D01*
X164044D01*
X164137Y318875D01*
D02*
G37*
G36*
X155386D02*
X155462Y318858D01*
X155532Y318829D01*
X155596Y318805D01*
X155649Y318776D01*
X155690Y318747D01*
X155713Y318729D01*
X155725Y318723D01*
X155801Y318659D01*
X155877Y318583D01*
X155947Y318507D01*
X156012Y318431D01*
X156064Y318360D01*
X156111Y318302D01*
X156123Y318279D01*
X156135Y318261D01*
X156145Y318256D01*
X156146Y318249D01*
Y318255D01*
X156145Y318256D01*
X156029Y318817D01*
X156450D01*
X157030Y316032D01*
X156579D01*
X156345Y317144D01*
X156316Y317272D01*
X156281Y317395D01*
X156252Y317506D01*
X156217Y317606D01*
X156181Y317699D01*
X156146Y317781D01*
X156111Y317851D01*
X156082Y317922D01*
X156047Y317974D01*
X156024Y318021D01*
X155994Y318062D01*
X155971Y318097D01*
X155953Y318121D01*
X155942Y318138D01*
X155930Y318144D01*
Y318150D01*
X155883Y318197D01*
X155830Y318244D01*
X155737Y318314D01*
X155655Y318360D01*
X155579Y318396D01*
X155515Y318419D01*
X155462Y318425D01*
X155433Y318431D01*
X155421D01*
X155368Y318425D01*
X155316Y318419D01*
X155269Y318401D01*
X155234Y318384D01*
X155199Y318366D01*
X155175Y318355D01*
X155158Y318343D01*
X155152Y318337D01*
X154953Y318776D01*
X155029Y318811D01*
X155099Y318834D01*
X155158Y318858D01*
X155204Y318869D01*
X155245Y318875D01*
X155280Y318881D01*
X155304D01*
X155386Y318875D01*
D02*
G37*
G36*
X185261Y324674D02*
X184787D01*
X184676Y325212D01*
X185144D01*
X185261Y324674D01*
D02*
G37*
G36*
X171314Y321369D02*
X170899D01*
X170788Y321889D01*
X170741Y321784D01*
X170694Y321696D01*
X170642Y321620D01*
X170589Y321556D01*
X170542Y321509D01*
X170507Y321474D01*
X170484Y321451D01*
X170472Y321445D01*
X170390Y321398D01*
X170314Y321363D01*
X170232Y321340D01*
X170156Y321322D01*
X170092Y321310D01*
X170045Y321304D01*
X169998D01*
X169940Y321310D01*
X169881Y321316D01*
X169828Y321328D01*
X169776Y321340D01*
X169735Y321351D01*
X169706Y321357D01*
X169682Y321369D01*
X169676D01*
X169612Y321392D01*
X169554Y321422D01*
X169501Y321451D01*
X169448Y321480D01*
X169407Y321509D01*
X169378Y321533D01*
X169355Y321544D01*
X169349Y321550D01*
X169290Y321603D01*
X169232Y321656D01*
X169179Y321708D01*
X169126Y321761D01*
X169091Y321814D01*
X169056Y321849D01*
X169039Y321872D01*
X169033Y321884D01*
X168980Y321966D01*
X168928Y322053D01*
X168887Y322141D01*
X168852Y322223D01*
X168822Y322293D01*
X168799Y322346D01*
X168793Y322369D01*
X168787Y322387D01*
X168781Y322393D01*
Y322398D01*
X168746Y322516D01*
X168723Y322638D01*
X168700Y322749D01*
X168688Y322855D01*
X168682Y322942D01*
Y322984D01*
X168676Y323013D01*
Y323042D01*
Y323060D01*
Y323071D01*
Y323077D01*
Y323177D01*
X168688Y323276D01*
X168700Y323364D01*
X168717Y323446D01*
X168735Y323522D01*
X168758Y323592D01*
X168781Y323650D01*
X168805Y323709D01*
X168828Y323762D01*
X168852Y323802D01*
X168875Y323843D01*
X168893Y323873D01*
X168910Y323896D01*
X168922Y323914D01*
X168928Y323920D01*
X168933Y323925D01*
X168980Y323978D01*
X169033Y324025D01*
X169086Y324060D01*
X169138Y324095D01*
X169244Y324148D01*
X169343Y324183D01*
X169431Y324200D01*
X169472Y324212D01*
X169501D01*
X169530Y324218D01*
X169565D01*
X169635Y324212D01*
X169706Y324206D01*
X169764Y324189D01*
X169823Y324177D01*
X169869Y324159D01*
X169905Y324142D01*
X169928Y324136D01*
X169934Y324130D01*
X170004Y324095D01*
X170068Y324048D01*
X170139Y324001D01*
X170197Y323955D01*
X170250Y323908D01*
X170297Y323873D01*
X170320Y323849D01*
X170332Y323838D01*
X170045Y325212D01*
X170513D01*
X171314Y321369D01*
D02*
G37*
G36*
X183395Y324212D02*
X183512Y324189D01*
X183617Y324153D01*
X183711Y324118D01*
X183792Y324077D01*
X183857Y324048D01*
X183880Y324031D01*
X183898Y324025D01*
X183904Y324013D01*
X183909D01*
X184021Y323931D01*
X184120Y323838D01*
X184208Y323738D01*
X184284Y323639D01*
X184348Y323551D01*
X184395Y323481D01*
X184413Y323457D01*
X184424Y323434D01*
X184436Y323422D01*
Y323416D01*
X184512Y323264D01*
X184565Y323118D01*
X184606Y322972D01*
X184629Y322837D01*
X184641Y322779D01*
X184647Y322726D01*
X184652Y322679D01*
Y322638D01*
X184658Y322603D01*
Y322580D01*
Y322562D01*
Y322556D01*
X184652Y322451D01*
X184647Y322358D01*
X184635Y322264D01*
X184611Y322182D01*
X184594Y322100D01*
X184571Y322030D01*
X184541Y321966D01*
X184518Y321907D01*
X184489Y321854D01*
X184465Y321808D01*
X184442Y321767D01*
X184418Y321737D01*
X184401Y321714D01*
X184389Y321691D01*
X184383Y321685D01*
X184378Y321679D01*
X184325Y321626D01*
X184266Y321580D01*
X184208Y321533D01*
X184149Y321498D01*
X184032Y321445D01*
X183921Y321410D01*
X183822Y321386D01*
X183781Y321381D01*
X183746Y321375D01*
X183716Y321369D01*
X183676D01*
X183599Y321375D01*
X183518Y321386D01*
X183447Y321404D01*
X183371Y321427D01*
X183243Y321486D01*
X183120Y321556D01*
X183073Y321585D01*
X183026Y321620D01*
X182985Y321650D01*
X182950Y321679D01*
X182921Y321702D01*
X182903Y321720D01*
X182892Y321732D01*
X182886Y321737D01*
X182938Y321515D01*
X182956Y321427D01*
X182974Y321345D01*
X182997Y321275D01*
X183014Y321205D01*
X183032Y321147D01*
X183049Y321094D01*
X183067Y321047D01*
X183085Y321012D01*
X183114Y320948D01*
X183137Y320901D01*
X183155Y320878D01*
X183161Y320872D01*
X183243Y320796D01*
X183336Y320743D01*
X183441Y320702D01*
X183541Y320679D01*
X183634Y320661D01*
X183676Y320655D01*
X183711D01*
X183740Y320649D01*
X183851D01*
X183921Y320661D01*
X183974Y320667D01*
X184027Y320679D01*
X184062Y320690D01*
X184091Y320696D01*
X184108Y320708D01*
X184114D01*
X184173Y320749D01*
X184220Y320790D01*
X184243Y320825D01*
X184255Y320831D01*
Y320836D01*
X184266Y320872D01*
X184278Y320907D01*
X184290Y320989D01*
X184296Y321024D01*
Y321053D01*
Y321071D01*
Y321076D01*
X184769Y321117D01*
X184775Y321065D01*
X184781Y321024D01*
Y320989D01*
Y320983D01*
Y320977D01*
X184775Y320901D01*
X184764Y320831D01*
X184746Y320766D01*
X184723Y320714D01*
X184699Y320667D01*
X184682Y320632D01*
X184670Y320608D01*
X184664Y320602D01*
X184617Y320544D01*
X184559Y320491D01*
X184500Y320445D01*
X184442Y320409D01*
X184389Y320380D01*
X184348Y320363D01*
X184319Y320351D01*
X184307Y320345D01*
X184214Y320316D01*
X184114Y320292D01*
X184015Y320281D01*
X183927Y320269D01*
X183845Y320263D01*
X183787Y320257D01*
X183728D01*
X183599Y320263D01*
X183482Y320281D01*
X183377Y320304D01*
X183289Y320328D01*
X183213Y320351D01*
X183161Y320374D01*
X183126Y320392D01*
X183114Y320398D01*
X183020Y320450D01*
X182938Y320515D01*
X182868Y320579D01*
X182810Y320638D01*
X182763Y320696D01*
X182734Y320737D01*
X182710Y320766D01*
X182704Y320778D01*
X182652Y320878D01*
X182599Y320989D01*
X182558Y321106D01*
X182523Y321211D01*
X182494Y321310D01*
X182482Y321351D01*
X182476Y321392D01*
X182470Y321422D01*
X182465Y321445D01*
X182459Y321457D01*
Y321462D01*
X181897Y324153D01*
X182336D01*
X182429Y323703D01*
X182488Y323797D01*
X182552Y323873D01*
X182617Y323943D01*
X182687Y324001D01*
X182757Y324048D01*
X182827Y324095D01*
X182897Y324124D01*
X182962Y324153D01*
X183026Y324177D01*
X183085Y324189D01*
X183137Y324200D01*
X183184Y324212D01*
X183219D01*
X183248Y324218D01*
X183272D01*
X183395Y324212D01*
D02*
G37*
G36*
X165055Y323615D02*
X164511D01*
X164400Y324153D01*
X164938D01*
X165055Y323615D01*
D02*
G37*
G36*
X167565Y321363D02*
X167717Y321094D01*
X167763Y321012D01*
X167810Y320942D01*
X167857Y320889D01*
X167892Y320842D01*
X167921Y320813D01*
X167945Y320790D01*
X167962Y320778D01*
X167968Y320772D01*
X168003Y320749D01*
X168044Y320731D01*
X168120Y320714D01*
X168150Y320708D01*
X168179Y320702D01*
X168202D01*
X168302Y320708D01*
X168349Y320720D01*
X168395Y320725D01*
X168430Y320737D01*
X168460Y320743D01*
X168477Y320749D01*
X168483D01*
X168512Y320298D01*
X168395Y320263D01*
X168343Y320251D01*
X168296Y320246D01*
X168255D01*
X168220Y320240D01*
X168191D01*
X168097Y320246D01*
X168009Y320263D01*
X167933Y320287D01*
X167863Y320316D01*
X167810Y320345D01*
X167769Y320369D01*
X167746Y320386D01*
X167734Y320392D01*
X167693Y320421D01*
X167658Y320462D01*
X167576Y320550D01*
X167500Y320655D01*
X167430Y320755D01*
X167371Y320854D01*
X167342Y320895D01*
X167319Y320930D01*
X167301Y320965D01*
X167290Y320989D01*
X167278Y321000D01*
Y321006D01*
X165505Y324153D01*
X165997D01*
X167243Y321919D01*
X167260Y322077D01*
X167278Y322223D01*
X167296Y322363D01*
X167313Y322492D01*
X167325Y322545D01*
X167331Y322597D01*
X167336Y322638D01*
X167342Y322679D01*
X167348Y322709D01*
Y322732D01*
X167354Y322744D01*
Y322749D01*
X167559Y324153D01*
X168027D01*
X167565Y321363D01*
D02*
G37*
G36*
X190169Y324206D02*
X190304Y324183D01*
X190426Y324153D01*
X190538Y324113D01*
X190625Y324072D01*
X190666Y324054D01*
X190696Y324042D01*
X190719Y324025D01*
X190736Y324019D01*
X190748Y324007D01*
X190754D01*
X190871Y323920D01*
X190982Y323820D01*
X191070Y323709D01*
X191152Y323609D01*
X191216Y323510D01*
X191240Y323469D01*
X191257Y323434D01*
X191275Y323405D01*
X191286Y323381D01*
X191298Y323370D01*
Y323364D01*
X191368Y323206D01*
X191421Y323048D01*
X191456Y322896D01*
X191479Y322761D01*
X191491Y322703D01*
X191497Y322650D01*
X191503Y322597D01*
Y322556D01*
X191509Y322527D01*
Y322504D01*
Y322486D01*
Y322480D01*
X191503Y322358D01*
X191485Y322240D01*
X191468Y322135D01*
X191438Y322042D01*
X191415Y321966D01*
X191398Y321907D01*
X191380Y321872D01*
X191374Y321866D01*
Y321860D01*
X191316Y321761D01*
X191257Y321679D01*
X191193Y321609D01*
X191128Y321550D01*
X191070Y321503D01*
X191023Y321474D01*
X190994Y321451D01*
X190982Y321445D01*
X190883Y321398D01*
X190783Y321363D01*
X190690Y321340D01*
X190602Y321322D01*
X190526Y321310D01*
X190467Y321304D01*
X190415D01*
X190321Y321310D01*
X190233Y321316D01*
X190069Y321351D01*
X189923Y321398D01*
X189800Y321457D01*
X189748Y321486D01*
X189701Y321515D01*
X189660Y321538D01*
X189625Y321562D01*
X189596Y321580D01*
X189578Y321597D01*
X189566Y321603D01*
X189561Y321609D01*
X189496Y321667D01*
X189438Y321726D01*
X189338Y321843D01*
X189256Y321954D01*
X189198Y322053D01*
X189157Y322141D01*
X189139Y322176D01*
X189128Y322205D01*
X189116Y322229D01*
X189110Y322246D01*
X189104Y322258D01*
Y322264D01*
X189561Y322305D01*
X189613Y322200D01*
X189678Y322106D01*
X189736Y322030D01*
X189800Y321966D01*
X189853Y321913D01*
X189894Y321878D01*
X189923Y321854D01*
X189935Y321849D01*
X190023Y321796D01*
X190105Y321755D01*
X190187Y321732D01*
X190257Y321708D01*
X190321Y321696D01*
X190368Y321691D01*
X190409D01*
X190502Y321702D01*
X190590Y321726D01*
X190666Y321755D01*
X190731Y321796D01*
X190783Y321831D01*
X190818Y321866D01*
X190848Y321889D01*
X190853Y321895D01*
X190912Y321977D01*
X190953Y322077D01*
X190988Y322176D01*
X191006Y322270D01*
X191017Y322358D01*
X191023Y322428D01*
X191029Y322457D01*
Y322475D01*
Y322486D01*
Y322492D01*
Y322545D01*
X191023Y322597D01*
X191017Y322633D01*
Y322638D01*
Y322644D01*
X188970D01*
X188946Y322796D01*
X188941Y322867D01*
X188935Y322931D01*
X188929Y322984D01*
Y323024D01*
Y323048D01*
Y323060D01*
X188935Y323159D01*
X188941Y323253D01*
X188976Y323422D01*
X188999Y323492D01*
X189022Y323563D01*
X189052Y323627D01*
X189075Y323686D01*
X189104Y323738D01*
X189134Y323779D01*
X189157Y323820D01*
X189180Y323849D01*
X189198Y323879D01*
X189215Y323896D01*
X189221Y323902D01*
X189227Y323908D01*
X189286Y323960D01*
X189344Y324013D01*
X189414Y324054D01*
X189479Y324089D01*
X189613Y324142D01*
X189742Y324177D01*
X189853Y324200D01*
X189900Y324206D01*
X189947Y324212D01*
X189982Y324218D01*
X190029D01*
X190169Y324206D01*
D02*
G37*
G36*
X177340D02*
X177474Y324183D01*
X177597Y324153D01*
X177708Y324113D01*
X177796Y324072D01*
X177837Y324054D01*
X177866Y324042D01*
X177890Y324025D01*
X177907Y324019D01*
X177919Y324007D01*
X177925D01*
X178042Y323920D01*
X178153Y323820D01*
X178241Y323709D01*
X178323Y323609D01*
X178387Y323510D01*
X178410Y323469D01*
X178428Y323434D01*
X178446Y323405D01*
X178457Y323381D01*
X178469Y323370D01*
Y323364D01*
X178539Y323206D01*
X178592Y323048D01*
X178627Y322896D01*
X178650Y322761D01*
X178662Y322703D01*
X178668Y322650D01*
X178674Y322597D01*
Y322556D01*
X178680Y322527D01*
Y322504D01*
Y322486D01*
Y322480D01*
X178674Y322358D01*
X178656Y322240D01*
X178639Y322135D01*
X178609Y322042D01*
X178586Y321966D01*
X178568Y321907D01*
X178551Y321872D01*
X178545Y321866D01*
Y321860D01*
X178487Y321761D01*
X178428Y321679D01*
X178364Y321609D01*
X178299Y321550D01*
X178241Y321503D01*
X178194Y321474D01*
X178165Y321451D01*
X178153Y321445D01*
X178054Y321398D01*
X177954Y321363D01*
X177861Y321340D01*
X177773Y321322D01*
X177697Y321310D01*
X177638Y321304D01*
X177586D01*
X177492Y321310D01*
X177404Y321316D01*
X177241Y321351D01*
X177094Y321398D01*
X176971Y321457D01*
X176919Y321486D01*
X176872Y321515D01*
X176831Y321538D01*
X176796Y321562D01*
X176767Y321580D01*
X176749Y321597D01*
X176737Y321603D01*
X176732Y321609D01*
X176667Y321667D01*
X176609Y321726D01*
X176509Y321843D01*
X176427Y321954D01*
X176369Y322053D01*
X176328Y322141D01*
X176310Y322176D01*
X176299Y322205D01*
X176287Y322229D01*
X176281Y322246D01*
X176275Y322258D01*
Y322264D01*
X176732Y322305D01*
X176784Y322200D01*
X176848Y322106D01*
X176907Y322030D01*
X176971Y321966D01*
X177024Y321913D01*
X177065Y321878D01*
X177094Y321854D01*
X177106Y321849D01*
X177194Y321796D01*
X177276Y321755D01*
X177357Y321732D01*
X177428Y321708D01*
X177492Y321696D01*
X177539Y321691D01*
X177580D01*
X177673Y321702D01*
X177761Y321726D01*
X177837Y321755D01*
X177901Y321796D01*
X177954Y321831D01*
X177989Y321866D01*
X178018Y321889D01*
X178024Y321895D01*
X178083Y321977D01*
X178124Y322077D01*
X178159Y322176D01*
X178176Y322270D01*
X178188Y322358D01*
X178194Y322428D01*
X178200Y322457D01*
Y322475D01*
Y322486D01*
Y322492D01*
Y322545D01*
X178194Y322597D01*
X178188Y322633D01*
Y322638D01*
Y322644D01*
X176141D01*
X176117Y322796D01*
X176111Y322867D01*
X176106Y322931D01*
X176100Y322984D01*
Y323024D01*
Y323048D01*
Y323060D01*
X176106Y323159D01*
X176111Y323253D01*
X176146Y323422D01*
X176170Y323492D01*
X176193Y323563D01*
X176223Y323627D01*
X176246Y323686D01*
X176275Y323738D01*
X176304Y323779D01*
X176328Y323820D01*
X176351Y323849D01*
X176369Y323879D01*
X176386Y323896D01*
X176392Y323902D01*
X176398Y323908D01*
X176457Y323960D01*
X176515Y324013D01*
X176585Y324054D01*
X176650Y324089D01*
X176784Y324142D01*
X176913Y324177D01*
X177024Y324200D01*
X177071Y324206D01*
X177118Y324212D01*
X177153Y324218D01*
X177199D01*
X177340Y324206D01*
D02*
G37*
G36*
X195416Y321369D02*
X193901D01*
X193778Y321381D01*
X193673Y321386D01*
X193579Y321398D01*
X193503Y321410D01*
X193451Y321416D01*
X193416Y321427D01*
X193404D01*
X193281Y321462D01*
X193170Y321498D01*
X193071Y321538D01*
X192983Y321574D01*
X192913Y321609D01*
X192860Y321638D01*
X192831Y321661D01*
X192819Y321667D01*
X192725Y321732D01*
X192643Y321808D01*
X192562Y321884D01*
X192491Y321954D01*
X192433Y322018D01*
X192386Y322071D01*
X192357Y322106D01*
X192345Y322112D01*
Y322118D01*
X192263Y322229D01*
X192193Y322346D01*
X192129Y322457D01*
X192076Y322562D01*
X192035Y322656D01*
X192018Y322691D01*
X192000Y322726D01*
X191988Y322755D01*
X191982Y322773D01*
X191977Y322785D01*
Y322790D01*
X191930Y322937D01*
X191895Y323089D01*
X191871Y323229D01*
X191854Y323358D01*
X191848Y323416D01*
X191842Y323475D01*
Y323522D01*
X191836Y323563D01*
Y323592D01*
Y323621D01*
Y323633D01*
Y323639D01*
X191842Y323779D01*
X191854Y323908D01*
X191871Y324031D01*
X191895Y324130D01*
X191918Y324218D01*
X191924Y324253D01*
X191936Y324282D01*
X191941Y324306D01*
X191947Y324323D01*
X191953Y324329D01*
Y324335D01*
X192000Y324446D01*
X192053Y324551D01*
X192105Y324639D01*
X192164Y324715D01*
X192211Y324774D01*
X192252Y324820D01*
X192275Y324844D01*
X192287Y324855D01*
X192374Y324932D01*
X192462Y324990D01*
X192556Y325043D01*
X192638Y325084D01*
X192714Y325113D01*
X192772Y325130D01*
X192796Y325142D01*
X192813D01*
X192819Y325148D01*
X192825D01*
X192913Y325171D01*
X193018Y325183D01*
X193123Y325195D01*
X193223Y325206D01*
X193316D01*
X193357Y325212D01*
X194615D01*
X195416Y321369D01*
D02*
G37*
G36*
X185945D02*
X185477D01*
X184898Y324153D01*
X185366D01*
X185945Y321369D01*
D02*
G37*
G36*
X179914Y324212D02*
X180008Y324194D01*
X180095Y324177D01*
X180166Y324153D01*
X180230Y324124D01*
X180282Y324107D01*
X180312Y324089D01*
X180323Y324083D01*
X180417Y324031D01*
X180511Y323966D01*
X180598Y323896D01*
X180680Y323826D01*
X180751Y323767D01*
X180809Y323715D01*
X180844Y323680D01*
X180850Y323674D01*
X180856Y323668D01*
X180756Y324153D01*
X181183D01*
X181763Y321369D01*
X181295D01*
X181025Y322662D01*
X180996Y322779D01*
X180967Y322884D01*
X180938Y322984D01*
X180903Y323071D01*
X180868Y323153D01*
X180832Y323229D01*
X180797Y323293D01*
X180762Y323352D01*
X180727Y323405D01*
X180698Y323446D01*
X180669Y323481D01*
X180645Y323510D01*
X180628Y323533D01*
X180610Y323551D01*
X180604Y323557D01*
X180598Y323563D01*
X180540Y323609D01*
X180487Y323650D01*
X180370Y323715D01*
X180259Y323762D01*
X180160Y323791D01*
X180072Y323814D01*
X180031Y323820D01*
X180002D01*
X179972Y323826D01*
X179937D01*
X179873Y323820D01*
X179815Y323814D01*
X179768Y323797D01*
X179727Y323785D01*
X179698Y323767D01*
X179674Y323750D01*
X179662Y323744D01*
X179657Y323738D01*
X179621Y323703D01*
X179598Y323668D01*
X179580Y323627D01*
X179569Y323592D01*
X179563Y323557D01*
X179557Y323533D01*
Y323516D01*
Y323510D01*
Y323457D01*
X179569Y323399D01*
X179586Y323276D01*
X179598Y323218D01*
X179604Y323171D01*
X179616Y323141D01*
Y323136D01*
Y323130D01*
X180002Y321369D01*
X179534D01*
X179159Y323048D01*
X179136Y323165D01*
X179118Y323264D01*
X179107Y323346D01*
X179095Y323416D01*
Y323469D01*
X179089Y323504D01*
Y323528D01*
Y323533D01*
X179095Y323644D01*
X179118Y323744D01*
X179148Y323826D01*
X179183Y323896D01*
X179224Y323955D01*
X179253Y323995D01*
X179276Y324025D01*
X179282Y324031D01*
X179358Y324095D01*
X179446Y324142D01*
X179540Y324171D01*
X179621Y324194D01*
X179703Y324206D01*
X179762Y324218D01*
X179820D01*
X179914Y324212D01*
D02*
G37*
G36*
X165523Y321369D02*
X164985D01*
X164868Y321907D01*
X165406D01*
X165523Y321369D01*
D02*
G37*
G36*
X187361Y324206D02*
X187507Y324183D01*
X187630Y324142D01*
X187735Y324101D01*
X187817Y324054D01*
X187852Y324037D01*
X187882Y324013D01*
X187899Y324001D01*
X187917Y323990D01*
X187923Y323978D01*
X187928D01*
X187975Y323931D01*
X188010Y323884D01*
X188075Y323791D01*
X188121Y323697D01*
X188151Y323609D01*
X188174Y323533D01*
X188180Y323469D01*
X188186Y323446D01*
Y323434D01*
Y323422D01*
Y323416D01*
X188180Y323346D01*
X188174Y323282D01*
X188157Y323223D01*
X188139Y323177D01*
X188127Y323136D01*
X188110Y323100D01*
X188104Y323083D01*
X188098Y323077D01*
X188063Y323024D01*
X188022Y322978D01*
X187975Y322937D01*
X187934Y322902D01*
X187893Y322867D01*
X187864Y322843D01*
X187841Y322831D01*
X187835Y322826D01*
X187811Y322814D01*
X187782Y322796D01*
X187718Y322761D01*
X187636Y322726D01*
X187554Y322685D01*
X187478Y322650D01*
X187414Y322627D01*
X187390Y322615D01*
X187373Y322603D01*
X187361Y322597D01*
X187355D01*
X187285Y322568D01*
X187226Y322539D01*
X187168Y322516D01*
X187121Y322486D01*
X187039Y322445D01*
X186975Y322404D01*
X186928Y322369D01*
X186899Y322346D01*
X186887Y322334D01*
X186881Y322328D01*
X186846Y322287D01*
X186823Y322246D01*
X186805Y322205D01*
X186793Y322170D01*
X186788Y322141D01*
X186782Y322118D01*
Y322100D01*
Y322094D01*
X186788Y322036D01*
X186805Y321977D01*
X186835Y321925D01*
X186858Y321884D01*
X186887Y321849D01*
X186916Y321819D01*
X186934Y321802D01*
X186940Y321796D01*
X187004Y321755D01*
X187080Y321726D01*
X187156Y321702D01*
X187238Y321691D01*
X187302Y321679D01*
X187361Y321673D01*
X187414D01*
X187496Y321679D01*
X187566Y321685D01*
X187636Y321702D01*
X187694Y321720D01*
X187741Y321732D01*
X187776Y321749D01*
X187800Y321755D01*
X187806Y321761D01*
X187864Y321796D01*
X187911Y321837D01*
X187952Y321878D01*
X187987Y321913D01*
X188010Y321948D01*
X188028Y321971D01*
X188034Y321989D01*
X188040Y321995D01*
X188057Y322053D01*
X188075Y322112D01*
X188086Y322170D01*
X188092Y322229D01*
Y322276D01*
X188098Y322317D01*
Y322340D01*
Y322352D01*
X188572Y322322D01*
Y322223D01*
X188566Y322135D01*
X188549Y322047D01*
X188531Y321971D01*
X188508Y321901D01*
X188478Y321837D01*
X188449Y321778D01*
X188420Y321726D01*
X188391Y321679D01*
X188361Y321644D01*
X188332Y321609D01*
X188309Y321585D01*
X188285Y321562D01*
X188268Y321550D01*
X188262Y321544D01*
X188256Y321538D01*
X188121Y321462D01*
X187987Y321404D01*
X187847Y321363D01*
X187718Y321334D01*
X187607Y321316D01*
X187560Y321310D01*
X187519D01*
X187484Y321304D01*
X187437D01*
X187308Y321310D01*
X187191Y321322D01*
X187092Y321340D01*
X186998Y321363D01*
X186928Y321386D01*
X186875Y321404D01*
X186840Y321416D01*
X186829Y321422D01*
X186735Y321468D01*
X186659Y321521D01*
X186589Y321574D01*
X186536Y321626D01*
X186489Y321667D01*
X186460Y321702D01*
X186442Y321732D01*
X186437Y321737D01*
X186396Y321814D01*
X186361Y321889D01*
X186337Y321960D01*
X186326Y322018D01*
X186314Y322071D01*
X186308Y322112D01*
Y322135D01*
Y322147D01*
X186320Y322258D01*
X186343Y322363D01*
X186378Y322457D01*
X186419Y322533D01*
X186466Y322591D01*
X186501Y322638D01*
X186524Y322668D01*
X186536Y322679D01*
X186565Y322709D01*
X186606Y322738D01*
X186653Y322767D01*
X186700Y322796D01*
X186817Y322861D01*
X186928Y322919D01*
X187039Y322972D01*
X187092Y322995D01*
X187133Y323013D01*
X187168Y323030D01*
X187197Y323042D01*
X187215Y323054D01*
X187221D01*
X187279Y323083D01*
X187332Y323106D01*
X187419Y323147D01*
X187490Y323182D01*
X187542Y323212D01*
X187583Y323235D01*
X187607Y323253D01*
X187618Y323264D01*
X187624D01*
X187665Y323305D01*
X187694Y323340D01*
X187712Y323381D01*
X187724Y323416D01*
X187735Y323446D01*
X187741Y323469D01*
Y323487D01*
Y323492D01*
X187735Y323539D01*
X187718Y323586D01*
X187700Y323627D01*
X187671Y323662D01*
X187648Y323691D01*
X187630Y323715D01*
X187612Y323726D01*
X187607Y323732D01*
X187554Y323773D01*
X187490Y323802D01*
X187425Y323820D01*
X187367Y323838D01*
X187308Y323843D01*
X187267Y323849D01*
X187226D01*
X187121Y323843D01*
X187022Y323826D01*
X186940Y323802D01*
X186875Y323779D01*
X186823Y323750D01*
X186782Y323726D01*
X186758Y323709D01*
X186753Y323703D01*
X186694Y323644D01*
X186653Y323580D01*
X186618Y323516D01*
X186600Y323451D01*
X186583Y323399D01*
X186577Y323352D01*
X186571Y323323D01*
Y323311D01*
X186109Y323340D01*
X186115Y323411D01*
X186127Y323481D01*
X186156Y323604D01*
X186203Y323715D01*
X186255Y323802D01*
X186308Y323879D01*
X186355Y323931D01*
X186384Y323960D01*
X186390Y323972D01*
X186396D01*
X186507Y324054D01*
X186636Y324113D01*
X186770Y324159D01*
X186899Y324189D01*
X187010Y324206D01*
X187063Y324212D01*
X187104D01*
X187139Y324218D01*
X187191D01*
X187361Y324206D01*
D02*
G37*
G36*
X173549Y323715D02*
X173602Y323802D01*
X173660Y323879D01*
X173719Y323949D01*
X173783Y324007D01*
X173847Y324054D01*
X173918Y324095D01*
X173982Y324130D01*
X174040Y324153D01*
X174099Y324177D01*
X174158Y324189D01*
X174204Y324200D01*
X174245Y324212D01*
X174286D01*
X174310Y324218D01*
X174333D01*
X174450Y324206D01*
X174567Y324183D01*
X174672Y324153D01*
X174766Y324113D01*
X174848Y324072D01*
X174912Y324042D01*
X174936Y324025D01*
X174953Y324019D01*
X174959Y324007D01*
X174965D01*
X175076Y323920D01*
X175175Y323820D01*
X175263Y323715D01*
X175339Y323615D01*
X175404Y323522D01*
X175427Y323481D01*
X175450Y323446D01*
X175462Y323416D01*
X175474Y323393D01*
X175486Y323381D01*
Y323375D01*
X175556Y323218D01*
X175602Y323054D01*
X175638Y322896D01*
X175667Y322755D01*
X175673Y322685D01*
X175679Y322627D01*
X175684Y322574D01*
Y322533D01*
X175690Y322498D01*
Y322469D01*
Y322451D01*
Y322445D01*
X175684Y322346D01*
X175679Y322252D01*
X175667Y322159D01*
X175649Y322077D01*
X175632Y322001D01*
X175608Y321931D01*
X175585Y321872D01*
X175556Y321814D01*
X175532Y321761D01*
X175509Y321720D01*
X175486Y321685D01*
X175468Y321650D01*
X175450Y321626D01*
X175439Y321609D01*
X175427Y321603D01*
Y321597D01*
X175374Y321544D01*
X175322Y321503D01*
X175269Y321462D01*
X175210Y321427D01*
X175105Y321375D01*
X175000Y321340D01*
X174912Y321322D01*
X174871Y321316D01*
X174836Y321310D01*
X174807Y321304D01*
X174772D01*
X174690Y321310D01*
X174608Y321322D01*
X174526Y321345D01*
X174450Y321375D01*
X174304Y321451D01*
X174175Y321538D01*
X174122Y321580D01*
X174070Y321620D01*
X174029Y321661D01*
X173988Y321696D01*
X173959Y321726D01*
X173935Y321749D01*
X173924Y321761D01*
X173918Y321767D01*
X174000Y321369D01*
X173561D01*
X172759Y325212D01*
X173233D01*
X173549Y323715D01*
D02*
G37*
%LPC*%
G36*
X161406Y318501D02*
X161394D01*
X161306Y318495D01*
X161224Y318472D01*
X161154Y318437D01*
X161095Y318401D01*
X161049Y318366D01*
X161014Y318331D01*
X160990Y318308D01*
X160984Y318302D01*
X160932Y318226D01*
X160891Y318138D01*
X160861Y318045D01*
X160838Y317957D01*
X160826Y317881D01*
X160820Y317816D01*
Y317793D01*
Y317776D01*
Y317764D01*
Y317758D01*
X160826Y317635D01*
X160844Y317518D01*
X160861Y317401D01*
X160885Y317296D01*
X160914Y317202D01*
X160926Y317167D01*
X160932Y317132D01*
X160943Y317103D01*
X160949Y317085D01*
X160955Y317073D01*
Y317068D01*
X161008Y316939D01*
X161060Y316828D01*
X161119Y316734D01*
X161171Y316658D01*
X161218Y316600D01*
X161253Y316559D01*
X161277Y316529D01*
X161288Y316524D01*
X161365Y316465D01*
X161441Y316424D01*
X161517Y316395D01*
X161581Y316377D01*
X161639Y316366D01*
X161686Y316354D01*
X161727D01*
X161815Y316360D01*
X161897Y316383D01*
X161967Y316412D01*
X162026Y316447D01*
X162078Y316477D01*
X162113Y316506D01*
X162137Y316529D01*
X162143Y316535D01*
X162195Y316611D01*
X162236Y316699D01*
X162266Y316793D01*
X162283Y316880D01*
X162295Y316956D01*
X162306Y317021D01*
Y317044D01*
Y317062D01*
Y317073D01*
Y317079D01*
Y317167D01*
X162301Y317249D01*
X162289Y317337D01*
X162271Y317425D01*
X162248Y317506D01*
X162230Y317577D01*
X162213Y317635D01*
X162207Y317658D01*
X162201Y317676D01*
X162195Y317682D01*
Y317688D01*
X162143Y317834D01*
X162084Y317957D01*
X162026Y318062D01*
X161967Y318144D01*
X161920Y318214D01*
X161885Y318261D01*
X161862Y318284D01*
X161850Y318296D01*
X161768Y318366D01*
X161692Y318413D01*
X161610Y318448D01*
X161540Y318478D01*
X161481Y318489D01*
X161435Y318495D01*
X161406Y318501D01*
D02*
G37*
G36*
X153795D02*
X153765D01*
X153666Y318489D01*
X153572Y318466D01*
X153496Y318437D01*
X153426Y318396D01*
X153374Y318355D01*
X153332Y318325D01*
X153303Y318302D01*
X153297Y318290D01*
X153233Y318208D01*
X153186Y318121D01*
X153151Y318027D01*
X153128Y317939D01*
X153116Y317863D01*
X153104Y317799D01*
Y317776D01*
Y317758D01*
Y317746D01*
Y317740D01*
X153110Y317623D01*
X153128Y317506D01*
X153151Y317395D01*
X153174Y317296D01*
X153204Y317208D01*
X153216Y317173D01*
X153227Y317144D01*
X153239Y317120D01*
X153245Y317103D01*
X153251Y317091D01*
Y317085D01*
X153309Y316968D01*
X153368Y316863D01*
X153432Y316775D01*
X153490Y316705D01*
X153543Y316652D01*
X153584Y316611D01*
X153613Y316588D01*
X153625Y316582D01*
X153713Y316529D01*
X153795Y316489D01*
X153871Y316459D01*
X153941Y316442D01*
X153999Y316430D01*
X154040Y316418D01*
X154081D01*
X154146Y316424D01*
X154210Y316436D01*
X154263Y316453D01*
X154315Y316471D01*
X154350Y316489D01*
X154385Y316506D01*
X154403Y316518D01*
X154409Y316524D01*
X154462Y316564D01*
X154502Y316617D01*
X154543Y316670D01*
X154573Y316717D01*
X154602Y316763D01*
X154620Y316798D01*
X154625Y316822D01*
X154631Y316834D01*
X154649Y316892D01*
X154660Y316962D01*
X154672Y317033D01*
X154678Y317103D01*
Y317161D01*
X154684Y317214D01*
Y317249D01*
Y317255D01*
Y317261D01*
X154678Y317319D01*
X154672Y317384D01*
X154660Y317448D01*
X154649Y317518D01*
X154637Y317577D01*
X154625Y317623D01*
X154614Y317653D01*
Y317664D01*
X154584Y317758D01*
X154549Y317846D01*
X154514Y317922D01*
X154479Y317992D01*
X154450Y318045D01*
X154426Y318086D01*
X154409Y318115D01*
X154403Y318121D01*
X154350Y318191D01*
X154298Y318249D01*
X154245Y318296D01*
X154198Y318337D01*
X154157Y318366D01*
X154128Y318390D01*
X154105Y318401D01*
X154099Y318407D01*
X154034Y318437D01*
X153976Y318460D01*
X153923Y318478D01*
X153871Y318489D01*
X153830Y318495D01*
X153795Y318501D01*
D02*
G37*
G36*
X175568Y317442D02*
X175563D01*
X175592Y317296D01*
X175621Y317167D01*
X175656Y317056D01*
X175685Y316968D01*
X175715Y316898D01*
X175738Y316845D01*
X175756Y316816D01*
X175761Y316804D01*
X175814Y316728D01*
X175867Y316658D01*
X175925Y316600D01*
X175984Y316547D01*
X176031Y316512D01*
X176072Y316483D01*
X176095Y316465D01*
X176107Y316459D01*
X176188Y316418D01*
X176270Y316389D01*
X176346Y316366D01*
X176417Y316354D01*
X176475Y316342D01*
X176522Y316336D01*
X176563D01*
X176651Y316342D01*
X176733Y316354D01*
X176797Y316377D01*
X176855Y316401D01*
X176896Y316418D01*
X176931Y316442D01*
X176949Y316453D01*
X176955Y316459D01*
X177002Y316512D01*
X177031Y316564D01*
X177054Y316623D01*
X177072Y316676D01*
X177084Y316722D01*
X177089Y316758D01*
Y316781D01*
Y316793D01*
X177084Y316845D01*
X177078Y316898D01*
X177066Y316945D01*
X177048Y316980D01*
X177031Y317015D01*
X177019Y317038D01*
X177013Y317056D01*
X177007Y317062D01*
X176972Y317103D01*
X176931Y317144D01*
X176885Y317173D01*
X176844Y317196D01*
X176809Y317220D01*
X176779Y317231D01*
X176756Y317243D01*
X176750D01*
X176674Y317267D01*
X176586Y317284D01*
X176487Y317296D01*
X176393Y317313D01*
X176305Y317325D01*
X176229Y317331D01*
X176206D01*
X176183Y317337D01*
X176165D01*
X176072Y317343D01*
X175990Y317354D01*
X175925Y317360D01*
X175873Y317366D01*
X175832Y317372D01*
X175802Y317378D01*
X175779D01*
X175697Y317395D01*
X175627Y317419D01*
X175598Y317430D01*
X175580Y317436D01*
X175568Y317442D01*
D02*
G37*
G36*
X167408Y318513D02*
X167378D01*
X167279Y318507D01*
X167185Y318483D01*
X167109Y318454D01*
X167039Y318419D01*
X166986Y318378D01*
X166951Y318349D01*
X166922Y318325D01*
X166916Y318320D01*
X166858Y318244D01*
X166811Y318156D01*
X166782Y318068D01*
X166758Y317980D01*
X166747Y317898D01*
X166735Y317834D01*
Y317811D01*
Y317793D01*
Y317781D01*
Y317776D01*
Y317746D01*
Y317717D01*
X166741Y317688D01*
Y317682D01*
Y317676D01*
X168303Y317676D01*
X168250Y317822D01*
X168192Y317951D01*
X168133Y318056D01*
X168075Y318144D01*
X168016Y318214D01*
X167975Y318261D01*
X167946Y318290D01*
X167934Y318302D01*
X167841Y318372D01*
X167741Y318425D01*
X167648Y318460D01*
X167560Y318489D01*
X167490Y318501D01*
X167431Y318507D01*
X167408Y318513D01*
D02*
G37*
G36*
X158457Y318513D02*
X158428D01*
X158328Y318507D01*
X158235Y318483D01*
X158159Y318454D01*
X158089Y318419D01*
X158036Y318378D01*
X158001Y318349D01*
X157972Y318325D01*
X157966Y318320D01*
X157907Y318244D01*
X157860Y318156D01*
X157831Y318068D01*
X157808Y317980D01*
X157796Y317898D01*
X157784Y317834D01*
Y317811D01*
Y317793D01*
Y317781D01*
Y317776D01*
Y317746D01*
Y317717D01*
X157790Y317688D01*
Y317682D01*
Y317676D01*
X159352D01*
X159300Y317822D01*
X159241Y317951D01*
X159183Y318056D01*
X159124Y318144D01*
X159065Y318214D01*
X159025Y318261D01*
X158995Y318290D01*
X158984Y318302D01*
X158890Y318372D01*
X158791Y318425D01*
X158697Y318460D01*
X158609Y318489D01*
X158539Y318501D01*
X158481Y318507D01*
X158457Y318513D01*
D02*
G37*
G36*
X191344Y318256D02*
X191346Y318249D01*
Y318255D01*
X191344Y318256D01*
D02*
G37*
G36*
X181120Y319437D02*
X180131D01*
X180026Y319425D01*
X179938Y319419D01*
X179874Y319408D01*
X179821Y319396D01*
X179786Y319390D01*
X179769Y319378D01*
X179763D01*
X179716Y319355D01*
X179669Y319332D01*
X179634Y319302D01*
X179605Y319273D01*
X179581Y319244D01*
X179564Y319220D01*
X179552Y319209D01*
X179546Y319203D01*
X179517Y319156D01*
X179499Y319109D01*
X179476Y319022D01*
X179470Y318981D01*
X179464Y318951D01*
Y318928D01*
Y318922D01*
Y318858D01*
X179476Y318805D01*
X179505Y318700D01*
X179546Y318606D01*
X179587Y318536D01*
X179634Y318478D01*
X179675Y318437D01*
X179704Y318407D01*
X179710Y318401D01*
X179716D01*
X179769Y318372D01*
X179827Y318343D01*
X179956Y318302D01*
X180090Y318267D01*
X180231Y318249D01*
X180359Y318238D01*
X180412Y318232D01*
X180465D01*
X180500Y318226D01*
X181372D01*
X181120Y319437D01*
D02*
G37*
G36*
X181465Y317793D02*
X180354D01*
X180272Y317787D01*
X180196Y317781D01*
X180131Y317770D01*
X180067Y317758D01*
X180014Y317746D01*
X179968Y317735D01*
X179921Y317723D01*
X179856Y317699D01*
X179810Y317676D01*
X179780Y317658D01*
X179774Y317653D01*
X179716Y317594D01*
X179675Y317530D01*
X179640Y317460D01*
X179622Y317395D01*
X179611Y317331D01*
X179599Y317284D01*
Y317249D01*
Y317243D01*
Y317237D01*
X179605Y317173D01*
X179611Y317109D01*
X179628Y317050D01*
X179646Y316997D01*
X179663Y316956D01*
X179675Y316921D01*
X179687Y316898D01*
X179693Y316892D01*
X179728Y316834D01*
X179769Y316781D01*
X179810Y316734D01*
X179850Y316699D01*
X179886Y316670D01*
X179915Y316646D01*
X179932Y316635D01*
X179938Y316629D01*
X180003Y316594D01*
X180067Y316564D01*
X180137Y316541D01*
X180201Y316524D01*
X180260Y316506D01*
X180307Y316494D01*
X180336Y316489D01*
X180348D01*
X180406Y316483D01*
X180476Y316477D01*
X180552Y316471D01*
X180634D01*
X180710Y316465D01*
X181740D01*
X181465Y317793D01*
D02*
G37*
G36*
X169723Y323838D02*
X169711D01*
X169624Y323832D01*
X169542Y323808D01*
X169472Y323773D01*
X169413Y323738D01*
X169366Y323703D01*
X169331Y323668D01*
X169308Y323644D01*
X169302Y323639D01*
X169249Y323563D01*
X169208Y323475D01*
X169179Y323381D01*
X169156Y323293D01*
X169144Y323218D01*
X169138Y323153D01*
Y323130D01*
Y323112D01*
Y323100D01*
Y323095D01*
X169144Y322972D01*
X169162Y322855D01*
X169179Y322738D01*
X169203Y322633D01*
X169232Y322539D01*
X169244Y322504D01*
X169249Y322469D01*
X169261Y322439D01*
X169267Y322422D01*
X169273Y322410D01*
Y322404D01*
X169325Y322276D01*
X169378Y322165D01*
X169437Y322071D01*
X169489Y321995D01*
X169536Y321936D01*
X169571Y321895D01*
X169595Y321866D01*
X169606Y321860D01*
X169682Y321802D01*
X169758Y321761D01*
X169834Y321732D01*
X169899Y321714D01*
X169957Y321702D01*
X170004Y321691D01*
X170045D01*
X170133Y321696D01*
X170215Y321720D01*
X170285Y321749D01*
X170343Y321784D01*
X170396Y321814D01*
X170431Y321843D01*
X170455Y321866D01*
X170460Y321872D01*
X170513Y321948D01*
X170554Y322036D01*
X170583Y322129D01*
X170601Y322217D01*
X170612Y322293D01*
X170624Y322358D01*
Y322381D01*
Y322398D01*
Y322410D01*
Y322416D01*
Y322504D01*
X170618Y322586D01*
X170607Y322673D01*
X170589Y322761D01*
X170566Y322843D01*
X170548Y322913D01*
X170530Y322972D01*
X170525Y322995D01*
X170519Y323013D01*
X170513Y323019D01*
Y323024D01*
X170460Y323171D01*
X170402Y323293D01*
X170343Y323399D01*
X170285Y323481D01*
X170238Y323551D01*
X170203Y323598D01*
X170179Y323621D01*
X170168Y323633D01*
X170086Y323703D01*
X170010Y323750D01*
X169928Y323785D01*
X169858Y323814D01*
X169799Y323826D01*
X169753Y323832D01*
X169723Y323838D01*
D02*
G37*
G36*
X183289D02*
X183260D01*
X183161Y323826D01*
X183067Y323802D01*
X182991Y323773D01*
X182921Y323732D01*
X182868Y323691D01*
X182827Y323662D01*
X182798Y323639D01*
X182792Y323627D01*
X182728Y323545D01*
X182681Y323457D01*
X182646Y323364D01*
X182623Y323276D01*
X182611Y323200D01*
X182599Y323136D01*
Y323112D01*
Y323095D01*
Y323083D01*
Y323077D01*
X182605Y322960D01*
X182623Y322843D01*
X182646Y322732D01*
X182669Y322633D01*
X182699Y322545D01*
X182710Y322510D01*
X182722Y322480D01*
X182734Y322457D01*
X182739Y322439D01*
X182745Y322428D01*
Y322422D01*
X182804Y322305D01*
X182862Y322200D01*
X182927Y322112D01*
X182985Y322042D01*
X183038Y321989D01*
X183079Y321948D01*
X183108Y321925D01*
X183120Y321919D01*
X183207Y321866D01*
X183289Y321825D01*
X183365Y321796D01*
X183436Y321778D01*
X183494Y321767D01*
X183535Y321755D01*
X183576D01*
X183640Y321761D01*
X183705Y321773D01*
X183757Y321790D01*
X183810Y321808D01*
X183845Y321825D01*
X183880Y321843D01*
X183898Y321854D01*
X183904Y321860D01*
X183956Y321901D01*
X183997Y321954D01*
X184038Y322007D01*
X184067Y322053D01*
X184097Y322100D01*
X184114Y322135D01*
X184120Y322159D01*
X184126Y322170D01*
X184143Y322229D01*
X184155Y322299D01*
X184167Y322369D01*
X184173Y322439D01*
Y322498D01*
X184179Y322551D01*
Y322586D01*
Y322591D01*
Y322597D01*
X184173Y322656D01*
X184167Y322720D01*
X184155Y322785D01*
X184143Y322855D01*
X184132Y322913D01*
X184120Y322960D01*
X184108Y322989D01*
Y323001D01*
X184079Y323095D01*
X184044Y323182D01*
X184009Y323258D01*
X183974Y323329D01*
X183945Y323381D01*
X183921Y323422D01*
X183904Y323451D01*
X183898Y323457D01*
X183845Y323528D01*
X183792Y323586D01*
X183740Y323633D01*
X183693Y323674D01*
X183652Y323703D01*
X183623Y323726D01*
X183599Y323738D01*
X183594Y323744D01*
X183529Y323773D01*
X183471Y323797D01*
X183418Y323814D01*
X183365Y323826D01*
X183325Y323832D01*
X183289Y323838D01*
D02*
G37*
G36*
X190046Y323849D02*
X190017D01*
X189917Y323843D01*
X189824Y323820D01*
X189748Y323791D01*
X189678Y323756D01*
X189625Y323715D01*
X189590Y323686D01*
X189561Y323662D01*
X189555Y323656D01*
X189496Y323580D01*
X189449Y323492D01*
X189420Y323405D01*
X189397Y323317D01*
X189385Y323235D01*
X189373Y323171D01*
Y323147D01*
Y323130D01*
Y323118D01*
Y323112D01*
Y323083D01*
Y323054D01*
X189379Y323024D01*
Y323019D01*
Y323013D01*
X190941D01*
X190889Y323159D01*
X190830Y323288D01*
X190771Y323393D01*
X190713Y323481D01*
X190655Y323551D01*
X190614Y323598D01*
X190584Y323627D01*
X190573Y323639D01*
X190479Y323709D01*
X190380Y323762D01*
X190286Y323797D01*
X190198Y323826D01*
X190128Y323838D01*
X190069Y323843D01*
X190046Y323849D01*
D02*
G37*
G36*
X177217D02*
X177188D01*
X177088Y323843D01*
X176995Y323820D01*
X176919Y323791D01*
X176848Y323756D01*
X176796Y323715D01*
X176761Y323686D01*
X176732Y323662D01*
X176726Y323656D01*
X176667Y323580D01*
X176620Y323492D01*
X176591Y323405D01*
X176568Y323317D01*
X176556Y323235D01*
X176544Y323171D01*
Y323147D01*
Y323130D01*
Y323118D01*
Y323112D01*
Y323083D01*
Y323054D01*
X176550Y323024D01*
Y323019D01*
Y323013D01*
X178112D01*
X178059Y323159D01*
X178001Y323288D01*
X177943Y323393D01*
X177884Y323481D01*
X177825Y323551D01*
X177785Y323598D01*
X177755Y323627D01*
X177744Y323639D01*
X177650Y323709D01*
X177550Y323762D01*
X177457Y323797D01*
X177369Y323826D01*
X177299Y323838D01*
X177241Y323843D01*
X177217Y323849D01*
D02*
G37*
G36*
X194194Y324779D02*
X193375D01*
X193258Y324768D01*
X193158Y324762D01*
X193076Y324750D01*
X193018Y324739D01*
X192971Y324727D01*
X192942Y324721D01*
X192936Y324715D01*
X192848Y324680D01*
X192766Y324627D01*
X192696Y324575D01*
X192632Y324516D01*
X192585Y324464D01*
X192550Y324423D01*
X192526Y324393D01*
X192521Y324388D01*
Y324382D01*
X192468Y324276D01*
X192427Y324165D01*
X192398Y324042D01*
X192374Y323925D01*
X192363Y323826D01*
Y323779D01*
X192357Y323738D01*
Y323709D01*
Y323686D01*
Y323668D01*
Y323662D01*
X192363Y323510D01*
X192374Y323370D01*
X192398Y323241D01*
X192415Y323130D01*
X192439Y323042D01*
X192450Y323001D01*
X192462Y322972D01*
X192468Y322948D01*
X192474Y322931D01*
X192480Y322919D01*
Y322913D01*
X192526Y322796D01*
X192579Y322685D01*
X192632Y322586D01*
X192679Y322498D01*
X192725Y322428D01*
X192761Y322375D01*
X192784Y322340D01*
X192796Y322334D01*
Y322328D01*
X192854Y322258D01*
X192913Y322200D01*
X192971Y322141D01*
X193024Y322100D01*
X193065Y322059D01*
X193106Y322036D01*
X193129Y322018D01*
X193135Y322012D01*
X193246Y321954D01*
X193305Y321931D01*
X193357Y321913D01*
X193404Y321895D01*
X193439Y321889D01*
X193463Y321878D01*
X193474D01*
X193597Y321854D01*
X193726Y321837D01*
X193849Y321819D01*
X193960Y321814D01*
X194059Y321808D01*
X194100Y321802D01*
X194814D01*
X194194Y324779D01*
D02*
G37*
G36*
X174333Y323826D02*
X174304D01*
X174210Y323820D01*
X174122Y323797D01*
X174052Y323767D01*
X173988Y323732D01*
X173941Y323697D01*
X173900Y323668D01*
X173877Y323644D01*
X173871Y323639D01*
X173812Y323563D01*
X173771Y323481D01*
X173736Y323393D01*
X173719Y323311D01*
X173707Y323235D01*
X173695Y323171D01*
Y323153D01*
Y323136D01*
Y323124D01*
Y323118D01*
X173701Y322995D01*
X173713Y322884D01*
X173731Y322773D01*
X173748Y322668D01*
X173777Y322574D01*
X173807Y322480D01*
X173836Y322398D01*
X173871Y322322D01*
X173906Y322252D01*
X173935Y322194D01*
X173965Y322141D01*
X173994Y322100D01*
X174011Y322065D01*
X174029Y322042D01*
X174040Y322024D01*
X174046Y322018D01*
X174099Y321960D01*
X174146Y321907D01*
X174198Y321866D01*
X174251Y321825D01*
X174298Y321796D01*
X174345Y321767D01*
X174438Y321726D01*
X174514Y321702D01*
X174579Y321691D01*
X174602Y321685D01*
X174631D01*
X174702Y321691D01*
X174766Y321702D01*
X174824Y321720D01*
X174871Y321743D01*
X174912Y321761D01*
X174941Y321778D01*
X174959Y321790D01*
X174965Y321796D01*
X175012Y321843D01*
X175053Y321884D01*
X175088Y321931D01*
X175117Y321977D01*
X175140Y322012D01*
X175152Y322042D01*
X175158Y322065D01*
X175164Y322071D01*
X175181Y322141D01*
X175193Y322217D01*
X175205Y322293D01*
X175210Y322363D01*
Y322434D01*
X175216Y322486D01*
Y322521D01*
Y322527D01*
Y322533D01*
X175210Y322615D01*
X175199Y322697D01*
X175187Y322779D01*
X175170Y322861D01*
X175152Y322925D01*
X175135Y322978D01*
X175129Y323013D01*
X175123Y323019D01*
Y323024D01*
X175088Y323124D01*
X175047Y323218D01*
X175012Y323293D01*
X174971Y323364D01*
X174941Y323416D01*
X174918Y323451D01*
X174900Y323481D01*
X174895Y323487D01*
X174842Y323551D01*
X174789Y323604D01*
X174742Y323650D01*
X174702Y323686D01*
X174667Y323709D01*
X174637Y323732D01*
X174620Y323738D01*
X174614Y323744D01*
X174561Y323773D01*
X174509Y323791D01*
X174456Y323808D01*
X174403Y323814D01*
X174362Y323820D01*
X174333Y323826D01*
D02*
G37*
%LPD*%
D24*
X245729Y220685D02*
D03*
Y226196D02*
D03*
X260500Y292256D02*
D03*
Y286744D02*
D03*
X233500Y263012D02*
D03*
Y257500D02*
D03*
X289500Y267209D02*
D03*
Y261697D02*
D03*
X225000Y187256D02*
D03*
Y181744D02*
D03*
D26*
X210000Y174358D02*
D03*
Y201130D02*
D03*
D27*
X282971Y71807D02*
D03*
X273129Y54760D02*
D03*
D28*
X294316Y69804D02*
D03*
X280537Y45937D02*
D03*
D29*
X189500Y136500D02*
D03*
X117000Y262467D02*
D03*
X189500Y389000D02*
D03*
X335500Y388500D02*
D03*
X408000Y262500D02*
D03*
X335500Y136000D02*
D03*
D55*
X218661Y187744D02*
D03*
X201339Y177902D02*
D03*
Y197587D02*
D03*
D56*
X274210Y36756D02*
D03*
X268698D02*
D03*
X246668Y239282D02*
D03*
X252180D02*
D03*
X227756Y260601D02*
D03*
X222244D02*
D03*
X235163Y190722D02*
D03*
X240674D02*
D03*
D57*
X274171Y41531D02*
D03*
X268265D02*
D03*
X268641Y219000D02*
D03*
X274546D02*
D03*
X274434Y224168D02*
D03*
X268528D02*
D03*
X268392Y229000D02*
D03*
X274298D02*
D03*
D58*
X275661Y58753D02*
D03*
X276941Y60969D02*
D03*
X278221Y63185D02*
D03*
X279500Y65401D02*
D03*
X280780Y67617D02*
D03*
D59*
X285458Y54461D02*
D03*
X289395Y61280D02*
D03*
D60*
X258795Y220677D02*
D03*
X255055D02*
D03*
X251315D02*
D03*
Y230323D02*
D03*
X255055D02*
D03*
X258795D02*
D03*
D61*
X321500Y236000D02*
D03*
X225055Y299500D02*
D03*
X213000D02*
D03*
X321500Y223000D02*
D03*
X213000Y287000D02*
D03*
Y275000D02*
D03*
Y247000D02*
D03*
Y235457D02*
D03*
Y222889D02*
D03*
Y260000D02*
D03*
D62*
X225055Y222889D02*
D03*
X169500Y280000D02*
D03*
Y269421D02*
D03*
Y247500D02*
D03*
Y258500D02*
D03*
Y236500D02*
D03*
D63*
X307004Y235425D02*
D03*
Y238575D02*
D03*
X300351D02*
D03*
Y235425D02*
D03*
X300173Y273955D02*
D03*
Y277105D02*
D03*
X306827D02*
D03*
Y273955D02*
D03*
X300350Y254396D02*
D03*
Y257545D02*
D03*
X307004D02*
D03*
Y254396D02*
D03*
D64*
X307004Y231882D02*
D03*
Y242118D02*
D03*
X300351D02*
D03*
Y231882D02*
D03*
X300173Y270412D02*
D03*
Y280648D02*
D03*
X306827D02*
D03*
Y270412D02*
D03*
X300350Y250853D02*
D03*
Y261089D02*
D03*
X307004D02*
D03*
Y250853D02*
D03*
D65*
X180532Y244000D02*
D03*
Y230614D02*
D03*
D66*
X247465Y273327D02*
D03*
Y271358D02*
D03*
Y269390D02*
D03*
Y267421D02*
D03*
Y265453D02*
D03*
Y263484D02*
D03*
Y261516D02*
D03*
Y259547D02*
D03*
Y257579D02*
D03*
Y255610D02*
D03*
Y253642D02*
D03*
Y251673D02*
D03*
X280535D02*
D03*
Y253642D02*
D03*
Y255610D02*
D03*
Y257579D02*
D03*
Y259547D02*
D03*
Y261516D02*
D03*
Y263484D02*
D03*
Y265453D02*
D03*
Y267421D02*
D03*
Y269390D02*
D03*
Y271358D02*
D03*
Y273327D02*
D03*
D67*
X253173Y245965D02*
D03*
X255142D02*
D03*
X257110D02*
D03*
X259079D02*
D03*
X261047D02*
D03*
X263016D02*
D03*
X264984D02*
D03*
X266953D02*
D03*
X268921D02*
D03*
X270890D02*
D03*
X272858D02*
D03*
X274827D02*
D03*
Y279035D02*
D03*
X272858D02*
D03*
X270890D02*
D03*
X268921D02*
D03*
X266953D02*
D03*
X264984D02*
D03*
X263016D02*
D03*
X261047D02*
D03*
X259079D02*
D03*
X257110D02*
D03*
X255142D02*
D03*
X253173D02*
D03*
D68*
X239248Y281207D02*
D03*
X235351Y285104D02*
D03*
X255512Y297470D02*
D03*
X251614Y301367D02*
D03*
D69*
X242302Y287451D02*
D03*
X249401Y294549D02*
D03*
D70*
X176500Y255953D02*
D03*
Y250047D02*
D03*
D71*
X235383Y177482D02*
D03*
Y184962D02*
D03*
X243454Y181222D02*
D03*
D72*
X274626Y193850D02*
D03*
X266752D02*
D03*
D73*
X257500Y172000D02*
D03*
X283878D02*
D03*
M02*
