G04*
G04 #@! TF.GenerationSoftware,Altium Limited,Altium Designer,18.1.9 (240)*
G04*
G04 Layer_Color=65535*
%FSLAX25Y25*%
%MOIN*%
G70*
G01*
G75*
%ADD10C,0.01000*%
%ADD11C,0.00787*%
G36*
X272539Y369662D02*
X278533Y368986D01*
X284481Y367976D01*
X290361Y366634D01*
X296158Y364964D01*
X301852Y362971D01*
X307425Y360663D01*
X312860Y358046D01*
X318140Y355128D01*
X323247Y351918D01*
X328167Y348427D01*
X332883Y344666D01*
X337381Y340647D01*
X341647Y336381D01*
X345666Y331883D01*
X349427Y327167D01*
X352918Y322247D01*
X356128Y317140D01*
X359046Y311860D01*
X361663Y306425D01*
X363971Y300852D01*
X365964Y295158D01*
X367634Y289362D01*
X368976Y283481D01*
X369986Y277533D01*
X370662Y271539D01*
X371000Y265516D01*
Y262500D01*
Y259484D01*
X370662Y253461D01*
X369986Y247467D01*
X368976Y241519D01*
X367634Y235638D01*
X365964Y229842D01*
X363971Y224148D01*
X361663Y218575D01*
X359046Y213140D01*
X356128Y207860D01*
X352918Y202753D01*
X349427Y197833D01*
X345666Y193117D01*
X341647Y188619D01*
X337381Y184353D01*
X332883Y180334D01*
X328167Y176573D01*
X323247Y173082D01*
X318140Y169872D01*
X312860Y166955D01*
X307425Y164337D01*
X301852Y162029D01*
X296158Y160036D01*
X290361Y158366D01*
X284481Y157024D01*
X278533Y156014D01*
X272539Y155338D01*
X266516Y155000D01*
X260484D01*
X254461Y155338D01*
X248467Y156014D01*
X242519Y157024D01*
X236638Y158366D01*
X230842Y160036D01*
X225148Y162029D01*
X219575Y164337D01*
X214140Y166955D01*
X208860Y169872D01*
X203753Y173082D01*
X198833Y176573D01*
X194117Y180334D01*
X189619Y184353D01*
X185353Y188619D01*
X181334Y193117D01*
X177573Y197833D01*
X174082Y202753D01*
X170872Y207860D01*
X167955Y213140D01*
X165337Y218575D01*
X163029Y224148D01*
X161036Y229842D01*
X159366Y235638D01*
X158024Y241519D01*
X157014Y247467D01*
X156338Y253461D01*
X156000Y259484D01*
Y262500D01*
Y265516D01*
X156338Y271539D01*
X157014Y277533D01*
X158024Y283481D01*
X159366Y289362D01*
X161036Y295158D01*
X163029Y300852D01*
X165337Y306425D01*
X167955Y311860D01*
X170872Y317140D01*
X174082Y322247D01*
X177573Y327167D01*
X181334Y331883D01*
X185353Y336381D01*
X189619Y340647D01*
X194117Y344666D01*
X198833Y348427D01*
X203753Y351918D01*
X208860Y355128D01*
X214140Y358046D01*
X219575Y360663D01*
X225148Y362971D01*
X230842Y364964D01*
X236638Y366634D01*
X242519Y367976D01*
X248467Y368986D01*
X254461Y369662D01*
X260484Y370000D01*
X266516D01*
X272539Y369662D01*
D02*
G37*
%LPC*%
G36*
X266837Y329496D02*
X266750D01*
X266709Y329496D01*
X266629Y329479D01*
X266555Y329446D01*
X266489Y329399D01*
X266489D01*
X266488Y329398D01*
X266275Y329166D01*
X265903Y328760D01*
X265532Y328353D01*
X265163Y327945D01*
X264978Y327741D01*
X264763Y327503D01*
X264336Y327024D01*
X263913Y326541D01*
X263600Y326181D01*
X263492Y326056D01*
X263283Y325813D01*
X263283Y325813D01*
X263040Y325528D01*
X262968Y325443D01*
X262557Y324958D01*
X262076Y324386D01*
X261667Y323896D01*
X261597Y323812D01*
X261359Y323523D01*
X261359Y323523D01*
Y323523D01*
X259937Y321803D01*
X257189Y318284D01*
X254540Y314691D01*
X251990Y311026D01*
X249736Y307586D01*
X247822Y304350D01*
X246059Y301029D01*
X244451Y297631D01*
X243085Y294363D01*
X241969Y291232D01*
X241022Y288046D01*
X240248Y284814D01*
X239733Y282008D01*
X239409Y279649D01*
X239194Y277277D01*
X239086Y274898D01*
Y273304D01*
X239098Y272498D01*
X239123Y271693D01*
X239160Y270888D01*
X239237Y269639D01*
X239400Y267953D01*
X239624Y266273D01*
X239906Y264601D01*
X240230Y263029D01*
X240608Y261560D01*
X241058Y260112D01*
X241579Y258688D01*
X242194Y257231D01*
X242901Y255743D01*
X243672Y254288D01*
X244506Y252867D01*
X245527Y251289D01*
X246712Y249541D01*
X247932Y247818D01*
X249189Y246121D01*
X250000Y245073D01*
X250333Y244647D01*
X250667Y244224D01*
X251004Y243802D01*
X251316Y243415D01*
X251604Y243065D01*
X251894Y242717D01*
X252188Y242372D01*
X252337Y242201D01*
X252462Y242056D01*
X252653Y241836D01*
X252713Y241768D01*
X252964Y241480D01*
X252964Y241480D01*
X253217Y241193D01*
X253352Y241042D01*
X253371Y241028D01*
X253392Y241018D01*
X253415Y241013D01*
X253438D01*
X253459Y241017D01*
X253459Y241017D01*
X253479Y241026D01*
X253479D01*
X253479Y241026D01*
X253498Y241038D01*
X253498D01*
X253505Y241045D01*
X253505D01*
X253519Y241059D01*
X253539Y241090D01*
X253554Y241125D01*
X253561Y241161D01*
Y241187D01*
X253560Y241201D01*
X253558Y241214D01*
X253555Y241227D01*
X253516Y241359D01*
X253441Y241610D01*
X253401Y241742D01*
X253400D01*
X253400Y241742D01*
X253400Y241742D01*
X253364Y241859D01*
X253288Y242103D01*
X253287Y242109D01*
X253247Y242233D01*
X253247Y242233D01*
X253200Y242382D01*
X253101Y242679D01*
X253000Y242975D01*
X252895Y243270D01*
X252778Y243588D01*
X252649Y243930D01*
X252519Y244271D01*
X252385Y244611D01*
X252357Y244681D01*
X252317Y244780D01*
X252317Y244780D01*
X252151Y245211D01*
X252065Y245438D01*
X251907Y245881D01*
X251758Y246327D01*
X251687Y246551D01*
X251687Y246551D01*
X251589Y246864D01*
X251398Y247491D01*
X251212Y248119D01*
X251070Y248610D01*
X250943Y249056D01*
X250941Y249064D01*
X250941Y249064D01*
X250815Y249518D01*
X250657Y250096D01*
X250474Y250786D01*
X250296Y251477D01*
X250209Y251823D01*
X250129Y252148D01*
X249972Y252798D01*
X249822Y253450D01*
X249677Y254103D01*
X249607Y254430D01*
X249607Y254430D01*
X249424Y255331D01*
X249107Y257143D01*
X248856Y258965D01*
X248671Y260796D01*
X248603Y261713D01*
X248592Y261896D01*
X248574Y262263D01*
X248562Y262630D01*
X248556Y262997D01*
X248556Y263181D01*
X248563Y263747D01*
X248619Y264879D01*
X248732Y266006D01*
X248901Y267127D01*
X249007Y267683D01*
X249007D01*
X249007Y267683D01*
X249144Y268298D01*
X249495Y269506D01*
X249946Y270681D01*
X250492Y271815D01*
X250800Y272364D01*
X251111Y272861D01*
X251806Y273804D01*
X252594Y274671D01*
X253467Y275452D01*
X253933Y275808D01*
X253933Y275808D01*
X254294Y276058D01*
X255047Y276507D01*
X255836Y276888D01*
X256657Y277198D01*
X257076Y277326D01*
Y277326D01*
X257300Y277384D01*
X257752Y277478D01*
X258210Y277541D01*
X258671Y277572D01*
X258902Y277576D01*
X259069Y277574D01*
X259405Y277557D01*
X259738Y277524D01*
X260070Y277475D01*
X260235Y277444D01*
X260653Y277348D01*
X261471Y277092D01*
X262258Y276751D01*
X263004Y276330D01*
X263360Y276090D01*
X263775Y275784D01*
X264578Y275134D01*
X265340Y274437D01*
X266057Y273695D01*
X266399Y273308D01*
X266898Y272698D01*
X267814Y271417D01*
X268614Y270061D01*
X269292Y268640D01*
X269585Y267908D01*
X269932Y266951D01*
X270566Y265017D01*
X271120Y263059D01*
X271593Y261079D01*
X271799Y260082D01*
X271992Y259045D01*
X272313Y256960D01*
X272549Y254863D01*
X272700Y252759D01*
X272743Y251705D01*
X272746Y251596D01*
X272751Y251379D01*
X272755Y251163D01*
X272756Y250946D01*
X272757Y250838D01*
X272745Y250042D01*
X272655Y248453D01*
X272475Y246872D01*
X272206Y245304D01*
X272038Y244526D01*
X272038D01*
X272038Y244526D01*
X272009Y244400D01*
X271955Y244151D01*
X271954Y244148D01*
X271937Y244068D01*
X271901Y243896D01*
X271851Y243643D01*
X271828Y243516D01*
X271807Y243406D01*
X271769Y243183D01*
X271734Y242961D01*
X271703Y242738D01*
X271678Y242534D01*
X271660Y242374D01*
X271657Y242351D01*
X271657Y242350D01*
X271638Y242168D01*
X271638Y242165D01*
X271622Y241985D01*
X271622Y241985D01*
X271614Y241893D01*
X271614Y241890D01*
X271614Y241885D01*
X271613Y241880D01*
X271613Y241875D01*
X271613Y241875D01*
Y241847D01*
X271623Y241798D01*
X271623Y241798D01*
X271642Y241751D01*
X271670Y241710D01*
X271688Y241692D01*
X271688Y241692D01*
X271715Y241665D01*
X271715Y241665D01*
X271715Y241665D01*
X271778Y241623D01*
X271778Y241623D01*
X271778Y241623D01*
X271848Y241594D01*
X271848Y241594D01*
X271848D01*
X271922Y241579D01*
X271922Y241579D01*
X271960Y241579D01*
X271960Y241579D01*
X272014Y241579D01*
X272014Y241579D01*
X272053Y241590D01*
X272118Y241609D01*
X272118D01*
X272210Y241667D01*
X272210Y241667D01*
X272283Y241747D01*
X272283Y241748D01*
X272336Y241858D01*
X272336Y241858D01*
X272354Y241895D01*
X272680Y242569D01*
X273422Y244115D01*
X274160Y245665D01*
X274892Y247216D01*
X275606Y248738D01*
X276291Y250235D01*
X276961Y251739D01*
X277616Y253250D01*
X277936Y254008D01*
X278162Y254543D01*
X278586Y255626D01*
X278980Y256718D01*
X279345Y257821D01*
X279512Y258377D01*
X279512D01*
X279630Y258768D01*
X279854Y259551D01*
X280066Y260338D01*
X280267Y261128D01*
X280362Y261524D01*
X280438Y261839D01*
X280570Y262472D01*
X280685Y263109D01*
X280782Y263749D01*
X280864Y264428D01*
X280935Y265145D01*
X280988Y265863D01*
X281024Y266582D01*
X281034Y266943D01*
X281034D01*
X281048Y267464D01*
X281069Y268507D01*
X281083Y269550D01*
X281090Y270594D01*
X281090Y270863D01*
X281090Y271116D01*
X281090Y271126D01*
X281090Y271142D01*
X281090Y271156D01*
Y271195D01*
X281090Y271300D01*
X281090Y271326D01*
X281090Y271326D01*
X281089Y272208D01*
X281053Y273973D01*
X280984Y275736D01*
X280881Y277498D01*
X280749Y279201D01*
X280583Y280843D01*
X280379Y282481D01*
X280137Y284114D01*
X279997Y284928D01*
X279997Y284928D01*
X279845Y285814D01*
X279503Y287580D01*
X279126Y289339D01*
X278712Y291090D01*
X278207Y293042D01*
X277625Y295198D01*
X277020Y297348D01*
X276391Y299490D01*
X276064Y300558D01*
X276064Y300558D01*
X275900Y301097D01*
X275572Y302175D01*
X275246Y303253D01*
X274921Y304331D01*
X274758Y304871D01*
X274574Y305484D01*
X274207Y306712D01*
X273840Y307940D01*
X273474Y309168D01*
X273292Y309782D01*
X273116Y310375D01*
X272765Y311561D01*
X272415Y312747D01*
X272066Y313933D01*
X271891Y314526D01*
X271891Y314526D01*
X271754Y314995D01*
X271481Y315931D01*
X271209Y316868D01*
X270939Y317806D01*
X270805Y318275D01*
X270805Y318275D01*
X270805Y318275D01*
X270597Y319001D01*
X270177Y320451D01*
X269754Y321900D01*
X269326Y323347D01*
X269110Y324071D01*
X268991Y324469D01*
X268743Y325261D01*
X268483Y326050D01*
X268212Y326835D01*
X268070Y327226D01*
X267983Y327468D01*
X267799Y327950D01*
X267606Y328428D01*
X267406Y328902D01*
X267301Y329138D01*
X267301Y329138D01*
X267301Y329138D01*
X267265Y329218D01*
X267152Y329350D01*
X267152Y329351D01*
X267005Y329446D01*
X267005Y329446D01*
X266966Y329457D01*
X266966Y329457D01*
X266954Y329461D01*
X266837Y329496D01*
D02*
G37*
G36*
X263113Y264806D02*
X261721Y263414D01*
Y261466D01*
X263670D01*
X265062Y262857D01*
X263113Y264806D01*
D02*
G37*
G36*
X259071D02*
X257122Y262857D01*
X258514Y261466D01*
X260463D01*
Y263414D01*
X259071Y264806D01*
D02*
G37*
G36*
X263670Y260207D02*
X261721D01*
Y258259D01*
X263113Y256867D01*
X265062Y258815D01*
X263670Y260207D01*
D02*
G37*
G36*
X260463D02*
X258514D01*
X257122Y258815D01*
X259071Y256867D01*
X260463Y258259D01*
Y260207D01*
D02*
G37*
G36*
X301381Y241510D02*
X301104D01*
X300994Y241506D01*
X300884Y241497D01*
X300774Y241485D01*
X300286Y241412D01*
X299426Y241238D01*
X298576Y241021D01*
X297762Y240768D01*
X297739Y240761D01*
X297327Y240610D01*
X297327Y240610D01*
X297184Y240557D01*
X296903Y240445D01*
X296902Y240444D01*
X296896Y240442D01*
X296624Y240324D01*
X296348Y240196D01*
X296009Y240025D01*
X295602Y239818D01*
X295198Y239606D01*
X294795Y239391D01*
X294371Y239160D01*
X293924Y238911D01*
X293479Y238658D01*
X293037Y238402D01*
X292817Y238272D01*
Y238272D01*
X292603Y238146D01*
X292178Y237889D01*
X291755Y237628D01*
X291335Y237363D01*
X291126Y237229D01*
X291126Y237229D01*
X290603Y236894D01*
X289553Y236232D01*
X288498Y235579D01*
X287436Y234936D01*
X286903Y234618D01*
X286903D01*
X286409Y234327D01*
X285416Y233753D01*
X284416Y233191D01*
X283410Y232641D01*
X282905Y232369D01*
X282461Y232135D01*
X281570Y231675D01*
X280673Y231226D01*
X279770Y230789D01*
X279317Y230575D01*
X279317Y230575D01*
X278896Y230382D01*
X278226Y230089D01*
X277489Y229787D01*
X276804Y229528D01*
X276369Y229371D01*
X276369Y229371D01*
X275931Y229222D01*
X275630Y229123D01*
X275133Y228969D01*
X274633Y228824D01*
X274383Y228755D01*
X274227Y228716D01*
X273913Y228653D01*
X273595Y228611D01*
X273275Y228590D01*
X273115Y228587D01*
X273102Y228587D01*
X273094Y228587D01*
X273081Y228587D01*
X272896Y228591D01*
X272526Y228612D01*
X272158Y228653D01*
X272077Y228666D01*
X271611Y228749D01*
X271611Y228749D01*
X271153Y228849D01*
X270514Y228992D01*
X269784Y229161D01*
X269056Y229335D01*
X268692Y229425D01*
X268049Y229584D01*
X266753Y229862D01*
X265449Y230099D01*
X264138Y230295D01*
X263016Y230427D01*
X262085Y230509D01*
X261152Y230564D01*
X260218Y230591D01*
X259600Y230591D01*
X259299Y230589D01*
X259009Y230583D01*
X258998Y230583D01*
X258995Y230583D01*
X258697Y230574D01*
X258547Y230569D01*
X258547Y230569D01*
X257964Y230547D01*
X256802Y230455D01*
X255644Y230315D01*
X254493Y230127D01*
X253922Y230010D01*
Y230010D01*
X253373Y229897D01*
X252284Y229620D01*
X251210Y229293D01*
X250152Y228918D01*
X249632Y228706D01*
X249632Y228706D01*
Y228706D01*
X249141Y228507D01*
X248153Y228124D01*
X247158Y227758D01*
X246158Y227409D01*
X245655Y227241D01*
X245655Y227241D01*
Y227241D01*
X245214Y227099D01*
X244335Y226836D01*
X243447Y226595D01*
X242561Y226380D01*
X242103Y226278D01*
X241643Y226183D01*
X240816Y226029D01*
X239953Y225894D01*
X239086Y225784D01*
X238652Y225738D01*
X238195Y225695D01*
X237280Y225627D01*
X236363Y225582D01*
X235446Y225558D01*
X234987Y225555D01*
X234170Y225554D01*
X232538Y225461D01*
X230914Y225276D01*
X229303Y225000D01*
X228507Y224817D01*
X228507Y224817D01*
Y224817D01*
X227921Y224683D01*
X226798Y224254D01*
X225745Y223675D01*
X224781Y222957D01*
X224353Y222534D01*
X224353Y222534D01*
X224088Y222272D01*
X224026Y222180D01*
X223670Y221653D01*
X223382Y220964D01*
X223236Y220232D01*
Y219859D01*
X223236Y219789D01*
X223241Y219650D01*
X223251Y219510D01*
X223267Y219371D01*
X223352Y218802D01*
X223659Y217837D01*
X224114Y216933D01*
X224708Y216113D01*
X225065Y215755D01*
X225065Y215755D01*
X225065Y215755D01*
X225167Y215653D01*
X225377Y215455D01*
X225592Y215263D01*
X225812Y215077D01*
X225924Y214987D01*
X226034Y214899D01*
X226260Y214730D01*
X226490Y214567D01*
X226725Y214411D01*
X226947Y214274D01*
X227156Y214153D01*
X227369Y214038D01*
X227586Y213931D01*
X227695Y213880D01*
X227767Y213847D01*
X227915Y213798D01*
X228068Y213764D01*
X228224Y213747D01*
X228302Y213747D01*
X228302Y213747D01*
X228560Y213727D01*
X229050Y213563D01*
X229463Y213253D01*
X229628Y213014D01*
X229848Y212586D01*
X229960Y212133D01*
X230041Y211759D01*
X230120Y211198D01*
X230160Y210633D01*
X230165Y210350D01*
X230164Y210238D01*
X230158Y210012D01*
X230145Y209787D01*
X230126Y209562D01*
X230115Y209450D01*
X230035Y208821D01*
X229826Y207569D01*
X229551Y206329D01*
X229210Y205107D01*
X229015Y204503D01*
X228736Y203690D01*
X228152Y202076D01*
X227532Y200474D01*
X226878Y198886D01*
X226537Y198098D01*
X226537D01*
X226537Y198098D01*
X226149Y197212D01*
X225415Y195422D01*
X224723Y193615D01*
X224075Y191792D01*
X223773Y190873D01*
X223602Y190354D01*
X223344Y189291D01*
X223171Y188211D01*
X223084Y187121D01*
Y186574D01*
X223084Y186511D01*
X223084Y186511D01*
X223085Y186385D01*
X223086Y186384D01*
X223088Y186259D01*
X223088Y186256D01*
X223091Y186133D01*
X223094Y186070D01*
X223094Y186070D01*
X223110Y185619D01*
X223117Y185580D01*
X223276Y184732D01*
X223572Y183879D01*
X223990Y183080D01*
X224256Y182715D01*
X224543Y182323D01*
X225206Y181610D01*
X225948Y180980D01*
X226759Y180443D01*
X227193Y180224D01*
X227324Y180158D01*
X227583Y180023D01*
X227594Y180017D01*
X227971Y179813D01*
X228242Y179659D01*
X228409Y179564D01*
X228323Y179613D01*
X228339Y179604D01*
X228460Y179534D01*
X228409Y179564D01*
X228502Y179510D01*
X228525Y179496D01*
X228901Y179266D01*
X228981Y179215D01*
X229068Y179160D01*
X229120Y179128D01*
X229120Y179128D01*
X229210Y179068D01*
X229389Y178948D01*
X229442Y178911D01*
X229828Y178638D01*
X230065Y178235D01*
X230111Y178050D01*
X230147Y177830D01*
X230166Y177608D01*
X230168Y177497D01*
X230130Y177048D01*
X230130Y177047D01*
X230130D01*
X230130Y177047D01*
X230018Y176383D01*
X229790Y175056D01*
X229556Y173731D01*
X229317Y172406D01*
X229196Y171744D01*
X229196Y171744D01*
X229077Y171107D01*
X228833Y169836D01*
X228578Y168566D01*
X228315Y167298D01*
X228180Y166665D01*
X228103Y166326D01*
X227929Y165654D01*
X227727Y164989D01*
X227497Y164333D01*
X227373Y164009D01*
X227373Y164009D01*
X227910Y163812D01*
X228989Y163429D01*
X230073Y163059D01*
X231160Y162700D01*
X231706Y162526D01*
X232754Y162193D01*
X234865Y161570D01*
X236989Y160992D01*
X239124Y160458D01*
X240197Y160213D01*
X242204Y159756D01*
X246252Y159000D01*
X250326Y158402D01*
X254420Y157966D01*
X257062Y157788D01*
X258239Y157723D01*
X259416Y157670D01*
X260594Y157631D01*
X261473Y157612D01*
X262052Y157602D01*
X262631Y157596D01*
X263210Y157592D01*
X265839D01*
X270513Y157801D01*
X275173Y158218D01*
X279809Y158841D01*
X284414Y159671D01*
X288976Y160706D01*
X293488Y161943D01*
X297940Y163379D01*
X300132Y164196D01*
X301907Y164959D01*
X302011Y165155D01*
X302232Y165541D01*
X302467Y165918D01*
X302717Y166286D01*
X302848Y166466D01*
Y166466D01*
X302920Y166563D01*
X303055Y166766D01*
X303180Y166974D01*
X303180Y166974D01*
X303295Y167188D01*
X303412Y167435D01*
X303535Y167712D01*
X303536Y167713D01*
X303551Y167750D01*
X303653Y167993D01*
X303763Y168277D01*
X303868Y168569D01*
X303967Y168870D01*
X304060Y169173D01*
X304145Y169479D01*
X304219Y169770D01*
X304279Y170048D01*
X304330Y170328D01*
X304371Y170609D01*
X304408Y170933D01*
X304439Y171298D01*
X304461Y171664D01*
X304474Y172030D01*
X304475Y172217D01*
X304475Y172224D01*
X304475Y172238D01*
Y172366D01*
X304458Y172615D01*
X304422Y172862D01*
X304369Y173106D01*
X304335Y173225D01*
X304299Y173347D01*
X304210Y173583D01*
X304140Y173734D01*
X304104Y173813D01*
X304103Y173813D01*
X303980Y174033D01*
X303911Y174138D01*
X303911Y174138D01*
X303813Y174285D01*
X303610Y174573D01*
X303399Y174855D01*
X303180Y175131D01*
X303067Y175266D01*
X303067Y175266D01*
X302990Y175358D01*
X302837Y175543D01*
X302687Y175730D01*
X302538Y175918D01*
X302464Y176012D01*
X302403Y176092D01*
X302282Y176253D01*
X302164Y176417D01*
X302049Y176582D01*
X301993Y176665D01*
X301948Y176732D01*
X301860Y176866D01*
X301797Y176964D01*
X301874Y177398D01*
X301893Y177480D01*
X302010Y177555D01*
X302133Y177633D01*
X302255Y177710D01*
X302389Y177795D01*
X302534Y177887D01*
X302680Y177979D01*
X302825Y178071D01*
X302898Y178117D01*
X302979Y178168D01*
X303141Y178270D01*
X303303Y178372D01*
X303465Y178473D01*
X303827Y178700D01*
X304345Y179111D01*
X304815Y179577D01*
X305230Y180093D01*
X305407Y180373D01*
X305407D01*
X305560Y180613D01*
X305794Y181131D01*
X305953Y181677D01*
X306021Y182154D01*
X306033Y182241D01*
X306033Y182245D01*
X306033Y182525D01*
X306033Y182526D01*
X306033Y182541D01*
X306033Y182543D01*
X306033Y182572D01*
X306033Y182575D01*
X306032Y182603D01*
X306032Y182610D01*
X306032Y182634D01*
X306031Y182650D01*
X306031Y182650D01*
X306021Y182966D01*
X305994Y183130D01*
X305915Y183590D01*
X305725Y184194D01*
X305454Y184766D01*
X305280Y185031D01*
X305079Y185337D01*
X304625Y185912D01*
X304121Y186445D01*
X303573Y186931D01*
X303278Y187149D01*
X303278Y187149D01*
X301847Y188207D01*
X301869Y188707D01*
X303351Y189608D01*
X303351Y189608D01*
X303351Y189608D01*
X303583Y189749D01*
X303744Y189867D01*
X304021Y190069D01*
X304430Y190425D01*
X304672Y190674D01*
X304808Y190815D01*
X304880Y190903D01*
X304979Y191025D01*
Y191025D01*
X305157Y191243D01*
X305266Y191399D01*
X305480Y191705D01*
X305766Y192189D01*
X306015Y192695D01*
X306231Y193232D01*
X306413Y193798D01*
X306554Y194376D01*
X306654Y194963D01*
X306683Y195259D01*
X306696Y195385D01*
X306714Y195636D01*
X306726Y195888D01*
X306733Y196141D01*
X306733Y196267D01*
Y196454D01*
X306719Y196828D01*
X306692Y197202D01*
X306651Y197574D01*
X306624Y197759D01*
X306624Y197759D01*
X306598Y197938D01*
X306534Y198294D01*
X306459Y198648D01*
X306372Y198999D01*
X306246Y199448D01*
X306086Y199997D01*
X305922Y200544D01*
X305816Y200886D01*
X305753Y201090D01*
X305666Y201362D01*
X305602Y201561D01*
X305567Y201671D01*
X305512Y201835D01*
X305363Y202288D01*
X305154Y202904D01*
X304940Y203517D01*
X304830Y203823D01*
X304830Y203823D01*
X304721Y204126D01*
X304498Y204730D01*
X304269Y205332D01*
X304035Y205931D01*
X303915Y206230D01*
X303915Y206230D01*
X303694Y206786D01*
X303260Y207900D01*
X302837Y209018D01*
X302425Y210141D01*
X302223Y210704D01*
X302223Y210704D01*
X302223D01*
X302123Y211001D01*
X301948Y211603D01*
X301809Y212214D01*
X301706Y212832D01*
X301669Y213143D01*
X301666Y213168D01*
X301662Y213217D01*
X301659Y213267D01*
X301658Y213317D01*
X301658Y213341D01*
X301663Y213481D01*
X301705Y213759D01*
X301788Y214026D01*
X301910Y214279D01*
X301984Y214398D01*
X302075Y214514D01*
X302295Y214711D01*
X302556Y214849D01*
X302842Y214920D01*
X302990Y214929D01*
X302990Y214929D01*
X303196D01*
X303605Y214973D01*
X304006Y215060D01*
X304397Y215191D01*
X304825Y215387D01*
X305297Y215633D01*
X305756Y215901D01*
X306201Y216193D01*
X306631Y216508D01*
X307046Y216843D01*
X307443Y217200D01*
X307821Y217575D01*
X308001Y217773D01*
X308001D01*
X308141Y217926D01*
X308388Y218261D01*
X308598Y218620D01*
X308769Y218999D01*
X308834Y219197D01*
X308901Y219398D01*
X309002Y219810D01*
X309069Y220229D01*
X309103Y220652D01*
Y220914D01*
X309101Y221015D01*
X309097Y221116D01*
X309091Y221217D01*
X309060Y221635D01*
X308976Y222366D01*
X308866Y223094D01*
X308728Y223818D01*
X308559Y224557D01*
X308358Y225310D01*
X308128Y226055D01*
X307872Y226791D01*
X307608Y227466D01*
X307328Y228075D01*
X307014Y228667D01*
X306740Y229116D01*
X306665Y229239D01*
X306475Y229514D01*
X306475Y229515D01*
X306475Y229515D01*
X306475Y229515D01*
X306474Y229516D01*
X306212Y229917D01*
X306169Y229984D01*
X305980Y230305D01*
X305802Y230633D01*
X305717Y230800D01*
X305641Y230957D01*
X305499Y231278D01*
X305370Y231604D01*
X305256Y231936D01*
X305205Y232103D01*
X305151Y232291D01*
X305055Y232668D01*
X304972Y233049D01*
X304904Y233433D01*
X304875Y233626D01*
X304842Y233871D01*
X304783Y234364D01*
X304732Y234857D01*
X304709Y235137D01*
X304674Y235596D01*
X304674Y235598D01*
X304674D01*
X304674Y235598D01*
X304673Y235610D01*
X304644Y236052D01*
X304643Y236059D01*
X304542Y236956D01*
X304399Y237854D01*
X304213Y238745D01*
X304029Y239460D01*
X303793Y239974D01*
X303467Y240437D01*
X303064Y240834D01*
X302831Y240994D01*
X302647Y241119D01*
X302246Y241312D01*
X301821Y241443D01*
X301381Y241510D01*
D02*
G37*
G36*
X264396Y253314D02*
X258491D01*
Y234417D01*
X264396D01*
Y253314D01*
D02*
G37*
%LPD*%
D10*
X376376Y262500D02*
X376371Y263500D01*
X376358Y264500D01*
X376336Y265501D01*
X376305Y266500D01*
X376265Y267500D01*
X376216Y268499D01*
X376159Y269498D01*
X376092Y270496D01*
X376017Y271493D01*
X375933Y272490D01*
X375840Y273486D01*
X375738Y274481D01*
X375628Y275475D01*
X375508Y276468D01*
X375380Y277461D01*
X375243Y278451D01*
X375097Y279441D01*
X374943Y280429D01*
X374780Y281416D01*
X374607Y282402D01*
X374427Y283385D01*
X374237Y284368D01*
X374039Y285348D01*
X373832Y286327D01*
X373617Y287304D01*
X373393Y288279D01*
X373160Y289251D01*
X372919Y290222D01*
X372669Y291191D01*
X372410Y292157D01*
X372143Y293121D01*
X371867Y294083D01*
X371583Y295042D01*
X371291Y295998D01*
X370990Y296952D01*
X370680Y297903D01*
X370362Y298852D01*
X370036Y299797D01*
X369701Y300740D01*
X369358Y301680D01*
X369007Y302616D01*
X368647Y303550D01*
X368279Y304480D01*
X367903Y305407D01*
X367519Y306330D01*
X367126Y307250D01*
X366725Y308167D01*
X366317Y309080D01*
X365900Y309989D01*
X365475Y310895D01*
X365042Y311797D01*
X364601Y312695D01*
X364153Y313589D01*
X363696Y314478D01*
X363231Y315364D01*
X362759Y316246D01*
X362279Y317124D01*
X361791Y317997D01*
X361295Y318866D01*
X360792Y319730D01*
X360281Y320590D01*
X359762Y321445D01*
X359236Y322296D01*
X358702Y323142D01*
X358161Y323984D01*
X357612Y324820D01*
X357057Y325652D01*
X356493Y326478D01*
X355923Y327300D01*
X355345Y328116D01*
X354760Y328928D01*
X354167Y329734D01*
X353568Y330535D01*
X352961Y331330D01*
X352348Y332120D01*
X351728Y332905D01*
X351100Y333684D01*
X350466Y334457D01*
X349825Y335225D01*
X349177Y335987D01*
X348522Y336744D01*
X347861Y337494D01*
X347193Y338239D01*
X346519Y338978D01*
X345838Y339710D01*
X345150Y340437D01*
X344456Y341158D01*
X343756Y341872D01*
X343050Y342580D01*
X342337Y343282D01*
X341618Y343977D01*
X340893Y344667D01*
X340161Y345349D01*
X339424Y346025D01*
X338681Y346695D01*
X337932Y347358D01*
X337177Y348014D01*
X336416Y348664D01*
X335650Y349306D01*
X334878Y349942D01*
X334100Y350571D01*
X333317Y351194D01*
X332528Y351809D01*
X331734Y352417D01*
X330934Y353018D01*
X330130Y353612D01*
X329320Y354199D01*
X328504Y354779D01*
X327684Y355351D01*
X326859Y355917D01*
X326028Y356474D01*
X325193Y357025D01*
X324353Y357568D01*
X323508Y358103D01*
X322658Y358631D01*
X321804Y359152D01*
X320945Y359665D01*
X320082Y360170D01*
X319214Y360667D01*
X318342Y361157D01*
X317466Y361640D01*
X316585Y362114D01*
X315700Y362580D01*
X314811Y363039D01*
X313918Y363490D01*
X313021Y363933D01*
X312121Y364368D01*
X311216Y364794D01*
X310307Y365213D01*
X309395Y365624D01*
X308480Y366027D01*
X307560Y366421D01*
X306638Y366808D01*
X305712Y367186D01*
X304782Y367556D01*
X303850Y367917D01*
X302914Y368271D01*
X301975Y368616D01*
X301033Y368953D01*
X300088Y369281D01*
X299141Y369601D01*
X298190Y369913D01*
X297237Y370216D01*
X296281Y370511D01*
X295322Y370797D01*
X294361Y371075D01*
X293398Y371344D01*
X292432Y371605D01*
X291464Y371857D01*
X290494Y372100D01*
X289522Y372335D01*
X288547Y372562D01*
X287571Y372779D01*
X286593Y372988D01*
X285613Y373189D01*
X284631Y373380D01*
X283647Y373563D01*
X282662Y373737D01*
X281676Y373903D01*
X280688Y374060D01*
X279699Y374207D01*
X278708Y374347D01*
X277716Y374477D01*
X276723Y374599D01*
X275729Y374711D01*
X274734Y374815D01*
X273739Y374910D01*
X272742Y374997D01*
X271745Y375074D01*
X270747Y375143D01*
X269748Y375203D01*
X268749Y375254D01*
X267750Y375296D01*
X266750Y375329D01*
X265750Y375353D01*
X264750Y375369D01*
X263750Y375376D01*
X262749Y375373D01*
X261749Y375362D01*
X260749Y375342D01*
X259749Y375313D01*
X258750Y375276D01*
X257750Y375229D01*
X256752Y375174D01*
X255753Y375110D01*
X254756Y375037D01*
X253759Y374955D01*
X252763Y374864D01*
X251767Y374764D01*
X250773Y374656D01*
X249779Y374539D01*
X248787Y374413D01*
X247796Y374278D01*
X246806Y374134D01*
X245817Y373982D01*
X244830Y373821D01*
X243844Y373651D01*
X242860Y373473D01*
X241877Y373285D01*
X240896Y373090D01*
X239917Y372885D01*
X238940Y372672D01*
X237965Y372449D01*
X236991Y372219D01*
X236020Y371980D01*
X235051Y371732D01*
X234084Y371476D01*
X233119Y371211D01*
X232157Y370937D01*
X231197Y370655D01*
X230240Y370364D01*
X229286Y370065D01*
X228334Y369758D01*
X227385Y369442D01*
X226438Y369118D01*
X225495Y368785D01*
X224554Y368444D01*
X223617Y368095D01*
X222683Y367738D01*
X221752Y367372D01*
X220824Y366998D01*
X219900Y366615D01*
X218979Y366225D01*
X218061Y365826D01*
X217147Y365419D01*
X216237Y365005D01*
X215331Y364582D01*
X214428Y364151D01*
X213529Y363712D01*
X212634Y363265D01*
X211743Y362810D01*
X210856Y362348D01*
X209974Y361877D01*
X209095Y361399D01*
X208221Y360913D01*
X207351Y360419D01*
X206485Y359918D01*
X205624Y359409D01*
X204767Y358892D01*
X203916Y358368D01*
X203068Y357836D01*
X202226Y357297D01*
X201388Y356750D01*
X200555Y356196D01*
X199727Y355634D01*
X198905Y355066D01*
X198087Y354489D01*
X197274Y353906D01*
X196467Y353316D01*
X195665Y352718D01*
X194868Y352114D01*
X194076Y351502D01*
X193290Y350883D01*
X192510Y350257D01*
X191735Y349625D01*
X190966Y348985D01*
X190202Y348339D01*
X189444Y347686D01*
X188692Y347027D01*
X187946Y346360D01*
X187206Y345688D01*
X186472Y345008D01*
X185744Y344322D01*
X185022Y343630D01*
X184306Y342932D01*
X183596Y342227D01*
X182893Y341515D01*
X182196Y340798D01*
X181505Y340074D01*
X180821Y339345D01*
X180143Y338609D01*
X179472Y337867D01*
X178807Y337120D01*
X178149Y336366D01*
X177498Y335607D01*
X176854Y334842D01*
X176216Y334071D01*
X175585Y333295D01*
X174961Y332513D01*
X174344Y331726D01*
X173734Y330933D01*
X173131Y330135D01*
X172536Y329331D01*
X171947Y328522D01*
X171365Y327709D01*
X170791Y326889D01*
X170224Y326065D01*
X169664Y325236D01*
X169112Y324402D01*
X168567Y323563D01*
X168030Y322720D01*
X167500Y321871D01*
X166978Y321018D01*
X166463Y320161D01*
X165956Y319298D01*
X165456Y318432D01*
X164964Y317561D01*
X164480Y316685D01*
X164004Y315806D01*
X163535Y314922D01*
X163075Y314034D01*
X162622Y313142D01*
X162177Y312246D01*
X161741Y311346D01*
X161312Y310442D01*
X160891Y309535D01*
X160478Y308624D01*
X160073Y307709D01*
X159677Y306791D01*
X159288Y305869D01*
X158908Y304944D01*
X158536Y304015D01*
X158172Y303083D01*
X157817Y302149D01*
X157469Y301210D01*
X157131Y300269D01*
X156800Y299325D01*
X156478Y298378D01*
X156164Y297428D01*
X155859Y296476D01*
X155562Y295520D01*
X155274Y294563D01*
X154994Y293602D01*
X154722Y292640D01*
X154460Y291674D01*
X154205Y290707D01*
X153960Y289737D01*
X153723Y288766D01*
X153494Y287792D01*
X153274Y286816D01*
X153063Y285838D01*
X152861Y284858D01*
X152667Y283877D01*
X152482Y282894D01*
X152305Y281909D01*
X152138Y280923D01*
X151979Y279936D01*
X151829Y278947D01*
X151687Y277957D01*
X151555Y276965D01*
X151431Y275972D01*
X151316Y274979D01*
X151210Y273984D01*
X151112Y272989D01*
X151024Y271992D01*
X150944Y270995D01*
X150873Y269997D01*
X150811Y268999D01*
X150758Y268000D01*
X150714Y267001D01*
X150679Y266001D01*
X150652Y265001D01*
X150634Y264001D01*
X150625Y263001D01*
Y262000D01*
X150634Y261000D01*
X150652Y260000D01*
X150678Y259000D01*
X150714Y258000D01*
X150758Y257001D01*
X150811Y256002D01*
X150873Y255004D01*
X150944Y254006D01*
X151024Y253009D01*
X151112Y252013D01*
X151210Y251017D01*
X151316Y250022D01*
X151431Y249029D01*
X151555Y248036D01*
X151687Y247045D01*
X151829Y246054D01*
X151979Y245065D01*
X152138Y244078D01*
X152305Y243092D01*
X152482Y242107D01*
X152667Y241124D01*
X152860Y240143D01*
X153063Y239163D01*
X153274Y238185D01*
X153494Y237210D01*
X153722Y236236D01*
X153959Y235264D01*
X154205Y234294D01*
X154459Y233327D01*
X154722Y232362D01*
X154993Y231399D01*
X155273Y230438D01*
X155562Y229481D01*
X155859Y228525D01*
X156164Y227573D01*
X156478Y226623D01*
X156800Y225676D01*
X157130Y224732D01*
X157469Y223791D01*
X157816Y222853D01*
X158172Y221918D01*
X158536Y220986D01*
X158908Y220057D01*
X159288Y219132D01*
X159676Y218210D01*
X160073Y217292D01*
X160477Y216377D01*
X160890Y215466D01*
X161311Y214559D01*
X161740Y213655D01*
X162177Y212755D01*
X162622Y211859D01*
X163074Y210967D01*
X163535Y210079D01*
X164003Y209195D01*
X164480Y208316D01*
X164964Y207440D01*
X165456Y206569D01*
X165955Y205703D01*
X166462Y204840D01*
X166977Y203983D01*
X167499Y203130D01*
X168029Y202281D01*
X168567Y201438D01*
X169112Y200599D01*
X169664Y199765D01*
X170223Y198936D01*
X170790Y198111D01*
X171365Y197292D01*
X171946Y196478D01*
X172535Y195670D01*
X173131Y194866D01*
X173733Y194068D01*
X174343Y193275D01*
X174960Y192488D01*
X175584Y191706D01*
X176215Y190930D01*
X176853Y190159D01*
X177497Y189394D01*
X178148Y188635D01*
X178806Y187881D01*
X179471Y187134D01*
X180142Y186392D01*
X180820Y185656D01*
X181504Y184927D01*
X182195Y184203D01*
X182892Y183486D01*
X183595Y182774D01*
X184305Y182069D01*
X185021Y181371D01*
X185743Y180678D01*
X186471Y179993D01*
X187205Y179313D01*
X187945Y178640D01*
X188691Y177974D01*
X189443Y177314D01*
X190201Y176662D01*
X190965Y176015D01*
X191734Y175376D01*
X192509Y174743D01*
X193289Y174118D01*
X194075Y173499D01*
X194867Y172887D01*
X195664Y172283D01*
X196466Y171685D01*
X197273Y171095D01*
X198086Y170511D01*
X198904Y169935D01*
X199726Y169366D01*
X200554Y168805D01*
X201387Y168251D01*
X202225Y167704D01*
X203067Y167165D01*
X203914Y166633D01*
X204766Y166109D01*
X205623Y165592D01*
X206484Y165083D01*
X207349Y164581D01*
X208219Y164088D01*
X209094Y163602D01*
X209972Y163123D01*
X210855Y162653D01*
X211742Y162190D01*
X212633Y161735D01*
X213528Y161289D01*
X214427Y160850D01*
X215329Y160419D01*
X216236Y159996D01*
X217146Y159581D01*
X218060Y159175D01*
X218977Y158776D01*
X219898Y158385D01*
X220823Y158003D01*
X221750Y157629D01*
X222681Y157263D01*
X223616Y156906D01*
X224553Y156556D01*
X225493Y156215D01*
X226437Y155883D01*
X227383Y155558D01*
X228332Y155243D01*
X229284Y154935D01*
X230239Y154636D01*
X231196Y154346D01*
X232155Y154063D01*
X233118Y153790D01*
X234082Y153525D01*
X235049Y153269D01*
X236018Y153021D01*
X236989Y152781D01*
X237963Y152551D01*
X238938Y152329D01*
X239915Y152116D01*
X240894Y151911D01*
X241875Y151715D01*
X242858Y151528D01*
X243842Y151349D01*
X244828Y151179D01*
X245815Y151018D01*
X246804Y150866D01*
X247794Y150722D01*
X248785Y150587D01*
X249777Y150461D01*
X250771Y150344D01*
X251765Y150236D01*
X252760Y150136D01*
X253757Y150046D01*
X254753Y149963D01*
X255751Y149890D01*
X256749Y149826D01*
X257748Y149771D01*
X258747Y149724D01*
X259747Y149687D01*
X260747Y149658D01*
X261747Y149638D01*
X262747Y149627D01*
X263747Y149624D01*
X264748Y149631D01*
X265748Y149646D01*
X266748Y149671D01*
X267748Y149704D01*
X268747Y149746D01*
X269746Y149797D01*
X270744Y149857D01*
X271742Y149925D01*
X272740Y150003D01*
X273736Y150089D01*
X274732Y150184D01*
X275727Y150288D01*
X276721Y150401D01*
X277714Y150523D01*
X278706Y150653D01*
X279696Y150792D01*
X280685Y150940D01*
X281673Y151097D01*
X282660Y151262D01*
X283645Y151436D01*
X284628Y151619D01*
X285610Y151811D01*
X286590Y152011D01*
X287568Y152220D01*
X288545Y152438D01*
X289519Y152664D01*
X290491Y152899D01*
X291462Y153142D01*
X292430Y153394D01*
X293395Y153655D01*
X294359Y153924D01*
X295320Y154202D01*
X296278Y154488D01*
X297234Y154783D01*
X298187Y155086D01*
X299138Y155398D01*
X300085Y155718D01*
X301030Y156046D01*
X301972Y156383D01*
X302911Y156728D01*
X303847Y157081D01*
X304780Y157443D01*
X305709Y157813D01*
X306635Y158191D01*
X307558Y158578D01*
X308477Y158972D01*
X309393Y159375D01*
X310305Y159785D01*
X311213Y160204D01*
X312118Y160631D01*
X313018Y161066D01*
X313915Y161509D01*
X314809Y161960D01*
X315697Y162418D01*
X316582Y162885D01*
X317463Y163359D01*
X318339Y163841D01*
X319212Y164331D01*
X320079Y164828D01*
X320943Y165334D01*
X321801Y165847D01*
X322656Y166367D01*
X323505Y166895D01*
X324350Y167430D01*
X325190Y167973D01*
X326026Y168524D01*
X326856Y169082D01*
X327681Y169647D01*
X328502Y170219D01*
X329317Y170799D01*
X330127Y171386D01*
X330932Y171980D01*
X331731Y172581D01*
X332525Y173189D01*
X333314Y173804D01*
X334097Y174426D01*
X334875Y175055D01*
X335647Y175691D01*
X336414Y176334D01*
X337174Y176984D01*
X337929Y177640D01*
X338678Y178303D01*
X339422Y178972D01*
X340159Y179648D01*
X340890Y180331D01*
X341615Y181020D01*
X342334Y181716D01*
X343047Y182417D01*
X343754Y183125D01*
X344454Y183840D01*
X345148Y184560D01*
X345835Y185287D01*
X346516Y186020D01*
X347191Y186758D01*
X347859Y187503D01*
X348520Y188253D01*
X349174Y189010D01*
X349822Y189772D01*
X350464Y190540D01*
X351098Y191313D01*
X351725Y192092D01*
X352346Y192877D01*
X352959Y193667D01*
X353566Y194462D01*
X354165Y195263D01*
X354757Y196069D01*
X355343Y196880D01*
X355920Y197697D01*
X356491Y198519D01*
X357054Y199345D01*
X357610Y200177D01*
X358159Y201013D01*
X358700Y201854D01*
X359234Y202700D01*
X359760Y203551D01*
X360279Y204406D01*
X360790Y205266D01*
X361293Y206131D01*
X361789Y207000D01*
X362277Y207873D01*
X362757Y208750D01*
X363229Y209632D01*
X363694Y210518D01*
X364151Y211408D01*
X364599Y212302D01*
X365040Y213200D01*
X365473Y214101D01*
X365898Y215007D01*
X366315Y215916D01*
X366724Y216829D01*
X367124Y217746D01*
X367517Y218666D01*
X367901Y219589D01*
X368278Y220516D01*
X368645Y221446D01*
X369005Y222380D01*
X369356Y223316D01*
X369700Y224256D01*
X370034Y225199D01*
X370361Y226144D01*
X370679Y227093D01*
X370988Y228044D01*
X371289Y228998D01*
X371582Y229954D01*
X371866Y230913D01*
X372142Y231875D01*
X372409Y232839D01*
X372668Y233805D01*
X372918Y234774D01*
X373159Y235744D01*
X373392Y236717D01*
X373616Y237692D01*
X373831Y238669D01*
X374038Y239648D01*
X374236Y240628D01*
X374426Y241610D01*
X374607Y242594D01*
X374779Y243579D01*
X374942Y244566D01*
X375097Y245554D01*
X375242Y246544D01*
X375379Y247535D01*
X375508Y248527D01*
X375627Y249520D01*
X375738Y250514D01*
X375839Y251509D01*
X375933Y252505D01*
X376017Y253502D01*
X376092Y254500D01*
X376158Y255498D01*
X376216Y256496D01*
X376265Y257495D01*
X376305Y258495D01*
X376336Y259495D01*
X376358Y260495D01*
X376371Y261495D01*
X376376Y262495D01*
Y262500D01*
X346936Y343566D02*
X346238Y344279D01*
X345533Y344985D01*
X344823Y345686D01*
X344106Y346380D01*
X343384Y347069D01*
X342655Y347751D01*
X341921Y348427D01*
X341181Y349096D01*
X340435Y349759D01*
X339684Y350416D01*
X338927Y351066D01*
X338165Y351710D01*
X337397Y352347D01*
X336623Y352978D01*
X335844Y353602D01*
X335060Y354219D01*
X334271Y354829D01*
X333476Y355433D01*
X332677Y356030D01*
X331872Y356620D01*
X331062Y357203D01*
X330247Y357779D01*
X329428Y358348D01*
X328603Y358910D01*
X327773Y359465D01*
X326939Y360013D01*
X326101Y360553D01*
X325257Y361086D01*
X324409Y361613D01*
X323557Y362131D01*
X322700Y362643D01*
X321839Y363147D01*
X320973Y363644D01*
X320104Y364133D01*
X319230Y364615D01*
X318352Y365089D01*
X317470Y365556D01*
X316584Y366015D01*
X315694Y366466D01*
X314800Y366910D01*
X313903Y367347D01*
X313002Y367775D01*
X312097Y368196D01*
X311188Y368609D01*
X310276Y369014D01*
X309361Y369411D01*
X308442Y369801D01*
X307520Y370182D01*
X306595Y370556D01*
X305666Y370922D01*
X304735Y371279D01*
X303800Y371629D01*
X302863Y371971D01*
X301922Y372304D01*
X300979Y372630D01*
X300033Y372947D01*
X299084Y373257D01*
X298133Y373558D01*
X297179Y373851D01*
X296222Y374135D01*
X295264Y374412D01*
X294303Y374680D01*
X293339Y374940D01*
X292374Y375192D01*
X291406Y375436D01*
X290436Y375671D01*
X290381Y149500D02*
X291349Y149735D01*
X292314Y149978D01*
X293278Y150229D01*
X294240Y150488D01*
X295199Y150756D01*
X296156Y151032D01*
X297110Y151316D01*
X298062Y151608D01*
X299012Y151908D01*
X299959Y152217D01*
X300903Y152534D01*
X301844Y152858D01*
X302783Y153191D01*
X303719Y153532D01*
X304651Y153881D01*
X305581Y154238D01*
X306508Y154602D01*
X307431Y154975D01*
X308351Y155356D01*
X309268Y155744D01*
X310182Y156140D01*
X311092Y156545D01*
X311999Y156957D01*
X312902Y157376D01*
X313802Y157804D01*
X314697Y158239D01*
X315589Y158681D01*
X316478Y159132D01*
X317362Y159590D01*
X318242Y160055D01*
X319118Y160529D01*
X319991Y161009D01*
X320859Y161497D01*
X321723Y161993D01*
X322582Y162496D01*
X323438Y163006D01*
X324288Y163523D01*
X325135Y164048D01*
X325976Y164580D01*
X326814Y165120D01*
X327646Y165666D01*
X328474Y166219D01*
X329297Y166780D01*
X330116Y167348D01*
X330929Y167922D01*
X331737Y168504D01*
X332541Y169093D01*
X333339Y169688D01*
X334132Y170290D01*
X334920Y170899D01*
X335703Y171515D01*
X336480Y172137D01*
X337252Y172766D01*
X338019Y173402D01*
X338780Y174044D01*
X339536Y174693D01*
X340286Y175348D01*
X341030Y176009D01*
X341769Y176677D01*
X342502Y177351D01*
X343229Y178032D01*
X343950Y178718D01*
X344666Y179411D01*
X345375Y180110D01*
X346078Y180815D01*
X346775Y181526D01*
X234809Y374896D02*
X233839Y374644D01*
X232871Y374383D01*
X231906Y374114D01*
X230943Y373837D01*
X229983Y373552D01*
X229025Y373258D01*
X228069Y372956D01*
X227116Y372646D01*
X226166Y372328D01*
X225219Y372001D01*
X224275Y371667D01*
X223333Y371324D01*
X222395Y370973D01*
X221459Y370614D01*
X220527Y370246D01*
X219598Y369871D01*
X218672Y369488D01*
X217750Y369097D01*
X216831Y368698D01*
X215915Y368290D01*
X215003Y367876D01*
X214095Y367453D01*
X213190Y367022D01*
X212289Y366584D01*
X211392Y366137D01*
X210499Y365683D01*
X209609Y365222D01*
X208724Y364752D01*
X207843Y364276D01*
X206966Y363791D01*
X206093Y363299D01*
X205224Y362799D01*
X204360Y362292D01*
X203501Y361777D01*
X202645Y361256D01*
X201795Y360726D01*
X200948Y360190D01*
X200107Y359646D01*
X199270Y359094D01*
X198438Y358536D01*
X197611Y357970D01*
X196789Y357398D01*
X195972Y356818D01*
X195159Y356231D01*
X194352Y355637D01*
X193551Y355037D01*
X192754Y354429D01*
X191962Y353814D01*
X191176Y353193D01*
X190396Y352565D01*
X189620Y351930D01*
X188851Y351289D01*
X188086Y350641D01*
X187328Y349986D01*
X186575Y349325D01*
X185828Y348657D01*
X185087Y347983D01*
X184351Y347303D01*
X183622Y346616D01*
X182898Y345923D01*
X182181Y345223D01*
X181469Y344518D01*
X180764Y343806D01*
X180065Y343089D01*
X179372Y342365D01*
X179294Y182500D02*
X179988Y181776D01*
X180688Y181058D01*
X181395Y180346D01*
X182107Y179640D01*
X182825Y178940D01*
X183550Y178247D01*
X184280Y177560D01*
X185017Y176879D01*
X185759Y176205D01*
X186507Y175537D01*
X187260Y174875D01*
X188020Y174220D01*
X188785Y173572D01*
X189555Y172930D01*
X190331Y172295D01*
X191113Y171667D01*
X191900Y171045D01*
X192692Y170430D01*
X193490Y169822D01*
X194292Y169221D01*
X195100Y168627D01*
X195914Y168040D01*
X196731Y167460D01*
X197555Y166887D01*
X198382Y166322D01*
X199215Y165763D01*
X200053Y165211D01*
X200895Y164667D01*
X201742Y164130D01*
X202594Y163601D01*
X203450Y163079D01*
X204311Y162564D01*
X205176Y162057D01*
X206045Y161557D01*
X206919Y161065D01*
X207797Y160580D01*
X208679Y160103D01*
X209565Y159633D01*
X210455Y159171D01*
X211349Y158717D01*
X212247Y158271D01*
X213149Y157832D01*
X214054Y157401D01*
X214964Y156978D01*
X215877Y156563D01*
X216793Y156156D01*
X217713Y155757D01*
X218636Y155365D01*
X219563Y154982D01*
X220493Y154607D01*
X221426Y154239D01*
X222362Y153880D01*
X223302Y153529D01*
X224244Y153186D01*
X225189Y152851D01*
X226137Y152524D01*
X227088Y152206D01*
X228042Y151896D01*
X228998Y151594D01*
X229957Y151300D01*
X230918Y151014D01*
X231882Y150737D01*
X232848Y150469D01*
X233817Y150208D01*
X234786Y149956D01*
X374851Y229943D02*
X375128Y230903D01*
X375395Y231866D01*
X375655Y232830D01*
X375906Y233797D01*
X376150Y234766D01*
X376384Y235738D01*
X376610Y236711D01*
X376828Y237686D01*
X377038Y238663D01*
X377239Y239641D01*
X377432Y240622D01*
X377616Y241604D01*
X377792Y242587D01*
X377959Y243572D01*
X378117Y244559D01*
X378268Y245547D01*
X378410Y246535D01*
X378543Y247526D01*
X378667Y248517D01*
X378784Y249509D01*
X378891Y250503D01*
X378990Y251497D01*
X379081Y252492D01*
X379163Y253488D01*
X379236Y254484D01*
X379301Y255481D01*
X379357Y256479D01*
X379404Y257477D01*
X379443Y258475D01*
X379474Y259474D01*
X379496Y260472D01*
X379509Y261472D01*
X379513Y262471D01*
X379509Y263470D01*
X379497Y264469D01*
X379475Y265468D01*
X379445Y266466D01*
X379407Y267465D01*
X379360Y268463D01*
X379304Y269460D01*
X379240Y270457D01*
X379167Y271454D01*
X379086Y272450D01*
X378996Y273445D01*
X378897Y274439D01*
X378790Y275432D01*
X378675Y276425D01*
X378550Y277416D01*
X378418Y278406D01*
X378276Y279395D01*
X378127Y280383D01*
X377968Y281370D01*
X377802Y282355D01*
X377626Y283338D01*
X377443Y284321D01*
X377251Y285301D01*
X377050Y286280D01*
X376841Y287257D01*
X376624Y288232D01*
X376398Y289205D01*
X376164Y290177D01*
X375921Y291146D01*
X375670Y292113D01*
X375411Y293078D01*
X375144Y294040D01*
X374868Y295000D01*
X151917Y294500D02*
X151646Y293540D01*
X151383Y292577D01*
X151129Y291612D01*
X150883Y290645D01*
X150645Y289676D01*
X150416Y288705D01*
X150194Y287732D01*
X149982Y286757D01*
X149777Y285780D01*
X149581Y284802D01*
X149394Y283821D01*
X149215Y282840D01*
X149044Y281856D01*
X148882Y280872D01*
X148728Y279886D01*
X148583Y278899D01*
X148447Y277910D01*
X148318Y276921D01*
X148198Y275930D01*
X148087Y274938D01*
X147985Y273946D01*
X147891Y272952D01*
X147805Y271958D01*
X147728Y270963D01*
X147660Y269968D01*
X147600Y268972D01*
X147548Y267975D01*
X147505Y266978D01*
X147471Y265981D01*
X147446Y264983D01*
X147429Y263985D01*
X147420Y262988D01*
X147420Y261990D01*
X147429Y260992D01*
X147446Y259994D01*
X147472Y258997D01*
X147506Y257999D01*
X147549Y257002D01*
X147601Y256006D01*
X147661Y255010D01*
X147730Y254014D01*
X147807Y253019D01*
X147893Y252025D01*
X147987Y251032D01*
X148090Y250039D01*
X148201Y249048D01*
X148321Y248057D01*
X148450Y247067D01*
X148586Y246079D01*
X148732Y245092D01*
X148886Y244106D01*
X149048Y243121D01*
X149219Y242138D01*
X149398Y241156D01*
X149586Y240176D01*
X149782Y239198D01*
X149986Y238221D01*
X150199Y237246D01*
X150421Y236273D01*
X150650Y235302D01*
X150888Y234333D01*
X151135Y233366D01*
X151389Y232401D01*
X151652Y231439D01*
X151923Y230478D01*
X380936Y296771D02*
X415680Y262843D01*
X380936Y228164D02*
X415680Y262091D01*
X109254Y262843D02*
X143998Y296771D01*
X291995Y382218D02*
X338747Y395341D01*
X291995Y142717D02*
X338747Y129593D01*
X186500Y395253D02*
X232939Y382218D01*
X186187Y129593D02*
X232939Y142717D01*
X109254Y262091D02*
X143998Y228164D01*
X339401Y129969D02*
X351409Y177020D01*
X173526D02*
X185534Y129969D01*
X339401Y394965D02*
X351500Y348000D01*
X173526Y347914D02*
X185534Y394965D01*
X374868Y295000D02*
X380936Y296771D01*
X346936Y343566D02*
X351500Y348000D01*
X173526Y347914D02*
X179372Y342365D01*
X143998Y296771D02*
X151917Y294500D01*
X415680Y262091D02*
Y262843D01*
X375000Y229899D02*
X381000Y228226D01*
X173526Y177020D02*
X179294Y182500D01*
X143998Y228164D02*
X152000Y230500D01*
X290436Y375671D02*
X291995Y382218D01*
X290381Y149500D02*
X291995Y142717D01*
X232939Y382218D02*
X234782Y375000D01*
X232939Y142717D02*
X234798Y150000D01*
X346646Y181650D02*
X351409Y177020D01*
X338747Y395341D02*
X339401Y394965D01*
X338747Y129593D02*
X339401Y129969D01*
X185534Y394965D02*
X186500Y395253D01*
X185534Y129969D02*
X186187Y129593D01*
X109254Y262091D02*
Y262843D01*
X261092Y267907D02*
X268163Y260836D01*
X255435Y262251D02*
X261092Y267907D01*
X254021Y260836D02*
X261092Y253765D01*
X262506Y255180D02*
X268163Y260836D01*
D11*
X272178Y96119D02*
X272860Y95726D01*
X273458Y98335D02*
X274140Y97942D01*
X277293Y93167D02*
X278572Y95383D01*
X239200Y118197D02*
X239882Y118591D01*
X237920Y120413D02*
X238602Y120807D01*
X243035Y123366D02*
X244314Y121150D01*
X250860Y127942D02*
X251542Y128335D01*
X252140Y125725D02*
X252822Y126119D01*
X246428Y125383D02*
X247707Y123167D01*
X272178Y126119D02*
X272860Y125725D01*
X273458Y128335D02*
X274140Y127942D01*
X277293Y123167D02*
X278572Y125383D01*
X286398Y120807D02*
X287080Y120413D01*
X285118Y118591D02*
X285800Y118197D01*
X280686Y121150D02*
X281965Y123366D01*
X298058Y81062D02*
X298740Y80668D01*
X299338Y83279D02*
X300020Y82885D01*
X303172Y78110D02*
X304452Y80326D01*
X286398Y90807D02*
X287080Y90413D01*
X285118Y88591D02*
X285800Y88197D01*
X280686Y91150D02*
X281965Y93366D01*
X251072Y97942D02*
X251754Y98335D01*
X252351Y95726D02*
X253033Y96119D01*
X246639Y95383D02*
X247919Y93166D01*
X239411Y88197D02*
X240093Y88591D01*
X238132Y90413D02*
X238814Y90807D01*
X243246Y93366D02*
X244526Y91150D01*
X225192Y82885D02*
X225874Y83279D01*
X226472Y80668D02*
X227154Y81062D01*
X220760Y80326D02*
X222039Y78110D01*
X261221Y123606D02*
Y124394D01*
X263779Y123606D02*
Y124394D01*
X261221Y118488D02*
X263779D01*
Y108606D02*
Y109394D01*
X261221Y108606D02*
Y109394D01*
Y114512D02*
X263779D01*
X261221Y93606D02*
Y94394D01*
X263779Y93606D02*
Y94394D01*
X261221Y88488D02*
X263779D01*
X239306Y58016D02*
X239988Y58410D01*
X238026Y60232D02*
X238708Y60626D01*
X243141Y63185D02*
X244420Y60969D01*
X250966Y67761D02*
X251648Y68154D01*
X252246Y65544D02*
X252927Y65938D01*
X246534Y65202D02*
X247813Y62985D01*
X263779Y78606D02*
Y79394D01*
X261221Y78606D02*
Y79394D01*
Y84512D02*
X263779D01*
X286398Y60807D02*
X287080Y60413D01*
X285118Y58591D02*
X285800Y58197D01*
X280686Y61150D02*
X281965Y63366D01*
X272448Y65658D02*
X273130Y65264D01*
X273727Y67874D02*
X274409Y67480D01*
X277562Y62705D02*
X278842Y64921D01*
X261221Y63606D02*
Y64394D01*
X263779Y63606D02*
Y64394D01*
X261221Y58488D02*
X263779D01*
X251072Y37942D02*
X251754Y38335D01*
X252351Y35726D02*
X253033Y36119D01*
X246639Y35383D02*
X247919Y33166D01*
X263779Y48606D02*
Y49394D01*
X261221Y48606D02*
Y49394D01*
Y54512D02*
X263779D01*
X272178Y36119D02*
X272860Y35726D01*
X273458Y38335D02*
X274140Y37942D01*
X277293Y33166D02*
X278572Y35383D01*
X263779Y18606D02*
Y19394D01*
X261221Y18606D02*
Y19394D01*
Y24512D02*
X263779D01*
X261221Y33606D02*
Y34394D01*
X263779Y33606D02*
Y34394D01*
X261221Y28488D02*
X263779D01*
X151595Y170235D02*
Y171022D01*
X149037Y170235D02*
Y171022D01*
Y176140D02*
X151595D01*
X373101Y185069D02*
Y185857D01*
X375660Y185069D02*
Y185857D01*
X373101Y179951D02*
X375660D01*
X375626Y339137D02*
Y339924D01*
X373067Y339137D02*
Y339924D01*
Y345042D02*
X375626D01*
X86905Y322143D02*
X87587Y322536D01*
X88185Y319927D02*
X88867Y320320D01*
X82473Y319584D02*
X83753Y317368D01*
X263779Y430606D02*
Y431394D01*
X261221Y430606D02*
Y431394D01*
Y436512D02*
X263779D01*
X149221Y184407D02*
Y185194D01*
X151779Y184407D02*
Y185194D01*
X149221Y179289D02*
X151779D01*
X401797Y155282D02*
Y156069D01*
X399238Y155282D02*
Y156069D01*
Y161187D02*
X401797D01*
X399098Y369107D02*
Y369895D01*
X401657Y369107D02*
Y369895D01*
X399098Y363989D02*
X401657D01*
X125698Y354001D02*
Y354788D01*
X123140Y354001D02*
Y354788D01*
Y359906D02*
X125698D01*
X273458Y426665D02*
X274140Y427058D01*
X272178Y428881D02*
X272860Y429275D01*
X277293Y431834D02*
X278572Y429617D01*
X123000Y170389D02*
Y171176D01*
X125559Y170389D02*
Y171176D01*
X123000Y165270D02*
X125559D01*
X399288Y140311D02*
Y141099D01*
X401847Y140311D02*
Y141099D01*
X399288Y135193D02*
X401847D01*
X401707Y384078D02*
Y384865D01*
X399148Y384078D02*
Y384865D01*
Y389983D02*
X401707D01*
X112885Y337027D02*
X113567Y337421D01*
X114165Y334811D02*
X114847Y335204D01*
X108453Y334468D02*
X109732Y332252D01*
X263779Y400606D02*
Y401394D01*
X261221Y400606D02*
Y401394D01*
Y406512D02*
X263779D01*
X125509Y155418D02*
Y156205D01*
X122950Y155418D02*
Y156205D01*
Y161324D02*
X125509D01*
X375710Y170099D02*
Y170886D01*
X373151Y170099D02*
Y170886D01*
Y176004D02*
X375710D01*
X373117Y354107D02*
Y354895D01*
X375676Y354107D02*
Y354895D01*
X373117Y348989D02*
X375676D01*
X101175Y327369D02*
X101857Y327762D01*
X99895Y329585D02*
X100577Y329979D01*
X105010Y332538D02*
X106289Y330321D01*
X261221Y415606D02*
Y416394D01*
X263779Y415606D02*
Y416394D01*
X261221Y410488D02*
X263779D01*
X122900Y140448D02*
Y141235D01*
X125459Y140448D02*
Y141235D01*
X122900Y135329D02*
X125459D01*
X399188Y170252D02*
Y171040D01*
X401747Y170252D02*
Y171040D01*
X399188Y165134D02*
X401747D01*
X401607Y354137D02*
Y354924D01*
X399048Y354137D02*
Y354924D01*
Y360042D02*
X401607D01*
X127050Y312185D02*
X127732Y312579D01*
X125770Y314402D02*
X126452Y314795D01*
X130885Y317354D02*
X132164Y315138D01*
X252140Y399274D02*
X252822Y398881D01*
X250860Y397058D02*
X251542Y396665D01*
X246428Y399617D02*
X247707Y401833D01*
X115451Y179226D02*
X116132Y179620D01*
X116730Y177010D02*
X117412Y177403D01*
X111018Y176667D02*
X112298Y174451D01*
X381354Y192267D02*
X382036Y191874D01*
X382634Y194483D02*
X383315Y194090D01*
X386468Y189315D02*
X387748Y191531D01*
X382600Y330510D02*
X383282Y330904D01*
X381320Y332726D02*
X382002Y333120D01*
X386435Y335679D02*
X387714Y333463D01*
X138760Y321844D02*
X139442Y322237D01*
X140040Y319627D02*
X140721Y320021D01*
X134328Y319285D02*
X135607Y317068D01*
X273458Y396665D02*
X274140Y397058D01*
X272178Y398881D02*
X272860Y399274D01*
X277293Y401833D02*
X278572Y399617D01*
X129720Y184510D02*
X130402Y184904D01*
X128441Y186726D02*
X129123Y187120D01*
X133555Y189679D02*
X134835Y187462D01*
X395624Y186984D02*
X396306Y186590D01*
X394344Y184767D02*
X395026Y184374D01*
X389912Y187326D02*
X391192Y189543D01*
X394311Y340226D02*
X394992Y340620D01*
X395590Y338010D02*
X396272Y338404D01*
X389878Y337667D02*
X391158Y335451D01*
X151679Y339001D02*
Y339788D01*
X149120Y339001D02*
Y339788D01*
Y344906D02*
X151679D01*
X285118Y406409D02*
X285800Y406803D01*
X286398Y404193D02*
X287080Y404587D01*
X280686Y403850D02*
X281965Y401634D01*
X141431Y194226D02*
X142113Y194620D01*
X142711Y192010D02*
X143393Y192403D01*
X136999Y191667D02*
X138278Y189451D01*
X407335Y177267D02*
X408017Y176874D01*
X408614Y179483D02*
X409296Y179090D01*
X412449Y174314D02*
X413729Y176531D01*
X408581Y345510D02*
X409263Y345903D01*
X407301Y347726D02*
X407983Y348120D01*
X412415Y350679D02*
X413695Y348463D01*
X149070Y353971D02*
Y354759D01*
X151629Y353971D02*
Y354759D01*
X149070Y348853D02*
X151629D01*
X237920Y404587D02*
X238602Y404193D01*
X239200Y406803D02*
X239882Y406409D01*
X243035Y401634D02*
X244314Y403850D01*
X125736Y210592D02*
X126418Y210198D01*
X127016Y212808D02*
X127698Y212414D01*
X130851Y207639D02*
X132130Y209855D01*
X385339Y202620D02*
X386021Y203013D01*
X384059Y204836D02*
X384741Y205230D01*
X389174Y207789D02*
X390453Y205573D01*
X398295Y314932D02*
X398976Y314538D01*
X397015Y312715D02*
X397697Y312321D01*
X392583Y315274D02*
X393862Y317491D01*
X125599Y383942D02*
Y384729D01*
X123040Y383942D02*
Y384729D01*
Y389847D02*
X125599D01*
X226472Y444332D02*
X227154Y443938D01*
X225192Y442115D02*
X225874Y441722D01*
X220760Y444674D02*
X222039Y446890D01*
X140006Y205366D02*
X140688Y204972D01*
X138726Y203150D02*
X139408Y202756D01*
X134294Y205709D02*
X135573Y207925D01*
X397049Y212278D02*
X397731Y212672D01*
X398328Y210062D02*
X399010Y210455D01*
X392617Y209719D02*
X393896Y207503D01*
X384025Y320157D02*
X384707Y319764D01*
X385305Y322374D02*
X385987Y321980D01*
X389140Y317204D02*
X390419Y319421D01*
X123090Y368971D02*
Y369759D01*
X125649Y368971D02*
Y369759D01*
X123090Y363853D02*
X125649D01*
X238132Y434587D02*
X238814Y434193D01*
X239412Y436803D02*
X240093Y436409D01*
X243246Y431634D02*
X244526Y433850D01*
X88045Y205250D02*
X88727Y204856D01*
X86766Y203034D02*
X87448Y202640D01*
X82333Y205593D02*
X83613Y207809D01*
X411319Y187620D02*
X412001Y188014D01*
X410040Y189836D02*
X410722Y190230D01*
X415154Y192789D02*
X416434Y190573D01*
X435880Y320457D02*
X436562Y320063D01*
X437159Y322673D02*
X437841Y322279D01*
X440994Y317504D02*
X442274Y319720D01*
X142745Y332983D02*
X143427Y332590D01*
X141465Y330767D02*
X142147Y330374D01*
X137033Y333326D02*
X138312Y335543D01*
X252352Y429305D02*
X253034Y428911D01*
X251072Y427089D02*
X251754Y426695D01*
X246640Y429648D02*
X247919Y431864D01*
X99756Y195592D02*
X100438Y195198D01*
X101035Y197808D02*
X101717Y197414D01*
X104870Y192639D02*
X106149Y194855D01*
X437299Y202504D02*
X437981Y202898D01*
X436020Y204720D02*
X436701Y205114D01*
X441134Y207673D02*
X442413Y205457D01*
X424170Y330115D02*
X424852Y329721D01*
X422890Y327899D02*
X423572Y327505D01*
X418458Y330458D02*
X419737Y332674D01*
X128475Y338267D02*
X129157Y337874D01*
X129754Y340483D02*
X130436Y340090D01*
X133589Y335314D02*
X134869Y337531D01*
X285118Y436409D02*
X285800Y436803D01*
X286398Y434193D02*
X287080Y434587D01*
X280686Y433850D02*
X281965Y431634D01*
X114025Y190366D02*
X114707Y189972D01*
X112745Y188150D02*
X113427Y187756D01*
X108313Y190709D02*
X109593Y192925D01*
X423030Y197278D02*
X423712Y197672D01*
X424309Y195062D02*
X424991Y195456D01*
X418597Y194719D02*
X419877Y192503D01*
X409900Y335340D02*
X410582Y334947D01*
X411180Y337557D02*
X411862Y337163D01*
X415015Y332388D02*
X416294Y334604D01*
X116764Y347984D02*
X117446Y347590D01*
X115484Y345767D02*
X116166Y345374D01*
X111052Y348326D02*
X112331Y350543D01*
X299338Y441721D02*
X300020Y442115D01*
X298058Y443938D02*
X298740Y444332D01*
X303172Y446890D02*
X304452Y444674D01*
X73775Y180592D02*
X74457Y180198D01*
X75054Y182808D02*
X75736Y182414D01*
X78889Y177639D02*
X80169Y179855D01*
X420837Y172427D02*
X421519Y172033D01*
X419557Y170211D02*
X420239Y169817D01*
X415125Y172770D02*
X416404Y174986D01*
X427588Y369137D02*
Y369924D01*
X425029Y369137D02*
Y369924D01*
Y375042D02*
X427588D01*
X102494Y353267D02*
X103176Y352874D01*
X103773Y355484D02*
X104455Y355090D01*
X107608Y350314D02*
X108888Y352531D01*
X261221Y445606D02*
Y446394D01*
X263779Y445606D02*
Y446394D01*
X261221Y440488D02*
X263779D01*
X88044Y175366D02*
X88726Y174972D01*
X86765Y173150D02*
X87447Y172756D01*
X82332Y175709D02*
X83612Y177925D01*
X449546Y182063D02*
X450228Y182457D01*
X450826Y179847D02*
X451508Y180241D01*
X445114Y179504D02*
X446393Y177288D01*
X425079Y384107D02*
Y384895D01*
X427638Y384107D02*
Y384895D01*
X425079Y378989D02*
X427638D01*
X86695Y352026D02*
X87377Y352419D01*
X87974Y349810D02*
X88656Y350203D01*
X82262Y349467D02*
X83542Y347251D01*
X285118Y466409D02*
X285800Y466803D01*
X286398Y464193D02*
X287080Y464587D01*
X280686Y463850D02*
X281965Y461634D01*
X62169Y160183D02*
X62851Y159789D01*
X60890Y157966D02*
X61572Y157573D01*
X56457Y160525D02*
X57737Y162742D01*
X437837Y172188D02*
X438519Y172581D01*
X436557Y174404D02*
X437240Y174798D01*
X441672Y177357D02*
X442951Y175140D01*
X453675Y383953D02*
Y384741D01*
X451116Y383953D02*
Y384741D01*
Y389859D02*
X453675D01*
X74984Y342368D02*
X75666Y342761D01*
X73705Y344584D02*
X74387Y344977D01*
X78819Y347536D02*
X80099Y345320D01*
X263779Y460606D02*
Y461394D01*
X261221Y460606D02*
Y461394D01*
Y466512D02*
X263779D01*
X97220Y154349D02*
Y155137D01*
X99779Y154349D02*
Y155137D01*
X97220Y149231D02*
X99779D01*
X433316Y162267D02*
X433998Y161874D01*
X434595Y164483D02*
X435277Y164090D01*
X438430Y159315D02*
X439710Y161531D01*
X460542Y375510D02*
X461224Y375904D01*
X459263Y377726D02*
X459944Y378120D01*
X464377Y380679D02*
X465656Y378463D01*
X99453Y369465D02*
Y370252D01*
X96894Y369465D02*
Y370252D01*
Y375370D02*
X99453D01*
X273458Y456665D02*
X274140Y457058D01*
X272178Y458881D02*
X272860Y459274D01*
X277293Y461834D02*
X278572Y459617D01*
X99424Y140236D02*
Y141023D01*
X96865Y140236D02*
Y141023D01*
Y146141D02*
X99424D01*
X447586Y156983D02*
X448268Y156590D01*
X446306Y154767D02*
X446988Y154374D01*
X441874Y157326D02*
X443153Y159543D01*
X472253Y385226D02*
X472935Y385620D01*
X473532Y383010D02*
X474214Y383403D01*
X467821Y382667D02*
X469100Y380451D01*
X97109Y383971D02*
Y384758D01*
X99668Y383971D02*
Y384758D01*
X97109Y378853D02*
X99668D01*
X261221Y475606D02*
Y476394D01*
X263779Y475606D02*
Y476394D01*
X261221Y470488D02*
X263779D01*
X71038Y140389D02*
Y141176D01*
X73597Y140389D02*
Y141176D01*
X71038Y135270D02*
X73597D01*
X459296Y147267D02*
X459978Y146874D01*
X460576Y149484D02*
X461258Y149090D01*
X464411Y144315D02*
X465690Y146531D01*
X446272Y370226D02*
X446954Y370620D01*
X447552Y368010D02*
X448234Y368404D01*
X441840Y367667D02*
X443119Y365451D01*
X73737Y384001D02*
Y384788D01*
X71178Y384001D02*
Y384788D01*
Y389906D02*
X73737D01*
X261221Y505606D02*
Y506394D01*
X263779Y505606D02*
Y506394D01*
X261221Y500488D02*
X263779D01*
X63489Y149226D02*
X64171Y149620D01*
X64768Y147010D02*
X65450Y147403D01*
X59057Y146667D02*
X60336Y144451D01*
X473566Y141983D02*
X474248Y141590D01*
X472287Y139767D02*
X472969Y139374D01*
X467854Y142326D02*
X469134Y144543D01*
X434561Y360510D02*
X435243Y360904D01*
X433282Y362726D02*
X433964Y363120D01*
X438396Y365679D02*
X439676Y363462D01*
X50532Y383267D02*
X51214Y382874D01*
X51812Y385484D02*
X52494Y385090D01*
X55647Y380315D02*
X56926Y382531D01*
X273458Y486665D02*
X274140Y487058D01*
X272178Y488881D02*
X272860Y489275D01*
X277293Y491834D02*
X278572Y489617D01*
X51778Y139510D02*
X52460Y139903D01*
X50498Y141726D02*
X51180Y142120D01*
X55613Y144679D02*
X56892Y142463D01*
X463175Y157437D02*
X463857Y157830D01*
X461896Y159653D02*
X462578Y160046D01*
X467010Y162606D02*
X468290Y160389D01*
X461862Y365340D02*
X462544Y364947D01*
X463141Y367557D02*
X463823Y367163D01*
X466976Y362388D02*
X468256Y364604D01*
X64802Y377983D02*
X65484Y377590D01*
X63523Y375767D02*
X64205Y375374D01*
X59090Y378326D02*
X60370Y380543D01*
X263779Y490606D02*
Y491394D01*
X261221Y490606D02*
Y491394D01*
Y496512D02*
X263779D01*
X77759Y154510D02*
X78441Y154903D01*
X76479Y156726D02*
X77161Y157120D01*
X81594Y159679D02*
X82873Y157463D01*
X451150Y140252D02*
Y141040D01*
X453709Y140252D02*
Y141040D01*
X451150Y135134D02*
X453709D01*
X450147Y344927D02*
X450829Y344533D01*
X448867Y342711D02*
X449549Y342317D01*
X444435Y345270D02*
X445715Y347486D01*
X60507Y366789D02*
X61189Y367183D01*
X61786Y364573D02*
X62468Y364967D01*
X56074Y364230D02*
X57354Y362014D01*
X252351Y489275D02*
X253033Y488881D01*
X251072Y487058D02*
X251754Y486665D01*
X246639Y489617D02*
X247919Y491834D01*
X89470Y164226D02*
X90152Y164620D01*
X90749Y162010D02*
X91431Y162403D01*
X85037Y161667D02*
X86317Y159451D01*
X425273Y155070D02*
Y155858D01*
X427832Y155070D02*
Y155858D01*
X425273Y149952D02*
X427832D01*
X436091Y350339D02*
X436773Y349946D01*
X437370Y352556D02*
X438052Y352162D01*
X441205Y347387D02*
X442485Y349603D01*
X90783Y362983D02*
X91465Y362590D01*
X89504Y360767D02*
X90185Y360374D01*
X85071Y363326D02*
X86351Y365543D01*
X238026Y464768D02*
X238708Y464374D01*
X239306Y466984D02*
X239988Y466590D01*
X243141Y461815D02*
X244420Y464031D01*
X103740Y169510D02*
X104421Y169904D01*
X102460Y171726D02*
X103142Y172120D01*
X107574Y174679D02*
X108854Y172462D01*
X427881Y140100D02*
Y140887D01*
X425322Y140100D02*
Y140887D01*
Y146005D02*
X427881D01*
X420291Y355226D02*
X420973Y355620D01*
X421571Y353010D02*
X422253Y353403D01*
X415859Y352667D02*
X417138Y350451D01*
X76513Y368267D02*
X77195Y367874D01*
X77793Y370483D02*
X78475Y370090D01*
X81628Y365315D02*
X82907Y367531D01*
X252246Y459455D02*
X252927Y459062D01*
X250966Y457239D02*
X251648Y456846D01*
X246534Y459798D02*
X247813Y462015D01*
M02*
