G04*
G04 #@! TF.GenerationSoftware,Altium Limited,Altium Designer,18.1.9 (240)*
G04*
G04 Layer_Color=16711935*
%FSLAX25Y25*%
%MOIN*%
G70*
G01*
G75*
%ADD10C,0.01000*%
%ADD78C,0.00820*%
%ADD79C,0.00050*%
G36*
X295568Y59032D02*
X294969Y57994D01*
X294917Y57922D01*
X294874Y57856D01*
X294831Y57800D01*
X294797Y57758D01*
X294774Y57726D01*
X294753Y57708D01*
X294749Y57700D01*
X294697Y57654D01*
X294647Y57612D01*
X294599Y57574D01*
X294558Y57547D01*
X294520Y57523D01*
X294491Y57509D01*
X294475Y57499D01*
X294469Y57497D01*
X294413Y57479D01*
X294353Y57463D01*
X294297Y57454D01*
X294244Y57449D01*
X294199Y57450D01*
X294161Y57446D01*
X294138Y57450D01*
X294128Y57450D01*
X294056Y57457D01*
X293987Y57471D01*
X293924Y57492D01*
X293868Y57509D01*
X293824Y57530D01*
X293787Y57546D01*
X293765Y57559D01*
X293757Y57563D01*
X293679Y57613D01*
X293616Y57670D01*
X293566Y57724D01*
X293522Y57780D01*
X293492Y57833D01*
X293469Y57872D01*
X293458Y57898D01*
X293453Y57906D01*
X293425Y57988D01*
X293412Y58072D01*
X293407Y58151D01*
X293406Y58227D01*
X293411Y58290D01*
X293416Y58343D01*
X293421Y58360D01*
X293424Y58374D01*
X293425Y58384D01*
X293427Y58387D01*
X293355Y58342D01*
X293287Y58311D01*
X293226Y58285D01*
X293166Y58269D01*
X293120Y58260D01*
X293080Y58253D01*
X293059Y58250D01*
X293049Y58251D01*
X292978Y58251D01*
X292910Y58265D01*
X292852Y58278D01*
X292800Y58293D01*
X292754Y58310D01*
X292721Y58324D01*
X292702Y58335D01*
X292694Y58339D01*
X292632Y58380D01*
X292578Y58427D01*
X292533Y58473D01*
X292495Y58520D01*
X292464Y58563D01*
X292438Y58598D01*
X292426Y58621D01*
X292421Y58629D01*
X292388Y58704D01*
X292366Y58772D01*
X292351Y58841D01*
X292343Y58907D01*
X292342Y58958D01*
X292341Y58999D01*
X292342Y59029D01*
X292341Y59035D01*
X292343Y59039D01*
X292356Y59122D01*
X292381Y59209D01*
X292413Y59292D01*
X292443Y59371D01*
X292477Y59438D01*
X292492Y59464D01*
X292504Y59493D01*
X293070Y60474D01*
X295568Y59032D01*
D02*
G37*
G36*
X292808Y57553D02*
X292885Y57545D01*
X292959Y57532D01*
X293030Y57516D01*
X293100Y57496D01*
X293164Y57475D01*
X293221Y57452D01*
X293271Y57433D01*
X293315Y57413D01*
X293350Y57393D01*
X293378Y57381D01*
X293393Y57373D01*
X293401Y57368D01*
X293482Y57316D01*
X293558Y57262D01*
X293624Y57209D01*
X293683Y57155D01*
X293735Y57104D01*
X293785Y57050D01*
X293822Y56999D01*
X293858Y56947D01*
X293888Y56904D01*
X293910Y56862D01*
X293929Y56825D01*
X293945Y56791D01*
X293957Y56768D01*
X293966Y56748D01*
X293969Y56736D01*
X293970Y56730D01*
X293986Y56660D01*
X293995Y56589D01*
X294001Y56520D01*
X293997Y56451D01*
X293991Y56389D01*
X293980Y56324D01*
X293955Y56212D01*
X293940Y56160D01*
X293924Y56113D01*
X293905Y56073D01*
X293892Y56041D01*
X293880Y56012D01*
X293858Y55974D01*
X293804Y55889D01*
X293743Y55818D01*
X293686Y55754D01*
X293626Y55703D01*
X293576Y55660D01*
X293533Y55629D01*
X293520Y55616D01*
X293506Y55610D01*
X293500Y55608D01*
X293498Y55604D01*
X293410Y55558D01*
X293326Y55526D01*
X293246Y55501D01*
X293172Y55488D01*
X293107Y55480D01*
X293057Y55473D01*
X293022Y55473D01*
X293016Y55472D01*
X293012Y55474D01*
X292912Y55486D01*
X292806Y55512D01*
X292704Y55546D01*
X292607Y55581D01*
X292563Y55601D01*
X292523Y55619D01*
X292489Y55639D01*
X292456Y55653D01*
X292434Y55666D01*
X292414Y55677D01*
X292403Y55683D01*
X292399Y55686D01*
X292322Y55736D01*
X292254Y55785D01*
X292188Y55838D01*
X292132Y55891D01*
X292083Y55945D01*
X292040Y55994D01*
X292000Y56048D01*
X291966Y56093D01*
X291941Y56138D01*
X291916Y56183D01*
X291896Y56219D01*
X291884Y56252D01*
X291874Y56278D01*
X291866Y56298D01*
X291863Y56310D01*
X291861Y56316D01*
X291845Y56386D01*
X291836Y56457D01*
X291830Y56526D01*
X291828Y56593D01*
X291836Y56660D01*
X291846Y56720D01*
X291870Y56833D01*
X291885Y56885D01*
X291902Y56931D01*
X291918Y56968D01*
X291934Y57004D01*
X291945Y57033D01*
X291965Y57067D01*
X292004Y57126D01*
X292043Y57184D01*
X292129Y57281D01*
X292220Y57360D01*
X292264Y57391D01*
X292301Y57420D01*
X292342Y57447D01*
X292378Y57467D01*
X292413Y57483D01*
X292441Y57497D01*
X292463Y57509D01*
X292481Y57514D01*
X292490Y57519D01*
X292496Y57521D01*
X292574Y57542D01*
X292651Y57553D01*
X292730Y57558D01*
X292808Y57553D01*
D02*
G37*
G36*
X291602Y55639D02*
X291665Y55633D01*
X291725Y55624D01*
X291777Y55609D01*
X291818Y55601D01*
X291843Y55591D01*
X291849Y55593D01*
X291853Y55591D01*
X291721Y55266D01*
X291646Y55285D01*
X291573Y55291D01*
X291514Y55294D01*
X291461Y55290D01*
X291421Y55282D01*
X291391Y55274D01*
X291373Y55269D01*
X291367Y55268D01*
X291317Y55241D01*
X291267Y55199D01*
X291227Y55156D01*
X291185Y55110D01*
X291152Y55062D01*
X291127Y55027D01*
X291107Y54992D01*
X291065Y54910D01*
X291034Y54831D01*
X291018Y54760D01*
X291009Y54699D01*
X291006Y54650D01*
X291009Y54613D01*
X291010Y54587D01*
X291011Y54581D01*
X291028Y54531D01*
X291055Y54490D01*
X291092Y54448D01*
X291127Y54413D01*
X291161Y54383D01*
X291193Y54360D01*
X291216Y54347D01*
X291219Y54344D01*
X291223Y54342D01*
X291231Y54338D01*
X291242Y54331D01*
X291269Y54316D01*
X291294Y54307D01*
X291301Y54302D01*
X291305Y54300D01*
X291336Y54327D01*
X291370Y54359D01*
X291443Y54433D01*
X291511Y54516D01*
X291577Y54594D01*
X291640Y54669D01*
X291664Y54701D01*
X291685Y54729D01*
X291704Y54754D01*
X291715Y54773D01*
X291725Y54782D01*
X291728Y54786D01*
X291773Y54846D01*
X291811Y54895D01*
X291847Y54940D01*
X291877Y54974D01*
X291902Y55000D01*
X291917Y55016D01*
X291929Y55029D01*
X291931Y55033D01*
X291973Y55070D01*
X292012Y55103D01*
X292047Y55129D01*
X292086Y55152D01*
X292117Y55170D01*
X292139Y55182D01*
X292155Y55193D01*
X292161Y55195D01*
X292208Y55213D01*
X292252Y55229D01*
X292300Y55241D01*
X292340Y55249D01*
X292377Y55252D01*
X292403Y55253D01*
X292422Y55252D01*
X292428Y55253D01*
X292481Y55248D01*
X292532Y55239D01*
X292578Y55223D01*
X292620Y55208D01*
X292653Y55194D01*
X292682Y55183D01*
X292697Y55174D01*
X292705Y55170D01*
X292780Y55116D01*
X292845Y55053D01*
X292893Y54995D01*
X292929Y54934D01*
X292957Y54877D01*
X292974Y54837D01*
X292982Y54807D01*
X292985Y54795D01*
X292997Y54702D01*
X292987Y54606D01*
X292972Y54519D01*
X292944Y54434D01*
X292918Y54362D01*
X292904Y54330D01*
X292891Y54307D01*
X292881Y54282D01*
X292866Y54255D01*
X292823Y54189D01*
X292780Y54133D01*
X292740Y54080D01*
X292697Y54033D01*
X292662Y53998D01*
X292633Y53974D01*
X292618Y53958D01*
X292610Y53952D01*
X292548Y53907D01*
X292485Y53867D01*
X292418Y53830D01*
X292351Y53803D01*
X292294Y53774D01*
X292250Y53759D01*
X292222Y53745D01*
X292210Y53742D01*
X292255Y53706D01*
X292292Y53674D01*
X292326Y53645D01*
X292354Y53614D01*
X292374Y53587D01*
X292392Y53566D01*
X292401Y53556D01*
X292403Y53550D01*
X292218Y53230D01*
X292162Y53308D01*
X292133Y53346D01*
X292109Y53374D01*
X292087Y53397D01*
X292066Y53414D01*
X292053Y53427D01*
X292050Y53429D01*
X292025Y53448D01*
X291997Y53470D01*
X291963Y53490D01*
X291923Y53517D01*
X291838Y53572D01*
X291743Y53627D01*
X291657Y53681D01*
X291619Y53703D01*
X291585Y53723D01*
X291559Y53738D01*
X291536Y53751D01*
X291521Y53760D01*
X291517Y53762D01*
X291106Y53999D01*
X291034Y54041D01*
X290979Y54078D01*
X290932Y54110D01*
X290894Y54132D01*
X290866Y54153D01*
X290849Y54168D01*
X290840Y54178D01*
X290836Y54181D01*
X290797Y54218D01*
X290764Y54258D01*
X290738Y54293D01*
X290717Y54325D01*
X290699Y54356D01*
X290690Y54376D01*
X290683Y54390D01*
X290682Y54396D01*
X290669Y54444D01*
X290660Y54490D01*
X290659Y54541D01*
X290660Y54586D01*
X290662Y54626D01*
X290662Y54661D01*
X290667Y54678D01*
X290668Y54688D01*
X290682Y54756D01*
X290702Y54826D01*
X290731Y54895D01*
X290759Y54960D01*
X290786Y55015D01*
X290806Y55060D01*
X290828Y55098D01*
X290880Y55179D01*
X290934Y55255D01*
X290981Y55318D01*
X291027Y55373D01*
X291071Y55413D01*
X291101Y55447D01*
X291111Y55456D01*
X291121Y55465D01*
X291127Y55467D01*
X291130Y55471D01*
X291191Y55516D01*
X291252Y55552D01*
X291312Y55584D01*
X291360Y55607D01*
X291404Y55622D01*
X291438Y55627D01*
X291462Y55634D01*
X291468Y55635D01*
X291533Y55643D01*
X291602Y55639D01*
D02*
G37*
G36*
X298298Y56741D02*
X297222Y54878D01*
X296930Y55047D01*
X297814Y56579D01*
X296962Y57071D01*
X296166Y55691D01*
X295873Y55860D01*
X296670Y57240D01*
X295902Y57683D01*
X295050Y56208D01*
X294757Y56377D01*
X295800Y58183D01*
X298298Y56741D01*
D02*
G37*
G36*
X295556Y55293D02*
X295575Y55292D01*
X295591Y55293D01*
X295601Y55292D01*
X295605Y55290D01*
X295706Y55272D01*
X295804Y55241D01*
X295893Y55210D01*
X295975Y55177D01*
X296044Y55147D01*
X296075Y55130D01*
X296100Y55121D01*
X296119Y55110D01*
X296134Y55101D01*
X296142Y55097D01*
X296146Y55094D01*
X296246Y55031D01*
X296331Y54967D01*
X296406Y54904D01*
X296467Y54843D01*
X296517Y54789D01*
X296539Y54766D01*
X296553Y54747D01*
X296564Y54731D01*
X296573Y54720D01*
X296579Y54712D01*
X296583Y54710D01*
X296635Y54624D01*
X296675Y54545D01*
X296704Y54463D01*
X296725Y54395D01*
X296739Y54331D01*
X296748Y54285D01*
X296754Y54251D01*
X296756Y54245D01*
X296753Y54242D01*
X296752Y54151D01*
X296741Y54061D01*
X296722Y53986D01*
X296700Y53912D01*
X296679Y53859D01*
X296659Y53815D01*
X296654Y53797D01*
X296641Y53774D01*
X296602Y53716D01*
X296561Y53663D01*
X296519Y53616D01*
X296472Y53578D01*
X296428Y53547D01*
X296381Y53518D01*
X296333Y53496D01*
X296290Y53475D01*
X296246Y53460D01*
X296208Y53446D01*
X296172Y53437D01*
X296144Y53432D01*
X296116Y53428D01*
X296098Y53423D01*
X296089Y53424D01*
X296083Y53422D01*
X296307Y53293D01*
X296142Y53008D01*
X293644Y54450D01*
X293822Y54758D01*
X294720Y54240D01*
X294699Y54292D01*
X294681Y54348D01*
X294672Y54404D01*
X294667Y54447D01*
X294662Y54491D01*
X294660Y54523D01*
X294661Y54542D01*
X294661Y54552D01*
X294667Y54615D01*
X294677Y54675D01*
X294694Y54731D01*
X294707Y54779D01*
X294727Y54823D01*
X294741Y54856D01*
X294756Y54883D01*
X294806Y54960D01*
X294865Y55028D01*
X294924Y55085D01*
X294978Y55135D01*
X295029Y55171D01*
X295070Y55198D01*
X295098Y55212D01*
X295104Y55214D01*
X295107Y55218D01*
X295193Y55254D01*
X295277Y55276D01*
X295361Y55289D01*
X295440Y55294D01*
X295507Y55296D01*
X295556Y55293D01*
D02*
G37*
G36*
X292001Y52854D02*
X291823Y52546D01*
X290877Y53092D01*
X290802Y53130D01*
X290736Y53164D01*
X290670Y53191D01*
X290610Y53211D01*
X290560Y53229D01*
X290522Y53242D01*
X290501Y53249D01*
X290491Y53249D01*
X290444Y53256D01*
X290401Y53261D01*
X290360Y53259D01*
X290326Y53253D01*
X290298Y53249D01*
X290274Y53243D01*
X290262Y53240D01*
X290256Y53238D01*
X290219Y53218D01*
X290187Y53197D01*
X290158Y53173D01*
X290135Y53151D01*
X290116Y53126D01*
X290101Y53110D01*
X290092Y53094D01*
X290072Y53050D01*
X290055Y53004D01*
X290045Y52960D01*
X290036Y52919D01*
X290032Y52886D01*
X290031Y52856D01*
X290029Y52837D01*
X290031Y52830D01*
X289686Y52883D01*
X289687Y52963D01*
X289693Y53036D01*
X289709Y53098D01*
X289720Y53152D01*
X289736Y53198D01*
X289750Y53231D01*
X289766Y53258D01*
X289791Y53293D01*
X289821Y53327D01*
X289848Y53357D01*
X289875Y53377D01*
X289906Y53395D01*
X289924Y53409D01*
X289938Y53416D01*
X289944Y53418D01*
X289991Y53437D01*
X290046Y53445D01*
X290108Y53455D01*
X290167Y53461D01*
X290218Y53462D01*
X290264Y53462D01*
X290295Y53464D01*
X290301Y53465D01*
X290031Y53621D01*
X290192Y53899D01*
X292001Y52854D01*
D02*
G37*
G36*
X294438Y53358D02*
X294458Y53357D01*
X294474Y53358D01*
X294484Y53357D01*
X294487Y53355D01*
X294589Y53337D01*
X294685Y53312D01*
X294774Y53281D01*
X294857Y53248D01*
X294922Y53221D01*
X294949Y53205D01*
X294973Y53196D01*
X294992Y53185D01*
X295008Y53176D01*
X295015Y53172D01*
X295019Y53170D01*
X295085Y53126D01*
X295152Y53083D01*
X295260Y52990D01*
X295306Y52938D01*
X295351Y52892D01*
X295389Y52844D01*
X295424Y52799D01*
X295455Y52756D01*
X295478Y52717D01*
X295497Y52681D01*
X295515Y52650D01*
X295531Y52625D01*
X295540Y52605D01*
X295545Y52597D01*
X295547Y52591D01*
X295568Y52523D01*
X295586Y52457D01*
X295594Y52392D01*
X295596Y52325D01*
X295596Y52264D01*
X295590Y52201D01*
X295583Y52144D01*
X295568Y52092D01*
X295553Y52040D01*
X295539Y51998D01*
X295525Y51955D01*
X295511Y51923D01*
X295499Y51894D01*
X295479Y51859D01*
X295445Y51809D01*
X295407Y51760D01*
X295367Y51717D01*
X295325Y51680D01*
X295236Y51614D01*
X295153Y51566D01*
X295078Y51534D01*
X295042Y51524D01*
X295014Y51510D01*
X294990Y51503D01*
X294972Y51499D01*
X294962Y51499D01*
X294956Y51498D01*
X295009Y51467D01*
X295059Y51438D01*
X295101Y51414D01*
X295142Y51390D01*
X295179Y51374D01*
X295213Y51354D01*
X295271Y51331D01*
X295311Y51313D01*
X295340Y51301D01*
X295357Y51297D01*
X295361Y51294D01*
X295425Y51283D01*
X295488Y51277D01*
X295539Y51278D01*
X295588Y51285D01*
X295630Y51296D01*
X295660Y51304D01*
X295681Y51313D01*
X295687Y51314D01*
X295743Y51342D01*
X295793Y51384D01*
X295839Y51429D01*
X295881Y51476D01*
X295917Y51521D01*
X295943Y51556D01*
X295963Y51591D01*
X295999Y51661D01*
X296024Y51732D01*
X296044Y51792D01*
X296049Y51845D01*
X296056Y51892D01*
X296057Y51921D01*
X296057Y51947D01*
X296055Y51953D01*
X296046Y51999D01*
X296029Y52039D01*
X296006Y52078D01*
X295980Y52113D01*
X295954Y52138D01*
X295936Y52159D01*
X295923Y52171D01*
X295915Y52176D01*
X296045Y52496D01*
X296098Y52465D01*
X296143Y52429D01*
X296219Y52360D01*
X296278Y52286D01*
X296319Y52216D01*
X296346Y52150D01*
X296363Y52100D01*
X296369Y52066D01*
X296374Y52058D01*
X296372Y52054D01*
X296375Y51945D01*
X296363Y51836D01*
X296335Y51735D01*
X296306Y51641D01*
X296276Y51562D01*
X296260Y51525D01*
X296245Y51499D01*
X296235Y51474D01*
X296217Y51443D01*
X296157Y51347D01*
X296095Y51266D01*
X296030Y51197D01*
X295971Y51140D01*
X295925Y51095D01*
X295884Y51068D01*
X295868Y51057D01*
X295858Y51048D01*
X295851Y51047D01*
X295849Y51043D01*
X295770Y51002D01*
X295692Y50972D01*
X295620Y50952D01*
X295552Y50941D01*
X295495Y50938D01*
X295451Y50933D01*
X295422Y50935D01*
X295416Y50933D01*
X295412Y50935D01*
X295369Y50940D01*
X295319Y50949D01*
X295216Y50982D01*
X295109Y51024D01*
X295007Y51068D01*
X294959Y51090D01*
X294911Y51113D01*
X294873Y51135D01*
X294837Y51151D01*
X294807Y51168D01*
X294788Y51179D01*
X294772Y51188D01*
X294769Y51190D01*
X293202Y52095D01*
X293365Y52376D01*
X293585Y52249D01*
X293561Y52313D01*
X293544Y52379D01*
X293536Y52444D01*
X293530Y52504D01*
X293529Y52565D01*
X293537Y52621D01*
X293542Y52674D01*
X293555Y52723D01*
X293577Y52806D01*
X293589Y52844D01*
X293601Y52873D01*
X293610Y52898D01*
X293628Y52929D01*
X293682Y53014D01*
X293743Y53085D01*
X293802Y53142D01*
X293862Y53194D01*
X293914Y53230D01*
X293954Y53257D01*
X293969Y53264D01*
X293983Y53271D01*
X293989Y53273D01*
X293991Y53276D01*
X294078Y53313D01*
X294162Y53335D01*
X294245Y53348D01*
X294322Y53359D01*
X294389Y53361D01*
X294438Y53358D01*
D02*
G37*
G36*
X289904Y52523D02*
X289924Y52522D01*
X289940Y52523D01*
X289950Y52523D01*
X289953Y52521D01*
X290055Y52503D01*
X290153Y52471D01*
X290242Y52440D01*
X290324Y52408D01*
X290393Y52378D01*
X290424Y52360D01*
X290449Y52351D01*
X290468Y52340D01*
X290483Y52331D01*
X290491Y52327D01*
X290494Y52325D01*
X290595Y52262D01*
X290679Y52198D01*
X290754Y52134D01*
X290816Y52073D01*
X290865Y52019D01*
X290888Y51996D01*
X290902Y51978D01*
X290913Y51961D01*
X290922Y51951D01*
X290928Y51943D01*
X290932Y51941D01*
X290983Y51855D01*
X291024Y51776D01*
X291052Y51693D01*
X291074Y51625D01*
X291088Y51561D01*
X291097Y51516D01*
X291103Y51482D01*
X291104Y51476D01*
X291102Y51472D01*
X291101Y51382D01*
X291089Y51292D01*
X291071Y51216D01*
X291049Y51143D01*
X291028Y51089D01*
X291007Y51045D01*
X291003Y51028D01*
X290989Y51005D01*
X290950Y50946D01*
X290910Y50893D01*
X290868Y50847D01*
X290820Y50808D01*
X290777Y50778D01*
X290730Y50749D01*
X290682Y50726D01*
X290639Y50705D01*
X290595Y50690D01*
X290557Y50677D01*
X290521Y50667D01*
X290493Y50663D01*
X290465Y50659D01*
X290447Y50654D01*
X290437Y50654D01*
X290431Y50653D01*
X290656Y50523D01*
X290491Y50238D01*
X287993Y51680D01*
X288171Y51988D01*
X289068Y51470D01*
X289048Y51523D01*
X289030Y51579D01*
X289021Y51634D01*
X289016Y51678D01*
X289011Y51722D01*
X289008Y51753D01*
X289010Y51773D01*
X289010Y51783D01*
X289016Y51845D01*
X289025Y51906D01*
X289043Y51961D01*
X289055Y52010D01*
X289076Y52054D01*
X289089Y52087D01*
X289105Y52113D01*
X289155Y52191D01*
X289214Y52258D01*
X289272Y52315D01*
X289327Y52365D01*
X289378Y52402D01*
X289419Y52429D01*
X289447Y52443D01*
X289453Y52444D01*
X289455Y52448D01*
X289542Y52484D01*
X289626Y52507D01*
X289709Y52519D01*
X289788Y52525D01*
X289855Y52526D01*
X289904Y52523D01*
D02*
G37*
G36*
X293292Y51389D02*
X293364Y51383D01*
X293438Y51370D01*
X293506Y51357D01*
X293635Y51317D01*
X293695Y51298D01*
X293749Y51277D01*
X293797Y51254D01*
X293837Y51236D01*
X293870Y51222D01*
X293896Y51207D01*
X293912Y51198D01*
X293915Y51196D01*
X293993Y51146D01*
X294065Y51095D01*
X294130Y51042D01*
X294186Y50989D01*
X294238Y50939D01*
X294284Y50887D01*
X294320Y50836D01*
X294353Y50786D01*
X294384Y50743D01*
X294409Y50699D01*
X294428Y50662D01*
X294440Y50630D01*
X294452Y50607D01*
X294461Y50587D01*
X294464Y50575D01*
X294466Y50569D01*
X294481Y50499D01*
X294491Y50428D01*
X294496Y50359D01*
X294492Y50290D01*
X294486Y50228D01*
X294475Y50164D01*
X294448Y50047D01*
X294431Y49991D01*
X294414Y49945D01*
X294396Y49905D01*
X294380Y49868D01*
X294369Y49839D01*
X294347Y49801D01*
X294273Y49692D01*
X294201Y49602D01*
X294122Y49526D01*
X294054Y49469D01*
X294019Y49444D01*
X293992Y49424D01*
X293963Y49409D01*
X293941Y49397D01*
X293922Y49382D01*
X293908Y49375D01*
X293899Y49376D01*
X293896Y49372D01*
X293796Y49339D01*
X293689Y49320D01*
X293590Y49316D01*
X293500Y49317D01*
X293418Y49324D01*
X293384Y49328D01*
X293357Y49334D01*
X293334Y49337D01*
X293316Y49342D01*
X293306Y49343D01*
X293303Y49345D01*
X293443Y49685D01*
X293529Y49675D01*
X293607Y49671D01*
X293674Y49673D01*
X293730Y49681D01*
X293779Y49688D01*
X293812Y49700D01*
X293836Y49706D01*
X293842Y49708D01*
X293899Y49736D01*
X293946Y49774D01*
X293990Y49815D01*
X294027Y49854D01*
X294057Y49888D01*
X294078Y49916D01*
X294096Y49946D01*
X294134Y50030D01*
X294161Y50112D01*
X294172Y50191D01*
X294174Y50266D01*
X294172Y50323D01*
X294165Y50373D01*
X294161Y50401D01*
X294157Y50413D01*
X294121Y50499D01*
X294069Y50585D01*
X294009Y50656D01*
X293950Y50720D01*
X293890Y50775D01*
X293866Y50794D01*
X293841Y50813D01*
X293822Y50824D01*
X293805Y50839D01*
X293798Y50843D01*
X293794Y50845D01*
X293017Y49500D01*
X292981Y49516D01*
X292954Y49531D01*
X292939Y49540D01*
X292935Y49542D01*
X292853Y49594D01*
X292782Y49646D01*
X292716Y49699D01*
X292658Y49747D01*
X292604Y49804D01*
X292558Y49856D01*
X292522Y49907D01*
X292484Y49955D01*
X292455Y50002D01*
X292434Y50044D01*
X292415Y50081D01*
X292397Y50111D01*
X292387Y50137D01*
X292378Y50158D01*
X292375Y50170D01*
X292373Y50176D01*
X292354Y50248D01*
X292342Y50315D01*
X292336Y50384D01*
X292338Y50449D01*
X292340Y50514D01*
X292350Y50574D01*
X292372Y50683D01*
X292387Y50735D01*
X292401Y50778D01*
X292420Y50818D01*
X292433Y50850D01*
X292445Y50879D01*
X292464Y50914D01*
X292508Y50980D01*
X292553Y51040D01*
X292599Y51094D01*
X292647Y51143D01*
X292703Y51186D01*
X292751Y51225D01*
X292800Y51257D01*
X292847Y51286D01*
X292895Y51309D01*
X292936Y51326D01*
X292972Y51345D01*
X293004Y51357D01*
X293035Y51365D01*
X293053Y51370D01*
X293064Y51373D01*
X293071Y51375D01*
X293144Y51388D01*
X293217Y51392D01*
X293292Y51389D01*
D02*
G37*
%LPC*%
G36*
X293172Y59974D02*
X292832Y59385D01*
X292793Y59301D01*
X292760Y59234D01*
X292737Y59176D01*
X292722Y59134D01*
X292711Y59105D01*
X292707Y59082D01*
X292705Y59078D01*
X292699Y59031D01*
X292698Y58986D01*
X292703Y58942D01*
X292709Y58908D01*
X292721Y58876D01*
X292727Y58852D01*
X292734Y58838D01*
X292736Y58832D01*
X292763Y58791D01*
X292792Y58754D01*
X292820Y58723D01*
X292849Y58696D01*
X292878Y58674D01*
X292898Y58657D01*
X292917Y58646D01*
X292921Y58644D01*
X292973Y58619D01*
X293019Y58603D01*
X293061Y58588D01*
X293098Y58582D01*
X293134Y58582D01*
X293157Y58579D01*
X293173Y58580D01*
X293179Y58581D01*
X293225Y58590D01*
X293269Y58605D01*
X293309Y58623D01*
X293342Y58644D01*
X293375Y58666D01*
X293395Y58684D01*
X293408Y58697D01*
X293414Y58699D01*
X293446Y58736D01*
X293480Y58778D01*
X293514Y58829D01*
X293549Y58880D01*
X293579Y58923D01*
X293932Y59535D01*
X293172Y59974D01*
D02*
G37*
G36*
X294225Y59366D02*
X293845Y58709D01*
X293809Y58628D01*
X293778Y58565D01*
X293755Y58507D01*
X293740Y58465D01*
X293730Y58430D01*
X293725Y58413D01*
X293725Y58403D01*
X293718Y58346D01*
X293718Y58295D01*
X293721Y58248D01*
X293733Y58206D01*
X293742Y58170D01*
X293746Y58142D01*
X293757Y58126D01*
X293759Y58120D01*
X293782Y58071D01*
X293812Y58028D01*
X293848Y57992D01*
X293879Y57959D01*
X293907Y57938D01*
X293932Y57919D01*
X293947Y57910D01*
X293954Y57905D01*
X294002Y57883D01*
X294043Y57865D01*
X294085Y57850D01*
X294120Y57840D01*
X294153Y57836D01*
X294176Y57833D01*
X294190Y57830D01*
X294196Y57832D01*
X294237Y57833D01*
X294281Y57838D01*
X294315Y57844D01*
X294347Y57856D01*
X294377Y57864D01*
X294395Y57869D01*
X294405Y57878D01*
X294411Y57880D01*
X294477Y57923D01*
X294531Y57973D01*
X294554Y57995D01*
X294571Y58016D01*
X294584Y58029D01*
X294586Y58033D01*
X294605Y58057D01*
X294628Y58089D01*
X294676Y58163D01*
X295084Y58870D01*
X294225Y59366D01*
D02*
G37*
G36*
X292685Y57209D02*
X292660Y57208D01*
X292644Y57207D01*
X292628Y57206D01*
X292616Y57203D01*
X292568Y57190D01*
X292524Y57175D01*
X292441Y57137D01*
X292373Y57090D01*
X292319Y57040D01*
X292273Y56995D01*
X292245Y56956D01*
X292233Y56943D01*
X292196Y56878D01*
X292181Y56836D01*
X292159Y56752D01*
X292152Y56670D01*
X292149Y56596D01*
X292155Y56536D01*
X292166Y56485D01*
X292174Y56454D01*
X292174Y56445D01*
X292177Y56442D01*
X292219Y56348D01*
X292277Y56264D01*
X292349Y56186D01*
X292418Y56121D01*
X292487Y56066D01*
X292515Y56045D01*
X292542Y56029D01*
X292566Y56010D01*
X292582Y56001D01*
X292593Y55995D01*
X292597Y55993D01*
X292661Y55955D01*
X292727Y55928D01*
X292788Y55902D01*
X292842Y55881D01*
X292898Y55864D01*
X292952Y55853D01*
X292997Y55843D01*
X293040Y55838D01*
X293079Y55836D01*
X293112Y55832D01*
X293144Y55834D01*
X293169Y55834D01*
X293189Y55833D01*
X293205Y55834D01*
X293213Y55840D01*
X293217Y55837D01*
X293265Y55850D01*
X293309Y55865D01*
X293386Y55902D01*
X293454Y55949D01*
X293508Y55999D01*
X293554Y56043D01*
X293582Y56083D01*
X293594Y56096D01*
X293607Y56119D01*
X293628Y56163D01*
X293648Y56207D01*
X293671Y56290D01*
X293684Y56374D01*
X293680Y56447D01*
X293676Y56510D01*
X293669Y56559D01*
X293661Y56590D01*
X293658Y56602D01*
X293639Y56648D01*
X293614Y56693D01*
X293553Y56779D01*
X293478Y56852D01*
X293406Y56919D01*
X293336Y56975D01*
X293304Y56998D01*
X293278Y57014D01*
X293257Y57031D01*
X293238Y57042D01*
X293227Y57048D01*
X293223Y57051D01*
X293158Y57088D01*
X293097Y57113D01*
X293035Y57138D01*
X292981Y57159D01*
X292925Y57177D01*
X292877Y57189D01*
X292830Y57196D01*
X292787Y57200D01*
X292750Y57207D01*
X292715Y57207D01*
X292685Y57209D01*
D02*
G37*
G36*
X292355Y54890D02*
X292343Y54887D01*
X292340Y54889D01*
X292272Y54877D01*
X292220Y54857D01*
X292200Y54848D01*
X292183Y54837D01*
X292171Y54834D01*
X292169Y54830D01*
X292138Y54803D01*
X292102Y54767D01*
X292033Y54691D01*
X292001Y54654D01*
X291974Y54624D01*
X291957Y54603D01*
X291952Y54595D01*
X291906Y54541D01*
X291865Y54488D01*
X291823Y54442D01*
X291787Y54397D01*
X291749Y54358D01*
X291716Y54326D01*
X291686Y54293D01*
X291659Y54263D01*
X291630Y54239D01*
X291609Y54221D01*
X291592Y54200D01*
X291574Y54185D01*
X291563Y54176D01*
X291553Y54167D01*
X291545Y54162D01*
X291659Y54096D01*
X291733Y54058D01*
X291796Y54027D01*
X291854Y54003D01*
X291904Y53985D01*
X291945Y53976D01*
X291972Y53971D01*
X291989Y53966D01*
X291995Y53967D01*
X292060Y53966D01*
X292122Y53976D01*
X292179Y53988D01*
X292224Y54003D01*
X292268Y54018D01*
X292298Y54036D01*
X292319Y54044D01*
X292327Y54050D01*
X292384Y54088D01*
X292434Y54130D01*
X292476Y54176D01*
X292510Y54218D01*
X292544Y54259D01*
X292565Y54287D01*
X292583Y54318D01*
X292616Y54384D01*
X292639Y54442D01*
X292653Y54500D01*
X292659Y54547D01*
X292666Y54584D01*
X292661Y54612D01*
X292663Y54632D01*
X292661Y54637D01*
X292644Y54688D01*
X292623Y54730D01*
X292598Y54765D01*
X292574Y54794D01*
X292548Y54819D01*
X292527Y54836D01*
X292512Y54845D01*
X292508Y54847D01*
X292476Y54861D01*
X292447Y54873D01*
X292392Y54884D01*
X292369Y54887D01*
X292355Y54890D01*
D02*
G37*
G36*
X295399Y54952D02*
X295381Y54947D01*
X295368Y54950D01*
X295356Y54947D01*
X295310Y54938D01*
X295268Y54927D01*
X295197Y54892D01*
X295134Y54852D01*
X295080Y54812D01*
X295043Y54773D01*
X295017Y54737D01*
X295004Y54724D01*
X294971Y54667D01*
X294957Y54625D01*
X294936Y54545D01*
X294932Y54467D01*
X294934Y54400D01*
X294940Y54341D01*
X294953Y54293D01*
X294961Y54263D01*
X294960Y54253D01*
X294964Y54251D01*
X294983Y54204D01*
X295008Y54159D01*
X295075Y54075D01*
X295151Y53996D01*
X295230Y53930D01*
X295307Y53870D01*
X295339Y53847D01*
X295370Y53829D01*
X295394Y53810D01*
X295413Y53799D01*
X295424Y53792D01*
X295428Y53790D01*
X295489Y53755D01*
X295550Y53730D01*
X295606Y53703D01*
X295662Y53686D01*
X295714Y53671D01*
X295762Y53658D01*
X295807Y53647D01*
X295844Y53641D01*
X295883Y53639D01*
X295916Y53635D01*
X295942Y53635D01*
X295968Y53636D01*
X295986Y53641D01*
X295999Y53638D01*
X296007Y53643D01*
X296011Y53641D01*
X296057Y53650D01*
X296095Y53663D01*
X296172Y53700D01*
X296232Y53742D01*
X296285Y53782D01*
X296323Y53821D01*
X296349Y53857D01*
X296361Y53870D01*
X296372Y53889D01*
X296390Y53929D01*
X296406Y53965D01*
X296427Y54045D01*
X296433Y54117D01*
X296427Y54186D01*
X296421Y54246D01*
X296412Y54291D01*
X296404Y54321D01*
X296401Y54334D01*
X296382Y54380D01*
X296357Y54425D01*
X296297Y54505D01*
X296225Y54582D01*
X296150Y54646D01*
X296077Y54703D01*
X296049Y54724D01*
X296018Y54742D01*
X295998Y54759D01*
X295979Y54770D01*
X295967Y54777D01*
X295963Y54779D01*
X295899Y54816D01*
X295834Y54844D01*
X295774Y54873D01*
X295714Y54892D01*
X295665Y54911D01*
X295612Y54926D01*
X295566Y54932D01*
X295525Y54941D01*
X295488Y54947D01*
X295452Y54947D01*
X295423Y54949D01*
X295399Y54952D01*
D02*
G37*
G36*
X294333Y53018D02*
X294308Y53017D01*
X294282Y53017D01*
X294264Y53012D01*
X294251Y53015D01*
X294239Y53012D01*
X294193Y53003D01*
X294149Y52988D01*
X294078Y52953D01*
X294012Y52909D01*
X293959Y52869D01*
X293919Y52826D01*
X293893Y52791D01*
X293880Y52778D01*
X293847Y52721D01*
X293833Y52678D01*
X293813Y52599D01*
X293804Y52523D01*
X293806Y52456D01*
X293816Y52394D01*
X293825Y52348D01*
X293833Y52318D01*
X293833Y52308D01*
X293836Y52306D01*
X293855Y52260D01*
X293876Y52217D01*
X293934Y52133D01*
X294002Y52058D01*
X294074Y51997D01*
X294143Y51942D01*
X294171Y51920D01*
X294202Y51903D01*
X294222Y51886D01*
X294237Y51877D01*
X294249Y51871D01*
X294253Y51868D01*
X294314Y51833D01*
X294379Y51806D01*
X294434Y51779D01*
X294490Y51762D01*
X294542Y51747D01*
X294591Y51734D01*
X294635Y51723D01*
X294678Y51719D01*
X294718Y51716D01*
X294751Y51713D01*
X294776Y51713D01*
X294802Y51713D01*
X294818Y51714D01*
X294833Y51715D01*
X294842Y51721D01*
X294846Y51719D01*
X294932Y51745D01*
X295003Y51780D01*
X295068Y51823D01*
X295118Y51866D01*
X295158Y51908D01*
X295186Y51948D01*
X295198Y51961D01*
X295209Y51980D01*
X295227Y52020D01*
X295246Y52060D01*
X295266Y52140D01*
X295275Y52216D01*
X295273Y52283D01*
X295270Y52340D01*
X295261Y52386D01*
X295253Y52416D01*
X295250Y52428D01*
X295229Y52470D01*
X295208Y52513D01*
X295148Y52593D01*
X295076Y52671D01*
X295001Y52734D01*
X294931Y52789D01*
X294899Y52813D01*
X294869Y52830D01*
X294848Y52847D01*
X294829Y52858D01*
X294818Y52865D01*
X294814Y52867D01*
X294696Y52925D01*
X294584Y52969D01*
X294536Y52982D01*
X294487Y52995D01*
X294443Y53005D01*
X294404Y53008D01*
X294367Y53014D01*
X294333Y53018D01*
D02*
G37*
G36*
X289748Y52183D02*
X289730Y52178D01*
X289717Y52181D01*
X289705Y52177D01*
X289659Y52168D01*
X289617Y52157D01*
X289546Y52122D01*
X289483Y52083D01*
X289429Y52043D01*
X289391Y52004D01*
X289366Y51968D01*
X289353Y51955D01*
X289320Y51898D01*
X289306Y51855D01*
X289285Y51776D01*
X289281Y51697D01*
X289282Y51630D01*
X289289Y51571D01*
X289301Y51523D01*
X289310Y51493D01*
X289309Y51483D01*
X289313Y51481D01*
X289332Y51435D01*
X289356Y51390D01*
X289424Y51305D01*
X289500Y51226D01*
X289579Y51160D01*
X289656Y51101D01*
X289688Y51077D01*
X289718Y51060D01*
X289743Y51040D01*
X289762Y51029D01*
X289773Y51023D01*
X289777Y51020D01*
X289838Y50985D01*
X289899Y50960D01*
X289954Y50933D01*
X290010Y50916D01*
X290063Y50901D01*
X290111Y50888D01*
X290156Y50878D01*
X290193Y50872D01*
X290232Y50869D01*
X290265Y50865D01*
X290291Y50866D01*
X290316Y50866D01*
X290334Y50871D01*
X290348Y50868D01*
X290356Y50874D01*
X290360Y50871D01*
X290406Y50880D01*
X290444Y50894D01*
X290521Y50931D01*
X290580Y50972D01*
X290634Y51012D01*
X290672Y51051D01*
X290697Y51087D01*
X290710Y51100D01*
X290721Y51119D01*
X290739Y51160D01*
X290755Y51196D01*
X290775Y51275D01*
X290782Y51348D01*
X290776Y51417D01*
X290770Y51476D01*
X290761Y51522D01*
X290753Y51552D01*
X290750Y51564D01*
X290731Y51610D01*
X290706Y51655D01*
X290646Y51736D01*
X290574Y51812D01*
X290499Y51876D01*
X290426Y51933D01*
X290397Y51955D01*
X290367Y51973D01*
X290346Y51989D01*
X290327Y52000D01*
X290316Y52007D01*
X290312Y52009D01*
X290248Y52047D01*
X290182Y52074D01*
X290123Y52103D01*
X290063Y52122D01*
X290013Y52141D01*
X289961Y52156D01*
X289914Y52163D01*
X289873Y52171D01*
X289836Y52177D01*
X289801Y52178D01*
X289772Y52179D01*
X289748Y52183D01*
D02*
G37*
G36*
X293208Y51052D02*
X293147Y51051D01*
X293104Y51046D01*
X293076Y51042D01*
X293064Y51039D01*
X292982Y51010D01*
X292912Y50969D01*
X292853Y50928D01*
X292805Y50879D01*
X292765Y50836D01*
X292737Y50797D01*
X292724Y50784D01*
X292713Y50765D01*
X292693Y50721D01*
X292673Y50677D01*
X292650Y50594D01*
X292643Y50511D01*
X292644Y50435D01*
X292654Y50373D01*
X292661Y50323D01*
X292673Y50291D01*
X292672Y50282D01*
X292676Y50279D01*
X292702Y50219D01*
X292746Y50163D01*
X292790Y50107D01*
X292834Y50061D01*
X292877Y50021D01*
X292915Y49990D01*
X292930Y49981D01*
X292939Y49970D01*
X292947Y49966D01*
X292950Y49964D01*
X293534Y50975D01*
X293444Y51012D01*
X293357Y51037D01*
X293277Y51048D01*
X293208Y51052D01*
D02*
G37*
%LPD*%
D10*
X283682Y39574D02*
X301399Y70260D01*
X298272Y68656D02*
X302139Y66424D01*
X283508Y43084D02*
X287375Y40852D01*
D78*
X185534Y394965D02*
X186187Y395341D01*
X173526Y347914D02*
X185534Y394965D01*
X129161Y392471D02*
X173526Y347914D01*
X38717Y391650D02*
X129161Y392471D01*
X38717Y391650D02*
X83230Y312910D01*
X143998Y296771D01*
X109254Y262843D02*
X143998Y296771D01*
X109254Y262091D02*
Y262843D01*
Y262091D02*
X143998Y228164D01*
X83230Y212024D02*
X143998Y228164D01*
X38717Y133284D02*
X83230Y212024D01*
X38717Y133284D02*
X129161Y132464D01*
X173526Y177020D01*
X185534Y129969D01*
X186187Y129593D01*
X232939Y142717D01*
X216535Y82021D02*
X232939Y142717D01*
X216535Y82021D02*
X262467Y4101D01*
X308399Y82021D01*
X291995Y142717D02*
X308399Y82021D01*
X291995Y142717D02*
X338747Y129593D01*
X339401Y129969D01*
X351409Y177020D01*
X395773Y132464D01*
X486218Y133284D01*
X441705Y212024D02*
X486218Y133284D01*
X380936Y228164D02*
X441705Y212024D01*
X380936Y228164D02*
X415680Y262091D01*
Y262843D01*
X380936Y296771D02*
X415680Y262843D01*
X380936Y296771D02*
X441705Y312910D01*
X486218Y391650D01*
X395773Y392471D02*
X486218Y391650D01*
X351409Y347914D02*
X395773Y392471D01*
X339401Y394965D02*
X351409Y347914D01*
X338747Y395341D02*
X339401Y394965D01*
X291995Y382218D02*
X338747Y395341D01*
X291995Y382218D02*
X308399Y442913D01*
X262467Y520833D02*
X308399Y442913D01*
X216535D02*
X262467Y520833D01*
X216535Y442913D02*
X232939Y382218D01*
X186187Y395341D02*
X232939Y382218D01*
D79*
X185534Y394965D02*
X186187Y395341D01*
X173526Y347914D02*
X185534Y394965D01*
X129161Y392471D02*
X173526Y347914D01*
X38717Y391650D02*
X129161Y392471D01*
X38717Y391650D02*
X83230Y312910D01*
X143998Y296771D01*
X109254Y262843D02*
X143998Y296771D01*
X109254Y262091D02*
Y262843D01*
Y262091D02*
X143998Y228164D01*
X83230Y212024D02*
X143998Y228164D01*
X38717Y133284D02*
X83230Y212024D01*
X38717Y133284D02*
X129161Y132464D01*
X173526Y177020D01*
X185534Y129969D01*
X186187Y129593D01*
X232939Y142717D01*
X216535Y82021D02*
X232939Y142717D01*
X216535Y82021D02*
X262467Y4101D01*
X308399Y82021D01*
X291995Y142717D02*
X308399Y82021D01*
X291995Y142717D02*
X338747Y129593D01*
X339401Y129969D01*
X351409Y177020D01*
X395773Y132464D01*
X486218Y133284D01*
X441705Y212024D02*
X486218Y133284D01*
X380936Y228164D02*
X441705Y212024D01*
X380936Y228164D02*
X415680Y262091D01*
Y262843D01*
X380936Y296771D02*
X415680Y262843D01*
X380936Y296771D02*
X441705Y312910D01*
X486218Y391650D01*
X395773Y392471D02*
X486218Y391650D01*
X351409Y347914D02*
X395773Y392471D01*
X339401Y394965D02*
X351409Y347914D01*
X338747Y395341D02*
X339401Y394965D01*
X291995Y382218D02*
X338747Y395341D01*
X291995Y382218D02*
X308399Y442913D01*
X262467Y520833D02*
X308399Y442913D01*
X216535D02*
X262467Y520833D01*
X216535Y442913D02*
X232939Y382218D01*
X186187Y395341D02*
X232939Y382218D01*
M02*
