G04*
G04 #@! TF.GenerationSoftware,Altium Limited,Altium Designer,18.1.9 (240)*
G04*
G04 Layer_Color=255*
%FSLAX25Y25*%
%MOIN*%
G70*
G01*
G75*
%ADD14R,0.03347X0.03150*%
%ADD30C,0.03937*%
%ADD31C,0.04921*%
%ADD32C,0.06102*%
%ADD33C,0.06000*%
%ADD36R,0.05512X0.04724*%
%ADD37R,0.03150X0.03347*%
%ADD38R,0.03150X0.03543*%
G04:AMPARAMS|DCode=39|XSize=15.75mil|YSize=53.15mil|CornerRadius=0mil|HoleSize=0mil|Usage=FLASHONLY|Rotation=240.000|XOffset=0mil|YOffset=0mil|HoleType=Round|Shape=Rectangle|*
%AMROTATEDRECTD39*
4,1,4,-0.01908,0.02011,0.02695,-0.00647,0.01908,-0.02011,-0.02695,0.00647,-0.01908,0.02011,0.0*
%
%ADD39ROTATEDRECTD39*%

G04:AMPARAMS|DCode=40|XSize=59.06mil|YSize=61.02mil|CornerRadius=0mil|HoleSize=0mil|Usage=FLASHONLY|Rotation=240.000|XOffset=0mil|YOffset=0mil|HoleType=Round|Shape=Rectangle|*
%AMROTATEDRECTD40*
4,1,4,-0.01166,0.04083,0.04119,0.01032,0.01166,-0.04083,-0.04119,-0.01032,-0.01166,0.04083,0.0*
%
%ADD40ROTATEDRECTD40*%

%ADD41R,0.02165X0.02953*%
%ADD42R,0.07874X0.07874*%
%ADD43R,0.07874X0.07874*%
%ADD44R,0.03858X0.01890*%
%ADD45R,0.03858X0.02677*%
%ADD46R,0.06693X0.03150*%
%ADD47O,0.05512X0.01181*%
%ADD48O,0.01181X0.05512*%
G04:AMPARAMS|DCode=49|XSize=33.47mil|YSize=31.5mil|CornerRadius=0mil|HoleSize=0mil|Usage=FLASHONLY|Rotation=45.000|XOffset=0mil|YOffset=0mil|HoleType=Round|Shape=Rectangle|*
%AMROTATEDRECTD49*
4,1,4,-0.00070,-0.02297,-0.02297,-0.00070,0.00070,0.02297,0.02297,0.00070,-0.00070,-0.02297,0.0*
%
%ADD49ROTATEDRECTD49*%

G04:AMPARAMS|DCode=50|XSize=64.96mil|YSize=61.02mil|CornerRadius=0mil|HoleSize=0mil|Usage=FLASHONLY|Rotation=135.000|XOffset=0mil|YOffset=0mil|HoleType=Round|Shape=Rectangle|*
%AMROTATEDRECTD50*
4,1,4,0.04454,-0.00139,0.00139,-0.04454,-0.04454,0.00139,-0.00139,0.04454,0.04454,-0.00139,0.0*
%
%ADD50ROTATEDRECTD50*%

%ADD51R,0.03543X0.03150*%
%ADD52R,0.03740X0.02362*%
%ADD53R,0.03937X0.13780*%
%ADD54R,0.05906X0.13386*%
D14*
X245729Y220685D02*
D03*
Y226196D02*
D03*
X260500Y292256D02*
D03*
Y286744D02*
D03*
X233500Y263012D02*
D03*
Y257500D02*
D03*
X289500Y267209D02*
D03*
Y261697D02*
D03*
X225000Y187256D02*
D03*
Y181744D02*
D03*
D30*
X210000Y174358D02*
D03*
Y201130D02*
D03*
D31*
X282971Y71807D02*
D03*
X273129Y54760D02*
D03*
D32*
X294316Y69804D02*
D03*
X280537Y45937D02*
D03*
D33*
X189500Y136500D02*
D03*
X117000Y262467D02*
D03*
X189500Y389000D02*
D03*
X335500Y388500D02*
D03*
X408000Y262500D02*
D03*
X335500Y136000D02*
D03*
D36*
X218661Y187744D02*
D03*
X201339Y177902D02*
D03*
Y197587D02*
D03*
D37*
X274210Y36756D02*
D03*
X268698D02*
D03*
X246668Y239282D02*
D03*
X252180D02*
D03*
X227756Y260601D02*
D03*
X222244D02*
D03*
X235163Y190722D02*
D03*
X240674D02*
D03*
D38*
X274171Y41531D02*
D03*
X268265D02*
D03*
X268641Y219000D02*
D03*
X274546D02*
D03*
X274434Y224168D02*
D03*
X268528D02*
D03*
X268392Y229000D02*
D03*
X274298D02*
D03*
D39*
X275661Y58753D02*
D03*
X276941Y60969D02*
D03*
X278221Y63185D02*
D03*
X279500Y65401D02*
D03*
X280780Y67617D02*
D03*
D40*
X285458Y54461D02*
D03*
X289395Y61280D02*
D03*
D41*
X258795Y220677D02*
D03*
X255055D02*
D03*
X251315D02*
D03*
Y230323D02*
D03*
X255055D02*
D03*
X258795D02*
D03*
D42*
X321500Y236000D02*
D03*
X225055Y299500D02*
D03*
X213000D02*
D03*
X321500Y223000D02*
D03*
X213000Y287000D02*
D03*
Y275000D02*
D03*
Y247000D02*
D03*
Y235457D02*
D03*
Y222889D02*
D03*
Y260000D02*
D03*
D43*
X225055Y222889D02*
D03*
X169500Y280000D02*
D03*
Y269421D02*
D03*
Y247500D02*
D03*
Y258500D02*
D03*
Y236500D02*
D03*
D44*
X307004Y235425D02*
D03*
Y238575D02*
D03*
X300351D02*
D03*
Y235425D02*
D03*
X300173Y273955D02*
D03*
Y277105D02*
D03*
X306827D02*
D03*
Y273955D02*
D03*
X300350Y254396D02*
D03*
Y257545D02*
D03*
X307004D02*
D03*
Y254396D02*
D03*
D45*
X307004Y231882D02*
D03*
Y242118D02*
D03*
X300351D02*
D03*
Y231882D02*
D03*
X300173Y270412D02*
D03*
Y280648D02*
D03*
X306827D02*
D03*
Y270412D02*
D03*
X300350Y250853D02*
D03*
Y261089D02*
D03*
X307004D02*
D03*
Y250853D02*
D03*
D46*
X180532Y244000D02*
D03*
Y230614D02*
D03*
D47*
X247465Y273327D02*
D03*
Y271358D02*
D03*
Y269390D02*
D03*
Y267421D02*
D03*
Y265453D02*
D03*
Y263484D02*
D03*
Y261516D02*
D03*
Y259547D02*
D03*
Y257579D02*
D03*
Y255610D02*
D03*
Y253642D02*
D03*
Y251673D02*
D03*
X280535D02*
D03*
Y253642D02*
D03*
Y255610D02*
D03*
Y257579D02*
D03*
Y259547D02*
D03*
Y261516D02*
D03*
Y263484D02*
D03*
Y265453D02*
D03*
Y267421D02*
D03*
Y269390D02*
D03*
Y271358D02*
D03*
Y273327D02*
D03*
D48*
X253173Y245965D02*
D03*
X255142D02*
D03*
X257110D02*
D03*
X259079D02*
D03*
X261047D02*
D03*
X263016D02*
D03*
X264984D02*
D03*
X266953D02*
D03*
X268921D02*
D03*
X270890D02*
D03*
X272858D02*
D03*
X274827D02*
D03*
Y279035D02*
D03*
X272858D02*
D03*
X270890D02*
D03*
X268921D02*
D03*
X266953D02*
D03*
X264984D02*
D03*
X263016D02*
D03*
X261047D02*
D03*
X259079D02*
D03*
X257110D02*
D03*
X255142D02*
D03*
X253173D02*
D03*
D49*
X239248Y281207D02*
D03*
X235351Y285104D02*
D03*
X255512Y297470D02*
D03*
X251614Y301367D02*
D03*
D50*
X242302Y287451D02*
D03*
X249401Y294549D02*
D03*
D51*
X176500Y255953D02*
D03*
Y250047D02*
D03*
D52*
X235383Y177482D02*
D03*
Y184962D02*
D03*
X243454Y181222D02*
D03*
D53*
X274626Y193850D02*
D03*
X266752D02*
D03*
D54*
X257500Y172000D02*
D03*
X283878D02*
D03*
M02*
