M48
;Layer_Color=9474304
;FILE_FORMAT=2:5
INCH,TZ
;TYPE=PLATED
T1F00S00C0.01200
T2F00S00C0.03000
T3F00S00C0.03346
T4F00S00C0.03500
T5F00S00C0.03937
T6F00S00C0.04528
%
T01
X45417Y137315
X57974Y144565
X69287Y136276
X71831Y152565
X98285Y147439
X95114Y136124
X121148Y136335
X124320Y147651
X244728Y123029
X236514Y114624
X262500Y116500
Y102500
Y86500
Y73000
Y56500
Y42500
Y26500
Y12000
X249666Y32153
X275690Y31945
X239000Y53943
X244834Y62848
X245000Y92926
X232000Y85500
X223786Y77096
X280000Y92926
X292260Y86000
X301425Y77096
X285458Y112500
X280272Y123029
X262500Y133181
X403598Y136199
X400427Y147515
X426462Y147303
X431256Y137799
X455460Y136140
X452916Y152428
X466772Y144429
X479330Y137179
X468652Y158574
X440792Y159429
X444024Y178084
X455946Y180563
X442418Y203437
X430927Y200342
X417996Y192797
X414811Y174428
X426502Y167678
X400496Y162486
X400954Y182429
X388830Y189429
X392062Y208084
X403447Y210995
X374384Y197769
X374290Y177302
X377462Y165986
X324000Y191452
X321500Y194747
Y246864
X321000Y283000
X319500Y290000
X365500Y262500
X298000Y265187
X268989Y239000
X268809Y236000
X268763Y232852
X249377Y235000
X241778Y234500
X238671Y236500
X234000Y234500
X230320Y244000
X228500Y257000
X204500Y303500
X185328Y213500
X183000Y211131
X303707Y211793
X308800Y210995
X308796Y214159
X312093Y210399
X308413Y199582
X305500Y187797
Y176216
X150457Y177438
X147285Y166123
X124251Y162622
X123792Y182565
X135917Y189565
X132685Y208220
X121299Y211131
X106751Y192933
X93820Y200479
X82320Y207057
X80723Y178220
X69991Y178638
X83955Y159565
X98245Y167815
X109936Y174565
X150363Y197905
X56453Y158506
X82468Y321604
X93854Y324515
X106785Y332060
X109970Y350429
X98278Y357178
X98529Y377555
X93525Y387059
X69321Y388717
X71865Y372428
X83989Y365429
X80653Y346956
X69268Y344044
X56486Y366488
X58008Y380429
X45451Y387679
X124195Y390408
X124354Y377342
X124285Y362371
X123826Y342428
X135951Y335429
X132719Y316774
X121333Y313862
X150397Y327088
X150490Y347555
X147319Y358871
X199500Y340500
X199000Y324191
X221500Y322746
X251716Y325080
X271345Y324515
X266750Y355693
X274298Y363000
X295500Y348500
X229927Y347555
X244728Y401971
X236514Y410376
X262500Y408500
Y422500
Y438500
Y452000
Y468500
X244834Y462152
X245000Y432074
X232000Y439500
X223786Y447904
X270772Y430500
X280000Y432074
X293000Y439500
X304447Y446170
X280272Y461972
X288486Y410376
X280272Y401971
X262500Y391819
X403459Y388977
X400393Y377479
X400462Y362507
X400920Y342565
X388796Y335565
X392028Y316910
X403414Y313999
X417962Y332196
X430893Y324651
X442278Y321740
X444094Y347092
X454722Y346492
X452882Y372565
X440758Y365565
X426468Y357315
X414777Y350565
X426218Y377691
X430032Y389256
X455428Y389265
X466739Y380565
X468260Y366624
X377428Y359007
X374256Y347691
X374350Y327224
X479296Y387815
X286000Y471057
X275334Y492847
X262500Y498500
Y482500
X249666Y492847
X236620Y470557
T02
X262500Y514500
T03
X273129Y54760
X282971Y71807
T04
X189500Y136500
X335500Y136000
X408000Y262500
X117000Y262467
X189500Y389000
X335500Y388500
T05
X210000Y174358
Y201130
T06
X280537Y45937
X294316Y69804
M30
